<svg width="46" height="45" viewBox="0 0 46 45" fill="none" xmlns="http://www.w3.org/2000/svg">
<path d="M40.2694 19.2C37.7979 15.1875 32.28 8.4375 22.9878 8.4375C13.7148 8.4375 8.17788 15.1875 5.72551 19.2C4.48017 21.2437 4.48017 23.7563 5.72551 25.7812C8.17788 29.8125 13.7148 36.5625 22.9878 36.5625C32.28 36.5625 37.7979 29.8125 40.2694 25.7812C40.8825 24.7687 41.2082 23.6437 41.2082 22.5C41.2082 21.3562 40.8825 20.2312 40.2694 19.2ZM22.9878 30.9375C18.2364 30.9375 14.3662 27.15 14.3662 22.5C14.3662 17.85 18.2364 14.0625 22.9878 14.0625C27.7393 14.0625 31.6094 17.85 31.6094 22.5C31.6094 27.15 27.7393 30.9375 22.9878 30.9375ZM27.7585 22.2377C27.7777 22.3315 27.7776 22.4062 27.7776 22.5C27.7776 25.0875 25.6318 27.1875 22.9878 27.1875C20.3439 27.1875 18.1981 25.0875 18.1981 22.5C18.1981 19.9125 20.3439 17.8125 22.9878 17.8125C24.1565 17.8125 25.2295 18.2251 26.0533 18.9001C25.3827 19.2001 24.9037 19.8563 24.9037 20.625C24.9037 21.6562 25.7659 22.5 26.8197 22.5C27.1645 22.5 27.4903 22.4065 27.7585 22.2377Z" fill="#00B24F"/>
</svg>
