<svg width="28" height="28" viewBox="0 0 28 28" fill="none" xmlns="http://www.w3.org/2000/svg">
<path d="M28 0.8C28 1.01217 27.9224 1.21566 27.7842 1.36568C27.646 1.51571 27.4586 1.6 27.2632 1.6H21.6735L24.0999 4.2344C24.1703 4.3082 24.2264 4.39647 24.265 4.49408C24.3036 4.59168 24.324 4.69665 24.3248 4.80288C24.3257 4.9091 24.307 5.01445 24.27 5.11276C24.2329 5.21108 24.1782 5.3004 24.109 5.37551C24.0398 5.45063 23.9576 5.51003 23.867 5.55026C23.7765 5.59048 23.6794 5.61072 23.5816 5.6098C23.4838 5.60888 23.3871 5.58681 23.2972 5.54488C23.2073 5.50295 23.126 5.44201 23.058 5.3656L19.5897 1.6H14.7368V7.2C14.7368 7.41217 14.6592 7.61565 14.521 7.76568C14.3828 7.91571 14.1954 8 14 8C13.8046 8 13.6172 7.91571 13.479 7.76568C13.3408 7.61565 13.2632 7.41217 13.2632 7.2V1.6H0.736842C0.541419 1.6 0.354001 1.51571 0.215816 1.36568C0.0776315 1.21566 0 1.01217 0 0.8C0 0.587827 0.0776315 0.384344 0.215816 0.234315C0.354001 0.0842856 0.541419 0 0.736842 0H27.2632C27.4586 0 27.646 0.0842856 27.7842 0.234315C27.9224 0.384344 28 0.587827 28 0.8Z" fill="#FFB39F"/>
<path d="M22.842 14.4H22.7064C22.7937 14.1438 22.8396 13.8732 22.842 13.6V12.8C22.8414 12.1637 22.6083 11.5536 22.1939 11.1037C21.7795 10.6537 21.2176 10.4007 20.6315 10.4H20.4959C20.5832 10.1438 20.6291 9.87318 20.6315 9.60002V8.80002C20.6309 8.1637 20.3978 7.55362 19.9834 7.10367C19.569 6.65372 19.007 6.40066 18.421 6.40002H9.57885C8.99276 6.40066 8.43084 6.65372 8.01641 7.10367C7.60199 7.55362 7.3689 8.1637 7.36832 8.80002V9.60002C7.37076 9.87318 7.41663 10.1438 7.5039 10.4H7.36832C6.78223 10.4007 6.22031 10.6537 5.80589 11.1037C5.39146 11.5536 5.15838 12.1637 5.15779 12.8V13.6C5.16023 13.8732 5.2061 14.1438 5.29337 14.4H5.15779C4.5717 14.4007 4.00979 14.6537 3.59536 15.1037C3.18093 15.5536 2.94785 16.1637 2.94727 16.8V17.6C2.94785 18.2363 3.18093 18.8464 3.59536 19.2964C4.00979 19.7463 4.5717 19.9994 5.15779 20H5.29337C5.20606 20.2562 5.16019 20.5269 5.15779 20.8V21.6C5.15838 22.2363 5.39146 22.8464 5.80589 23.2964C6.22031 23.7463 6.78223 23.9994 7.36832 24H7.5039C7.41658 24.2562 7.37072 24.5269 7.36832 24.8V25.6C7.3689 26.2363 7.60199 26.8464 8.01641 27.2964C8.43084 27.7463 8.99276 27.9994 9.57885 28H18.421C19.007 27.9994 19.569 27.7463 19.9834 27.2964C20.3978 26.8464 20.6309 26.2363 20.6315 25.6V24.8C20.6291 24.5269 20.5832 24.2562 20.4959 24H20.6315C21.2176 23.9994 21.7795 23.7463 22.1939 23.2964C22.6083 22.8464 22.8414 22.2363 22.842 21.6V20.8C22.8396 20.5269 22.7937 20.2562 22.7064 20H22.842C23.4281 19.9994 23.99 19.7463 24.4044 19.2964C24.8189 18.8464 25.0519 18.2363 25.0525 17.6V16.8C25.0519 16.1637 24.8189 15.5536 24.4044 15.1037C23.99 14.6537 23.4281 14.4007 22.842 14.4ZM8.842 9.60002V8.80002C8.842 8.58785 8.91963 8.38437 9.05782 8.23434C9.196 8.08431 9.38342 8.00002 9.57885 8.00002H18.421C18.6164 8.00002 18.8038 8.08431 18.942 8.23434C19.0802 8.38437 19.1578 8.58785 19.1578 8.80002V9.60002C19.1578 9.8122 19.0802 10.0157 18.942 10.1657C18.8038 10.3157 18.6164 10.4 18.421 10.4H9.57885C9.38342 10.4 9.196 10.3157 9.05782 10.1657C8.91963 10.0157 8.842 9.8122 8.842 9.60002ZM19.1578 24.8V25.6C19.1578 25.8122 19.0802 26.0157 18.942 26.1657C18.8038 26.3157 18.6164 26.4 18.421 26.4H9.57885C9.38342 26.4 9.196 26.3157 9.05782 26.1657C8.91963 26.0157 8.842 25.8122 8.842 25.6V24.8C8.842 24.5878 8.91963 24.3844 9.05782 24.2343C9.196 24.0843 9.38342 24 9.57885 24H18.421C18.6164 24 18.8038 24.0843 18.942 24.2343C19.0802 24.3844 19.1578 24.5878 19.1578 24.8ZM23.5788 17.6C23.5788 17.8122 23.5012 18.0157 23.363 18.1657C23.2248 18.3157 23.0374 18.4 22.842 18.4H15.9452C15.7497 18.4 15.5623 18.4843 15.4241 18.6343C15.286 18.7844 15.2083 18.9878 15.2083 19.2C15.2083 19.4122 15.286 19.6157 15.4241 19.7657C15.5623 19.9157 15.7497 20 15.9452 20H20.6315C20.8269 20 21.0143 20.0843 21.1525 20.2343C21.2907 20.3844 21.3683 20.5878 21.3683 20.8V21.6C21.3683 21.8122 21.2907 22.0157 21.1525 22.1657C21.0143 22.3157 20.8269 22.4 20.6315 22.4H7.36832C7.1729 22.4 6.98548 22.3157 6.84729 22.1657C6.70911 22.0157 6.63148 21.8122 6.63148 21.6V20.8C6.63148 20.5878 6.70911 20.3844 6.84729 20.2343C6.98548 20.0843 7.1729 20 7.36832 20H12.0546C12.2501 20 12.4375 19.9157 12.5757 19.7657C12.7138 19.6157 12.7915 19.4122 12.7915 19.2C12.7915 18.9878 12.7138 18.7844 12.5757 18.6343C12.4375 18.4843 12.2501 18.4 12.0546 18.4H5.15779C4.96237 18.4 4.77495 18.3157 4.63677 18.1657C4.49858 18.0157 4.42095 17.8122 4.42095 17.6V16.8C4.42095 16.5878 4.49858 16.3844 4.63677 16.2343C4.77495 16.0843 4.96237 16 5.15779 16H11.4504C11.6458 16 11.8333 15.9157 11.9714 15.7657C12.1096 15.6157 12.1873 15.4122 12.1873 15.2C12.1873 14.9878 12.1096 14.7844 11.9714 14.6343C11.8333 14.4843 11.6458 14.4 11.4504 14.4H7.36832C7.1729 14.4 6.98548 14.3157 6.84729 14.1657C6.70911 14.0157 6.63148 13.8122 6.63148 13.6V12.8C6.63148 12.5878 6.70911 12.3844 6.84729 12.2343C6.98548 12.0843 7.1729 12 7.36832 12H20.6315C20.8269 12 21.0143 12.0843 21.1525 12.2343C21.2907 12.3844 21.3683 12.5878 21.3683 12.8V13.6C21.3683 13.8122 21.2907 14.0157 21.1525 14.1657C21.0143 14.3157 20.8269 14.4 20.6315 14.4H16.5494C16.3539 14.4 16.1665 14.4843 16.0283 14.6343C15.8902 14.7844 15.8125 14.9878 15.8125 15.2C15.8125 15.4122 15.8902 15.6157 16.0283 15.7657C16.1665 15.9157 16.3539 16 16.5494 16H22.842C23.0374 16 23.2248 16.0843 23.363 16.2343C23.5012 16.3844 23.5788 16.5878 23.5788 16.8V17.6Z" fill="#FF926C"/>
<path d="M13.9996 12.8C13.271 12.8 12.5587 13.0346 11.9528 13.4741C11.3469 13.9136 10.8747 14.5383 10.5959 15.2693C10.317 16.0002 10.2441 16.8044 10.3862 17.5803C10.5284 18.3563 10.8793 19.069 11.3945 19.6284C11.9098 20.1878 12.5662 20.5688 13.2809 20.7231C13.9956 20.8775 14.7363 20.7983 15.4095 20.4955C16.0827 20.1928 16.6581 19.6801 17.063 19.0223C17.4678 18.3645 17.6839 17.5911 17.6839 16.8C17.6827 15.7395 17.2942 14.7228 16.6035 13.973C15.9128 13.2231 14.9764 12.8013 13.9996 12.8ZM13.9996 19.2C13.5624 19.2 13.1351 19.0592 12.7715 18.7955C12.408 18.5318 12.1247 18.157 11.9574 17.7184C11.7901 17.2799 11.7463 16.7973 11.8316 16.3318C11.9169 15.8662 12.1274 15.4386 12.4366 15.1029C12.7457 14.7673 13.1396 14.5387 13.5684 14.4461C13.9972 14.3535 14.4417 14.401 14.8456 14.5827C15.2495 14.7643 15.5947 15.0719 15.8376 15.4666C16.0805 15.8613 16.2102 16.3253 16.2102 16.8C16.2096 17.4363 15.9765 18.0464 15.5621 18.4963C15.1476 18.9463 14.5857 19.1993 13.9996 19.2Z" fill="#FFB39F"/>
</svg>
