<svg width="28" height="28" viewBox="0 0 28 28" fill="none" xmlns="http://www.w3.org/2000/svg">
<path d="M26.8737 25.4306C26.7738 25.5194 26.6489 25.5638 26.499 25.5638C26.3492 25.5638 26.2243 25.5194 26.1244 25.4306C26.0244 25.3418 25.9745 25.2308 25.9745 25.0977C25.9745 24.9645 26.0244 24.8424 26.1368 24.7536C26.2368 24.6648 26.3617 24.6315 26.499 24.6315C26.6489 24.6315 26.7738 24.6759 26.8737 24.7647C26.9736 24.8535 27.0236 24.9645 27.0236 25.0977C27.0361 25.2308 26.9861 25.3418 26.8737 25.4306ZM26.1993 24.8202C26.1119 24.8979 26.0744 24.9867 26.0744 25.0866C26.0744 25.1975 26.1119 25.2863 26.1993 25.364C26.2867 25.4417 26.3866 25.475 26.5115 25.475C26.6364 25.475 26.7363 25.4417 26.8238 25.364C26.9112 25.2863 26.9487 25.1975 26.9487 25.0866C26.9487 24.9867 26.9112 24.8868 26.8238 24.8202C26.7363 24.7425 26.6364 24.6981 26.5115 24.6981C26.3866 24.7092 26.2867 24.7425 26.1993 24.8202ZM26.6739 25.3307C26.6239 25.364 26.574 25.3751 26.524 25.3751C26.4491 25.3751 26.3742 25.3529 26.3117 25.2974C26.2493 25.2419 26.2243 25.1753 26.2243 25.0977C26.2243 25.02 26.2493 24.9534 26.2992 24.8979C26.3492 24.8424 26.4241 24.8202 26.5115 24.8202C26.5615 24.8202 26.6115 24.8313 26.6614 24.8535C26.7239 24.8868 26.7738 24.9423 26.7863 25.0311H26.6489C26.6364 24.9978 26.6239 24.9645 26.599 24.9534C26.574 24.9423 26.549 24.9312 26.524 24.9312C26.4866 24.9312 26.4491 24.9423 26.4241 24.9756C26.3991 25.0089 26.3866 25.0533 26.3866 25.1088C26.3866 25.1642 26.3991 25.2086 26.4241 25.2308C26.4491 25.253 26.4866 25.2752 26.524 25.2752C26.5615 25.2752 26.5865 25.2641 26.6115 25.253L26.6489 25.1864H26.7738C26.7613 25.253 26.7239 25.2974 26.6739 25.3307ZM27.9978 20.4029C27.9978 20.3585 27.9853 20.3141 27.9853 20.2697C27.9853 20.2364 27.9728 20.2142 27.9728 20.192C27.9603 20.1254 27.9478 20.0699 27.9228 20.0033C27.8729 19.8812 27.798 19.7591 27.698 19.6593C27.5981 19.5594 27.4857 19.4817 27.3733 19.4262C27.2484 19.3707 27.1235 19.3374 27.0236 19.3152C26.9861 19.3152 26.9612 19.3041 26.9362 19.3041C27.0736 18.7714 26.8987 18.3607 26.7863 18.172L26.8113 18.1498C26.9612 18.0166 27.0861 17.8945 27.1985 17.7725L27.2234 17.7503C27.3109 17.6393 27.3608 17.5283 27.3983 17.4284C27.4233 17.3396 27.4482 17.2619 27.4482 17.1842V17.1176V17.0732V16.9734C27.4358 16.8069 27.4108 16.596 27.2859 16.3629C27.2234 16.2519 27.136 16.1298 27.0236 16.0189C26.9112 15.9079 26.7738 15.808 26.6115 15.7303C26.599 15.7192 26.5865 15.7192 26.574 15.7081C26.2368 15.2752 25.8621 14.9312 25.5249 14.6759C25.35 14.5427 25.1876 14.4317 25.0503 14.3429C24.9129 14.2542 24.8005 14.1876 24.738 14.1432C24.5881 14.0433 24.4757 13.9878 24.4258 13.9656C24.3009 13.899 24.2135 13.8435 24.1635 13.8102C24.126 13.7769 24.1011 13.7658 24.0886 13.7547C24.0886 13.7547 24.0886 13.7436 24.0761 13.7214C24.0636 13.6881 24.0636 13.6437 24.0636 13.566C24.0636 13.455 24.0636 13.2886 24.0761 13.0666C24.1011 12.7114 24.1385 12.2342 24.1885 11.5793C24.201 11.3685 24.201 11.1687 24.201 10.9911C24.1885 10.6914 24.1385 10.4251 24.0761 10.1809C24.0636 10.1254 24.0386 10.0699 24.0261 10.0144C24.0136 9.97002 24.0011 9.94783 23.9887 9.92563C23.9762 9.89233 23.9637 9.85903 23.9387 9.81464C23.9262 9.79244 23.9262 9.77024 23.9012 9.74805C23.8762 9.69255 23.8513 9.63706 23.8138 9.58157L23.8013 9.57047L23.7888 9.53717L23.7763 9.51497C23.7139 9.41508 23.6389 9.32629 23.564 9.2486C23.5265 9.09322 23.4641 8.87124 23.3517 8.61597C23.2518 8.394 23.1269 8.14982 22.9395 7.90565C22.8771 7.81686 22.8021 7.73917 22.7272 7.66148L22.7522 7.63928C22.7897 7.60598 23.6639 6.78467 24.3633 5.71919C25.6498 3.73251 25.2251 2.52274 24.6381 1.85682L24.6256 1.83462L24.6131 1.81242C24.0511 1.25748 23.2767 0.924519 22.34 0.813532C20.3792 0.591556 18.156 1.45726 17.569 1.70143L16.4949 0.658149C16.395 0.569359 16.2951 0.480568 16.1827 0.413976C16.0703 0.347383 15.9454 0.28079 15.8205 0.225297C15.5707 0.125408 15.2959 0.0588149 14.9962 0.0255185C14.4092 -0.0410741 13.7348 0.0255185 13.0104 0.192C11.9238 0.436173 10.7123 0.924519 9.43836 1.60154C8.16443 2.27857 6.84054 3.15537 5.55412 4.19866C3.98044 5.46392 2.68153 6.80687 1.73233 8.09433C1.25773 8.72696 0.870553 9.34849 0.583294 9.94782C0.296035 10.5361 0.108692 11.1021 0.0337552 11.6126C-0.0162029 11.99 -0.0162029 12.3452 0.0712238 12.667C0.108692 12.8113 0.15865 12.9445 0.233588 13.0777C0.321014 13.2442 0.43342 13.3995 0.570804 13.5327L1.68237 14.5649L1.80727 14.6759L1.79478 14.687L1.75731 14.7536C1.73233 14.7869 1.71984 14.8202 1.69486 14.8424L1.65739 14.909C1.6449 14.9423 1.61992 14.9756 1.60743 15.0089L1.56997 15.0755C1.55748 15.1088 1.5325 15.1421 1.52001 15.1753C1.50752 15.1975 1.49503 15.2197 1.49503 15.2419L1.45756 15.3418C1.44507 15.364 1.44507 15.3862 1.43258 15.4084C1.42009 15.4417 1.4076 15.475 1.39511 15.5194C1.39511 15.5305 1.38262 15.5416 1.38262 15.5527C1.38262 15.5638 1.37013 15.5749 1.37013 15.586C1.35764 15.6193 1.34515 15.6637 1.33267 15.697C1.33267 15.7192 1.32018 15.7414 1.32018 15.7636C1.32018 15.7747 1.30769 15.7969 1.30769 15.808C1.30769 15.8302 1.2952 15.8524 1.2952 15.8746C1.2952 15.8968 1.28271 15.919 1.28271 15.9412C1.27022 15.9856 1.27022 16.03 1.25773 16.0854C1.25773 16.0965 1.25773 16.1076 1.24524 16.1298V16.1409C1.24524 16.1742 1.23275 16.2075 1.23275 16.2297C1.23275 16.2741 1.22026 16.3296 1.22026 16.374V16.929C1.22026 16.9512 1.22026 16.9734 1.23275 16.9955C1.23275 17.0177 1.23275 17.051 1.24524 17.0843V17.1176C1.24524 17.1398 1.25773 17.1731 1.25773 17.1953C1.25773 17.2175 1.27022 17.2397 1.27022 17.273C1.27022 17.2841 1.27022 17.2952 1.28271 17.3063C1.28271 17.3174 1.2952 17.3396 1.2952 17.3507V17.3729C1.2952 17.3951 1.30769 17.4173 1.32018 17.4617C1.32018 17.4728 1.32018 17.4728 1.33267 17.4839C1.34515 17.5061 1.34515 17.5283 1.34515 17.5394L1.35764 17.5616C1.35764 17.5727 1.35764 17.5727 1.37013 17.5838L1.38262 17.606V17.6393C1.38262 17.6504 1.38262 17.6504 1.39511 17.6615L1.4076 17.6837C1.4076 17.7059 1.42009 17.717 1.42009 17.7392C1.43258 17.7614 1.43258 17.7836 1.44507 17.828C1.44507 17.8391 1.44507 17.8391 1.45756 17.8502C1.47005 17.8834 1.48254 17.9056 1.48254 17.9167C1.49503 17.9389 1.50752 17.9611 1.52001 18.0055L1.5325 18.0166C1.54499 18.0388 1.54499 18.061 1.55748 18.0721L1.56997 18.0943C1.56997 18.1054 1.58246 18.1165 1.58246 18.1276C1.58246 18.1387 1.59495 18.1609 1.60743 18.172L1.61992 18.1942C1.63241 18.2053 1.63241 18.2275 1.6449 18.2386C1.65739 18.2497 1.65739 18.2608 1.65739 18.2719C1.66988 18.2941 1.68237 18.3163 1.69486 18.3496L1.70735 18.3607C1.71984 18.3718 1.71984 18.3829 1.73233 18.394C1.74482 18.4051 1.74482 18.4273 1.75731 18.4384C1.7698 18.4495 1.78229 18.4717 1.79478 18.505L1.80727 18.5161C1.81976 18.5272 1.81976 18.5383 1.83225 18.5494C1.84474 18.5716 1.85722 18.5827 1.85722 18.5938C1.86971 18.6049 1.8822 18.6271 1.89469 18.6493V18.6604C1.90718 18.6715 1.90718 18.6826 1.91967 18.6937C1.93216 18.7159 1.94465 18.727 1.95714 18.7381C1.96963 18.7492 1.98212 18.7714 2.0071 18.8046C2.01959 18.8157 2.03208 18.8268 2.03208 18.8379C2.04457 18.8601 2.05706 18.8712 2.06955 18.8823C2.08204 18.8934 2.09453 18.9156 2.10702 18.9378C2.1195 18.9489 2.13199 18.9711 2.14448 18.9822C2.15697 19.0044 2.16946 19.0155 2.19444 19.0266L2.23191 19.0599L2.2444 19.071C2.26938 19.0932 2.28187 19.1154 2.30685 19.1376L2.33183 19.1598L2.3693 19.1931L2.44423 19.2597L2.46921 19.2819L2.50668 19.3152L2.51917 19.3263C2.54415 19.3485 2.58162 19.3707 2.6066 19.404L2.61909 19.4151C2.63158 19.4262 2.64406 19.4262 2.65655 19.4484C2.69402 19.4817 2.73149 19.5039 2.76896 19.5372L2.79394 19.5483L2.80643 19.5594L2.83141 19.5705C2.86888 19.5927 2.89385 19.6149 2.93132 19.6371L2.94381 19.6482C2.9563 19.6593 2.96879 19.6593 2.96879 19.6593L2.99377 19.6815C3.01875 19.7036 3.04373 19.7147 3.06871 19.7369L3.09369 19.748L3.11867 19.7702L3.13116 19.7813C3.15613 19.7924 3.1936 19.8146 3.21858 19.8257C3.23107 19.8368 3.24356 19.8479 3.26854 19.8479L3.29352 19.859L3.30601 19.8701H3.3185C3.36846 19.8923 3.40593 19.9145 3.44339 19.9367L3.46837 19.9478L3.61825 20.0144H3.63074L3.65572 20.0255L3.73065 20.0588C3.74314 20.0588 3.75563 20.0699 3.76812 20.0699C3.78061 20.081 3.7931 20.081 3.81808 20.0921H3.83057C3.85555 20.1032 3.88053 20.1143 3.90551 20.1143H3.918C3.94297 20.1254 3.96795 20.1365 4.00542 20.1476H4.01791L4.04289 20.1587C4.05538 20.1587 4.06787 20.1698 4.08036 20.1698H4.09285C4.13032 20.1809 4.16779 20.192 4.21774 20.2031H4.23023C4.29268 20.2253 4.35513 20.2364 4.41758 20.2475H4.43007C4.48002 20.2586 4.54247 20.2697 4.59243 20.2808H4.64239C4.69235 20.2919 4.7423 20.303 4.79226 20.303H4.84222C4.87969 20.303 4.90467 20.3141 4.94214 20.3141C4.94214 20.3252 4.95463 20.3363 4.95463 20.3474C5.04205 20.5583 5.12948 20.7691 5.22939 20.9689C6.70316 24.5982 10.7872 27.4173 15.4458 27.9389C20.1044 28.4495 25.0877 25.697 27.111 21.9789C27.1985 21.8346 27.2734 21.7014 27.3483 21.5571C27.5482 21.3685 27.7105 21.1798 27.8104 20.98C27.9728 20.8579 28.0103 20.6137 27.9978 20.4029Z" fill="#664F44"/>
<path d="M24.0131 2.24521C23.7883 2.02324 23.526 1.85676 23.2388 1.73467C23.1888 1.71247 23.1389 1.70137 23.0764 1.69027C23.0514 1.67918 23.0265 1.65698 23.0015 1.64588C22.7517 1.55709 22.4894 1.5016 22.2146 1.4683C20.8658 1.31292 19.3171 1.75687 18.4428 2.06763C18.3928 2.08983 18.3429 2.10093 18.2929 2.12313C18.218 2.15642 18.1431 2.17862 18.0681 2.21192C17.9432 2.25631 17.8183 2.31181 17.6809 2.3673C17.656 2.3784 17.6435 2.3784 17.6185 2.3895L17.3812 2.14532L17.2688 2.03434L17.1689 1.93445L17.1314 1.89005L16.2197 0.957755L16.1447 0.880064L16.0448 0.780175H16.0323L15.77 0.835669L15.4703 0.891163C15.3079 0.82457 15.1081 0.780175 14.8833 0.746879C14.4337 0.691385 13.8592 0.746879 13.2097 0.891163C12.5602 1.03545 11.8234 1.29072 11.049 1.63478C9.48782 2.3229 7.76427 3.37729 6.09067 4.73134C5.50366 5.19749 4.96661 5.68583 4.46703 6.16308C3.97994 6.62923 3.54281 7.10648 3.14315 7.56153C2.33133 8.50492 1.71934 9.41502 1.31968 10.2363C1.0574 10.7802 0.895032 11.2796 0.832584 11.7125C0.782626 12.0232 0.795116 12.3007 0.857563 12.5227C0.882542 12.6004 0.907521 12.6559 0.9325 12.7225C0.994948 12.8556 1.06989 12.9666 1.1698 13.0665L2.18145 14.0099L2.29386 14.1098L2.30635 14.0987C2.33133 14.0654 2.3688 14.0321 2.40626 14.0099L2.41875 13.9988L2.45622 13.9655C2.4812 13.9322 2.51867 13.91 2.54365 13.8767C2.56863 13.8545 2.58112 13.8434 2.6061 13.8323C2.63107 13.8212 2.64356 13.799 2.66854 13.7879L2.69352 13.7657C2.7185 13.7546 2.73099 13.7324 2.75597 13.7213C2.78095 13.6992 2.81842 13.677 2.8434 13.6548C2.85589 13.6437 2.88087 13.6326 2.89335 13.6215H2.90584C2.94331 13.5993 2.96829 13.5771 3.00576 13.5549C3.03074 13.5438 3.04323 13.5327 3.06821 13.5105C3.10568 13.4883 3.13066 13.4661 3.16812 13.4439C3.1931 13.4328 3.20559 13.4217 3.23057 13.4106C3.26804 13.3884 3.30551 13.3662 3.34298 13.3551C3.36796 13.344 3.38045 13.3329 3.40543 13.3218C3.44289 13.2996 3.48036 13.2885 3.51783 13.2663C3.54281 13.2552 3.5553 13.2441 3.58028 13.233L3.60526 13.2219C3.64273 13.2108 3.6677 13.1886 3.70517 13.1775C3.71766 13.1664 3.74264 13.1664 3.75513 13.1553C3.78011 13.1442 3.80509 13.1331 3.84256 13.122L3.9175 13.0887L3.94247 13.0776L4.12982 13.011C4.1548 12.9999 4.16729 12.9999 4.19226 12.9888C4.21724 12.9777 4.22973 12.9777 4.25471 12.9666L4.27969 12.9555C4.29218 12.9555 4.30467 12.9444 4.31716 12.9444C4.34214 12.9333 4.36712 12.9333 4.40459 12.9222H4.42957C4.46703 12.9111 4.49201 12.9111 4.52948 12.9C4.55446 12.8889 4.59193 12.8889 4.61691 12.8778C4.65438 12.8667 4.69185 12.8667 4.72931 12.8556C4.7418 12.8556 4.75429 12.8445 4.77927 12.8445C4.79176 12.8445 4.81674 12.8445 4.82923 12.8334C4.8667 12.8223 4.90417 12.8223 4.94164 12.8223C4.9791 12.8223 5.00408 12.8112 5.04155 12.8112C5.06653 12.8112 5.09151 12.8001 5.11649 12.8001H5.2164C5.3413 12.8001 5.49117 12.8001 5.64105 12.8112H5.66603C5.8159 12.8223 5.99075 12.8445 6.16561 12.8778C6.20308 12.8889 6.25303 12.8889 6.2905 12.9C6.30299 12.8889 6.30299 12.8667 6.31548 12.8556C6.4154 12.7114 6.50282 12.556 6.60274 12.4117C7.16477 11.5793 7.76427 10.8468 8.37625 10.203C8.58857 9.98106 8.8009 9.78128 9.01322 9.5815C9.89997 8.76019 10.7867 8.12756 11.5861 7.63922C11.7609 7.52823 11.9483 7.42834 12.1106 7.32845C12.3479 7.19527 12.5727 7.08428 12.7851 6.97329C12.9599 6.8845 13.1223 6.80681 13.2846 6.74022C13.5469 6.61813 13.7842 6.51824 13.9965 6.44055L14.1839 6.37396C14.2713 6.34066 14.3587 6.30737 14.4337 6.28517C14.3712 6.27407 14.2963 6.27407 14.2338 6.27407H13.984C13.9216 6.27407 13.8467 6.27407 13.7842 6.28517C13.6593 6.29627 13.5219 6.30737 13.3846 6.31846C13.3346 6.32956 13.2971 6.32956 13.2472 6.34066C13.5844 6.18528 13.9216 6.07429 14.2338 5.9855C14.4462 5.93001 14.6585 5.88561 14.8583 5.85232C15.1331 5.80792 15.3954 5.77462 15.6327 5.76353C15.795 5.75243 15.9449 5.75243 16.0823 5.75243C16.2197 5.75243 16.3571 5.76353 16.4695 5.76353C16.8816 5.78572 17.1314 5.84122 17.1314 5.84122C17.069 5.76353 16.994 5.70803 16.9191 5.65254C16.7692 5.55265 16.6068 5.48606 16.457 5.43056C16.3945 5.40836 16.3446 5.39727 16.2946 5.37507C16.2571 5.36397 16.2197 5.35287 16.1947 5.35287C16.2696 5.34177 16.3321 5.33067 16.3945 5.33067C16.4695 5.31957 16.5319 5.31957 16.6068 5.30848C17.1939 5.26408 17.7184 5.30848 18.1056 5.36397C18.5677 5.44166 18.855 5.54155 18.855 5.54155C18.7925 5.43056 18.6926 5.33067 18.5802 5.24188C18.5053 5.18639 18.4178 5.1309 18.3429 5.0865C18.5053 5.1198 18.6426 5.15309 18.7925 5.19749C19.1672 5.29738 19.4794 5.41946 19.7292 5.51935L19.954 5.61924C19.979 5.63034 19.9915 5.64144 20.004 5.64144C20.2288 5.75243 20.3537 5.83012 20.3537 5.83012C20.3162 5.70803 20.2413 5.59704 20.1414 5.49715C20.1164 5.47496 20.0914 5.44166 20.0664 5.41946H20.0789C20.0914 5.41946 20.1039 5.43056 20.1289 5.43056C20.1414 5.43056 20.1664 5.44166 20.1913 5.45276C20.2913 5.48606 20.4411 5.54155 20.616 5.61924C20.6285 5.61924 20.6285 5.63034 20.641 5.63034L20.7159 5.66364C20.7783 5.69693 20.8408 5.71913 20.9032 5.76353L21.0906 5.86341C21.1281 5.88561 21.153 5.89671 21.1905 5.91891C21.2529 5.9633 21.3279 6.0077 21.3903 6.06319C21.4653 6.11869 21.5277 6.17418 21.5902 6.22967L21.6276 6.26297C21.6776 6.30737 21.7275 6.35176 21.765 6.39616C21.8524 6.48495 21.9274 6.58483 22.0023 6.68472C22.0897 6.80681 22.1522 6.95109 22.2146 7.09538C22.2146 7.10648 22.2146 7.11758 22.2271 7.11758C22.2646 7.08428 22.3395 7.01769 22.427 6.9289C23.1514 6.17418 25.3245 3.73245 24.0131 2.24521Z" fill="#132134"/>
<path d="M27.2483 20.4805C27.2483 20.4805 27.2733 20.314 27.1734 20.1587C27.1734 20.1476 27.1609 20.1365 27.1609 20.1365L27.1484 20.1254L27.1109 20.0921C27.0859 20.0699 27.061 20.0477 27.0235 20.0255C27.011 20.0144 26.986 20.0033 26.961 19.9922C26.8986 19.97 26.8362 19.9478 26.7487 19.9367C26.6863 19.9256 26.6238 19.9256 26.5489 19.9256H26.449V19.9478C26.449 19.9589 26.4615 19.97 26.4615 19.9922C26.4615 20.0033 26.4615 20.0144 26.474 20.0144C26.4864 20.0477 26.4989 20.1032 26.5114 20.1476C26.5114 20.1476 26.5114 20.1587 26.4989 20.1808V20.1919C26.4615 20.2696 26.3615 20.4472 26.1367 20.6692C26.0993 20.7136 26.0618 20.7469 26.0118 20.7913C25.3874 21.3684 24.0385 22.1786 21.1909 22.6337C20.2292 22.7558 19.33 22.7669 18.5806 22.6781C17.4565 22.556 16.6197 22.2341 16.2201 21.8013C16.1826 21.768 16.1576 21.7236 16.1201 21.6903C16.0952 21.657 16.0827 21.6348 16.0577 21.6015C16.0452 21.5904 16.0452 21.5793 16.0327 21.5682C15.8704 21.3018 15.7954 21.0133 15.7954 20.7358C15.7954 20.3917 15.9203 20.0699 16.1201 19.8257C16.2825 19.6259 16.4948 19.4705 16.7571 19.4039C16.882 19.3706 17.0194 19.3484 17.1568 19.3595C17.1818 19.3595 17.2192 19.3595 17.2692 19.3706C17.3566 19.3817 17.494 19.3928 17.6564 19.415C17.6688 19.415 17.6938 19.415 17.7063 19.4261C18.2434 19.4816 19.0926 19.5593 20.1168 19.5038C21.9902 19.4039 24.4507 18.8823 26.6863 17.0843V17.0732C26.6988 16.9178 26.6738 16.6514 26.4615 16.4406C26.424 16.4073 26.3865 16.374 26.3366 16.3407C26.3116 16.3185 26.2741 16.3074 26.2491 16.2852C26.2117 16.2741 26.1867 16.2519 26.1617 16.2408L26.0493 16.1742V16.1631C26.0368 16.1409 26.0243 16.1187 25.9994 16.0965C25.4248 15.3196 24.6255 14.8645 24.3008 14.6537C24.1509 14.5538 24.051 14.5094 24.051 14.5094C23.3641 14.132 23.2641 14.0099 23.3266 12.9999C23.3516 12.6337 23.389 12.1564 23.439 11.5016C23.439 11.4128 23.4515 11.3351 23.4515 11.2574V11.2019V10.9356C23.4515 10.8801 23.439 10.8246 23.439 10.7802C23.439 10.758 23.439 10.7358 23.4265 10.7136C23.414 10.6581 23.414 10.6026 23.4015 10.5471C23.4015 10.5249 23.389 10.4916 23.389 10.4694C23.389 10.4361 23.3766 10.4139 23.3641 10.3806C23.3516 10.3584 23.3516 10.3251 23.3391 10.3029C23.3266 10.2696 23.3141 10.2363 23.3141 10.203C23.3141 10.192 23.3016 10.1809 23.3016 10.1698C23.3016 10.1587 23.2891 10.1476 23.2891 10.1365V10.1254L23.2766 10.0921C23.2641 10.0699 23.2517 10.0477 23.2517 10.0255V10.0144L23.2392 9.99217L23.2267 9.96997C23.2017 9.92558 23.1892 9.88118 23.1642 9.84789L23.1517 9.81459C23.1268 9.7813 23.1018 9.7369 23.0768 9.7036L23.0643 9.69251L23.0518 9.68141C23.0268 9.65921 23.0144 9.63701 22.9894 9.61481L22.9644 9.58152C22.9394 9.54822 22.9144 9.52602 22.8895 9.50383V9.41504C22.877 9.37064 22.8645 9.31515 22.852 9.25965C22.852 9.24855 22.8395 9.22636 22.8395 9.21526V9.20416C22.8395 9.18196 22.827 9.17086 22.827 9.14867C22.8145 9.10427 22.802 9.05988 22.7771 9.01548C22.7771 9.00438 22.7646 8.98218 22.7646 8.97109L22.7271 8.8712C22.7146 8.849 22.7146 8.8268 22.7021 8.8157C22.6896 8.78241 22.6771 8.74911 22.6522 8.71581L22.6147 8.64922C22.6022 8.61592 22.5772 8.58263 22.5647 8.54933L22.5273 8.48274C22.5023 8.44944 22.4898 8.41615 22.4648 8.38285L22.4274 8.31626C22.4024 8.28296 22.3774 8.24966 22.3524 8.20527C22.3399 8.18307 22.3274 8.17197 22.3149 8.14978C22.3025 8.13868 22.29 8.11648 22.2775 8.10538C22.24 8.07208 22.215 8.03879 22.1776 8.00549L22.1526 7.99439C22.1026 7.95 22.0652 7.9056 22.0152 7.87231L22.0027 7.86121C21.9777 7.85011 21.9528 7.82791 21.9403 7.81681H21.9278C21.9028 7.80571 21.8903 7.79461 21.8653 7.78352L21.8528 7.77242C21.8279 7.76132 21.7904 7.73912 21.7404 7.71692C21.7279 7.70582 21.703 7.70582 21.678 7.69473C21.5656 7.66143 21.4282 7.61703 21.2533 7.57264C21.2408 7.57264 21.2284 7.57264 21.2159 7.56154C21.0785 7.52824 20.9161 7.49495 20.7413 7.47275C20.6788 7.46165 20.6289 7.46165 20.5664 7.45055C20.5414 7.45055 20.5165 7.45055 20.479 7.43945H20.4415C20.3041 7.42835 20.1792 7.41726 20.0419 7.41726H20.0294C19.8545 7.41726 19.6797 7.42836 19.5173 7.46165C19.5548 7.40616 19.6672 7.33956 19.7671 7.28407C19.9045 7.21748 20.0294 7.17308 20.0294 7.17308C19.9544 7.17308 19.8795 7.18418 19.8046 7.19528C19.7796 7.19528 19.7546 7.20638 19.7296 7.20638C19.7171 7.20638 19.6921 7.20638 19.6797 7.21748H19.6672C19.6547 7.21748 19.6422 7.21748 19.6297 7.22858C19.2425 7.30627 18.8678 7.42835 18.6555 7.50605L18.5806 7.53934H18.5681C18.5431 7.53934 18.5306 7.53934 18.5056 7.55044C18.6555 7.29517 18.8803 7.16198 19.0552 7.09539C19.0802 7.08429 19.1176 7.07319 19.1426 7.0621C19.1551 7.0621 19.1551 7.0621 19.1676 7.051C19.1926 7.0399 19.2175 7.0399 19.23 7.0288C19.2675 7.0177 19.2925 7.0177 19.2925 7.0177H19.0926C18.668 7.0621 18.2808 7.18418 17.9561 7.35066C17.7313 7.46165 17.5315 7.58374 17.3566 7.70582C17.3066 7.71692 17.2692 7.72802 17.2192 7.72802C16.7446 7.81681 16.2076 7.9278 15.6455 8.08318C15.4332 8.13868 15.2209 8.20527 15.0086 8.27186C14.8462 8.32736 14.6714 8.38285 14.509 8.43834C14.3841 8.48274 14.2717 8.52713 14.1468 8.57153C13.285 8.91559 12.4232 9.37064 11.7113 9.98107L11.6364 10.0477L11.4491 10.2141L11.3741 10.2807C11.3491 10.314 11.3117 10.3473 11.2867 10.3695C11.1493 10.5027 11.0244 10.647 10.8995 10.8024C10.8121 10.9134 10.7247 11.0355 10.6497 11.1575L10.6372 11.1686C10.4749 11.4239 10.325 11.6903 10.2126 11.99C10.1502 12.1342 10.1002 12.2896 10.0502 12.445C10.0378 12.4894 10.0253 12.5227 10.0128 12.5671L10.0003 12.5893C9.95032 12.7558 9.91285 12.9333 9.88788 13.1109C9.88788 13.1442 9.87539 13.1775 9.87539 13.2219C9.8629 13.3107 9.85041 13.3995 9.85041 13.4994C9.83792 13.5882 9.83792 13.6659 9.83792 13.7547V14.0987C9.83792 14.1986 9.83792 14.2985 9.85041 14.3984V14.4095C9.85041 14.5094 9.8629 14.6093 9.87539 14.7203C9.87539 14.7646 9.88788 14.809 9.88788 14.8534V14.8867C9.88788 14.9089 9.88788 14.9311 9.90036 14.9644C9.91285 15.0754 9.93783 15.1975 9.95032 15.3196C9.95032 15.3529 9.96281 15.3862 9.96281 15.4195C9.98779 15.5194 10.0003 15.6304 10.0253 15.7302C10.0253 15.7302 10.0003 15.5971 10.0128 15.3973C10.0128 15.3529 10.0253 15.2974 10.0253 15.253C10.0377 15.142 10.0627 15.0088 10.1127 14.8867L10.1502 14.7868C10.1502 14.7757 10.1626 14.7646 10.1751 14.7424C10.2001 14.687 10.2376 14.6204 10.2751 14.5649C10.2875 14.6093 10.2875 14.6537 10.3 14.687V15.2752C10.3125 15.6525 10.35 16.1076 10.4374 16.4961C10.4374 16.4961 10.4499 15.7968 10.5873 15.708C10.5873 15.708 10.8246 17.0177 11.0369 17.506C11.0619 17.5726 11.0994 17.617 11.1243 17.6503V17.5171L11.0994 16.7957V16.718C11.2617 17.0177 11.4491 17.3174 11.6614 17.6392C11.7238 17.728 11.7738 17.8168 11.8362 17.9056C11.4366 18.2164 11.0619 18.6714 10.7871 19.2042C10.7497 19.2929 10.6997 19.3817 10.6622 19.4705C10.6372 19.526 10.6248 19.5704 10.5998 19.6259C10.5998 19.637 10.5873 19.6592 10.5873 19.6703C10.5748 19.7036 10.5623 19.748 10.5498 19.7813C10.5498 19.8035 10.5373 19.8146 10.5373 19.8368C10.5248 19.8701 10.5124 19.9145 10.4999 19.9478C10.4999 19.97 10.4874 19.9811 10.4874 20.0033L10.4499 20.1698C10.4374 20.2252 10.4249 20.2807 10.4249 20.3362C10.4249 20.3584 10.4249 20.3695 10.4124 20.3917C10.4124 20.4361 10.3999 20.4694 10.3999 20.5138C10.3999 20.536 10.3999 20.5582 10.3875 20.5804C10.3875 20.6248 10.375 20.6581 10.375 20.7025V21.0909C10.375 21.1353 10.375 21.1797 10.3875 21.2352V21.2685C10.3875 21.324 10.3999 21.3795 10.4124 21.4461C10.4124 21.4683 10.4124 21.4794 10.4249 21.5016C10.4249 21.546 10.4374 21.5793 10.4499 21.6237C10.4499 21.6459 10.4624 21.6681 10.4624 21.6903C10.4749 21.7236 10.4749 21.768 10.4874 21.8013C10.4874 21.8235 10.4999 21.8457 10.4999 21.8679C10.5124 21.9012 10.5248 21.9345 10.5248 21.9789C10.5373 22.001 10.5373 22.0232 10.5498 22.0565C10.5623 22.0898 10.5748 22.1342 10.5873 22.1675C10.5998 22.1897 10.5998 22.2119 10.6123 22.2341C10.6248 22.2674 10.6372 22.3118 10.6497 22.3451C10.6622 22.3673 10.6622 22.3895 10.6747 22.4117C10.6872 22.4561 10.7122 22.5005 10.7247 22.5338C10.7372 22.556 10.7372 22.5671 10.7497 22.5893L10.937 22.9555C10.9495 22.9777 10.962 22.9888 10.9745 23.011L11.0494 23.1442C11.0619 23.1664 11.0744 23.1886 11.0994 23.2108C11.1243 23.2441 11.1493 23.2885 11.1743 23.3218C11.1868 23.344 11.2118 23.3662 11.2243 23.3884C11.2492 23.4217 11.2742 23.4661 11.3117 23.4994C11.3367 23.5216 11.3491 23.5438 11.3741 23.5771C11.3991 23.6104 11.4366 23.6548 11.4616 23.6881C11.4865 23.7103 11.499 23.7325 11.524 23.7658C11.5615 23.799 11.5865 23.8434 11.6239 23.8767C11.6489 23.8989 11.6614 23.9211 11.6864 23.9433C11.7238 23.9877 11.7613 24.021 11.8113 24.0654L11.8737 24.1209C11.9362 24.1764 11.9986 24.243 12.0611 24.2985C12.0611 24.2985 12.0236 24.2541 11.9736 24.1653C11.9611 24.1542 11.9486 24.132 11.9486 24.1098L11.9112 24.0432C11.8987 24.021 11.8862 23.9988 11.8737 23.9655C11.7738 23.7658 11.6864 23.4772 11.6989 23.1664L11.8113 23.2996C11.8487 23.3773 11.9112 23.4772 11.9736 23.5882C11.9986 23.6215 12.0236 23.6659 12.0361 23.6992C12.136 23.8545 12.2359 24.0321 12.3608 24.1986C12.5107 24.4095 12.6605 24.6093 12.8229 24.7979C12.8229 24.7979 12.6356 24.4428 12.5731 24.2097C12.5606 24.1431 12.5481 24.0876 12.5606 24.0543C12.5731 24.0654 12.5856 24.0876 12.6106 24.0987C12.6231 24.1098 12.6356 24.132 12.6605 24.1431C12.6855 24.1764 12.723 24.2208 12.773 24.2763L12.7979 24.2985C12.8229 24.3207 12.8354 24.354 12.8604 24.3762C12.8854 24.4095 12.9103 24.4428 12.9478 24.4761C13.2101 24.7757 13.5723 25.1753 13.8221 25.3862C13.9095 25.4528 13.9844 25.5083 14.0344 25.5305L13.6722 24.9533C14.4965 25.5527 17.9186 26.3185 21.2783 25.4639C21.6905 25.364 22.0901 25.2308 22.4898 25.0754C22.7271 24.9866 22.9644 24.8756 23.2017 24.7646L23.2392 24.7424C23.4015 24.6648 23.5639 24.576 23.7263 24.4872C23.8512 24.4206 23.9761 24.3429 24.0885 24.2763C24.2883 24.1542 24.4881 24.021 24.688 23.8767C24.7004 23.8656 24.7129 23.8545 24.7254 23.8545C24.9128 23.7103 25.1001 23.5549 25.2625 23.3995C25.4873 23.1886 25.6871 22.9777 25.862 22.7669L25.8745 22.7558C25.9244 22.7003 25.9619 22.6559 25.9994 22.6004L26.0118 22.5893C26.0243 22.5671 26.0368 22.556 26.0493 22.5338C26.1118 22.4561 26.1617 22.3895 26.2242 22.3118C26.2367 22.2896 26.2491 22.2785 26.2616 22.2563C26.2866 22.2119 26.3116 22.1786 26.3491 22.1342C26.374 22.1009 26.3865 22.0787 26.4115 22.0454C26.4365 22.0121 26.4615 21.9789 26.474 21.9456C26.5114 21.8901 26.5489 21.8235 26.5864 21.768L26.6238 21.7014L26.6988 21.5682L26.7362 21.5016L26.7487 21.4794C26.7737 21.4239 26.8112 21.3684 26.8362 21.3129V21.3018C26.9486 21.213 27.0235 21.1242 27.0984 21.0466C27.1109 21.0355 27.1234 21.0244 27.1234 21.0133C27.1983 20.8024 27.2483 20.6359 27.2483 20.4805ZM7.15267 18.3274C7.15267 18.3163 7.15267 18.3052 7.14018 18.283C7.10271 18.0943 7.06524 17.8945 7.05276 17.6947V17.6503C7.01529 17.6614 6.97782 17.7058 6.92786 17.7613C6.91537 17.7835 6.89039 17.8057 6.8779 17.839C6.7655 18.0277 6.66558 18.2941 6.66558 18.2941C6.67807 18.2053 6.69056 18.1165 6.69056 18.0277V17.9944C6.70305 17.9056 6.71554 17.8057 6.72803 17.7169V17.6836C6.74052 17.5726 6.7655 17.4727 6.79047 17.3729C6.79047 17.3618 6.79048 17.3507 6.80296 17.3285V17.3174C6.80296 17.3063 6.80296 17.2952 6.81545 17.2841C6.81545 17.2619 6.82794 17.2508 6.82794 17.2286C6.84043 17.1509 6.86541 17.0732 6.8779 16.9955C6.89039 16.9289 6.90288 16.8623 6.91537 16.8068V16.7846C6.91537 16.7735 6.91537 16.7624 6.92786 16.7624V16.7402C6.92786 16.7291 6.94035 16.7069 6.94035 16.6958C6.94035 16.6847 6.94035 16.6736 6.95284 16.6625C6.95284 16.6403 6.96533 16.6181 6.96533 16.607C6.96533 16.5959 6.97782 16.5737 6.97782 16.5626C6.97782 16.5405 6.99031 16.5183 6.99031 16.5072C6.99031 16.4961 6.99031 16.485 7.0028 16.4739C7.0028 16.4628 7.0028 16.4517 7.01529 16.4517C7.01529 16.4295 7.02778 16.4184 7.02778 16.4073V16.374L7.0028 16.3962C6.97782 16.4073 6.96533 16.4295 6.94035 16.4406L6.91537 16.4628C6.89039 16.485 6.86541 16.5072 6.85292 16.5294L6.84043 16.5405L6.7655 16.6403L6.75301 16.6514C6.75301 16.6625 6.74052 16.6625 6.74052 16.6736L6.70305 16.7402V16.7624C6.69056 16.7957 6.66558 16.829 6.65309 16.8623C6.61562 16.9511 6.57815 17.0399 6.55317 17.1176C6.54068 17.1398 6.54068 17.1731 6.52819 17.1842C6.51571 17.2286 6.50322 17.273 6.50322 17.2841C6.50322 17.2508 6.50322 17.2286 6.51571 17.1953C6.51571 17.1398 6.52819 17.0732 6.52819 17.0177C6.52819 16.9733 6.54068 16.9178 6.55317 16.8734C6.55317 16.8623 6.55317 16.8401 6.56566 16.829C6.56566 16.8068 6.57815 16.7846 6.57815 16.7624C6.57815 16.7402 6.59064 16.718 6.59064 16.6958V16.6625C6.59064 16.6403 6.60313 16.607 6.60313 16.5848V16.5294V16.5072C6.60313 16.4961 6.60313 16.485 6.61562 16.4739C6.62811 16.4406 6.6406 16.3962 6.6406 16.3629V16.3518C6.65309 16.3296 6.65309 16.2963 6.66558 16.2741V16.263C6.67807 16.2075 6.70305 16.152 6.71554 16.0965V16.0743C6.71554 16.0632 6.71554 16.0521 6.72803 16.041C6.75301 15.9522 6.79047 15.8634 6.81545 15.7857V15.7746C6.84043 15.708 6.8779 15.6304 6.90288 15.5638V15.5527C6.91537 15.5194 6.92786 15.4972 6.94035 15.4639C6.96533 15.4195 6.97782 15.3751 7.0028 15.3307C7.0028 15.3196 7.01529 15.2974 7.04027 15.253C7.05275 15.2419 7.05275 15.2197 7.06524 15.2086C7.07773 15.1864 7.09022 15.1642 7.10271 15.1309L7.1152 15.1087L7.32752 14.7646C7.34001 14.7535 7.34001 14.7313 7.3525 14.7203V14.7092L7.36499 14.687C7.38997 14.6537 7.41495 14.6093 7.43993 14.576C7.4774 14.5205 7.50238 14.465 7.53985 14.4206C7.60229 14.3207 7.65225 14.2319 7.68972 14.1875C7.70221 14.1542 7.7147 14.1431 7.72719 14.132C7.7147 14.132 7.65225 14.0876 7.55234 14.0321C7.42744 13.9655 7.25259 13.8767 7.04027 13.788C6.96533 13.7547 6.90288 13.7325 6.82794 13.6992C6.74052 13.6659 6.6406 13.6326 6.54068 13.5993C6.51571 13.5882 6.49073 13.5882 6.46575 13.5771C6.37832 13.5549 6.30338 13.5327 6.21596 13.5105C6.15351 13.4994 6.09106 13.4883 6.0411 13.4772C5.99115 13.4661 5.94119 13.4661 5.89123 13.455C5.86625 13.455 5.84127 13.455 5.81629 13.4439C5.79131 13.4439 5.76633 13.4439 5.74136 13.4328C5.67891 13.4328 5.60397 13.4217 5.54152 13.4217H5.44161C5.29173 13.4217 5.15435 13.4328 5.01696 13.455H4.99198C4.74219 13.4883 4.50489 13.5438 4.26759 13.6215C4.19265 13.6437 4.11772 13.677 4.03029 13.7103C4.00531 13.7214 3.99282 13.7325 3.96784 13.7325L3.89291 13.7658C3.6681 13.8656 3.45577 13.9988 3.25594 14.1431H3.24345C3.0686 14.2652 2.91872 14.4095 2.78134 14.5538L2.66893 14.687C2.61898 14.7424 2.58151 14.7979 2.54404 14.8534C2.4691 14.9533 2.39416 15.0643 2.33172 15.1753C2.30674 15.2197 2.28176 15.253 2.26927 15.2974C2.26927 15.3085 2.25678 15.3085 2.25678 15.3196C2.13188 15.586 2.03197 15.8634 1.9945 16.1631C1.98201 16.2186 1.98201 16.2741 1.96952 16.3407V16.3629C1.96952 16.4073 1.95703 16.4517 1.95703 16.5072V16.7069C1.95703 16.7513 1.95703 16.7957 1.96952 16.8401V16.8956C1.96952 16.9289 1.98201 16.9622 1.98201 16.9955V17.0066C1.98201 17.0288 1.98201 17.0399 1.9945 17.0621C1.9945 17.0954 2.00699 17.1287 2.00699 17.1509C2.00699 17.1731 2.01948 17.1953 2.01948 17.2175C2.03197 17.2508 2.03197 17.273 2.04446 17.3063C2.04446 17.3285 2.05695 17.3507 2.06944 17.3729V17.384L2.08193 17.4062V17.4284L2.09442 17.4506C2.10691 17.4727 2.10691 17.4949 2.11939 17.5171C2.13188 17.5393 2.13188 17.5726 2.14437 17.5948C2.15686 17.617 2.16935 17.6392 2.16935 17.6725L2.18184 17.6947C2.19433 17.7169 2.19433 17.728 2.20682 17.7502C2.21931 17.7724 2.2318 17.7946 2.24429 17.8279L2.28176 17.8945C2.29425 17.9056 2.29425 17.9167 2.30674 17.9278C2.31923 17.9389 2.31923 17.95 2.33172 17.9611L2.36919 18.0277C2.38167 18.0499 2.39416 18.0832 2.41914 18.1054C2.43163 18.1276 2.44412 18.1498 2.45661 18.1609C2.4691 18.1831 2.49408 18.2164 2.50657 18.2386C2.51906 18.2608 2.53155 18.2719 2.54404 18.2941C2.55653 18.3163 2.58151 18.3496 2.60649 18.3717C2.61898 18.3939 2.63147 18.405 2.64395 18.4161C2.66893 18.4383 2.68142 18.4716 2.7064 18.4938C2.71889 18.5049 2.73138 18.5271 2.74387 18.5382C2.76885 18.5604 2.79383 18.5937 2.81881 18.6159C2.8313 18.627 2.84379 18.6381 2.85628 18.6603C2.88126 18.6825 2.90623 18.7158 2.93121 18.738L2.96868 18.7713C2.99366 18.7935 3.01864 18.8268 3.05611 18.849L3.09358 18.8823L3.181 18.96C3.19349 18.9711 3.20598 18.9822 3.21847 18.9822C3.24345 19.0044 3.28092 19.0266 3.31839 19.0599C3.33088 19.071 3.34337 19.071 3.35586 19.0821C3.39333 19.1043 3.4183 19.1265 3.45577 19.1487C3.46826 19.1598 3.48075 19.1598 3.48075 19.1709L3.59316 19.2375L3.61814 19.2486L3.73054 19.3151L3.75552 19.3262C3.79299 19.3484 3.84295 19.3706 3.88042 19.3928L3.9054 19.4039C3.94286 19.4261 3.99282 19.4483 4.03029 19.4594L4.05527 19.4705C4.10523 19.4927 4.1427 19.5038 4.19266 19.526L4.20514 19.5371C4.2551 19.5593 4.30506 19.5704 4.34253 19.5926H4.35502C4.40498 19.6037 4.45493 19.6259 4.50489 19.637H4.51738C4.54236 19.6481 4.56734 19.6481 4.59232 19.6592C4.6173 19.6703 4.64228 19.6703 4.67975 19.6814H4.69224C4.74219 19.6925 4.80464 19.7036 4.8546 19.7147C4.90456 19.7258 4.96701 19.7369 5.01696 19.7369C5.19182 19.7591 5.36667 19.7702 5.54152 19.7813H5.66642C5.72887 19.7813 5.77882 19.7813 5.84127 19.7702C5.91621 19.7591 6.00363 19.7591 6.09106 19.748C6.166 19.7369 6.24094 19.7258 6.30338 19.7147C6.41579 19.6925 6.5282 19.6703 6.62811 19.637C6.95284 19.5593 7.22761 19.4483 7.40246 19.3262C7.40246 19.3262 7.29006 18.8823 7.20263 18.4383C7.17765 18.4161 7.16516 18.3717 7.15267 18.3274Z" fill="#90694C"/>
<path d="M15.1708 1.83467L15.1333 1.39072L15.3831 0.902374L15.483 0.880177C15.3206 0.813584 15.1208 0.769189 14.896 0.735892C14.4464 0.680399 13.8718 0.735892 13.2224 0.880177C12.5729 1.02446 11.8361 1.27973 11.0617 1.62379C9.50052 2.31192 7.77696 3.3663 6.10337 4.72035C5.51636 5.1865 4.97931 5.67485 4.47973 6.1521C3.99264 6.61824 3.55551 7.09549 3.15584 7.55054C2.34402 8.49394 1.73204 9.40404 1.33237 10.2253C1.07009 10.7692 0.907727 11.2686 0.845279 11.7015C0.795321 12.0122 0.807811 12.2897 0.870259 12.5117C0.895238 12.5894 0.920217 12.6449 0.945196 12.7115C1.00764 12.8447 1.08258 12.9556 1.1825 13.0555L2.19415 13.9989L2.30655 14.0988L2.31904 14.0877C2.34402 14.0544 2.38149 14.0211 2.41896 13.9989L2.43145 13.9878L2.46892 13.9545C2.4939 13.9212 2.53136 13.899 2.55634 13.8657C2.58132 13.8435 2.59381 13.8324 2.61879 13.8213C2.64377 13.8103 2.65626 13.7881 2.68124 13.777L2.70622 13.7548C2.7312 13.7437 2.74369 13.7215 2.76867 13.7104C2.79364 13.6882 2.83111 13.666 2.85609 13.6438C2.86858 13.6327 2.89356 13.6216 2.90605 13.6105H2.91854C2.95601 13.5883 2.98099 13.5661 3.01846 13.5439C3.04343 13.5328 3.05592 13.5217 3.0809 13.4995C3.11837 13.4773 3.14335 13.4551 3.18082 13.4329C3.2058 13.4218 3.21829 13.4107 3.24327 13.3996C3.28074 13.3774 3.3182 13.3552 3.35567 13.3441C3.38065 13.333 3.39314 13.3219 3.41812 13.3108C3.45559 13.2886 3.49306 13.2775 3.53053 13.2553C3.55551 13.2442 3.56799 13.2331 3.59297 13.222L3.61795 13.2109C3.85525 12.6227 4.21745 11.9679 4.69205 11.3019C5.26657 10.4806 6.00345 9.61491 6.87772 8.74921C7.42726 8.20537 8.02675 7.66153 8.67621 7.13989C9.51301 6.46286 10.3748 5.85243 11.2241 5.31969C11.7986 4.96453 12.3606 4.64266 12.9102 4.36519C12.9601 4.34299 13.0101 4.3097 13.0725 4.2875C13.2224 4.20981 13.3598 4.14322 13.5097 4.07662C13.8219 3.93234 14.1341 3.79915 14.4339 3.68817L14.284 3.53278L14.259 3.51059L14.0717 3.32191L13.0351 2.21203L13.0475 1.41292L13.0351 1.40182L13.7719 1.20204L15.1708 1.83467Z" fill="#2F83C1"/>
<path d="M27.2486 20.4805C27.2486 20.4805 27.2736 20.314 27.1737 20.1586C27.1737 20.1475 27.1612 20.1364 27.1612 20.1364L27.1487 20.1253L27.1113 20.092C27.0863 20.0699 27.0613 20.0477 27.0238 20.0255C27.0113 20.0144 26.9864 20.0033 26.9614 19.9922C26.8989 19.97 26.8365 19.9478 26.7491 19.9367C26.6866 19.9256 26.6242 19.9256 26.5492 19.9256H26.4493V19.9478C26.4493 19.9589 26.4618 19.97 26.4618 19.9922C26.4618 20.0033 26.4618 20.0144 26.4743 20.0144C26.4868 20.0477 26.4993 20.1031 26.5118 20.1475C26.5118 20.1475 26.5118 20.1586 26.4993 20.1808V20.1919C26.4618 20.2696 26.3619 20.4472 26.1371 20.6692C26.0996 20.7136 26.0621 20.7469 26.0122 20.7913C25.3877 21.3684 24.0388 22.1786 21.1912 22.6337C20.2295 22.7558 19.3303 22.7669 18.5809 22.6781C17.4569 22.556 16.6201 22.2341 16.2204 21.8013C16.1829 21.768 16.158 21.7236 16.1205 21.6903C16.0955 21.657 16.083 21.6348 16.058 21.6015C16.0456 21.5904 16.0456 21.5793 16.0331 21.5682C15.8707 21.3018 15.7958 21.0132 15.7958 20.7358C15.7958 20.3917 15.9207 20.0699 16.1205 19.8257C16.2829 19.6259 16.4952 19.4705 16.7575 19.4039C16.8823 19.3706 17.0197 19.3484 17.1571 19.3595C17.1821 19.3595 17.2196 19.3595 17.2695 19.3706C17.3569 19.3817 17.4943 19.3928 17.6567 19.415C17.6692 19.415 17.6942 19.415 17.7067 19.4261C18.2437 19.4816 19.093 19.5593 20.1171 19.5038C21.9906 19.4039 24.451 18.8823 26.6866 17.0843V17.0732C26.6991 16.9178 26.6741 16.6514 26.4618 16.4406C26.4243 16.4073 26.3869 16.374 26.3369 16.3407C26.3119 16.3185 26.2745 16.3074 26.2495 16.2852C26.212 16.2741 26.187 16.2519 26.1621 16.2408L26.0497 16.1742V16.1631C26.0372 16.1409 26.0247 16.1187 25.9997 16.0965C25.4252 15.3196 24.6259 14.8645 24.3011 14.6536C24.1512 14.5538 24.0513 14.5094 24.0513 14.5094C23.3644 14.132 23.2645 14.0099 23.3269 12.9999C23.3519 12.6337 23.3894 12.1564 23.4393 11.5016C23.4393 11.4128 23.4518 11.3351 23.4518 11.2574V11.2019V10.9356C23.4518 10.8801 23.4393 10.8246 23.4393 10.7802C23.4393 10.758 23.4393 10.7358 23.4269 10.7136C23.4144 10.6581 23.4144 10.6026 23.4019 10.5471C23.4019 10.5249 23.3894 10.4916 23.3894 10.4694C23.3894 10.4361 23.3769 10.4139 23.3644 10.3806C23.3519 10.3584 23.3519 10.3251 23.3394 10.3029C23.3269 10.2696 23.3145 10.2363 23.3145 10.203C23.3145 10.1919 23.302 10.1808 23.302 10.1697C23.302 10.1586 23.2895 10.1475 23.2895 10.1364V10.1253L23.277 10.0921C23.2645 10.0699 23.252 10.0477 23.252 10.0255V10.0144L23.2395 9.99216L23.227 9.96997C23.202 9.92557 23.1896 9.88118 23.1646 9.84788L23.1521 9.81458C23.1271 9.78129 23.1021 9.73689 23.0772 9.70359L23.0647 9.6925L23.0522 9.6814C23.0272 9.6592 23.0147 9.637 22.9897 9.6148L22.9647 9.58151C22.9398 9.54821 22.9148 9.52601 22.8898 9.50382L22.7899 9.41503C22.7524 9.39283 22.715 9.37063 22.6775 9.35953C22.665 9.34843 22.6525 9.34843 22.64 9.34843L22.5651 9.31514C22.5526 9.31514 22.5401 9.30404 22.5276 9.30404C22.5026 9.29294 22.4777 9.29294 22.4652 9.28184C22.4527 9.28184 22.4402 9.27074 22.4152 9.27074C22.3902 9.27074 22.3777 9.25964 22.3528 9.25964H22.078C22.0655 9.25964 22.053 9.25964 22.0405 9.27074C22.028 9.27074 22.0155 9.27074 22.0031 9.28184C21.9781 9.28184 21.9531 9.29294 21.9156 9.30404H21.8906C21.8157 9.32624 21.7533 9.34843 21.6783 9.37063L21.6533 9.38173C21.6284 9.39283 21.6034 9.40393 21.5659 9.41503L21.5285 9.42613L21.4535 9.45942L21.416 9.48162L21.3411 9.51492L21.3036 9.53711C21.2787 9.54821 21.2537 9.57041 21.2287 9.58151L21.2037 9.59261C21.1787 9.6148 21.1413 9.6259 21.1163 9.6481L21.1038 9.6592C21.0663 9.6814 21.0414 9.70359 21.0039 9.71469C20.9414 9.74799 20.879 9.79238 20.8165 9.82568C20.7666 9.85898 20.7166 9.89227 20.6542 9.92557L20.6292 9.93667C20.5792 9.96997 20.5168 10.0033 20.4668 10.0255L20.4419 10.0366C20.3919 10.0699 20.3295 10.0921 20.2795 10.1253L20.2545 10.1364C20.2046 10.1697 20.1421 10.1919 20.0797 10.2141L20.0547 10.2252C19.9922 10.2474 19.9423 10.2696 19.8798 10.2918L19.8549 10.3029C19.7924 10.3251 19.73 10.3362 19.6675 10.3584H19.655C19.5926 10.3695 19.5176 10.3806 19.4552 10.3917C19.3428 10.4028 19.2179 10.4139 19.1055 10.4139C18.9181 10.4139 18.7308 10.4028 18.531 10.3806L18.3436 10.3473C18.3186 10.3473 18.2937 10.3362 18.2812 10.3362C18.1188 10.3029 17.944 10.2696 17.7816 10.2363C17.7067 10.2252 17.6442 10.203 17.5693 10.1919C17.4569 10.1697 17.3445 10.1475 17.2196 10.1253C17.1946 10.1253 17.1696 10.1142 17.1571 10.1142C17.1446 10.1142 17.1196 10.1032 17.1072 10.1032C17.0822 10.1032 17.0572 10.0921 17.0322 10.0921C17.0072 10.0921 16.9823 10.081 16.9573 10.081H16.9323C16.9073 10.081 16.8823 10.0699 16.8699 10.0699C16.8199 10.0588 16.7699 10.0477 16.7075 10.0477C16.695 10.0477 16.67 10.0477 16.6575 10.0366C16.6201 10.0366 16.5826 10.0255 16.5451 10.0255C16.5202 10.0255 16.5077 10.0255 16.4827 10.0144C16.4452 10.0144 16.4202 10.0033 16.3828 10.0033H15.8082C15.7458 10.0033 15.6958 10.0144 15.6334 10.0144H15.5834C15.546 10.0144 15.5085 10.0255 15.471 10.0255H15.4585C15.4336 10.0255 15.4211 10.0366 15.3961 10.0366C15.3586 10.0477 15.3212 10.0477 15.2837 10.0588C15.2587 10.0588 15.2337 10.0699 15.2212 10.0699C15.1838 10.081 15.1463 10.0921 15.1088 10.0921C15.0839 10.0921 15.0714 10.1032 15.0464 10.1142C15.0089 10.1253 14.959 10.1364 14.9215 10.1475C14.8965 10.1586 14.884 10.1586 14.8715 10.1697C14.8091 10.1919 14.7466 10.2141 14.6967 10.2363C14.2221 10.4805 13.8099 10.8135 13.4977 11.1908C13.3853 11.324 13.2854 11.4572 13.1979 11.5904C13.098 11.7347 13.0231 11.8901 12.9481 12.0454C12.9232 12.0898 12.9107 12.1342 12.8857 12.1786C12.8607 12.2563 12.8233 12.334 12.7983 12.4117C12.7983 12.4228 12.7983 12.4339 12.7858 12.4339C12.7608 12.5227 12.7358 12.6115 12.7108 12.7114C12.6859 12.8113 12.6734 12.9 12.6609 12.9999C12.6484 13.0554 12.6484 13.0998 12.6484 13.1553C12.6359 13.2996 12.6359 13.4328 12.6484 13.5771V13.6104C12.6484 13.6437 12.6484 13.677 12.6609 13.7214C12.6734 13.8212 12.6859 13.9211 12.7108 14.021C12.7233 14.0543 12.7358 14.0876 12.7358 14.132C12.7483 14.1653 12.7483 14.1986 12.7608 14.2319C12.8357 14.4872 12.9481 14.7202 13.0855 14.92C13.5976 15.708 14.4469 16.1853 15.0714 16.4406C15.3087 16.5293 15.5585 16.6181 15.8207 16.6958L15.7958 16.718C15.7458 16.7291 15.6958 16.7402 15.6334 16.7513C15.546 16.7735 15.4336 16.8068 15.3212 16.8401C15.1963 16.8734 15.0464 16.9289 14.8965 16.9844C14.4969 17.1287 14.0472 17.3396 13.6476 17.6281C13.5976 17.6614 13.5476 17.7058 13.4977 17.7391C13.4103 17.8057 13.3353 17.8723 13.2604 17.95L13.2354 17.9722L13.1979 18.0055C13.173 18.0388 13.1355 18.061 13.1105 18.0943L13.073 18.1276C13.0356 18.172 12.9981 18.2164 12.9731 18.2608C12.9357 18.3051 12.9107 18.3495 12.8732 18.3939C12.6359 18.7602 12.4985 19.2041 12.536 19.7369V19.7147C12.536 19.7036 12.536 19.6925 12.5485 19.6814V19.6703C12.5485 19.6592 12.561 19.6481 12.561 19.6259V19.6148C12.561 19.6037 12.5735 19.5815 12.5735 19.5593C12.5735 19.5371 12.586 19.526 12.5984 19.5038V19.4927C12.6109 19.4705 12.6109 19.4483 12.6234 19.4261V19.415C12.6359 19.3928 12.6359 19.3706 12.6484 19.3484V19.3373C12.6609 19.3151 12.6734 19.2929 12.6859 19.2596L12.6984 19.2485C12.7108 19.2263 12.7233 19.193 12.7483 19.1709C12.7733 19.1265 12.7983 19.0932 12.8233 19.0488C12.8357 19.0377 12.8482 19.0155 12.8607 19.0044L12.8732 18.9933L12.9481 18.8934C12.9731 18.8712 12.9981 18.8379 13.0231 18.8157L13.0481 18.7935C13.073 18.7713 13.0855 18.7491 13.1105 18.738L13.1355 18.7158C13.1605 18.6936 13.1979 18.6714 13.2229 18.6381C13.2229 18.6381 12.6859 19.7258 12.9232 20.5804V20.5693V20.5471V20.5138V20.4694V20.4139C12.9232 20.3917 12.9232 20.3695 12.9357 20.3473C12.9357 20.3251 12.9357 20.3029 12.9481 20.2807V20.2696C12.9481 20.2474 12.9606 20.2141 12.9606 20.1919V20.1697C12.9731 20.1364 12.9731 20.1142 12.9856 20.0809V20.0699C12.9981 20.0366 13.0106 20.0033 13.0106 19.9811C13.0106 19.97 13.0231 19.9589 13.0231 19.9478L13.0356 19.9256C13.0481 19.9034 13.0606 19.8701 13.073 19.8479C13.0855 19.8146 13.1105 19.7813 13.1355 19.748C13.1355 19.7369 13.148 19.7258 13.148 19.7258L13.2229 19.6259C13.2229 19.6259 13.1979 19.8923 13.1979 20.2141C13.1979 20.2696 13.1979 20.314 13.2104 20.3695C13.2104 20.4028 13.2104 20.4361 13.2229 20.4694C13.2104 20.6914 13.2104 20.9134 13.2354 21.1464C13.2729 21.5349 13.3853 21.9566 13.5726 22.3895C13.5726 22.3895 13.3978 21.8901 13.6476 21.3906L13.7225 21.5238C13.7475 21.6681 13.7725 21.879 13.8224 22.112C13.8724 22.5005 14.0722 23.6659 14.9715 24.4761C14.9715 24.4761 14.6342 24.0876 14.6842 23.5882C14.7217 23.6548 14.7591 23.7102 14.7841 23.7657C14.934 24.021 15.2337 24.4872 15.5709 24.8201C15.5709 24.8201 15.3087 24.3651 15.3711 24.2652C15.3711 24.2652 16.2454 25.2308 16.5202 25.3196L16.158 24.7868L16.1455 24.7757C17.4069 25.597 19.1554 25.8967 21.3036 25.364C21.6783 25.2752 22.053 25.1531 22.4527 25.0088C22.69 24.92 22.9273 24.809 23.1646 24.698L23.202 24.6758C23.3644 24.5982 23.5268 24.5094 23.6891 24.4206C23.814 24.354 23.9389 24.2763 24.0513 24.2097C24.2512 24.0876 24.451 23.9544 24.6508 23.8101C24.6633 23.799 24.6758 23.7879 24.6883 23.7879C24.8756 23.6437 25.063 23.4883 25.2253 23.3329C25.4502 23.122 25.65 22.9111 25.8248 22.7003L25.8373 22.6892C25.8873 22.6337 25.9248 22.5893 25.9622 22.5338L25.9747 22.5227C25.9872 22.5005 25.9997 22.4894 26.0122 22.4672C26.0746 22.3895 26.1246 22.3229 26.187 22.2452C26.1995 22.223 26.212 22.2119 26.2245 22.1897C26.2495 22.1453 26.2745 22.112 26.3119 22.0676C26.3369 22.0343 26.3494 22.0121 26.3744 21.9788C26.3994 21.9455 26.4243 21.9122 26.4368 21.879C26.4743 21.8235 26.5118 21.7569 26.5492 21.7014L26.5867 21.6348L26.6616 21.5016L26.6991 21.435L26.7116 21.4128C26.7366 21.3573 26.774 21.3018 26.799 21.2463V21.2352C26.9114 21.1464 26.9864 21.0576 27.0613 20.98C27.0738 20.9689 27.0863 20.9578 27.0863 20.9467C27.1987 20.8024 27.2486 20.6359 27.2486 20.4805ZM7.0531 17.6503C7.01563 17.6614 6.97816 17.7058 6.9282 17.7613C6.91571 17.7835 6.89073 17.8057 6.87824 17.839C6.76584 18.0277 6.66592 18.294 6.66592 18.294C6.67841 18.2053 6.6909 18.1165 6.6909 18.0277V17.9944C6.70339 17.9056 6.71588 17.8057 6.72837 17.7169V17.6836C6.74086 17.5726 6.76584 17.4727 6.79082 17.3728C6.79082 17.3618 6.79082 17.3507 6.80331 17.3285V17.3174C6.80331 17.3063 6.80331 17.2952 6.8158 17.2841C6.8158 17.2619 6.82829 17.2508 6.82829 17.2286C6.84078 17.1509 6.86576 17.0732 6.87824 16.9955C6.89073 16.9289 6.90322 16.8623 6.91571 16.8068V16.7846C6.91571 16.7735 6.91571 16.7624 6.9282 16.7624V16.7402C6.9282 16.7291 6.94069 16.7069 6.94069 16.6958C6.94069 16.6847 6.94069 16.6736 6.95318 16.6625C6.95318 16.6403 6.96567 16.6181 6.96567 16.607C6.96567 16.5959 6.97816 16.5737 6.97816 16.5626C6.97816 16.5404 6.99065 16.5182 6.99065 16.5071C6.99065 16.496 6.99065 16.4849 7.00314 16.4738C7.00314 16.4627 7.00314 16.4517 7.01563 16.4517C7.01563 16.4295 7.02812 16.4184 7.02812 16.4073V16.374L7.00314 16.3962C6.97816 16.4073 6.96567 16.4295 6.94069 16.4406L6.91571 16.4627C6.89073 16.4849 6.86576 16.5071 6.85327 16.5293L6.84078 16.5404L6.76584 16.6403L6.75335 16.6514C6.75335 16.6625 6.74086 16.6625 6.74086 16.6736L6.70339 16.7402V16.7624C6.6909 16.7957 6.66592 16.829 6.65343 16.8623C6.61597 16.9511 6.5785 17.0399 6.55352 17.1176C6.54103 17.1398 6.54103 17.1731 6.52854 17.1842C6.51605 17.2286 6.50356 17.273 6.50356 17.2841C6.50356 17.2508 6.50356 17.2286 6.51605 17.1953C6.51605 17.1398 6.52854 17.0732 6.52854 17.0177C6.52854 16.9733 6.54103 16.9178 6.55352 16.8734C6.55352 16.8623 6.55352 16.8401 6.56601 16.829C6.56601 16.8068 6.5785 16.7846 6.5785 16.7624C6.5785 16.7402 6.59099 16.718 6.59099 16.6958V16.6625C6.59099 16.6403 6.60348 16.607 6.60348 16.5848V16.5293V16.5071C6.60348 16.496 6.60348 16.4849 6.61597 16.4738C6.62845 16.4406 6.64094 16.3962 6.64094 16.3629V16.3518C6.65343 16.3296 6.65343 16.2963 6.66592 16.2741V16.263C6.67841 16.2075 6.70339 16.152 6.71588 16.0965V16.0743C6.71588 16.0632 6.71588 16.0521 6.72837 16.041C6.75335 15.9522 6.79082 15.8634 6.8158 15.7857V15.7746C6.84078 15.708 6.87824 15.6303 6.90322 15.5637V15.5526C6.91571 15.5194 6.9282 15.4972 6.94069 15.4639C6.96567 15.4195 6.97816 15.3751 7.00314 15.3307C7.00314 15.3196 7.01563 15.2974 7.04061 15.253C7.0531 15.2419 7.0531 15.2197 7.06559 15.2086C7.07808 15.1864 7.09057 15.1642 7.10306 15.1309L7.11555 15.1087C7.10306 15.0976 7.07808 15.0976 7.06559 15.0865H7.0531L7.02812 15.0754C6.91571 15.031 6.79082 14.9866 6.66592 14.9533H6.64094C6.55352 14.9311 6.47858 14.92 6.39115 14.9089C6.3412 14.9089 6.29124 14.8978 6.24128 14.8978H6.11638C6.05394 14.8978 5.99149 14.9089 5.92904 14.9089C5.90406 14.9089 5.89157 14.9089 5.86659 14.92C5.84161 14.92 5.80415 14.9311 5.77917 14.9311C5.76668 14.9311 5.75419 14.9311 5.7417 14.9422C5.71672 14.9422 5.70423 14.9533 5.67925 14.9533C5.64178 14.9644 5.59182 14.9755 5.55436 14.9866C5.54187 14.9866 5.51689 14.9977 5.5044 14.9977C5.45444 15.0199 5.39199 15.031 5.34203 15.0532C5.31706 15.0643 5.30457 15.0754 5.27959 15.0754L5.20465 15.1087L5.17967 15.1198C5.15469 15.1309 5.12971 15.142 5.10473 15.1642C5.07975 15.1753 5.05478 15.1864 5.0298 15.2086C5.00482 15.2197 4.97984 15.2419 4.95486 15.253C4.94237 15.2641 4.91739 15.2752 4.9049 15.2863C4.86743 15.3196 4.81747 15.3529 4.78001 15.3862L4.71756 15.4417C4.68009 15.475 4.65511 15.5083 4.61764 15.5416L4.60515 15.5526C4.59266 15.5748 4.56768 15.5859 4.55519 15.6081L4.51773 15.6414C4.45528 15.7191 4.39283 15.8079 4.34287 15.8967C4.33038 15.9078 4.33038 15.9189 4.31789 15.93C4.29291 15.9744 4.28043 16.0188 4.25545 16.0632C4.24296 16.0854 4.24296 16.0965 4.23047 16.1187C4.21798 16.1631 4.193 16.2075 4.18051 16.263V16.3074C4.16802 16.3407 4.16802 16.374 4.15553 16.4073C4.15553 16.4295 4.15553 16.4406 4.14304 16.4627C4.14304 16.4849 4.14304 16.496 4.13055 16.5182V16.5626C4.13055 16.6181 4.11806 16.6736 4.13055 16.7291C4.13055 16.7735 4.13055 16.8179 4.14304 16.8623V16.8845C4.14304 16.9067 4.15553 16.9289 4.15553 16.9511C4.16802 17.0399 4.193 17.1176 4.21798 17.2064C4.24296 17.273 4.26794 17.3285 4.29291 17.3839C4.34287 17.4949 4.40532 17.5948 4.48026 17.6947C4.63013 17.8945 4.82996 18.0721 5.06726 18.2053C5.19216 18.2829 5.34203 18.3384 5.49191 18.3828C5.62929 18.4272 5.77917 18.4605 5.94153 18.4716C5.979 18.4716 6.01647 18.4827 6.04145 18.4827H6.20381C6.25377 18.4827 6.30373 18.4716 6.35369 18.4716C6.37866 18.4716 6.41613 18.4716 6.44111 18.4605C6.51605 18.4494 6.5785 18.4383 6.65343 18.4272H6.66592C6.6909 18.4161 6.71588 18.4161 6.75335 18.405C6.84078 18.3828 6.9282 18.3495 7.00314 18.3162L7.01563 18.3051C7.04061 18.294 7.06559 18.2829 7.07808 18.2829C7.04061 18.0943 7.00314 17.8945 6.99065 17.6947C7.0531 17.6725 7.0531 17.6614 7.0531 17.6503Z" fill="#FCE9CD"/>
<path d="M26.4865 20.0255C26.4865 20.0144 26.4865 20.0033 26.474 20.0033C26.4615 19.9812 26.4616 19.9701 26.4616 19.959C26.3991 19.7814 26.3242 19.6482 26.2492 19.5483C26.1618 19.4262 26.0869 19.3596 26.0869 19.3596L26.1243 19.2264C26.1368 19.1709 26.1493 19.1154 26.1493 19.06C26.1993 18.6604 26.0869 18.3496 25.9869 18.1721C25.9745 18.1388 25.962 18.1166 25.9495 18.0944C25.8745 18.1388 25.8121 18.1832 25.7372 18.2275C24.3883 19.0378 22.8771 19.5594 21.2409 19.7814C20.1169 19.9368 18.9304 19.9479 17.6939 19.8147L17.7189 19.8258C17.7189 19.8258 16.9695 19.9146 16.7697 20.5472L16.7822 20.5583L16.7197 20.98C16.7447 21.5572 17.032 21.9123 17.3692 22.101C17.7189 22.2231 18.1435 22.3119 18.6181 22.3674C19.43 22.4562 20.3792 22.434 21.3284 22.3008C22.6023 22.1454 24.4008 21.5461 25.6872 20.7692C25.9745 20.5916 26.2492 20.4029 26.474 20.2142L26.4865 20.2031L26.499 20.192C26.499 20.1143 26.4865 20.0699 26.4865 20.0255Z" fill="white"/>
<path d="M24.0519 14.5428C23.365 14.1654 23.265 14.0433 23.3275 13.0333C23.3525 12.6671 23.3899 12.1898 23.4399 11.535C23.4399 11.4462 23.4524 11.3685 23.4524 11.2908V11.2353V10.969C23.4524 10.9135 23.4399 10.858 23.4399 10.8136C23.4399 10.7914 23.4399 10.7692 23.4274 10.747C23.4149 10.6915 23.4149 10.636 23.4024 10.5805C23.4024 10.5583 23.3899 10.525 23.3899 10.5028C23.3899 10.4695 23.3774 10.4473 23.365 10.414C23.3525 10.3918 23.3525 10.3585 23.34 10.3363C23.2401 10.2031 23.1277 10.0922 22.9903 9.99227L22.9653 9.97007L22.9403 9.95897H22.9278C22.9028 9.94787 22.8904 9.93677 22.8654 9.92567C22.8404 9.91457 22.8154 9.90347 22.8029 9.89238C22.6031 9.78139 22.3658 9.7148 22.1285 9.6815C21.9911 9.6593 21.8537 9.6593 21.7163 9.6593C21.6539 9.6593 21.579 9.6704 21.5165 9.6704C21.3417 9.6926 21.1668 9.72589 20.9795 9.77029C20.917 9.80359 20.8546 9.84798 20.7921 9.88128C20.7422 9.91457 20.6922 9.94787 20.6298 9.98117L20.6048 9.99227C20.5548 10.0256 20.4924 10.0589 20.4424 10.0811L20.4174 10.0922C20.3675 10.1255 20.305 10.1476 20.2551 10.1809L20.2301 10.192C20.1801 10.2253 20.1177 10.2475 20.0552 10.2697L20.0303 10.2808C19.9678 10.303 19.9178 10.3252 19.8554 10.3474L19.8304 10.3585C19.768 10.3807 19.7055 10.3918 19.6431 10.414H19.6306C19.5681 10.4251 19.4932 10.4362 19.4308 10.4473C19.3184 10.4584 19.1935 10.4695 19.0811 10.4695C18.8937 10.4695 18.7064 10.4584 18.5065 10.4362L18.3192 10.4029C18.2942 10.4029 18.2692 10.3918 18.2567 10.3918C18.0944 10.3585 17.9195 10.3252 17.7572 10.2919C17.6822 10.2808 17.6198 10.2586 17.5448 10.2475C17.4324 10.2253 17.32 10.2031 17.1951 10.1809C17.1702 10.1809 17.1452 10.1698 17.1327 10.1698C17.0328 10.1698 16.9329 10.1809 16.8454 10.192H16.8204C16.5332 10.2253 16.2584 10.2808 15.9712 10.3696C15.9587 10.3696 15.9462 10.3807 15.9212 10.3807C15.8712 10.3918 15.8338 10.414 15.7838 10.4251C15.7214 10.4473 15.6714 10.4695 15.609 10.4917C15.1968 10.6471 14.8096 10.8691 14.435 11.1465C14.2851 11.2575 14.1477 11.3796 14.0103 11.5017C13.8105 11.6904 13.6356 11.8902 13.4733 12.101C13.4608 12.1121 13.4608 12.1232 13.4483 12.1343C13.3609 12.2453 13.2859 12.3674 13.2235 12.4784C13.1985 12.5228 13.1735 12.5672 13.1485 12.6005V12.6116C13.0736 12.7559 13.0111 12.889 12.9612 13.0333C12.9612 13.0444 12.9612 13.0555 12.9487 13.0555C12.9362 13.0777 12.9362 13.0999 12.9237 13.1221C12.8987 13.1887 12.8738 13.2553 12.8613 13.3219C12.8363 13.3885 12.8238 13.4551 12.8113 13.5328C12.8113 13.5439 12.7988 13.5661 12.7988 13.5772C12.7863 13.6216 12.7863 13.666 12.7738 13.6993C12.7489 13.8546 12.7364 14.01 12.7239 14.1654V14.2764C12.7988 14.5317 12.9112 14.7647 13.0486 14.9645C13.5607 15.7525 14.41 16.2298 15.0344 16.485C15.2717 16.5738 15.5215 16.6626 15.7838 16.7403L15.7963 16.7514L15.8088 16.7403C15.8463 16.7181 15.8712 16.6959 15.9087 16.6737C15.9212 16.6626 15.9337 16.6626 15.9462 16.6515L16.0586 16.5849C16.0711 16.5738 16.0836 16.5738 16.0961 16.5627L16.2085 16.4961C16.221 16.485 16.2334 16.485 16.2459 16.4739C16.2834 16.4518 16.3209 16.4296 16.3708 16.4074C16.3833 16.3963 16.3958 16.3963 16.4083 16.3852C16.4458 16.363 16.4957 16.3408 16.5332 16.3186C16.5457 16.3075 16.5582 16.3075 16.5707 16.2964C16.6081 16.2742 16.6581 16.252 16.6956 16.2298C16.708 16.2187 16.733 16.2187 16.7455 16.2076C16.783 16.1854 16.8329 16.1632 16.8704 16.141C16.8829 16.1299 16.9079 16.1188 16.9204 16.1188C16.9578 16.0966 17.0078 16.0744 17.0577 16.0522C17.0827 16.0411 17.0952 16.03 17.1202 16.03C17.1702 16.0078 17.2076 15.9856 17.2576 15.9745C17.2826 15.9634 17.2951 15.9523 17.32 15.9523C17.37 15.9301 17.4075 15.919 17.4574 15.8968L17.5324 15.8635C17.5823 15.8413 17.6198 15.8302 17.6697 15.808C17.6947 15.7969 17.7197 15.7858 17.7572 15.7747C17.8071 15.7636 17.8446 15.7414 17.8945 15.7303C17.9195 15.7192 17.957 15.7081 17.982 15.697C18.0319 15.6859 18.0694 15.6637 18.1194 15.6526C18.1568 15.6415 18.1818 15.6304 18.2193 15.6193C18.2692 15.6082 18.3067 15.586 18.3567 15.5749L18.4691 15.5417C18.5065 15.5306 18.5565 15.5195 18.594 15.4973C18.6314 15.4862 18.6814 15.4751 18.7189 15.464C18.7563 15.4529 18.8063 15.4418 18.8438 15.4307C18.8937 15.4196 18.9437 15.4085 18.9811 15.3974C19.0186 15.3863 19.0561 15.3752 19.106 15.3641C19.156 15.353 19.2059 15.3419 19.2684 15.3197C19.2934 15.3086 19.3184 15.3086 19.3433 15.2975C19.5432 14.8424 20.1552 13.7104 21.1918 13.5883C21.3042 13.5772 21.4041 13.5661 21.504 13.5661H21.579C21.5665 13.4995 21.554 13.4329 21.554 13.3552C21.5165 12.8668 21.6914 12.4562 21.9287 12.4451C22.116 12.434 22.2659 12.6782 22.2909 12.7559C22.3658 12.9001 22.4158 13.0888 22.4282 13.2997C22.4407 13.4884 22.4158 13.666 22.3783 13.8213C22.4033 13.8435 22.4158 13.8657 22.4407 13.8768C22.678 14.1432 22.7155 14.4984 22.703 14.7647C22.7904 14.7536 22.8904 14.7536 22.9903 14.7425C23.0153 14.7425 23.0402 14.7425 23.0652 14.7314H23.1152C23.2276 14.7203 23.3525 14.7092 23.4774 14.7092C23.7521 14.687 24.0269 14.6759 24.3142 14.6648C24.1518 14.5872 24.0519 14.5428 24.0519 14.5428ZM26.6622 21.3796C26.2126 21.7348 25.738 22.0233 25.2634 22.2564C25.0261 22.3674 24.7888 22.4673 24.564 22.5561C24.0519 22.7559 23.5648 22.889 23.1277 22.9889C22.166 23.1998 21.504 23.1998 21.504 23.1998C22.0286 23.4551 22.6905 23.4551 23.1401 23.4218C23.4524 23.3996 23.6647 23.3441 23.6647 23.3441C23.6522 23.5106 23.6272 23.666 23.6023 23.8213C23.5648 23.9878 23.5148 24.1321 23.4524 24.2653V24.2764C23.3774 24.4429 23.2775 24.5872 23.1776 24.7203C23.1651 24.7314 23.1526 24.7536 23.1401 24.7647L23.1776 24.7425C23.34 24.6648 23.5023 24.5761 23.6647 24.4873C23.7896 24.4207 23.9145 24.343 24.0269 24.2764C24.2267 24.1543 24.4266 24.0211 24.6264 23.8768C24.6389 23.8657 24.6514 23.8546 24.6639 23.8546C24.8512 23.7104 25.0386 23.555 25.2009 23.3996C25.4257 23.1887 25.6256 22.9778 25.8004 22.767L25.8129 22.7559C25.8629 22.7004 25.9003 22.656 25.9378 22.6005L25.9503 22.5894C25.9628 22.5672 25.9753 22.5561 25.9878 22.5339C26.0502 22.4562 26.1002 22.3896 26.1626 22.3119C26.1751 22.2897 26.1876 22.2786 26.2001 22.2564C26.2251 22.212 26.25 22.1787 26.2875 22.1343C26.3125 22.101 26.325 22.0788 26.35 22.0455C26.3749 22.0122 26.3999 21.9789 26.4124 21.9456C26.4499 21.8902 26.4873 21.8236 26.5248 21.7681L26.5623 21.7015L26.6372 21.5683L26.6747 21.5017L26.6872 21.4795C26.7121 21.424 26.7496 21.3685 26.7746 21.313C26.7246 21.3241 26.6997 21.3463 26.6622 21.3796ZM15.2717 16.9068C15.1469 16.9401 14.997 16.9956 14.8471 17.0511C14.4474 17.1954 13.9978 17.4062 13.5982 17.6948C13.5482 17.7281 13.4982 17.7725 13.4483 17.8058C13.3609 17.8724 13.2859 17.939 13.211 18.0167L13.186 18.0389L13.1485 18.0722C13.1236 18.1055 13.0861 18.1277 13.0611 18.161L13.0236 18.1943C12.9862 18.2387 12.9487 18.283 12.9237 18.3274C12.8863 18.3718 12.8613 18.4162 12.8238 18.4606C12.5865 18.8269 12.4491 19.2708 12.4866 19.8036V19.7814C12.4866 19.7703 12.4866 19.7592 12.4991 19.7481V19.737C12.4991 19.7259 12.5116 19.7148 12.5116 19.6926V19.6815C12.5116 19.6704 12.5241 19.6482 12.5241 19.626C12.5241 19.6038 12.5365 19.5927 12.549 19.5705V19.5594C12.5615 19.5372 12.5615 19.515 12.574 19.4928V19.4817C12.5865 19.4595 12.5865 19.4373 12.599 19.4151V19.404C12.6115 19.3818 12.624 19.3596 12.6365 19.3263L12.6489 19.3152C12.6614 19.293 12.6739 19.2597 12.6989 19.2375C12.7239 19.1931 12.7489 19.1599 12.7738 19.1155C12.7863 19.1044 12.7988 19.0822 12.8113 19.0711L12.8238 19.06L12.8987 18.9601C12.9237 18.9379 12.9487 18.9046 12.9737 18.8824L12.9987 18.8602C13.0236 18.838 13.0361 18.8158 13.0611 18.8047L13.0861 18.7825C13.1111 18.7603 13.1485 18.7381 13.1735 18.7048C13.1735 18.7048 12.6365 19.7925 12.8738 20.6471V20.636V20.6138V20.5805V20.5361V20.4806C12.8738 20.4584 12.8738 20.4362 12.8863 20.414C12.8863 20.3918 12.8863 20.3696 12.8987 20.3474V20.3363C12.8987 20.3141 12.9112 20.2808 12.9112 20.2586V20.2364C12.9237 20.2031 12.9237 20.1809 12.9362 20.1476V20.1365C12.9487 20.1032 12.9612 20.07 12.9612 20.0478C12.9612 20.0367 12.9737 20.0256 12.9737 20.0145L12.9862 19.9923C12.9987 19.9701 13.0111 19.9368 13.0236 19.9146C13.0361 19.8813 13.0611 19.848 13.0861 19.8147C13.0861 19.8036 13.0986 19.7925 13.0986 19.7925L13.1735 19.6926C13.1735 19.6926 13.1485 19.959 13.1485 20.2808C13.1485 20.3363 13.1485 20.3807 13.161 20.4362C13.161 20.4695 13.161 20.5028 13.1735 20.5361C13.1985 20.192 13.2734 19.8702 13.3733 19.5705C13.3983 19.4928 13.4358 19.404 13.4608 19.3263C13.4608 19.3152 13.4733 19.3041 13.4733 19.293C13.5107 19.2153 13.5357 19.1488 13.5732 19.0711C13.5857 19.06 13.5857 19.0489 13.5982 19.0267C13.6356 18.9601 13.6731 18.8824 13.7106 18.8158C13.723 18.8047 13.723 18.7936 13.723 18.7825C13.8105 18.6382 13.8979 18.505 13.9853 18.3829C13.9978 18.3718 13.9978 18.3607 14.0103 18.3496C14.0478 18.3052 14.0852 18.2609 14.1227 18.2054C14.1352 18.1943 14.1352 18.1832 14.1477 18.1721C14.1602 18.161 14.1602 18.1499 14.1727 18.1388C14.2226 18.0833 14.2601 18.0278 14.3101 17.9723C14.3225 17.9612 14.3225 17.9501 14.335 17.9501C14.385 17.8946 14.435 17.8391 14.4849 17.7947C14.5474 17.7281 14.6098 17.6726 14.6723 17.606C14.7222 17.5616 14.7597 17.5172 14.8096 17.4839L14.8596 17.4395C14.9595 17.3508 15.0594 17.262 15.1593 17.1843C15.4341 16.9623 15.6589 16.818 15.7339 16.7736C15.6839 16.7847 15.6339 16.7958 15.5715 16.8069C15.4966 16.8402 15.3966 16.8735 15.2717 16.9068Z" fill="#F2D2AC"/>
<path d="M22.4654 14.4983C22.4654 14.4983 22.4654 14.4761 22.4529 14.4317C22.4029 14.2764 22.2281 13.899 21.5411 13.9545C20.8168 14.0211 20.567 14.5427 20.5045 14.7203C20.492 14.7536 20.492 14.7758 20.492 14.7758L20.517 14.7869C20.6044 14.7203 20.7793 14.7203 20.9417 14.8202C21.0166 14.8646 21.0665 14.909 21.1165 14.9645C21.179 15.0533 21.1914 15.1421 21.154 15.2087L21.1165 15.242C21.1165 15.242 21.1415 15.2531 21.1914 15.2642C21.3913 15.3196 21.9533 15.4195 22.253 15.0755C22.2655 15.0533 22.278 15.0422 22.2905 15.02C22.2281 14.9978 22.2031 14.9201 22.2031 14.8202C22.2031 14.7758 22.2156 14.7314 22.2281 14.6759C22.2655 14.5427 22.3779 14.465 22.4654 14.4983ZM18.8559 19.2486C18.3813 19.3374 17.9691 19.404 17.6569 19.4484C17.6694 19.4484 17.6944 19.4484 17.7069 19.4595C18.2439 19.515 19.0932 19.5927 20.1173 19.5372C21.9908 19.4373 24.4512 18.9156 26.6868 17.1176V17.1065C26.6993 16.9512 26.6743 16.6848 26.462 16.4739C26.4245 16.4406 26.3871 16.4073 26.3371 16.374C26.3246 16.374 26.3246 16.3629 26.3121 16.3629C26.2497 16.3296 26.1997 16.3074 26.1498 16.2741L26.0374 16.2075V16.1964C25.9 16.374 25.7376 16.5405 25.5628 16.6959C25.5003 16.7514 25.4379 16.8069 25.3629 16.8624C24.751 17.3507 23.9516 17.7725 23.0898 18.1054C21.666 18.6604 20.0674 19.0266 18.8559 19.2486ZM7.01584 16.3518C6.99086 16.3629 6.97837 16.3851 6.95339 16.3962L6.92841 16.4184C6.90343 16.4406 6.87845 16.4628 6.86596 16.485L6.85347 16.4961L6.77854 16.596L6.76605 16.6071C6.76605 16.6182 6.75356 16.6182 6.75356 16.6293L6.71609 16.6959V16.7181C6.7036 16.7514 6.67862 16.7847 6.66613 16.818C6.62866 16.9068 6.59119 16.9956 6.56621 17.0733C6.55372 17.0954 6.55372 17.1287 6.54123 17.1398C6.52875 17.1842 6.51626 17.2286 6.51626 17.2397C6.51626 17.2064 6.51626 17.1842 6.52875 17.1509C6.52875 17.0955 6.54123 17.0289 6.54123 16.9734C6.54123 16.929 6.55372 16.8735 6.56621 16.8291C6.56621 16.818 6.56621 16.7958 6.5787 16.7847C6.5787 16.7625 6.59119 16.7403 6.59119 16.7181C6.59119 16.6959 6.60368 16.6737 6.60368 16.6515V16.6182C6.60368 16.596 6.61617 16.5627 6.61617 16.5405V16.485V16.4628C6.61617 16.4517 6.61617 16.4406 6.62866 16.4295C6.64115 16.3962 6.65364 16.3518 6.65364 16.3185V16.3074C6.66613 16.2852 6.66613 16.2519 6.67862 16.2297V16.2186C6.69111 16.1632 6.71609 16.1077 6.72858 16.0522V16.03C6.72858 16.0189 6.72858 16.0078 6.74107 15.9967C6.76605 15.9079 6.80351 15.8191 6.82849 15.7414V15.7303C6.85347 15.6637 6.89094 15.586 6.91592 15.5194V15.5083C6.92841 15.475 6.9409 15.4528 6.95339 15.4195C6.97837 15.3751 6.99086 15.3307 7.01584 15.2864C7.01584 15.2753 7.02833 15.2531 7.05331 15.2087C7.0658 15.1976 7.06579 15.1754 7.07828 15.1643C7.09077 15.1421 7.10326 15.1199 7.11575 15.0866L7.12824 15.0644C7.11575 15.0533 7.09077 15.0533 7.07828 15.0422H7.06579L7.04082 15.0311C6.92841 14.9867 6.80352 14.9423 6.67862 14.909H6.65364C6.56621 14.8868 6.49128 14.8757 6.40385 14.8646C6.35389 14.8646 6.30393 14.8535 6.25398 14.8535H6.12908C6.06663 14.8535 6.00419 14.8646 5.94174 14.8646C5.91676 14.8646 5.90427 14.8646 5.87929 14.8757C5.85431 14.8757 5.81684 14.8868 5.79186 14.8868C5.77937 14.8868 5.76689 14.8868 5.7544 14.8979C5.72942 14.8979 5.71693 14.909 5.69195 14.909C5.65448 14.9201 5.60452 14.9312 5.56705 14.9423C5.55456 14.9423 5.52958 14.9534 5.51709 14.9534C5.46714 14.9756 5.40469 14.9867 5.35473 15.0089C5.32975 15.02 5.31726 15.0311 5.29228 15.0311L5.21735 15.0644L5.19237 15.0755C5.16739 15.0866 5.14241 15.0977 5.11743 15.1199C5.09245 15.131 5.06747 15.1421 5.04249 15.1643C5.01751 15.1754 4.99254 15.1976 4.96756 15.2087C4.95507 15.2198 4.93009 15.2309 4.9176 15.242C4.88013 15.2753 4.83017 15.3085 4.7927 15.3418L4.73025 15.3973C4.69279 15.4306 4.66781 15.4639 4.63034 15.4972L4.61785 15.5083C4.60536 15.5305 4.58038 15.5416 4.56789 15.5638L4.53042 15.5971C4.46798 15.6748 4.40553 15.7636 4.35557 15.8524C4.34308 15.8635 4.34308 15.8746 4.33059 15.8857C4.30561 15.9301 4.29312 15.9745 4.26814 16.0189C4.25565 16.0411 4.25565 16.0522 4.24316 16.0744C4.24316 16.0855 4.25565 16.0966 4.25565 16.1077C4.26814 16.1521 4.28063 16.1854 4.29312 16.2297V16.2519C4.30561 16.2852 4.33059 16.3296 4.34308 16.3629C4.39304 16.4739 4.443 16.5738 4.50544 16.6626C4.51793 16.6737 4.51793 16.6848 4.53042 16.6959V16.707L4.54291 16.7181C4.58038 16.7847 4.61785 16.8402 4.65532 16.8846C4.71777 16.9623 4.76772 17.0178 4.80519 17.0622L4.83017 17.0844C4.83017 17.0955 4.84266 17.0955 4.84266 17.0955L4.86764 17.1176C4.86764 17.0955 4.85515 17.0733 4.85515 17.0622C4.81768 16.9179 4.80519 16.7847 4.80519 16.6404V16.6182C4.80519 16.5294 4.80519 16.4406 4.81768 16.3629L4.85515 16.4628C4.86764 16.5072 4.89262 16.5516 4.90511 16.596V16.6182C4.98005 16.8069 5.06747 16.9623 5.1549 17.0844C5.25481 17.2397 5.34224 17.3396 5.40469 17.4062C5.41718 17.4173 5.42967 17.4284 5.42967 17.4395L5.45465 17.4617C5.41718 17.3063 5.3922 17.162 5.3922 17.0178V16.8735C5.3922 16.8069 5.3922 16.7514 5.40469 16.6959C5.42967 16.7958 5.46714 16.8957 5.50461 16.9845V16.9956C5.64199 17.3174 5.80435 17.5505 5.91676 17.6948L5.92925 17.7059C5.95423 17.7281 5.96672 17.7503 5.97921 17.7725C5.9917 17.7836 6.00419 17.7947 6.00419 17.8058L6.02917 17.828L6.04165 17.8391V17.8169C6.04165 17.7947 6.02917 17.7725 6.02917 17.7503C6.01668 17.6726 6.00419 17.5949 5.9917 17.5283C5.9917 17.4839 5.97921 17.4284 5.97921 17.384V17.2508V17.2286V17.1398C5.97921 17.0844 5.9917 17.0178 5.9917 16.9623C6.00419 16.9956 6.01668 17.04 6.02917 17.0733C6.04165 17.0954 6.05414 17.1287 6.06663 17.1509V17.162L6.07912 17.1731C6.09161 17.2064 6.1041 17.2397 6.11659 17.2619C6.14157 17.3174 6.16655 17.3729 6.20402 17.4173C6.24149 17.4839 6.26647 17.5394 6.30393 17.5838C6.32891 17.6171 6.3414 17.6393 6.35389 17.6615C6.37887 17.6948 6.40385 17.7281 6.41634 17.7503C6.44132 17.7725 6.45381 17.7947 6.4663 17.8169L6.47879 17.828C6.49128 17.8502 6.51626 17.8613 6.52875 17.8835C6.54124 17.8946 6.55372 17.9057 6.55372 17.9168C6.5787 17.939 6.59119 17.9612 6.60368 17.9612L6.61617 17.9723V17.939C6.62866 17.8502 6.64115 17.7503 6.65364 17.6615V17.6282C6.66613 17.5172 6.69111 17.4173 6.71609 17.3174C6.71609 17.3063 6.71609 17.2952 6.72858 17.273V17.2619C6.72858 17.2508 6.72858 17.2397 6.74107 17.2286C6.74107 17.2064 6.75356 17.1953 6.75356 17.1731C6.76605 17.0955 6.79103 17.0178 6.80352 16.9401C6.816 16.8735 6.82849 16.8069 6.84098 16.7514V16.7292C6.84098 16.7181 6.84098 16.707 6.85347 16.707V16.6848C6.85347 16.6737 6.86596 16.6515 6.86596 16.6404C6.86596 16.6293 6.86596 16.6182 6.87845 16.6071C6.87845 16.5849 6.89094 16.5627 6.89094 16.5516C6.89094 16.5405 6.90343 16.5183 6.90343 16.5072C6.90343 16.485 6.91592 16.4628 6.91592 16.4517C6.91592 16.4406 6.91592 16.4295 6.92841 16.4184C6.92841 16.4073 6.92841 16.3962 6.9409 16.3962C6.9409 16.374 6.95339 16.3629 6.95339 16.3518V16.3185L7.01584 16.3518ZM22.1531 20.9911C22.328 20.9356 22.4779 20.8912 22.6028 20.8468C22.8401 20.758 22.965 20.6915 22.965 20.6693C22.9525 20.6471 22.8151 20.6582 22.5653 20.7137C22.4404 20.7358 22.2905 20.758 22.1032 20.8024C22.0157 20.8246 21.9158 20.8357 21.8159 20.8468C21.716 20.8579 21.6036 20.8801 21.4912 20.8912C21.2664 20.9245 21.0166 20.9467 20.7418 20.9689L20.3297 21.0022C20.1923 21.0133 20.0424 21.0133 19.8925 21.0244C19.293 21.0355 18.6311 21.0133 17.9567 20.9023C17.6069 20.8468 17.1199 20.7026 16.7826 20.5361L16.7702 20.525C16.97 19.8923 17.7194 19.8036 17.7194 19.8036L17.6944 19.7925H17.6569C17.5445 19.7814 17.4571 19.7703 17.3696 19.7592C17.3072 19.7481 17.2572 19.7481 17.2198 19.737C17.1823 19.737 17.1448 19.7259 17.1323 19.7259C16.6827 19.7037 16.4329 20.0366 16.358 20.1809L16.3205 20.2475C16.2581 20.3807 16.2081 20.525 16.1956 20.6915C16.1707 20.9911 16.2581 21.313 16.5204 21.5905C16.6952 21.7791 16.995 21.9456 17.3821 22.0788C17.0449 21.8901 16.7452 21.5239 16.7327 20.9578C17.1199 21.1021 17.557 21.1909 17.8942 21.2464C18.6061 21.3685 19.3055 21.3796 19.9175 21.3463C20.0674 21.3352 20.2297 21.3241 20.3671 21.313C20.517 21.2908 20.6544 21.2797 20.7918 21.2686C21.0665 21.2242 21.3038 21.1909 21.5411 21.1465C21.6536 21.1243 21.766 21.1021 21.8659 21.0688C21.9783 21.0466 22.0657 21.0244 22.1531 20.9911Z" fill="#F2D2AC"/>
<path d="M21.5661 13.5771C21.9407 13.5882 22.1905 13.688 22.3654 13.8434C22.4029 13.6991 22.4278 13.5216 22.4153 13.3218C22.4029 13.1109 22.3529 12.9222 22.278 12.7779C22.253 12.6892 22.1031 12.4561 21.9158 12.4672C21.6785 12.4783 21.5036 12.8889 21.5411 13.3773C21.5411 13.4439 21.5536 13.5105 21.5661 13.5771ZM22.1905 14.8312C22.1905 14.92 22.228 14.9977 22.278 15.031C22.3654 15.0754 22.4778 14.9866 22.5277 14.8423C22.5277 14.8312 22.5402 14.8201 22.5402 14.809C22.5777 14.6758 22.5402 14.5427 22.4528 14.5094C22.3654 14.465 22.253 14.5537 22.203 14.698C22.203 14.7424 22.1905 14.7868 22.1905 14.8312ZM20.492 15.0754C20.5294 15.1309 20.5919 15.1864 20.6668 15.2308C20.8292 15.3196 21.004 15.3307 21.1039 15.253L21.1414 15.2197C21.1789 15.1531 21.1664 15.0643 21.1039 14.9755C21.0665 14.92 21.004 14.8645 20.9291 14.8312C20.7667 14.7424 20.5919 14.7313 20.5044 14.7979C20.492 14.809 20.4795 14.8201 20.467 14.8423C20.4295 14.8978 20.442 14.9866 20.492 15.0754ZM26.6992 17.1065C26.6868 17.1065 26.6868 17.1065 26.6992 17.1065V17.1065ZM26.4994 20.1808C26.2621 20.3806 25.9998 20.5693 25.7001 20.7469C24.4137 21.5238 22.6152 22.1342 21.3412 22.2785C20.3796 22.4117 19.4428 22.4339 18.631 22.3451C18.1564 22.2896 17.7443 22.2008 17.3821 22.0787C16.9949 21.9455 16.6951 21.7791 16.5203 21.5904C16.258 21.3129 16.1831 20.9799 16.1956 20.6914C16.2081 20.536 16.2455 20.3806 16.3205 20.2474L16.3579 20.1808C16.4454 20.0365 16.6827 19.6925 17.1323 19.7258C17.1448 19.7258 17.1822 19.7258 17.2197 19.7369C17.2572 19.7369 17.3196 19.748 17.3696 19.7591C17.457 19.7702 17.5444 19.7813 17.6568 19.7924H17.6943C18.9308 19.9256 20.1173 19.9145 21.2413 19.7591C22.8775 19.5371 24.3887 19.0155 25.7376 18.2052C25.8125 18.1609 25.8749 18.1165 25.9499 18.0721L26.6868 17.0954C24.4511 18.9045 21.9907 19.4261 20.1173 19.526C19.0931 19.5815 18.2438 19.5149 17.7068 19.4483C17.6818 19.4483 17.6693 19.4483 17.6568 19.4372C17.4945 19.415 17.3696 19.4039 17.2697 19.3928C17.2197 19.3928 17.1822 19.3817 17.1573 19.3817C17.0199 19.3706 16.8825 19.3928 16.7576 19.4261C16.5078 19.4927 16.283 19.6481 16.1206 19.8479C15.9208 20.092 15.7959 20.425 15.7959 20.758C15.7959 21.0354 15.8708 21.324 16.0332 21.5904C16.0457 21.6015 16.0457 21.6126 16.0582 21.6237C16.0832 21.657 16.0956 21.6792 16.1206 21.7125C16.1456 21.7458 16.1831 21.7902 16.2205 21.8234C16.6077 22.2563 17.457 22.5671 18.5811 22.7003C19.3429 22.789 20.2297 22.7779 21.1914 22.6559C24.039 22.2008 25.3878 21.3795 26.0123 20.8135C26.0623 20.7691 26.0998 20.7358 26.1372 20.6914C26.362 20.4583 26.4619 20.2807 26.4994 20.2141V20.203C26.5119 20.1808 26.5119 20.1697 26.5119 20.1697L26.4994 20.1808Z" fill="#664F44"/>
<path d="M17.4445 11.4129C17.3571 11.3685 17.2572 11.3352 17.1572 11.313C17.0948 11.3019 17.0323 11.2908 16.9574 11.2797C16.9324 11.2797 16.9074 11.2797 16.8825 11.2686C16.5453 11.2464 16.258 11.2908 16.258 11.2908C16.1955 11.3019 16.1331 11.313 16.0831 11.3352C15.6335 11.4573 15.3213 11.6681 15.0965 11.9123C14.9216 12.1121 14.7967 12.323 14.7343 12.5338C14.7218 12.556 14.7218 12.5671 14.7218 12.5893C14.7093 12.6448 14.6843 12.7003 14.6718 12.7447C14.6344 12.9223 14.6094 13.0777 14.6094 13.2109C14.6094 13.3884 14.6219 13.4994 14.6219 13.4994C14.6968 13.344 14.7842 13.2109 14.8717 13.0777C15.084 12.7558 15.3088 12.4894 15.5461 12.2786C15.9957 11.8679 16.4578 11.6459 16.8075 11.5349C17.1822 11.424 17.4445 11.4129 17.4445 11.4129ZM22.8525 10.8468L22.84 10.8246C22.79 10.7691 22.7276 10.7136 22.6526 10.6692C22.4778 10.5694 22.2405 10.5139 21.9157 10.5694C21.9157 10.5694 21.5286 10.647 21.3038 10.8801C21.3038 10.8801 21.9782 10.6248 22.7026 11.0799C22.765 11.1243 22.84 11.1687 22.9024 11.2242C22.9649 11.2797 23.0398 11.3352 23.1022 11.4129C23.1022 11.4129 23.0773 11.1354 22.8899 10.8912C22.8774 10.869 22.8649 10.8579 22.8525 10.8468Z" fill="#E9B784"/>
<path d="M17.5323 15.2642C17.7946 15.1976 18.0694 15.131 18.3816 15.0644C18.4316 14.8535 18.4441 14.5983 18.4066 14.3208C18.3192 13.6771 17.9945 13.1776 17.6697 13.2109C17.345 13.2442 17.1577 13.7992 17.2451 14.4429C17.295 14.7759 17.395 15.0644 17.5323 15.2642Z" fill="#664F44"/>
<path d="M16.0453 0.758057L15.3708 0.891242L15.5082 1.97892L13.7222 1.16871L12.9854 1.36849L12.9978 1.37959L15.171 3.57715L15.196 3.56605L15.221 3.55495C15.2834 3.52165 15.3584 3.47726 15.4208 3.44396C15.4458 3.43286 15.4708 3.42176 15.4957 3.39957C15.5957 3.34407 15.6956 3.28858 15.7955 3.24418L14.8713 2.30079L16.3575 2.94452C16.4075 2.92232 16.4449 2.90012 16.4949 2.87792L16.3575 1.93453L17.032 2.63375H17.0444C17.1069 2.61155 17.1569 2.57826 17.2193 2.55606L17.2443 2.54496L17.2693 2.53386C17.2817 2.53386 17.2942 2.52276 17.2942 2.52276L17.3692 2.48947C17.3692 2.48947 17.3817 2.48947 17.3817 2.47837C17.4566 2.44507 17.544 2.41177 17.619 2.37848L16.0453 0.758057Z" fill="#FFD250"/>
<path d="M15.3838 0.891266L15.4837 0.869068C15.3214 0.802475 15.1215 0.75808 14.8967 0.724784C14.4471 0.66929 13.8726 0.724784 13.2231 0.869068C12.5737 1.01335 11.8368 1.26862 11.0624 1.61269C9.50126 2.30081 7.7777 3.35519 6.10411 4.70924C5.5171 5.17539 4.98005 5.66374 4.48047 6.14099L6.50377 8.36074C7.05331 7.828 7.64032 7.29526 8.28977 6.77362C9.15155 6.07439 10.0258 5.45286 10.8876 4.92012C11.7244 4.39848 12.5612 3.95453 13.348 3.59937L12.9983 2.17872L13.0108 1.37961L12.9983 1.36851L13.7352 1.16874L15.1715 1.82356L15.134 1.37961L15.3838 0.891266Z" fill="#4D9ED7"/>
<path d="M15.3841 0.891235L15.1344 1.37958L15.1718 1.83463L15.5215 1.99001L15.3841 0.891235ZM14.8721 2.30078L16.3708 2.95561L15.7963 3.24418L14.8721 2.30078ZM16.3708 1.93452L16.5082 2.87792L17.0452 2.63374L16.3708 1.93452Z" fill="#132134"/>
<path d="M22.0158 1.59052H22.2906C22.5404 1.59052 22.7777 1.62382 23.0025 1.66821C23.015 1.66821 23.0274 1.66821 23.0399 1.67931H23.0524L23.0774 1.69041H23.1024C23.0774 1.67931 23.0524 1.65712 23.0274 1.64602C22.7777 1.55723 22.5154 1.50173 22.2406 1.46844C20.8917 1.31305 19.343 1.75701 18.4688 2.06777C18.4188 2.08997 18.3689 2.10107 18.3189 2.12326C18.244 2.15656 18.169 2.17876 18.0941 2.21205C17.9692 2.25645 17.8443 2.31194 17.7069 2.36744C17.6819 2.37854 17.6694 2.37854 17.6445 2.38964C17.5695 2.42293 17.4821 2.45623 17.4072 2.48952C17.4072 2.48952 17.3947 2.48952 17.3947 2.50062L17.3197 2.53392C17.3073 2.53392 17.2948 2.54502 17.2948 2.54502H17.2448L17.2323 2.55612C17.1699 2.57831 17.1199 2.60051 17.0575 2.63381H17.045C17.0325 2.64491 17.02 2.64491 17.0075 2.65601H16.995C16.9825 2.65601 16.97 2.6671 16.97 2.6671C16.8826 2.7115 16.7952 2.7448 16.7078 2.78919C16.6453 2.82249 16.5829 2.84469 16.5204 2.87798H16.5079C16.458 2.90018 16.4205 2.92238 16.3705 2.94457C16.2207 3.01117 16.0833 3.08886 15.9334 3.16655C15.9209 3.17765 15.9084 3.17765 15.8834 3.18875C15.871 3.19985 15.8585 3.19985 15.846 3.21094C15.8335 3.22204 15.821 3.22204 15.8085 3.23314L15.796 3.24424C15.6961 3.29973 15.5962 3.34413 15.4963 3.39962C15.4713 3.41072 15.4463 3.42182 15.4213 3.44402C15.3589 3.47732 15.2839 3.52171 15.2215 3.55501L15.1965 3.56611L15.1715 3.5772L14.6095 3.91017C14.2973 4.09885 13.9975 4.28753 13.6978 4.4873C13.6603 4.5095 13.6228 4.5428 13.5854 4.565C12.7985 5.08664 12.0492 5.65268 11.3248 6.22981C10.5629 6.85134 9.82603 7.48397 9.13911 8.1277C8.76442 8.46067 8.43969 8.76033 8.1899 9.00451C7.66534 9.50395 7.37808 9.81472 7.39057 9.82582C7.39057 9.82582 7.44053 9.79252 7.52796 9.71483C7.46551 9.78142 7.39057 9.85911 7.32812 9.9257C8.47716 8.83802 9.7386 7.72815 11.1 6.68486C11.9243 6.05223 12.786 5.4418 13.6728 4.87576C14.06 4.63159 14.4596 4.38741 14.8593 4.15434C14.9842 4.07665 15.1216 4.01006 15.2465 3.93237C15.3089 3.89907 15.3714 3.86577 15.4463 3.83248C15.4838 3.81028 15.5212 3.78808 15.5587 3.77698C15.6337 3.74369 15.6961 3.69929 15.771 3.66599C15.8335 3.6327 15.9084 3.5994 15.9709 3.55501C16.0083 3.53281 16.0458 3.52171 16.0833 3.49951L16.3456 3.36633C16.3955 3.34413 16.4455 3.31083 16.4954 3.28864C16.6578 3.21094 16.8202 3.13325 16.995 3.05556C17.0075 3.04446 17.02 3.04446 17.0325 3.03336L17.1074 3.00007C17.1449 2.98897 17.1699 2.96677 17.2073 2.95567C17.2198 2.94457 17.2323 2.94457 17.2448 2.93348L17.3197 2.90018C17.3197 2.90018 17.3322 2.90018 17.3322 2.88908H17.3447C17.4197 2.85578 17.4946 2.82249 17.557 2.80029C17.5695 2.80029 17.582 2.78919 17.5945 2.77809L17.6694 2.7448C17.7569 2.7115 17.8318 2.6782 17.9192 2.64491C17.9442 2.63381 17.9692 2.62271 17.9817 2.61161C17.9942 2.61161 18.0067 2.60051 18.0192 2.60051C18.0441 2.58941 18.0691 2.57831 18.0941 2.57831C18.194 2.54502 18.2814 2.50062 18.3813 2.46733C18.4688 2.43403 18.5437 2.40073 18.6311 2.36744C19.1057 2.18986 19.5429 2.04557 19.955 1.92349C20.7294 1.73481 21.4163 1.61272 22.0158 1.59052Z" fill="white"/>
</svg>
