<svg width="32" height="38" viewBox="0 0 32 38" fill="none" xmlns="http://www.w3.org/2000/svg">
<path d="M15.9979 20.461C21.9755 20.461 26.838 15.8719 26.838 10.2305C26.838 4.58911 21.9755 0 15.9979 0C10.0204 0 5.1578 4.58911 5.1578 10.2305C5.1578 15.8719 10.0204 20.461 15.9979 20.461ZM15.9979 2.923C20.2679 2.923 23.7409 6.20066 23.7409 10.2305C23.7409 14.2604 20.2679 17.538 15.9979 17.538C11.7279 17.538 8.25498 14.2604 8.25498 10.2305C8.25498 6.20066 11.7279 2.923 15.9979 2.923ZM32 30.6273V32.5974C32 34.4194 31.2959 36.1653 30.0157 37.5119C29.7102 37.8353 29.2868 37.999 28.8615 37.999C28.494 37.999 28.1244 37.8762 27.8291 37.6268C27.1911 37.0889 27.1395 36.1653 27.7094 35.5632C28.4795 34.7506 28.9048 33.6983 28.9048 32.5993V30.6292C28.9048 27.6789 26.8318 25.126 23.8606 24.4226C23.3382 24.2979 22.7766 24.3662 22.3203 24.6098C18.3952 26.6715 13.5924 26.6635 9.69204 24.6155C9.2254 24.3641 8.66382 24.2921 8.14143 24.4207C5.17021 25.1261 3.09503 27.6789 3.09503 30.6292V32.5993C3.09503 33.7003 3.52046 34.7525 4.29063 35.5632C4.86051 36.1653 4.80673 37.0889 4.17078 37.6268C3.5307 38.1665 2.55207 38.114 1.98425 37.5138C0.704089 36.1653 0 34.4193 0 32.5993V30.6292C0 26.3382 3.03723 22.6201 7.38566 21.5873C8.67202 21.2795 10.0699 21.4549 11.2138 22.0707C14.1664 23.6218 17.8253 23.6276 20.8027 22.0648C21.9322 21.4568 23.33 21.2833 24.6205 21.5893C28.9628 22.6162 32 26.3344 32 30.6273Z" fill="white"/>
</svg>
