<svg width="24" height="22" viewBox="0 0 24 22" fill="none" xmlns="http://www.w3.org/2000/svg">
<path d="M18.3158 9.39974H17.1537L14.2485 12.2979C13.6548 12.9027 12.859 13.2303 12.0126 13.2303C11.179 13.2303 10.3832 12.9027 9.78947 12.2979L6.88423 9.39974H5.68421C2.53895 9.39974 0 11.945 0 15.0699V16.3299C0 19.4673 2.53895 22 5.68421 22H18.3158C21.4484 22 24 19.4673 24 16.3299V15.0699C24 11.945 21.4484 9.39974 18.3158 9.39974ZM18.3158 16.6449C17.4316 16.6449 16.7242 15.9393 16.7242 15.0699C16.7242 14.2004 17.4316 13.4948 18.3158 13.4948C19.1874 13.4948 19.8821 14.2004 19.8821 15.0699C19.8821 15.9393 19.1874 16.6449 18.3158 16.6449ZM7.33894 7.18209C6.84631 6.69068 6.84631 5.89697 7.33894 5.40556C7.57894 5.15355 7.90738 5.0401 8.22317 5.0401C8.55159 5.0401 8.87996 5.15355 9.11996 5.40556L10.7495 7.03104V1.26003C10.7495 0.554411 11.3179 0 12.0126 0C12.72 0 13.2758 0.554411 13.2758 1.26003V7.03104L14.9179 5.40556C15.1579 5.15355 15.4863 5.0401 15.8021 5.0401C16.1305 5.0401 16.4589 5.15355 16.6989 5.40556C17.1915 5.89697 17.1915 6.69068 16.6989 7.18209L12.9094 10.9622C12.6694 11.2142 12.3411 11.3402 12.0126 11.3402C11.6969 11.3402 11.3684 11.2142 11.1284 10.9622L7.33894 7.18209Z" fill="#00B24F"/>
</svg>
