<svg width="34" height="34" viewBox="0 0 34 34" fill="none" xmlns="http://www.w3.org/2000/svg">
<path d="M31.7909 2.21089C30.3664 0.784558 28.4712 0 26.4521 0C24.4365 0 22.5413 0.784558 21.1133 2.21089L2.74817 20.5772C2.03679 21.2869 1.57303 22.1882 1.40739 23.1803L0.0300044 31.442C-0.086815 32.1412 0.141575 32.8561 0.643725 33.3565C1.0587 33.7715 1.62007 34 2.19894 34C2.3175 34 2.43964 33.9913 2.55821 33.9704L10.8209 32.5928C11.8113 32.4289 12.711 31.965 13.4223 31.2536L31.7874 12.8875C33.2137 11.4612 34 9.56578 34 7.54834C34 5.53091 33.2189 3.63721 31.7909 2.21089ZM11.5777 29.4054C11.2534 29.7297 10.8454 29.939 10.3956 30.0139L2.70986 31.2938L3.98965 23.6095C4.06463 23.1578 4.2756 22.7499 4.59816 22.4273L18.6915 8.33312L25.6692 15.3112L11.5777 29.4054ZM29.9428 11.0393L27.5192 13.4628L20.5414 6.48472L22.965 4.06099C23.8978 3.12986 25.1357 2.61552 26.4538 2.61552C27.7719 2.61552 29.0117 3.12812 29.9428 4.06099C30.8738 4.99386 31.3882 6.23182 31.3882 7.55005C31.3882 8.86827 30.8738 10.1064 29.9428 11.0393Z" fill="white"/>
</svg>
