<svg width="34" height="32" viewBox="0 0 34 32" fill="none" xmlns="http://www.w3.org/2000/svg">
<path d="M6.8 16H8.5V17.7222H18.7V16H20.4V14.2778H22.1V3.94444H20.4V2.22222H18.7V0.5H8.5V2.22222H6.8V3.94444H5.1V14.2778H6.8V16ZM8.5 7.38889H10.2V5.66667H11.9V3.94444H15.3V5.66667H17V7.38889H18.7V10.8333H17V12.5556H15.3V14.2778H11.9V12.5556H10.2V10.8333H8.5V7.38889ZM23.8 21.1667H22.1V19.4444H3.4V21.1667H1.7V22.8889H0V31.5H3.4V26.3333H5.1V24.6111H6.8V22.8889H18.7V24.6111H20.4V26.3333H22.1V31.5H25.5V22.8889H23.8V21.1667ZM27.2 16H28.9V14.2778H30.6V3.94444H28.9V2.22222H27.2V0.5H23.8V5.66667H25.5V7.38889H27.2V10.8333H25.5V12.5556H23.8V17.7222H27.2V16ZM32.3 22.8889V21.1667H30.6V19.4444H27.2V24.6111H28.9V26.3333H30.6V31.5H34V22.8889H32.3Z" fill="#00B24F"/>
</svg>
