<svg width="41" height="41" viewBox="0 0 41 41" fill="none" xmlns="http://www.w3.org/2000/svg">
<path opacity="0.25" fill-rule="evenodd" clip-rule="evenodd" d="M20.2526 39.9702C30.802 39.9702 39.354 31.34 39.354 20.6942C39.354 10.0484 30.802 1.41821 20.2526 1.41821C9.70313 1.41821 1.15112 10.0484 1.15112 20.6942C1.15112 31.34 9.70313 39.9702 20.2526 39.9702Z" stroke="white" stroke-width="1.5"/>
<path d="M26.4962 17.1308C26.4076 17.0297 26.2647 17.0043 26.1474 17.0666C26.0745 17.1054 25.9375 17.1562 25.7747 17.2065C25.98 16.9232 26.1451 16.6059 26.218 16.3208C26.2495 16.1979 26.2034 16.0684 26.1031 15.9951C26.0028 15.9225 25.8692 15.9225 25.7689 15.9951C25.6108 16.1095 24.848 16.4534 24.3656 16.5648C23.2756 15.5738 22.007 15.4709 20.6883 16.27C19.6163 16.9195 19.383 18.2405 19.4285 19.0457C16.9748 18.8005 15.4497 17.4553 14.5911 16.342C14.5311 16.2639 14.4342 16.2227 14.3432 16.2288C14.2476 16.2361 14.1613 16.2911 14.1123 16.3765C13.7064 17.0878 13.5938 17.8742 13.788 18.6509C13.8942 19.0747 14.0796 19.4482 14.2948 19.7509C14.1916 19.6983 14.0919 19.6323 13.998 19.5536C13.9117 19.4797 13.7909 19.4658 13.6889 19.5148C13.5874 19.5651 13.5226 19.6716 13.5226 19.7885C13.5226 21.1221 14.3263 22.012 15.077 22.477C14.9557 22.4618 14.8291 22.434 14.7014 22.3934C14.5917 22.3589 14.4727 22.3934 14.3969 22.483C14.3211 22.572 14.303 22.6992 14.3502 22.8075C14.7719 23.7755 15.571 24.4415 16.5596 24.683C15.6964 25.2091 14.541 25.467 13.483 25.3404C13.3459 25.3205 13.2153 25.4107 13.1721 25.5475C13.1289 25.6843 13.1855 25.8344 13.3063 25.9047C14.9113 26.84 16.3624 27.1742 17.6164 27.1742C19.4413 27.1742 20.8499 26.4671 21.7072 25.8756C24.0186 24.2834 25.4592 21.4248 25.2586 18.8671C25.6289 18.5831 26.183 18.0589 26.5265 17.4953C26.5977 17.3814 26.5849 17.2313 26.4962 17.1308Z" fill="white"/>
</svg>
