<svg width="40" height="41" viewBox="0 0 40 41" fill="none" xmlns="http://www.w3.org/2000/svg">
<path opacity="0.25" fill-rule="evenodd" clip-rule="evenodd" d="M20.1014 39.9702C30.6509 39.9702 39.2029 31.34 39.2029 20.6942C39.2029 10.0484 30.6509 1.41821 20.1014 1.41821C9.55201 1.41821 1 10.0484 1 20.6942C1 31.34 9.55201 39.9702 20.1014 39.9702Z" stroke="white" stroke-width="1.5"/>
<path d="M15.7175 16.8029C16.6118 16.8029 17.3368 16.0713 17.3368 15.1688C17.3368 14.2663 16.6118 13.5347 15.7175 13.5347C14.8231 13.5347 14.0981 14.2663 14.0981 15.1688C14.0981 16.0713 14.8231 16.8029 15.7175 16.8029Z" fill="white"/>
<path d="M17.0669 17.8945H14.368C14.2191 17.8945 14.0981 18.0165 14.0981 18.1669V26.3374C14.0981 26.4878 14.2191 26.6098 14.368 26.6098H17.0669C17.2159 26.6098 17.3368 26.4878 17.3368 26.3374V18.1669C17.3368 18.0165 17.2159 17.8945 17.0669 17.8945Z" fill="white"/>
<path d="M25.1093 17.4414C23.9558 17.0427 22.513 17.3929 21.6477 18.021C21.618 17.9039 21.5122 17.8167 21.3865 17.8167H18.6876C18.5386 17.8167 18.4177 17.9387 18.4177 18.0891V26.2596C18.4177 26.4099 18.5386 26.5319 18.6876 26.5319H21.3865C21.5354 26.5319 21.6563 26.4099 21.6563 26.2596V20.3877C22.0925 20.0086 22.6544 19.8877 23.1143 20.0848C23.5601 20.275 23.8154 20.739 23.8154 21.3573V26.2596C23.8154 26.4099 23.9363 26.5319 24.0853 26.5319H26.7842C26.9331 26.5319 27.0541 26.4099 27.0541 26.2596V20.8088C27.0233 18.5706 25.9799 17.7421 25.1093 17.4414Z" fill="white"/>
</svg>
