<svg width="41" height="41" viewBox="0 0 41 41" fill="none" xmlns="http://www.w3.org/2000/svg">
<path opacity="0.25" fill-rule="evenodd" clip-rule="evenodd" d="M20.6769 39.9702C31.2263 39.9702 39.7783 31.34 39.7783 20.6942C39.7783 10.0484 31.2263 1.41821 20.6769 1.41821C10.1274 1.41821 1.57544 10.0484 1.57544 20.6942C1.57544 31.34 10.1274 39.9702 20.6769 39.9702Z" stroke="white" stroke-width="1.5"/>
<path d="M22.416 15.7603H24.1715C24.333 15.7603 24.4641 15.6356 24.4641 15.4821V13.8127C24.4641 13.6591 24.333 13.5344 24.1715 13.5344H22.416C20.6417 13.5344 19.1974 14.9072 19.1974 16.595V18.5426H17.1493C16.9878 18.5426 16.8567 18.6673 16.8567 18.8208V20.4902C16.8567 20.6438 16.9878 20.7685 17.1493 20.7685H19.1974V26.6114C19.1974 26.765 19.3285 26.8896 19.49 26.8896H21.2456C21.4071 26.8896 21.5382 26.765 21.5382 26.6114V20.7685H23.5863C23.7122 20.7685 23.8239 20.6917 23.8643 20.5782L24.4495 18.9088C24.4793 18.8242 24.4641 18.7307 24.4091 18.6578C24.3535 18.5855 24.2658 18.5426 24.1715 18.5426H21.5382V16.595C21.5382 16.1348 21.932 15.7603 22.416 15.7603Z" fill="white"/>
</svg>
