<svg width="28" height="28" viewBox="0 0 28 28" fill="none" xmlns="http://www.w3.org/2000/svg">
<path fill-rule="evenodd" clip-rule="evenodd" d="M14 0C21.7323 0 28 6.26773 28 14C28 21.7323 21.7323 28 14 28C6.26773 28 0 21.7323 0 14C0 6.26773 6.26773 0 14 0Z" fill="url(#paint0_linear_1398_80)"/>
<path fill-rule="evenodd" clip-rule="evenodd" d="M9.88785 8.71606C12.806 8.71606 15.1718 11.0818 15.1718 14C15.1718 16.9181 12.806 19.2839 9.88785 19.2839C6.97027 19.2839 4.60449 16.9181 4.60449 14C4.60449 11.0818 6.97027 8.71606 9.88785 8.71606ZM22.4649 9.5506C22.9795 9.5506 23.3962 11.5429 23.3962 14C23.3962 16.4571 22.9795 18.4493 22.4649 18.4493C21.9508 18.4493 21.5336 16.4571 21.5336 14C21.5336 11.5429 21.9508 9.5506 22.4649 9.5506ZM18.3425 9.13333C19.8191 9.13333 21.0157 11.3121 21.0157 14C21.0157 16.6879 19.8191 18.8666 18.3425 18.8666C16.866 18.8666 15.6689 16.6879 15.6689 14C15.6689 11.3121 16.866 9.13333 18.3425 9.13333Z" fill="white"/>
<defs>
<linearGradient id="paint0_linear_1398_80" x1="3.70945" y1="4.50734" x2="25.9323" y2="21.327" gradientUnits="userSpaceOnUse">
<stop stop-color="#1E1B1E"/>
<stop offset="1" stop-color="#474747"/>
</linearGradient>
</defs>
</svg>
