<svg width="33" height="31" viewBox="0 0 33 31" fill="none" xmlns="http://www.w3.org/2000/svg">
<path d="M25.1842 0H7.81579C3.50842 0 0 3.47889 0 7.75V30.1389C0 30.4833 0.208417 30.7933 0.538417 30.931C0.642627 30.9827 0.764211 31 0.868421 31C1.09421 31 1.32001 30.9141 1.47633 30.7418L5.67945 26.591C6.16577 26.1088 6.82577 25.8333 7.5205 25.8333H25.1842C29.4916 25.8333 33 22.3544 33 18.0833V7.75C33 3.47889 29.4916 0 25.1842 0ZM9.55263 15.0694C8.35421 15.0694 7.38158 14.105 7.38158 12.9167C7.38158 11.7283 8.35421 10.7639 9.55263 10.7639C10.7511 10.7639 11.7237 11.7283 11.7237 12.9167C11.7237 14.105 10.7511 15.0694 9.55263 15.0694ZM16.5 15.0694C15.3016 15.0694 14.3289 14.105 14.3289 12.9167C14.3289 11.7283 15.3016 10.7639 16.5 10.7639C17.6984 10.7639 18.6711 11.7283 18.6711 12.9167C18.6711 14.105 17.6984 15.0694 16.5 15.0694ZM23.4474 15.0694C22.2489 15.0694 21.2763 14.105 21.2763 12.9167C21.2763 11.7283 22.2489 10.7639 23.4474 10.7639C24.6458 10.7639 25.6184 11.7283 25.6184 12.9167C25.6184 14.105 24.6458 15.0694 23.4474 15.0694Z" fill="#00B24F"/>
</svg>
