<svg width="46" height="45" viewBox="0 0 46 45" fill="none" xmlns="http://www.w3.org/2000/svg">
<path d="M40.2682 19.2019C39.2278 17.52 37.5359 15.242 35.1984 13.1983L39.6666 8.82572C40.4157 8.0926 40.4157 6.90748 39.6666 6.17436C38.9174 5.44123 37.7065 5.44123 36.9573 6.17436L6.30072 36.1744C5.55155 36.9075 5.55155 38.0926 6.30072 38.8257C6.67435 39.1913 7.16485 39.375 7.65536 39.375C8.14586 39.375 8.63637 39.1913 9.00999 38.8257L13.8672 34.0728C16.6837 35.7209 19.736 36.5644 22.9856 36.5644C32.24 36.5644 37.7774 29.8144 40.2682 25.8019C41.5137 23.7581 41.5137 21.2456 40.2682 19.2019ZM22.9856 30.9394C21.2956 30.9394 19.7437 30.439 18.4159 29.6215L21.2382 26.8575C21.7785 27.0656 22.3648 27.1894 22.9836 27.1894C25.6278 27.1894 27.7737 25.0894 27.7737 22.5019C27.7737 22.4081 27.7738 22.3521 27.7546 22.2583C27.4864 22.4083 27.1606 22.5019 26.8157 22.5019C26.49 22.5019 26.1987 22.4026 25.9324 22.2638L30.2665 18.0227C31.1058 19.3239 31.6058 20.8537 31.6058 22.5019C31.6077 27.1519 27.7373 30.9394 22.9856 30.9394ZM8.27043 29.2896C7.33157 28.2021 6.46938 27.0206 5.72213 25.8019C4.47671 23.7581 4.47669 21.2456 5.70295 19.2019C8.1938 15.1894 13.7503 8.43937 22.9856 8.43937C24.7675 8.43937 26.4919 8.68296 28.2547 9.20796C28.5804 9.30171 28.8295 9.56441 28.9253 9.88316C29.0019 10.2019 28.9062 10.5394 28.6571 10.7644L25.0357 14.3084C24.3843 14.1584 23.6945 14.0644 22.9856 14.0644C18.2338 14.0644 14.3634 17.8519 14.3634 22.5019C14.3634 23.1956 14.4401 23.8708 14.6125 24.527L9.68828 29.3454C9.49668 29.5329 9.26678 29.627 8.99853 29.627C8.99853 29.627 8.97934 29.627 8.96018 29.627C8.69193 29.6082 8.44287 29.4958 8.27043 29.2896Z" fill="#909090"/>
</svg>
