<svg width="32" height="32" viewBox="0 0 32 32" fill="none" xmlns="http://www.w3.org/2000/svg">
<path d="M30.6488 1.3504C29.4952 0.196812 27.8624 -0.255989 26.2788 0.141121L4.76067 5.52008C1.89223 6.23717 -0.0211562 8.70522 0.00017658 11.6622C0.0215093 14.6192 1.96772 17.0591 4.846 17.7368L12.47 19.5304L14.2636 27.1543C14.9413 30.0325 17.3814 31.9787 20.3385 32C20.3549 32 20.3696 32 20.3861 32C23.3218 32 25.7669 30.0916 26.4807 27.2396L31.8598 5.72199C32.2553 4.13683 31.8024 2.50399 30.6488 1.3504ZM29.4705 5.12126L24.0915 26.6391C23.5516 28.792 21.735 29.5124 20.3549 29.537C18.9683 29.5271 17.1681 28.7493 16.6594 26.5882L14.8477 18.892L21.7925 11.9477C22.2733 11.4669 22.2733 10.6874 21.7925 10.2066C21.3117 9.72576 20.5321 9.72576 20.0513 10.2066L13.1067 17.1511L5.41049 15.3395C3.24932 14.8308 2.4715 13.0306 2.46165 11.644C2.4518 10.2557 3.205 8.44581 5.35961 7.90758L26.8762 2.52863C27.0517 2.48432 27.2289 2.46293 27.4029 2.46293C27.9608 2.46293 28.4992 2.68295 28.9078 3.0899C29.4444 3.62649 29.6543 4.38611 29.4705 5.12126Z" fill="white"/>
</svg>
