<svg width="28" height="28" viewBox="0 0 28 28" fill="none" xmlns="http://www.w3.org/2000/svg">
<g clip-path="url(#clip0_868_3312)">
<path d="M20.7511 10.082C22.794 11.3705 25.2967 12.1286 27.9997 12.1286V7.53952C27.4881 7.53961 26.9779 7.4925 26.4774 7.39894V11.0112C23.7746 11.0112 21.2723 10.2532 19.2289 8.96482V18.3299C19.2289 23.0149 14.9244 26.8125 9.61485 26.8125C7.63374 26.8125 5.7923 26.2841 4.2627 25.3777C6.00854 26.9528 8.44323 27.9298 11.1367 27.9298C16.4466 27.9298 20.7513 24.1322 20.7513 19.4471V10.082H20.7511ZM22.6291 5.45217C21.585 4.44581 20.8994 3.14526 20.7511 1.70741V1.11719H19.3085C19.6717 2.94462 20.9103 4.50586 22.6291 5.45217ZM7.62094 21.7827C7.03764 21.108 6.72233 20.2824 6.72374 19.4336C6.72374 17.291 8.6926 15.5536 11.1217 15.5536C11.5743 15.5534 12.0243 15.6147 12.4558 15.7354V11.0437C11.9515 10.9827 11.4427 10.9568 10.9341 10.9663V14.6181C10.5025 14.4973 10.0523 14.436 9.59943 14.4364C7.17043 14.4364 5.20168 16.1736 5.20168 18.3165C5.20168 19.8318 6.18573 21.1437 7.62094 21.7827Z" fill="#FF004F"/>
<path d="M19.2287 8.96472C21.2722 10.2531 23.7744 11.0111 26.4772 11.0111V7.39884C24.9685 7.11527 23.6329 6.41971 22.6288 5.45217C20.9099 4.50577 19.6715 2.94453 19.3084 1.11719H15.5193V19.4469C15.5106 21.5837 13.5452 23.3139 11.1213 23.3139C9.6931 23.3139 8.42413 22.7133 7.62055 21.7826C6.18555 21.1437 5.2014 19.8317 5.2014 18.3166C5.2014 16.1738 7.17015 14.4365 9.59915 14.4365C10.0645 14.4365 10.5131 14.5004 10.9339 14.6182V10.9664C5.71754 11.0615 1.52246 14.822 1.52246 19.447C1.52246 21.7557 2.5671 23.8486 4.26263 25.3779C5.79224 26.2841 7.63357 26.8127 9.61479 26.8127C14.9244 26.8127 19.2289 23.0148 19.2289 18.3299L19.2287 8.96472Z" fill="black"/>
<path d="M26.477 7.39876V6.42223C25.1164 6.42405 23.7828 6.08789 22.6285 5.45218C23.6503 6.43914 24.9957 7.11975 26.477 7.39895M19.308 1.1171C19.2734 0.9425 19.2468 0.766728 19.2283 0.590221V0H13.9965V18.3299C13.9882 20.4666 12.0227 22.1968 9.59875 22.1968C8.91158 22.1977 8.23379 22.0559 7.62016 21.7828C8.42373 22.7133 9.6927 23.3139 11.1209 23.3139C13.5447 23.3139 15.5104 21.5838 15.5189 19.447V1.1172L19.308 1.1171ZM10.9338 10.9663V9.92658C10.4966 9.87383 10.0559 9.84744 9.61461 9.8476C4.30445 9.8476 0 13.6454 0 18.3299C0 21.2669 1.6917 23.8552 4.26245 25.3778C2.56692 23.8486 1.52228 21.7555 1.52228 19.4469C1.52228 14.822 5.71725 11.0614 10.9338 10.9663Z" fill="#00F2EA"/>
</g>
<defs>
<clipPath id="clip0_868_3312">
<rect width="28" height="28" rx="10" fill="white"/>
</clipPath>
</defs>
</svg>
