<svg width="42" height="28" viewBox="0 0 42 28" fill="none" xmlns="http://www.w3.org/2000/svg">
<path fill-rule="evenodd" clip-rule="evenodd" d="M40.215 2.69818C39.0757 0.733091 37.8394 0.371636 35.322 0.234182C32.8073 0.0687273 26.4836 0 21.0052 0C15.5164 0 9.19012 0.0687275 6.678 0.231637C4.16587 0.371637 2.92687 0.730545 1.77713 2.69818C0.60375 4.66073 0 8.04109 0 13.9924V14.0127C0 19.9385 0.60375 23.3444 1.77713 25.2865C2.92687 27.2516 4.16325 27.608 6.67537 27.7735C9.19012 27.916 15.5164 28 21.0052 28C26.4836 28 32.8073 27.916 35.3246 27.776C37.842 27.6105 39.0784 27.2542 40.2176 25.2891C41.4015 23.3469 42 19.9411 42 14.0153V13.9949C42 8.04109 41.4015 4.66073 40.215 2.69818Z" fill="#F44336"/>
<path fill-rule="evenodd" clip-rule="evenodd" d="M15.75 21.6364V6.36365L28.875 14L15.75 21.6364Z" fill="#FAFAFA"/>
</svg>
