<svg width="151" height="145" viewBox="0 0 151 145" fill="none" xmlns="http://www.w3.org/2000/svg">
<path d="M135.792 27.9582C135.792 34.8748 131.208 40.75 124.917 42.6666C125.625 40.375 126 37.9167 126 35.4167C126 26.2917 121.083 18.2921 113.792 13.9587C115.792 13.0421 118 12.5 120.375 12.5C128.875 12.5 135.792 19.4165 135.792 27.9582ZM132.667 47.0835C130.917 46.5835 129 46.8331 127.458 47.7081C125.625 48.7081 123.667 49.2921 121.667 49.4171C120.833 50.6671 119.875 51.8748 118.75 52.9582C126.792 55.5832 132.667 62.5417 134 70.8333H136.875C138.792 70.8333 140.542 69.8338 141.417 68.2088C142.25 66.6672 142.667 64.9163 142.667 63.1663V60.2081C142.667 53.9998 138.542 48.6252 132.667 47.0835ZM88.2083 13.9587C86.2083 13.0421 83.9999 12.5 81.6249 12.5C73.1249 12.5 66.2085 19.4165 66.2085 27.9582C66.2085 34.8748 70.7917 40.75 77.0834 42.6666C76.3751 40.375 76 37.9167 76 35.4167C76 26.2917 80.9167 18.2921 88.2083 13.9587ZM83.25 52.9582C82.125 51.8748 81.1666 50.6671 80.3333 49.4171C78.3333 49.2921 76.3751 48.7081 74.5418 47.7081C73.0001 46.8331 71.0835 46.5835 69.3335 47.0835C63.4585 48.6252 59.3334 53.9998 59.3334 60.2081V63.1663C59.3334 64.9163 59.75 66.6672 60.5833 68.2088C61.4583 69.8338 63.2084 70.8333 65.0834 70.8333H68.0001C69.3334 62.5417 75.2083 55.5832 83.25 52.9582ZM115.917 58.6253C115.208 58.4586 114.458 58.3333 113.708 58.3333C112.292 58.3333 110.833 58.7084 109.583 59.4167C106.917 60.875 103.958 61.6252 101 61.6252C98.0417 61.6252 95.0834 60.875 92.4167 59.4167C91.1667 58.7084 89.7084 58.3333 88.2918 58.3333C87.5418 58.3333 86.7916 58.4586 86.0833 58.6253C78.9166 60.542 73.9167 67.0829 73.9167 74.5829V78.2084C73.9167 80.3334 74.4584 82.4582 75.4584 84.2916C76.5 86.2916 78.5833 87.5 80.9167 87.5H121.083C123.417 87.5 125.5 86.2916 126.542 84.2916C127.542 82.4582 128.083 80.3334 128.083 78.2084V74.5829C128.083 67.0829 123.083 60.542 115.917 58.6253ZM119.75 35.4167C119.75 25.0625 111.354 16.6667 101 16.6667C90.6459 16.6667 82.25 25.0625 82.25 35.4167C82.25 45.7708 90.6459 54.1667 101 54.1667C111.354 54.1667 119.75 45.7708 119.75 35.4167Z" fill="#00B24F"/>
<rect y="137" width="151" height="8" fill="#00B24F"/>
<path d="M59.3942 126H56.4283L60.9474 112.909H64.5142L69.027 126H66.0611L62.782 115.901H62.6797L59.3942 126ZM59.2088 120.854H66.2145V123.015H59.2088V120.854ZM70.6026 126V112.909H79.2702V115.191H73.3704V118.31H78.695V120.592H73.3704V126H70.6026ZM81.1319 126V112.909H89.7995V115.191H83.8997V118.31H89.2243V120.592H83.8997V126H81.1319ZM94.429 112.909V126H91.6612V112.909H94.429ZM96.7061 126V112.909H99.4739V123.718H105.086V126H96.7061ZM109.687 112.909V126H106.919V112.909H109.687ZM114.22 126H111.254L115.774 112.909H119.34L123.853 126H120.887L117.608 115.901H117.506L114.22 126ZM114.035 120.854H121.041V123.015H114.035V120.854ZM123.331 115.191V112.909H134.082V115.191H130.074V126H127.338V115.191H123.331ZM135.853 126V112.909H144.674V115.191H138.62V118.31H144.22V120.592H138.62V123.718H144.699V126H135.853Z" fill="#00B24F"/>
</svg>
