<svg width="100" height="100" viewBox="0 0 100 100" fill="none" xmlns="http://www.w3.org/2000/svg">
<path d="M100 0H93.3335V80H100V0Z" fill="#D5D5D5"/>
<path d="M80 93.3334H0V100H80V93.3334Z" fill="#D5D5D5"/>
<path d="M20.0002 53.3334H13.3335V86.6667H20.0002V53.3334Z" fill="#D5D5D5"/>
<path d="M40.0002 33.3334H33.3335V86.6667H40.0002V33.3334Z" fill="#D5D5D5"/>
<path d="M60.0002 13.3334H53.3335V40H60.0002V13.3334Z" fill="#D5D5D5"/>
<path d="M80.0002 0H73.3335V40H80.0002V0Z" fill="#D5D5D5"/>
<path d="M66.6665 86.6666C62.7109 86.6666 58.8441 85.4937 55.5551 83.296C52.2661 81.0984 49.7027 77.9748 48.1889 74.3203C46.6752 70.6658 46.2791 66.6445 47.0508 62.7648C47.8225 58.8852 49.7273 55.3215 52.5244 52.5245C55.3214 49.7274 58.8851 47.8226 62.7647 47.0509C66.6443 46.2792 70.6657 46.6753 74.3202 48.189C77.9747 49.7028 81.0983 52.2662 83.2959 55.5552C85.4935 58.8442 86.6665 62.711 86.6665 66.6666C86.6665 71.971 84.5594 77.058 80.8087 80.8088C77.0579 84.5595 71.9708 86.6666 66.6665 86.6666ZM66.6665 53.3333C64.0294 53.3333 61.4516 54.1153 59.2589 55.5804C57.0663 57.0455 55.3573 59.1278 54.3481 61.5642C53.339 64.0005 53.0749 66.6814 53.5894 69.2678C54.1038 71.8543 55.3737 74.23 57.2384 76.0947C59.1031 77.9594 61.4789 79.2293 64.0653 79.7438C66.6517 80.2582 69.3326 79.9942 71.769 78.985C74.2053 77.9759 76.2877 76.2669 77.7528 74.0742C79.2179 71.8816 79.9998 69.3037 79.9998 66.6666C79.9998 63.1304 78.5951 59.739 76.0946 57.2385C73.5941 54.7381 70.2027 53.3333 66.6665 53.3333Z" fill="#D5D5D5"/>
<path d="M79.0026 74.3159L74.2886 79.0299L94.2761 99.0175L98.9902 94.3034L79.0026 74.3159Z" fill="#D5D5D5"/>
</svg>
