<svg width="153" height="191" viewBox="0 0 153 191" fill="none" xmlns="http://www.w3.org/2000/svg">
<g opacity="0.8">
<path d="M52.4992 69.3313L63.1673 83.4221C64.6893 85.3938 66.9282 86.6848 69.397 87.0144C71.8659 87.344 74.365 86.6856 76.351 85.1823C78.337 83.679 79.6491 81.4524 80.0021 78.9868C80.355 76.5212 79.7203 74.0159 78.2358 72.0158L72.7475 64.7658L91.4804 63.6428C93.0896 63.5306 94.6443 63.0129 95.9994 62.1379C97.3546 61.2628 98.4662 60.0589 99.2306 58.6384C99.995 57.2179 100.387 55.627 100.371 54.0139C100.355 52.4009 99.9303 50.8182 99.1374 49.4134L84.0535 23.2865C83.2324 21.8983 82.0735 20.7404 80.6847 19.9206C79.2958 19.1007 77.7221 18.6456 76.11 18.5975C74.4979 18.5494 72.8999 18.9098 71.4646 19.6454C70.0293 20.381 68.8034 21.4677 67.9011 22.8044L56.198 40.5273C54.992 42.3467 54.4523 44.5272 54.6704 46.699L45.7147 51.8686C43.7735 53.0113 42.302 54.8072 41.5633 56.9353C40.8247 59.0633 40.867 61.3847 41.6828 63.4843C42.4985 65.584 44.0345 67.3251 46.0161 68.3963C47.9977 69.4674 50.2957 69.7988 52.4992 69.3313ZM73.7557 78.3358C73.6294 78.9186 73.3396 79.4533 72.9203 79.8773C72.501 80.3012 71.9695 80.5969 71.3882 80.7296C70.8068 80.8623 70.1997 80.8266 69.638 80.6266C69.0762 80.4266 68.5831 80.0706 68.2164 79.6004L58.3208 66.5309L63.7625 63.3893L73.1868 75.8375C73.456 76.1884 73.6462 76.5933 73.7444 77.0245C73.8426 77.4557 73.8464 77.903 73.7557 78.3358ZM61.4837 44.0151L73.1852 26.292C73.4825 25.8414 73.8901 25.4744 74.3691 25.2257C74.8482 24.977 75.3829 24.8549 75.9224 24.871C76.4619 24.8871 76.9884 25.0409 77.4517 25.3177C77.9151 25.5946 78.3 25.9853 78.5699 26.4527L93.654 52.58C93.9238 53.0472 94.0696 53.5756 94.0778 54.1151C94.0859 54.6546 93.956 55.1872 93.7005 55.6623C93.4449 56.1375 93.0721 56.5395 92.6176 56.8301C92.163 57.1207 91.6417 57.2903 91.1032 57.3229L69.8985 58.5937C69.3126 58.6244 68.7295 58.4935 68.2129 58.2155C67.6963 57.9374 67.2659 57.5228 66.9688 57.0169L64.1768 52.1811L61.3832 47.3414C61.0879 46.8328 60.9408 46.2518 60.9586 45.6639C60.9764 45.0761 61.1583 44.505 61.4837 44.0151ZM47.7244 61.6795C47.3055 60.9521 47.1922 60.0882 47.4093 59.2773C47.6263 58.4664 48.1561 57.7747 48.8824 57.3538L57.1084 52.6048L60.2751 58.0897L52.0486 62.839C51.3211 63.2572 50.4574 63.37 49.6469 63.1526C48.8364 62.9353 48.1451 62.4056 47.7244 61.6795ZM97.0799 33.1839C97.5005 33.9105 98.1921 34.4407 99.003 34.658C99.8139 34.8754 100.678 34.7622 101.406 34.3433L106.889 31.1772C107.616 30.7571 108.146 30.0655 108.364 29.2545C108.581 28.4435 108.467 27.5795 108.047 26.8523C107.628 26.1252 106.936 25.5945 106.125 25.3769C105.314 25.1593 104.45 25.2727 103.723 25.692L98.2394 28.8582C97.5121 29.2782 96.9814 29.9698 96.764 30.7809C96.5466 31.5921 96.6602 32.4565 97.0799 33.1839ZM90.1261 26.23C90.8534 26.649 91.7173 26.7622 92.528 26.5448C93.3388 26.3274 94.0301 25.7972 94.4502 25.0705L97.6164 19.5885C97.8246 19.2285 97.9598 18.8311 98.0143 18.4188C98.0688 18.0066 98.0415 17.5876 97.9341 17.1859C97.8266 16.7842 97.6411 16.4077 97.388 16.0777C97.135 15.7477 96.8194 15.4708 96.4593 15.2629C96.0992 15.0549 95.7017 14.9199 95.2894 14.8656C94.8772 14.8114 94.4583 14.8388 94.0566 14.9465C93.655 15.0542 93.2785 15.2399 92.9487 15.4932C92.6188 15.7464 92.3421 16.0621 92.1343 16.4223L88.9682 21.9044C88.76 22.2644 88.6249 22.6619 88.5704 23.0742C88.516 23.4865 88.5433 23.9054 88.6508 24.3071C88.7584 24.7088 88.944 25.0854 89.1971 25.4154C89.4503 25.7453 89.7659 26.0221 90.1261 26.23ZM99.6246 42.6824C99.6245 43.0982 99.7063 43.51 99.8654 43.8941C100.024 44.2783 100.258 44.6274 100.552 44.9214C100.846 45.2155 101.195 45.4487 101.579 45.6078C101.963 45.7668 102.375 45.8487 102.791 45.8485H109.123C109.963 45.8485 110.768 45.515 111.362 44.9212C111.956 44.3274 112.289 43.5221 112.289 42.6824C112.289 41.8427 111.956 41.0373 111.362 40.4436C110.768 39.8498 109.963 39.5162 109.123 39.5162H102.791C102.375 39.5161 101.963 39.5979 101.579 39.757C101.195 39.9161 100.846 40.1493 100.552 40.4433C100.258 40.7373 100.024 41.0864 99.8654 41.4706C99.7063 41.8548 99.6245 42.2666 99.6246 42.6824Z" fill="white"/>
<path d="M149.45 183.982H143.118V69.9999C143.114 66.6421 141.779 63.4228 139.404 61.0485C137.03 58.6742 133.811 57.3388 130.453 57.3352H126.847C127.751 50.2068 127.128 42.9676 125.017 36.099C122.907 29.2303 119.359 22.8896 114.608 17.4985C109.858 12.1074 104.014 7.78944 97.4654 4.83169C90.9168 1.87394 83.8137 0.344208 76.6282 0.344208C69.4427 0.344208 62.3395 1.87394 55.791 4.83169C49.2425 7.78944 43.3987 12.1074 38.6481 17.4985C33.8976 22.8896 30.3493 29.2303 28.239 36.099C26.1287 42.9676 25.5049 50.2068 26.409 57.3352H22.8033C19.4455 57.3388 16.2262 58.6742 13.8519 61.0485C11.4776 63.4228 10.1421 66.6421 10.1386 69.9999V183.982H3.80622C2.975 183.995 2.18217 184.334 1.59891 184.927C1.01564 185.519 0.688721 186.317 0.688721 187.148C0.688721 187.98 1.01564 188.778 1.59891 189.37C2.18217 189.962 2.975 190.302 3.80622 190.314H149.45C150.281 190.302 151.074 189.962 151.657 189.37C152.241 188.778 152.568 187.98 152.568 187.148C152.568 186.317 152.241 185.519 151.657 184.927C151.074 184.334 150.281 183.995 149.45 183.982ZM76.6282 6.67643C88.3802 6.6896 99.6472 11.3639 107.957 19.6739C116.267 27.9838 120.941 39.2508 120.955 51.0028C118.52 109.808 34.7271 109.791 32.3018 51.0025C32.3151 39.2505 36.9894 27.9837 45.2994 19.6738C53.6093 11.3639 64.8762 6.68962 76.6282 6.67643ZM108.29 95.3292H120.955L120.959 104.828H108.29V95.3292ZM70.2958 101.222C74.4981 101.793 78.7583 101.793 82.9605 101.222V104.828H70.2958V101.222ZM44.9711 104.828H32.3018V95.3292H44.9665L44.9711 104.828ZM60.7973 183.982V155.487C60.7982 154.647 61.132 153.842 61.7256 153.249C62.3192 152.655 63.124 152.321 63.9635 152.32H89.2929C90.1323 152.321 90.9372 152.655 91.5308 153.249C92.1243 153.842 92.4582 154.647 92.459 155.487V183.982H60.7973ZM98.7914 183.982V155.487C98.7886 152.968 97.787 150.554 96.0063 148.773C94.2256 146.992 91.8112 145.991 89.2929 145.988H63.9635C61.4452 145.991 59.0308 146.992 57.2501 148.773C55.4693 150.554 54.4677 152.968 54.465 155.487V183.982H16.4709V69.9999C16.4728 68.321 17.1406 66.7115 18.3277 65.5243C19.5149 64.3372 21.1244 63.6694 22.8033 63.6675H27.6366C30.1833 73.4813 35.6165 82.3049 43.2331 88.9969H32.3018C30.6229 88.9988 29.0134 89.6666 27.8262 90.8537C26.6391 92.0409 25.9713 93.6504 25.9694 95.3292V104.828C25.9713 106.507 26.6391 108.116 27.8262 109.303C29.0134 110.49 30.6229 111.158 32.3018 111.16H44.9665C46.6453 111.158 48.2549 110.49 49.442 109.303C50.6291 108.116 51.2969 106.507 51.2988 104.828V95.3292C51.2988 95.1387 51.2592 94.959 51.2426 94.7727C55.2238 97.0875 59.5041 98.8445 63.9635 99.9944V104.828C63.9654 106.507 64.6332 108.116 65.8203 109.303C67.0074 110.49 68.617 111.158 70.2958 111.16H82.9605C84.6394 111.158 86.2489 110.49 87.436 109.303C88.6232 108.116 89.2909 106.507 89.2929 104.828V99.9944C93.7522 98.8445 98.0325 97.0875 102.014 94.7727C101.997 94.959 101.958 95.1387 101.958 95.3292V104.828C101.959 106.507 102.627 108.116 103.814 109.303C105.002 110.49 106.611 111.158 108.29 111.16H120.955C122.633 111.158 124.243 110.49 125.43 109.303C126.617 108.116 127.285 106.507 127.287 104.828V95.3292C127.285 93.6504 126.617 92.0409 125.43 90.8537C124.243 89.6666 122.633 88.9988 120.955 88.9969H110.023C117.64 82.3049 123.073 73.4813 125.62 63.6675H130.453C132.132 63.6694 133.741 64.3372 134.929 65.5243C136.116 66.7115 136.784 68.321 136.785 69.9999V183.982H98.7914Z" fill="white"/>
<path d="M44.9665 117.492H32.3018C30.623 117.494 29.0134 118.162 27.8263 119.349C26.6392 120.536 25.9714 122.146 25.9695 123.825V133.323C25.9714 135.002 26.6392 136.612 27.8263 137.799C29.0134 138.986 30.623 139.654 32.3018 139.656H44.9665C46.6454 139.654 48.2549 138.986 49.442 137.799C50.6292 136.612 51.2969 135.002 51.2989 133.323V123.825C51.2969 122.146 50.6292 120.536 49.442 119.349C48.2549 118.162 46.6454 117.494 44.9665 117.492ZM32.3018 133.323V123.825H44.9665L44.9711 133.323H32.3018ZM82.9606 117.492H70.2959C68.617 117.494 67.0075 118.162 65.8204 119.349C64.6332 120.536 63.9655 122.146 63.9635 123.825V133.323C63.9655 135.002 64.6332 136.612 65.8204 137.799C67.0075 138.986 68.617 139.654 70.2959 139.656H82.9606C84.6394 139.654 86.249 138.986 87.4361 137.799C88.6232 136.612 89.291 135.002 89.2929 133.323V123.825C89.291 122.146 88.6232 120.536 87.4361 119.349C86.249 118.162 84.6394 117.494 82.9606 117.492ZM70.2959 133.323V123.825H82.9606L82.9652 133.323H70.2959ZM120.955 117.492H108.29C106.611 117.494 105.002 118.162 103.814 119.349C102.627 120.536 101.96 122.146 101.958 123.825V133.323C101.96 135.002 102.627 136.612 103.814 137.799C105.002 138.986 106.611 139.654 108.29 139.656H120.955C122.633 139.654 124.243 138.986 125.43 137.799C126.617 136.612 127.285 135.002 127.287 133.323V123.825C127.285 122.146 126.617 120.536 125.43 119.349C124.243 118.162 122.633 117.494 120.955 117.492ZM108.29 133.323V123.825H120.955L120.959 133.323H108.29Z" fill="white"/>
</g>
</svg>
