<svg width="120" height="120" viewBox="0 0 120 120" fill="none" xmlns="http://www.w3.org/2000/svg">
<g filter="url(#filter0_f_108_5767)">
<path d="M51.6126 57.1386C53.4588 56.2099 54.859 55.1783 55.8104 54.0518C57.5098 52.0383 58.3563 49.369 58.3563 46.061C58.3563 42.8465 57.5105 40.0886 55.8303 37.7816C53.0334 34.0206 48.2861 32.0971 41.5786 32H15V86.2539H39.7813C42.5775 86.2539 45.1638 86.0199 47.5523 85.5265C49.9408 85.0323 52.0103 84.1284 53.7636 82.8026C55.3233 81.6456 56.62 80.2198 57.6566 78.5318C59.2971 75.9809 60.1153 73.0982 60.1153 69.8824C60.1153 66.7629 59.3964 64.1092 57.9735 61.9306C56.535 59.7476 54.4166 58.1532 51.6126 57.1386ZM25.9635 41.4208H37.9359C40.5669 41.4208 42.7363 41.7044 44.4385 42.2687C46.4066 43.0833 47.3942 44.7515 47.3942 47.2833C47.3942 49.5576 46.6448 51.1457 45.1588 52.0447C43.6615 52.9444 41.7189 53.3924 39.3396 53.3924H25.9635V41.4208ZM44.8902 75.8859C43.5679 76.5212 41.7048 76.8402 39.3191 76.8402H25.9635V62.368H39.5077C41.8579 62.3907 43.6948 62.7019 45.005 63.2911C47.3411 64.3446 48.5052 66.2822 48.5052 69.111C48.5052 72.4488 47.3042 74.697 44.8902 75.8859Z" fill="#1A70F9"/>
<path d="M71.8706 34.5312H95.4403V41.2813H71.8706V34.5312Z" fill="#47BBF4"/>
<path d="M71.8708 38.5143H95.4405V41.2814H71.8708V38.5143ZM100.382 52.8872C98.5387 50.1832 96.1998 48.1995 93.3596 46.9503C90.5287 45.6954 87.3398 45.0673 83.7928 45.0673C77.8346 45.0673 72.9952 46.9305 69.2526 50.632C65.5234 54.3442 63.6545 59.6756 63.6545 66.6285C63.6545 74.0393 65.7141 79.4006 69.8637 82.6888C73.9956 85.9812 78.7726 87.6239 84.1877 87.6239C90.7421 87.6239 95.8474 85.6721 99.4887 81.7749C101.823 79.3169 103.142 76.8958 103.429 74.5214H92.5684C91.9445 75.7019 91.2115 76.6171 90.3784 77.2836C88.8655 78.5072 86.8946 79.1248 84.4834 79.1248C82.192 79.1248 80.2409 78.6157 78.6138 77.6097C75.9403 75.9954 74.5379 73.1701 74.3586 69.1489H103.991C104.036 65.6834 103.923 63.0191 103.632 61.1836C103.141 58.0407 102.062 55.2736 100.382 52.8872ZM74.6173 62.2258C75.0051 59.6132 75.9523 57.543 77.4518 56.0159C78.9555 54.4874 81.081 53.7245 83.8013 53.7245C86.3097 53.7245 88.4082 54.442 90.1147 55.8798C91.8027 57.3325 92.757 59.4395 92.947 62.2258H74.6173Z" fill="#1A70F9"/>
</g>
<defs>
<filter id="filter0_f_108_5767" x="6.8" y="23.8" width="105.4" height="72.0239" filterUnits="userSpaceOnUse" color-interpolation-filters="sRGB">
<feFlood flood-opacity="0" result="BackgroundImageFix"/>
<feBlend mode="normal" in="SourceGraphic" in2="BackgroundImageFix" result="shape"/>
<feGaussianBlur stdDeviation="4.1" result="effect1_foregroundBlur_108_5767"/>
</filter>
</defs>
</svg>
