<svg width="153" height="191" viewBox="0 0 153 191" fill="none" xmlns="http://www.w3.org/2000/svg">
<g opacity="0.8">
<path d="M52.4993 69.3284L63.1673 83.4193C64.6894 85.3909 66.9282 86.6819 69.3971 87.0116C71.866 87.3412 74.3651 86.6827 76.3511 85.1794C78.337 83.6762 79.6491 81.4496 80.0021 78.984C80.3551 76.5183 79.7203 74.0131 78.2359 72.013L72.7476 64.7629L91.4805 63.64C93.0897 63.5278 94.6443 63.0101 95.9995 62.135C97.3546 61.26 98.4662 60.0561 99.2306 58.6356C99.995 57.2151 100.387 55.6241 100.371 54.0111C100.355 52.3981 99.9304 50.8154 99.1375 49.4106L84.0535 23.2836C83.2325 21.8955 82.0736 20.7376 80.6847 19.9177C79.2959 19.0979 77.7222 18.6427 76.1101 18.5946C74.498 18.5465 72.9 18.907 71.4647 19.6426C70.0294 20.3781 68.8035 21.4648 67.9011 22.8016L56.198 40.5245C54.9921 42.3439 54.4524 44.5243 54.6704 46.6962L45.7147 51.8658C43.7735 53.0085 42.302 54.8044 41.5634 56.9324C40.8247 59.0605 40.8671 61.3818 41.6828 63.4815C42.4986 65.5812 44.0346 67.3223 46.0162 68.3934C47.9978 69.4646 50.2958 69.796 52.4993 69.3284ZM73.7558 78.333C73.6295 78.9158 73.3397 79.4505 72.9204 79.8744C72.501 80.2984 71.9696 80.594 71.3882 80.7267C70.8069 80.8594 70.1998 80.8237 69.638 80.6237C69.0763 80.4237 68.5832 80.0677 68.2165 79.5975L58.3209 66.5281L63.7625 63.3865L73.1869 75.8347C73.4561 76.1856 73.6463 76.5904 73.7444 77.0216C73.8426 77.4528 73.8465 77.9002 73.7558 78.333ZM61.4838 44.0123L73.1853 26.2891C73.4826 25.8386 73.8901 25.4716 74.3692 25.2229C74.8482 24.9742 75.3829 24.8521 75.9224 24.8682C76.462 24.8843 76.9884 25.0381 77.4518 25.3149C77.9152 25.5917 78.3001 25.9824 78.57 26.4499L93.6541 52.5771C93.9238 53.0444 94.0697 53.5728 94.0778 54.1123C94.0859 54.6517 93.9561 55.1843 93.7005 55.6595C93.445 56.1347 93.0722 56.5366 92.6176 56.8273C92.1631 57.1179 91.6418 57.2875 91.1032 57.32L69.8985 58.5908C69.3126 58.6215 68.7296 58.4907 68.213 58.2127C67.6963 57.9346 67.266 57.52 66.9689 57.0141L64.1768 52.1783L61.3833 47.3386C61.088 46.83 60.9409 46.2489 60.9587 45.6611C60.9764 45.0733 61.1583 44.5021 61.4838 44.0123ZM47.7245 61.6767C47.3056 60.9492 47.1923 60.0854 47.4093 59.2745C47.6264 58.4636 48.1562 57.7719 48.8825 57.351L57.1084 52.6019L60.2752 58.0869L52.0486 62.8361C51.3211 63.2544 50.4575 63.3671 49.647 63.1498C48.8365 62.9324 48.1452 62.4028 47.7245 61.6767ZM97.08 33.181C97.5005 33.9077 98.1921 34.4378 99.0031 34.6552C99.814 34.8726 100.678 34.7594 101.406 34.3405L106.889 31.1743C107.616 30.7542 108.147 30.0627 108.364 29.2517C108.581 28.4407 108.467 27.5766 108.047 26.8495C107.628 26.1224 106.936 25.5917 106.125 25.3741C105.315 25.1565 104.45 25.2698 103.723 25.6892L98.2395 28.8554C97.5122 29.2753 96.9815 29.9669 96.7641 30.7781C96.5466 31.5893 96.6603 32.4536 97.08 33.181ZM90.1262 26.2272C90.8535 26.6462 91.7174 26.7594 92.5281 26.542C93.3388 26.3246 94.0301 25.7944 94.4503 25.0677L97.6165 19.5856C97.8246 19.2257 97.9598 18.8282 98.0143 18.416C98.0688 18.0037 98.0416 17.5848 97.9341 17.1831C97.8267 16.7814 97.6411 16.4048 97.3881 16.0748C97.135 15.7449 96.8195 15.468 96.4594 15.26C96.0993 15.0521 95.7018 14.9171 95.2895 14.8628C94.8772 14.8085 94.4583 14.836 94.0567 14.9437C93.655 15.0514 93.2785 15.2371 92.9487 15.4903C92.6189 15.7435 92.3422 16.0593 92.1344 16.4195L88.9682 21.9015C88.7601 22.2616 88.6249 22.6591 88.5705 23.0713C88.516 23.4836 88.5434 23.9026 88.6509 24.3043C88.7584 24.706 88.9441 25.0826 89.1972 25.4125C89.4503 25.7425 89.766 26.0193 90.1262 26.2272ZM99.6247 42.6795C99.6246 43.0954 99.7064 43.5071 99.8655 43.8913C100.025 44.2755 100.258 44.6246 100.552 44.9186C100.846 45.2126 101.195 45.4458 101.579 45.6049C101.963 45.764 102.375 45.8458 102.791 45.8457H109.123C109.963 45.8457 110.768 45.5121 111.362 44.9184C111.956 44.3246 112.289 43.5193 112.289 42.6795C112.289 41.8398 111.956 41.0345 111.362 40.4407C110.768 39.8469 109.963 39.5134 109.123 39.5134H102.791C102.375 39.5133 101.963 39.5951 101.579 39.7542C101.195 39.9132 100.846 40.1464 100.552 40.4405C100.258 40.7345 100.025 41.0836 99.8655 41.4678C99.7064 41.852 99.6246 42.2637 99.6247 42.6795Z" fill="white"/>
<path d="M149.45 183.979H143.118V69.997C143.114 66.6392 141.779 63.42 139.404 61.0457C137.03 58.6714 133.811 57.3359 130.453 57.3323H126.847C127.751 50.204 127.128 42.9648 125.017 36.0961C122.907 29.2275 119.359 22.8868 114.608 17.4957C109.858 12.1046 104.014 7.7866 97.4654 4.82885C90.9169 1.8711 83.8137 0.34137 76.6282 0.34137C69.4427 0.34137 62.3396 1.8711 55.7911 4.82885C49.2425 7.7866 43.3987 12.1046 38.6482 17.4957C33.8977 22.8868 30.3493 29.2275 28.2391 36.0961C26.1288 42.9648 25.505 50.204 26.4091 57.3323H22.8033C19.4455 57.3359 16.2263 58.6714 13.852 61.0457C11.4777 63.42 10.1422 66.6392 10.1386 69.997V183.979H3.80628C2.97506 183.992 2.18223 184.331 1.59897 184.924C1.0157 185.516 0.688782 186.314 0.688782 187.145C0.688782 187.977 1.0157 188.775 1.59897 189.367C2.18223 189.959 2.97506 190.299 3.80628 190.312H149.45C150.281 190.299 151.074 189.959 151.658 189.367C152.241 188.775 152.568 187.977 152.568 187.145C152.568 186.314 152.241 185.516 151.658 184.924C151.074 184.331 150.281 183.992 149.45 183.979ZM76.6282 6.67359C88.3803 6.68676 99.6472 11.3611 107.957 19.671C116.267 27.981 120.941 39.2479 120.955 51C118.52 109.805 34.7271 109.788 32.3018 50.9996C32.3151 39.2477 36.9895 27.9808 45.2994 19.6709C53.6094 11.3611 64.8763 6.68678 76.6282 6.67359ZM108.29 95.3264H120.955L120.959 104.825H108.29V95.3264ZM70.2959 101.219C74.4981 101.79 78.7583 101.79 82.9606 101.219V104.825H70.2959V101.219ZM44.9711 104.825H32.3018V95.3264H44.9665L44.9711 104.825ZM60.7974 183.979V155.484C60.7982 154.644 61.1321 153.839 61.7257 153.246C62.3192 152.652 63.1241 152.318 63.9635 152.318H89.2929C90.1324 152.318 90.9372 152.652 91.5308 153.246C92.1244 153.839 92.4583 154.644 92.4591 155.484V183.979H60.7974ZM98.7914 183.979V155.484C98.7887 152.965 97.7871 150.551 96.0064 148.77C94.2256 146.99 91.8112 145.988 89.2929 145.985H63.9635C61.4452 145.988 59.0308 146.99 57.2501 148.77C55.4694 150.551 54.4678 152.965 54.465 155.484V183.979H16.471V69.997C16.4729 68.3182 17.1407 66.7086 18.3278 65.5215C19.5149 64.3344 21.1245 63.6666 22.8033 63.6647H27.6366C30.1834 73.4784 35.6166 82.3021 43.2332 88.9941H32.3018C30.623 88.996 29.0134 89.6638 27.8263 90.8509C26.6392 92.038 25.9714 93.6476 25.9695 95.3264V104.825C25.9714 106.504 26.6392 108.113 27.8263 109.3C29.0134 110.488 30.623 111.155 32.3018 111.157H44.9665C46.6454 111.155 48.2549 110.488 49.442 109.3C50.6292 108.113 51.2969 106.504 51.2989 104.825V95.3264C51.2989 95.1359 51.2593 94.9562 51.2426 94.7699C55.2239 97.0846 59.5042 98.8416 63.9635 99.9916V104.825C63.9655 106.504 64.6332 108.113 65.8204 109.3C67.0075 110.488 68.617 111.155 70.2959 111.157H82.9606C84.6394 111.155 86.249 110.488 87.4361 109.3C88.6232 108.113 89.291 106.504 89.2929 104.825V99.9916C93.7523 98.8416 98.0326 97.0846 102.014 94.7699C101.997 94.9562 101.958 95.1359 101.958 95.3264V104.825C101.96 106.504 102.627 108.113 103.814 109.3C105.002 110.488 106.611 111.155 108.29 111.157H120.955C122.633 111.155 124.243 110.488 125.43 109.3C126.617 108.113 127.285 106.504 127.287 104.825V95.3264C127.285 93.6476 126.617 92.038 125.43 90.8509C124.243 89.6638 122.633 88.996 120.955 88.9941H110.023C117.64 82.3021 123.073 73.4784 125.62 63.6647H130.453C132.132 63.6666 133.742 64.3344 134.929 65.5215C136.116 66.7086 136.784 68.3182 136.786 69.997V183.979H98.7914Z" fill="white"/>
<path d="M44.9665 117.49H32.3018C30.623 117.491 29.0134 118.159 27.8263 119.346C26.6392 120.534 25.9714 122.143 25.9695 123.822V133.32C25.9714 134.999 26.6392 136.609 27.8263 137.796C29.0134 138.983 30.623 139.651 32.3018 139.653H44.9665C46.6454 139.651 48.2549 138.983 49.442 137.796C50.6292 136.609 51.2969 134.999 51.2989 133.32V123.822C51.2969 122.143 50.6292 120.534 49.442 119.346C48.2549 118.159 46.6454 117.491 44.9665 117.49ZM32.3018 133.32V123.822H44.9665L44.9711 133.32H32.3018ZM82.9606 117.49H70.2959C68.617 117.491 67.0075 118.159 65.8204 119.346C64.6332 120.534 63.9655 122.143 63.9635 123.822V133.32C63.9655 134.999 64.6332 136.609 65.8204 137.796C67.0075 138.983 68.617 139.651 70.2959 139.653H82.9606C84.6394 139.651 86.249 138.983 87.4361 137.796C88.6232 136.609 89.291 134.999 89.2929 133.32V123.822C89.291 122.143 88.6232 120.534 87.4361 119.346C86.249 118.159 84.6394 117.491 82.9606 117.49ZM70.2959 133.32V123.822H82.9606L82.9652 133.32H70.2959ZM120.955 117.49H108.29C106.611 117.491 105.002 118.159 103.814 119.346C102.627 120.534 101.96 122.143 101.958 123.822V133.32C101.96 134.999 102.627 136.609 103.814 137.796C105.002 138.983 106.611 139.651 108.29 139.653H120.955C122.633 139.651 124.243 138.983 125.43 137.796C126.617 136.609 127.285 134.999 127.287 133.32V123.822C127.285 122.143 126.617 120.534 125.43 119.346C124.243 118.159 122.633 117.491 120.955 117.49ZM108.29 133.32V123.822H120.955L120.959 133.32H108.29Z" fill="white"/>
</g>
</svg>
