<svg width="161" height="145" viewBox="0 0 161 145" fill="none" xmlns="http://www.w3.org/2000/svg">
<path d="M85.4166 75C85.4166 83.0417 78.875 89.5833 70.8333 89.5833H60.5417V79.1667C60.5417 73.4167 55.8751 68.75 50.1251 68.75C44.3751 68.75 39.7084 73.4167 39.7084 79.1667V89.5833H29.1666C21.125 89.5833 14.5833 83.0417 14.5833 75V55.6254C17.9166 57.3337 21.6249 58.3333 24.9583 58.3333C29.6666 58.3333 34.25 56.3751 37.5 53.2501C40.7083 56.3751 45.2916 58.3333 50 58.3333C54.7083 58.3333 59.2916 56.3751 62.5 53.2501C65.75 56.3751 70.3333 58.3333 75.0417 58.3333C78.375 58.3333 82.0833 57.3337 85.4166 55.6254V75ZM89.475 36.8418L84.9416 23.2371C82.3874 15.5663 75.2375 10.4167 67.1541 10.4167H32.8458C24.7624 10.4167 17.6167 15.5663 15.0583 23.2371L10.525 36.8418C10.4541 37.0585 10.4166 37.2749 10.4166 37.5041C10.4291 45.5457 16.9499 52.0833 24.9583 52.0833C29.9083 52.0833 34.6583 49.6622 37.4875 45.9747C40.2917 49.6622 45.0375 52.0833 50 52.0833C54.9625 52.0833 59.7083 49.6622 62.5124 45.9747C65.3416 49.6622 70.0958 52.0833 75.0417 52.0833C83.0458 52.0833 89.5708 45.5457 89.5833 37.5041C89.5833 37.2749 89.5458 37.0585 89.475 36.8418Z" fill="#27292D"/>
<rect x="10" y="137" width="151" height="8" fill="#D9D9D9"/>
<path d="M19.1378 126V112.909H24.3793C25.3423 112.909 26.1456 113.052 26.7891 113.337C27.4325 113.623 27.9162 114.019 28.2401 114.526C28.5639 115.029 28.7259 115.609 28.7259 116.265C28.7259 116.776 28.6236 117.226 28.419 117.614C28.2145 117.997 27.9332 118.312 27.5753 118.56C27.2216 118.803 26.8168 118.975 26.3608 119.077V119.205C26.8594 119.227 27.326 119.367 27.7607 119.627C28.1996 119.887 28.5554 120.251 28.8281 120.72C29.1009 121.185 29.2372 121.739 29.2372 122.382C29.2372 123.077 29.0646 123.697 28.7195 124.242C28.3786 124.783 27.8736 125.212 27.2045 125.527C26.5355 125.842 25.7109 126 24.7308 126H19.1378ZM21.9055 123.737H24.1619C24.9332 123.737 25.4957 123.59 25.8494 123.296C26.2031 122.998 26.38 122.602 26.38 122.107C26.38 121.745 26.2926 121.425 26.1179 121.148C25.9432 120.871 25.6939 120.654 25.37 120.496C25.0504 120.339 24.669 120.26 24.2259 120.26H21.9055V123.737ZM21.9055 118.387H23.9574C24.3366 118.387 24.6733 118.321 24.9673 118.189C25.2656 118.053 25.5 117.861 25.6705 117.614C25.8452 117.366 25.9325 117.07 25.9325 116.725C25.9325 116.252 25.7642 115.871 25.4276 115.581C25.0952 115.291 24.6222 115.146 24.0085 115.146H21.9055V118.387ZM31.0382 126V112.909H36.2029C37.1916 112.909 38.0353 113.086 38.7342 113.44C39.4373 113.789 39.9721 114.286 40.3386 114.929C40.7093 115.568 40.8947 116.32 40.8947 117.185C40.8947 118.055 40.7072 118.803 40.3322 119.429C39.9572 120.051 39.4139 120.528 38.7022 120.861C37.9949 121.193 37.1383 121.359 36.1326 121.359H32.6745V119.135H35.6852C36.2136 119.135 36.6525 119.062 37.002 118.918C37.3514 118.773 37.6113 118.555 37.7818 118.266C37.9565 117.976 38.0439 117.616 38.0439 117.185C38.0439 116.751 37.9565 116.384 37.7818 116.086C37.6113 115.788 37.3493 115.562 36.9956 115.408C36.6461 115.251 36.2051 115.172 35.6724 115.172H33.8059V126H31.0382ZM38.1078 120.043L41.3613 126H38.3059L35.1227 120.043H38.1078ZM45.1071 126H42.1412L46.6603 112.909H50.2271L54.7399 126H51.774L48.4949 115.901H48.3926L45.1071 126ZM44.9217 120.854H51.9274V123.015H44.9217V120.854ZM67.2651 112.909V126H64.8745L59.1792 117.761H59.0833V126H56.3155V112.909H58.7445L64.3951 121.142H64.5101V112.909H67.2651ZM74.1925 126H69.5518V112.909H74.2308C75.5476 112.909 76.6811 113.171 77.6314 113.695C78.5817 114.215 79.3125 114.963 79.8239 115.939C80.3395 116.915 80.5973 118.082 80.5973 119.442C80.5973 120.805 80.3395 121.977 79.8239 122.957C79.3125 123.937 78.5774 124.69 77.6186 125.214C76.6641 125.738 75.522 126 74.1925 126ZM72.3196 123.629H74.0774C74.8956 123.629 75.5838 123.484 76.142 123.194C76.7045 122.9 77.1264 122.446 77.4077 121.832C77.6932 121.214 77.8359 120.418 77.8359 119.442C77.8359 118.474 77.6932 117.684 77.4077 117.07C77.1264 116.457 76.7067 116.005 76.1484 115.715C75.5902 115.425 74.902 115.281 74.0838 115.281H72.3196V123.629Z" fill="#27292D"/>
</svg>
