<svg width="100" height="100" viewBox="0 0 100 100" fill="none" xmlns="http://www.w3.org/2000/svg">
<path d="M10.2032 31.9422C26.6137 38.5414 43.4428 44.2261 60.5989 48.9653L60.6012 48.9659C61.5908 49.2393 62.6581 49.1406 63.5685 48.6917C64.4788 48.2427 65.1577 47.4802 65.4557 46.5718L72.0953 26.3346C72.2417 25.8884 72.291 25.4201 72.2402 24.9564C72.1894 24.4928 72.0396 24.0428 71.7994 23.6323C71.5592 23.2218 71.2333 22.8587 70.8402 22.5638C70.4471 22.269 69.9946 22.0481 69.5085 21.9138C52.62 17.2487 36.0484 11.6666 19.8812 5.19688C19.4119 5.00909 18.9041 4.91473 18.3922 4.92001C17.8803 4.9253 17.3755 5.03011 16.9109 5.22754C16.4464 5.42498 16.0327 5.71055 15.6971 6.06544C15.3615 6.42033 15.1117 6.83648 14.964 7.28647L8.18832 27.9377C7.93299 28.7159 7.99699 29.553 8.36823 30.2908C8.73946 31.0287 9.39222 31.6161 10.2032 31.9422Z" fill="#F0F0FF"/>
<path d="M10.2032 31.9422C26.6137 38.5414 43.4428 44.2261 60.5989 48.9653L60.6012 48.9659C61.5908 49.2393 62.6581 49.1406 63.5685 48.6917C64.4788 48.2427 65.1577 47.4802 65.4557 46.5718L72.0953 26.3346C72.2417 25.8884 72.291 25.4201 72.2402 24.9564C72.1894 24.4928 72.0396 24.0428 71.7994 23.6323C71.5592 23.2218 71.2333 22.8587 70.8402 22.5638C70.4471 22.269 69.9946 22.0481 69.5085 21.9138C52.62 17.2487 36.0484 11.6666 19.8812 5.19688C19.4119 5.00909 18.9041 4.91473 18.3922 4.92001C17.8803 4.9253 17.3755 5.03011 16.9109 5.22754C16.4464 5.42498 16.0327 5.71055 15.6971 6.06544C15.3615 6.42033 15.1117 6.83648 14.964 7.28647L8.18832 27.9377C7.93299 28.7159 7.99699 29.553 8.36823 30.2908C8.73946 31.0287 9.39222 31.6161 10.2032 31.9422Z" fill="#D5D5D5"/>
<path d="M60.599 48.9654L60.6014 48.966C61.5909 49.2394 62.6583 49.1408 63.5686 48.6918C64.479 48.2428 65.1578 47.4803 65.4559 46.572L72.0955 26.3347C72.2419 25.8885 72.2911 25.4202 72.2403 24.9565C72.1896 24.4929 72.0398 24.0429 71.7996 23.6324C71.5594 23.2218 71.2334 22.8588 70.8403 22.5639C70.4473 22.269 69.9948 22.0481 69.5087 21.9138C63.0272 20.1234 56.5944 18.1975 50.2103 16.1362C49.4483 18.6082 48.2294 20.9416 46.6067 23.0346L44.2947 25.995C42.926 27.7542 40.8547 28.9448 38.533 29.3068C29.7129 30.6631 20.8532 31.7715 11.9539 32.6319C27.8102 38.9377 44.0527 44.3914 60.599 48.9654Z" fill="#61BC84"/>
<path d="M62.4312 44.2578L68.1757 26.749C68.3143 26.3291 68.266 25.8757 68.0414 25.4884C67.8167 25.101 67.434 24.8111 66.977 24.6823C51.1253 20.2277 35.5456 14.9951 20.3051 9.00705C20.0706 8.9118 19.8167 8.86343 19.5603 8.86516C19.3039 8.86689 19.0508 8.91867 18.8178 9.01708C18.5849 9.11549 18.3774 9.25827 18.2092 9.43593C18.041 9.61359 17.9158 9.82208 17.8421 10.0475L12.1147 27.5044C11.9873 27.89 12.0165 28.3049 12.1969 28.6722C12.3773 29.0396 12.6966 29.3344 13.0957 29.5022C28.203 35.8054 44.6827 41.047 60.1731 45.3729C60.4011 45.4362 60.6405 45.4576 60.8775 45.4358C61.1146 45.414 61.3446 45.3494 61.5544 45.2458C61.7641 45.1422 61.9496 45.0016 62.1001 44.8321C62.2505 44.6625 62.3631 44.4674 62.4312 44.2578Z" fill="#C6FFE6"/>
<path d="M60.173 45.373C60.401 45.4363 60.6403 45.4577 60.8773 45.4359C61.1144 45.4141 61.3443 45.3496 61.5541 45.246C61.7639 45.1425 61.9494 45.0019 62.0998 44.8324C62.2503 44.6629 62.3629 44.4678 62.431 44.2583L68.1756 26.7491C68.3142 26.3291 68.2659 25.8758 68.0413 25.4884C67.8166 25.101 67.4339 24.8112 66.9769 24.6824C61.6301 23.1792 55.4363 21.3177 48.97 19.2393C48.3201 20.5726 47.5285 21.8438 46.6065 23.0343L44.2945 25.9947C42.9258 27.7539 40.8545 28.9445 38.5329 29.3066C32.0455 30.3045 25.5357 31.1643 19.0034 31.886C32.4574 37.0463 46.1999 41.5483 60.173 45.373Z" fill="#D5D5D5"/>
<path d="M39.5415 36.6665C45.0447 36.6665 49.5059 32.5733 49.5059 27.5239C49.5059 22.4746 45.0447 18.3813 39.5415 18.3813C34.0384 18.3813 29.5771 22.4746 29.5771 27.5239C29.5771 32.5733 34.0384 36.6665 39.5415 36.6665Z" fill="#F0F0FF"/>
<path d="M48.7476 31.0222C49.42 29.5317 49.6502 27.9042 49.4148 26.3055C49.1793 24.7067 48.4865 23.1938 47.4071 21.9208C47.1492 22.2973 46.8892 22.6727 46.6065 23.0345L44.2945 25.9949C42.9257 27.7541 40.8544 28.9447 38.5328 29.3068C35.7392 29.7363 32.9413 30.1409 30.1392 30.5205C30.7999 32.273 32.0257 33.7996 33.6539 34.8973C35.2821 35.9951 37.2355 36.6122 39.2548 36.6667C41.2741 36.7211 43.2636 36.2103 44.9591 35.2022C46.6547 34.194 47.976 32.7361 48.7476 31.0222Z" fill="#D5D5D5"/>
<path d="M45.2792 23.8345L43.787 23.2677L44.2983 22.1348C44.3889 21.934 44.3889 21.7083 44.2983 21.5074C44.2078 21.3066 44.034 21.147 43.8152 21.0638C43.5964 20.9806 43.3506 20.9805 43.1318 21.0637C42.913 21.1469 42.7392 21.3064 42.6485 21.5073L42.1369 22.6407L41.4693 22.387L41.9806 21.2543C42.0255 21.1549 42.0486 21.0483 42.0486 20.9406C42.0486 20.833 42.0255 20.7264 41.9807 20.627C41.9358 20.5275 41.87 20.4371 41.7871 20.361C41.7042 20.2849 41.6058 20.2245 41.4975 20.1833C41.3892 20.1421 41.2731 20.1209 41.1558 20.1209C41.0385 20.1208 40.9224 20.142 40.8141 20.1832C40.7058 20.2244 40.6073 20.2848 40.5244 20.3609C40.4415 20.437 40.3757 20.5273 40.3308 20.6268L39.8194 21.7601L39.4855 21.6333C39.073 21.4764 38.6309 21.3957 38.1844 21.3956C37.7379 21.3956 37.2958 21.4763 36.8833 21.6331C36.4707 21.79 36.0959 22.0199 35.7801 22.3097C35.4644 22.5995 35.2139 22.9436 35.043 23.3223C34.8721 23.7009 34.7841 24.1068 34.7841 24.5167C34.7841 24.9266 34.872 25.3325 35.0428 25.7112C35.2136 26.0899 35.4641 26.434 35.7798 26.7239C36.0955 27.0138 36.4703 27.2437 36.8828 27.4006L37.2165 27.5275L35.9804 30.2664L33.9081 29.479C33.7993 29.4354 33.6822 29.4123 33.5635 29.4108C33.4449 29.4093 33.3271 29.4295 33.2171 29.4703C33.1071 29.5111 33.007 29.5716 32.9227 29.6483C32.8385 29.725 32.7717 29.8163 32.7263 29.9169C32.681 30.0176 32.6579 30.1255 32.6585 30.2345C32.6591 30.3434 32.6833 30.4511 32.7298 30.5513C32.7763 30.6516 32.844 30.7423 32.9291 30.8182C33.0142 30.8941 33.1149 30.9537 33.2254 30.9935L35.2969 31.7803L34.7853 32.9137C34.7404 33.0131 34.7173 33.1197 34.7173 33.2274C34.7173 33.335 34.7404 33.4416 34.7852 33.5411C34.8301 33.6405 34.8959 33.7309 34.9788 33.807C35.0617 33.8831 35.1601 33.9435 35.2684 33.9847C35.3767 34.0259 35.4928 34.0471 35.6101 34.0472C35.7273 34.0472 35.8435 34.026 35.9518 33.9848C36.0601 33.9436 36.1586 33.8832 36.2415 33.8071C36.3244 33.731 36.3902 33.6407 36.4351 33.5412L36.9467 32.4076L37.6143 32.6612L37.103 33.7942C37.0575 33.8937 37.0339 34.0005 37.0335 34.1085C37.0331 34.2164 37.0559 34.3234 37.1006 34.4232C37.1454 34.523 37.2111 34.6138 37.2942 34.6902C37.3772 34.7666 37.4759 34.8272 37.5845 34.8686C37.6931 34.9099 37.8096 34.9311 37.9272 34.931C38.0447 34.9309 38.1612 34.9095 38.2697 34.868C38.3782 34.8265 38.4768 34.7657 38.5597 34.6891C38.6425 34.6126 38.7081 34.5217 38.7527 34.4218L39.2643 33.2882L39.5985 33.4152C40.0114 33.5743 40.4546 33.6569 40.9024 33.6584C41.3503 33.6598 41.794 33.58 42.2082 33.4236C42.6223 33.2671 42.9987 33.0371 43.3158 32.7467C43.6328 32.4563 43.8842 32.1113 44.0556 31.7315C44.227 31.3516 44.3149 30.9445 44.3144 30.5333C44.3139 30.1222 44.2249 29.7152 44.0525 29.3357C43.8802 28.9563 43.6279 28.6118 43.3101 28.3221C42.9923 28.0324 42.6153 27.8032 42.2008 27.6476L41.8674 27.521L43.1036 24.782L44.5964 25.3492C44.7051 25.3926 44.8222 25.4157 44.9408 25.4171C45.0593 25.4185 45.177 25.3982 45.287 25.3574C45.3969 25.3166 45.4969 25.2561 45.5811 25.1794C45.6652 25.1028 45.732 25.0115 45.7773 24.9109C45.8226 24.8103 45.8457 24.7025 45.8452 24.5936C45.8446 24.4848 45.8204 24.3771 45.7741 24.2769C45.7277 24.1767 45.66 24.086 45.5751 24.0101C45.4901 23.9342 45.3895 23.8744 45.2792 23.8345ZM37.5654 25.8861C37.3696 25.8115 37.1916 25.7023 37.0417 25.5646C36.8919 25.4269 36.773 25.2635 36.6919 25.0836C36.6109 24.9037 36.5692 24.711 36.5693 24.5163C36.5693 24.3217 36.6112 24.1289 36.6924 23.9491C36.7736 23.7693 36.8926 23.606 37.0426 23.4684C37.1926 23.3308 37.3706 23.2217 37.5665 23.1472C37.7625 23.0728 37.9724 23.0346 38.1845 23.0346C38.3965 23.0347 38.6065 23.0731 38.8023 23.1477L39.1359 23.2744L37.8999 26.0132L37.5654 25.8861ZM37.6304 30.8934L38.8665 28.1545L39.5341 28.4081L38.298 31.147L37.6304 30.8934ZM41.518 29.162C41.9136 29.3125 42.2279 29.6011 42.3917 29.9644C42.5555 30.3276 42.5554 30.7357 42.3915 31.0989C42.2275 31.4621 41.9131 31.7506 41.5175 31.901C41.1218 32.0513 40.6772 32.0513 40.2816 31.9008L39.948 31.774L41.1841 29.0351L41.518 29.162ZM40.2175 26.8936L39.5499 26.6399L40.786 23.9018L41.4535 24.1554L40.2175 26.8936ZM72.5864 23.2443C72.292 22.7379 71.8911 22.2902 71.4069 21.927C70.9227 21.5639 70.3649 21.2925 69.7656 21.1287C52.9125 16.4692 36.3745 10.8982 20.2384 4.44477C19.6534 4.21063 19.0211 4.09295 18.3829 4.0995C17.7448 4.10605 17.1155 4.23668 16.5363 4.48278C15.9572 4.72888 15.4415 5.08485 15.0231 5.52725C14.6048 5.96964 14.2933 6.48841 14.1092 7.04936L7.33374 27.7012C7.01646 28.6712 7.09666 29.7143 7.55923 30.6338C8.0218 31.5533 8.83478 32.2857 9.84492 32.693C26.2908 39.302 43.1542 44.998 60.3442 49.7503C60.9465 49.9169 61.5786 49.9729 62.2044 49.9152C62.8303 49.8575 63.4376 49.6871 63.9917 49.4139C64.5458 49.1406 65.0358 48.7698 65.4338 48.3226C65.8317 47.8754 66.1298 47.3606 66.311 46.8077L72.9504 26.5706C73.1323 26.0217 73.1938 25.445 73.1313 24.8741C73.0689 24.3032 72.8836 23.749 72.5864 23.2443ZM71.241 26.0985L64.6011 46.3361C64.3703 47.036 63.8464 47.6233 63.1445 47.969C62.4426 48.3148 61.6199 48.3908 60.857 48.1804C43.7365 43.4472 26.9412 37.774 10.5619 31.1916C9.95136 30.9453 9.46001 30.5026 9.18042 29.9468C8.90083 29.391 8.85232 28.7606 9.04402 28.1742L15.8191 7.52247C15.9304 7.18331 16.1187 6.86966 16.3717 6.60218C16.6246 6.3347 16.9364 6.11947 17.2866 5.97066C17.6367 5.82186 18.0172 5.74286 18.403 5.73888C18.7889 5.73489 19.1712 5.80602 19.5249 5.94756C35.7258 12.4271 52.3302 18.0207 69.2512 22.6987C69.625 22.802 69.9731 22.9718 70.2754 23.1985C70.5778 23.4252 70.8285 23.7044 71.0133 24.0202C71.1981 24.3359 71.3133 24.6819 71.3524 25.0385C71.3914 25.3951 71.3536 25.7553 71.241 26.0985ZM43.6961 18.3198C41.3766 17.4392 38.7963 17.3241 36.3948 17.9941C33.9932 18.6641 31.919 20.0777 30.5255 21.9942C29.1319 23.9107 28.5053 26.2115 28.7524 28.5046C28.9995 30.7976 30.105 32.9411 31.8805 34.5698C33.656 36.1985 35.9917 37.2118 38.4897 37.4368C40.9877 37.6619 43.4935 37.0849 45.5801 35.8042C47.6667 34.5235 49.205 32.6182 49.933 30.413C50.661 28.2078 50.5336 25.8391 49.5726 23.7104C48.4683 21.2701 46.3554 19.3314 43.6961 18.3198ZM47.9229 30.7085C47.1204 32.487 45.671 33.9551 43.8216 34.8626C41.9722 35.7701 39.8373 36.0608 37.7806 35.6853C35.7238 35.3098 33.8726 34.2912 32.5422 32.8032C31.2118 31.3151 30.4845 29.4496 30.4844 27.5245C30.4843 25.5994 31.2112 23.7338 32.5414 22.2456C33.8716 20.7574 35.7227 19.7386 37.7794 19.3628C39.8361 18.9871 41.9711 19.2776 43.8206 20.1848C45.6701 21.0921 47.1197 22.56 47.9225 24.3385C48.841 26.3781 48.8412 28.6688 47.9229 30.7085Z" fill="#909090"/>
<path d="M9.53581 65.5625L9.55055 65.5613C27.1954 64.1699 44.7333 61.807 62.0696 58.4855L62.0809 58.4833C62.5737 58.3889 63.0413 58.2062 63.4571 57.9457C63.8728 57.6852 64.2285 57.352 64.5038 56.9651C64.7791 56.5782 64.9686 56.1453 65.0614 55.6911C65.1543 55.237 65.1486 54.7704 65.0448 54.3183L60.3741 33.9741C60.1622 33.0658 59.568 32.2712 58.7209 31.7632C57.8738 31.2552 56.8424 31.075 55.8512 31.2618C38.786 34.5313 21.5251 36.8713 4.15889 38.2693C3.65597 38.3084 3.16781 38.445 2.72668 38.6702C2.28555 38.8953 1.9015 39.2039 1.5999 39.5754C1.2983 39.9469 1.08603 40.373 0.97711 40.8254C0.86819 41.2778 0.865105 41.7463 0.968057 42.1999L5.7373 62.9729C5.91692 63.7558 6.40235 64.4514 7.10207 64.9284C7.8018 65.4054 8.66745 65.631 9.53581 65.5625Z" fill="#F0F0FF"/>
<path d="M9.53581 65.5625L9.55055 65.5613C27.1954 64.1699 44.7333 61.807 62.0696 58.4855L62.0809 58.4833C62.5737 58.3889 63.0413 58.2062 63.4571 57.9457C63.8728 57.6852 64.2285 57.352 64.5038 56.9651C64.7791 56.5782 64.9686 56.1453 65.0614 55.6911C65.1543 55.237 65.1486 54.7704 65.0448 54.3183L60.3741 33.9741C60.1622 33.0658 59.568 32.2712 58.7209 31.7632C57.8738 31.2552 56.8424 31.075 55.8512 31.2618C38.786 34.5313 21.5251 36.8713 4.15889 38.2693C3.65597 38.3084 3.16781 38.445 2.72668 38.6702C2.28555 38.8953 1.9015 39.2039 1.5999 39.5754C1.2983 39.9469 1.08603 40.373 0.97711 40.8254C0.86819 41.2778 0.865105 41.7463 0.968057 42.1999L5.7373 62.9729C5.91692 63.7558 6.40235 64.4514 7.10207 64.9284C7.8018 65.4054 8.66745 65.631 9.53581 65.5625Z" fill="#D5D5D5"/>
<path d="M62.0808 58.4831C62.5736 58.3887 63.0412 58.206 63.4569 57.9455C63.8727 57.685 64.2284 57.3518 64.5037 56.9649C64.779 56.5781 64.9685 56.1452 65.0613 55.691C65.1541 55.2368 65.1485 54.7703 65.0447 54.3181L60.374 33.9739C60.1618 33.0658 59.5675 32.2714 58.7205 31.7636C57.8734 31.2558 56.8421 31.0756 55.8511 31.2624C49.8655 32.4092 43.8567 33.4393 37.8247 34.3525C33.4861 40.2904 30.5923 47.0168 29.3403 54.0738C29.2318 54.6913 28.9315 55.2669 28.4754 55.7315C28.0192 56.1962 27.4267 56.53 26.7689 56.693C24.7066 57.1976 22.7932 58.119 21.1687 59.3896C19.5441 60.6603 18.2494 62.2482 17.3792 64.0373L16.9536 64.9152C32.1027 63.4863 47.1612 61.3403 62.0692 58.4857L62.0808 58.4831Z" fill="#61BC84"/>
<path d="M61.2269 53.6274L57.1837 36.0166C57.086 35.5929 56.8098 35.2218 56.4153 34.9844C56.0207 34.7469 55.5399 34.6623 55.0777 34.7491C39.0222 37.7523 22.8033 39.9654 6.49033 41.379C6.23834 41.3973 5.99349 41.4647 5.7721 41.5767C5.55071 41.6887 5.35786 41.8428 5.20639 42.0285C5.05491 42.2143 4.9483 42.4276 4.89365 42.6542C4.83899 42.8808 4.83756 43.1154 4.88943 43.3426L8.92053 60.9009C9.01 61.29 9.24993 61.6363 9.59595 61.8757C9.94198 62.115 10.3707 62.2313 10.8029 62.2029C27.1637 61.119 44.1686 58.5246 59.8426 55.5668C60.0726 55.5235 60.291 55.4389 60.4852 55.3179C60.6794 55.1969 60.8457 55.0417 60.9743 54.8615C61.103 54.6812 61.1916 54.4794 61.2349 54.2676C61.2782 54.0558 61.2755 53.8382 61.2269 53.6274Z" fill="#C6FFE6"/>
<path d="M61.2267 53.6274L57.1834 36.0166C57.0857 35.5929 56.8095 35.2218 56.415 34.9844C56.0205 34.7469 55.5397 34.6623 55.0775 34.7491C49.3167 35.8259 42.5191 36.9677 35.363 38.0204C32.3747 43.0179 30.3379 48.4471 29.3403 54.0739C29.2318 54.6914 28.9314 55.267 28.4753 55.7317C28.0192 56.1963 27.4266 56.5301 26.7688 56.6932C23.6555 57.4582 20.9129 59.1625 18.9824 61.5318C32.7649 60.236 46.765 58.0348 59.8416 55.5671C60.0717 55.5239 60.2902 55.4394 60.4846 55.3184C60.6789 55.1973 60.8452 55.0422 60.974 54.8619C61.1027 54.6816 61.1913 54.4797 61.2347 54.2678C61.278 54.0559 61.2753 53.8383 61.2267 53.6274Z" fill="#D5D5D5"/>
<path d="M32.7332 58.0607C38.1728 58.0607 42.5824 54.0324 42.5824 49.0632C42.5824 44.094 38.1728 40.0657 32.7332 40.0657C27.2937 40.0657 22.884 44.094 22.884 49.0632C22.884 54.0324 27.2937 58.0607 32.7332 58.0607Z" fill="#F0F0FF"/>
<path d="M42.5262 48.1061C42.2881 46.1184 41.3366 44.2598 39.8216 42.823C38.3066 41.3861 36.3141 40.4526 34.1578 40.1694C31.8233 44.5643 30.2003 49.2485 29.3403 54.0739C29.2455 54.612 29.0049 55.1195 28.6406 55.55C28.2764 55.9805 27.8003 56.32 27.2559 56.5376C28.8092 57.4903 30.6258 58.0178 32.4934 58.0586C34.3611 58.0993 36.2028 57.6516 37.8037 56.7676C39.4046 55.8837 40.6987 54.6 41.5349 53.0664C42.3711 51.5327 42.7149 49.8124 42.5262 48.1061Z" fill="#D5D5D5"/>
<path d="M35.1042 48.0071L34.7583 48.0411L34.4217 45.1667L35.9987 45.0128C36.1153 45.0014 36.2284 44.969 36.3313 44.9175C36.4343 44.866 36.5253 44.7964 36.5989 44.7126C36.6726 44.6289 36.7276 44.5326 36.7608 44.4293C36.7939 44.326 36.8046 44.2178 36.7921 44.1107C36.7797 44.0037 36.7445 43.8999 36.6883 43.8053C36.6322 43.7108 36.5564 43.6273 36.4652 43.5597C36.3739 43.4921 36.269 43.4416 36.1565 43.4111C36.044 43.3807 35.9261 43.3709 35.8095 43.3823L34.2309 43.5366L34.0918 42.3481C34.0632 42.1344 33.9442 41.9397 33.7605 41.8059C33.5769 41.6721 33.3432 41.61 33.1101 41.633C32.877 41.6561 32.6631 41.7624 32.5146 41.9289C32.3661 42.0955 32.295 42.3091 32.3165 42.5234L32.4554 43.7097L31.7654 43.7771L31.6263 42.589C31.5977 42.3755 31.4787 42.1808 31.295 42.0471C31.1114 41.9133 30.8778 41.8513 30.6447 41.8743C30.4116 41.8973 30.1978 42.0035 30.0493 42.17C29.9008 42.3365 29.8296 42.55 29.8511 42.7643L29.9904 43.9509L29.6466 43.9845C29.2071 44.0269 28.7811 44.1484 28.3928 44.3421C28.0046 44.5358 27.6617 44.798 27.384 45.1135C27.1062 45.429 26.899 45.7917 26.7741 46.1808C26.6493 46.57 26.6093 46.9779 26.6564 47.3812C26.7035 47.7846 26.8368 48.1754 27.0486 48.5314C27.2605 48.8874 27.5468 49.2016 27.8911 49.4559C28.2354 49.7102 28.6309 49.8996 29.0551 50.0134C29.4792 50.1271 29.9237 50.163 30.3629 50.1189L30.7087 50.0851L31.0454 52.9599L28.8523 53.1742C28.7339 53.1835 28.6187 53.2143 28.5135 53.265C28.4083 53.3157 28.3151 53.3851 28.2395 53.4693C28.1639 53.5535 28.1073 53.6506 28.0731 53.7551C28.039 53.8596 28.0278 53.9693 28.0404 54.0777C28.053 54.1862 28.0891 54.2913 28.1465 54.3868C28.2039 54.4823 28.2815 54.5664 28.3747 54.634C28.4679 54.7016 28.5749 54.7515 28.6894 54.7807C28.8039 54.8099 28.9236 54.8178 29.0415 54.8039L31.2361 54.5895L31.3753 55.778C31.3988 55.9788 31.5023 56.1646 31.6659 56.2997C31.8294 56.4348 32.0416 56.5097 32.2616 56.51C32.2939 56.51 32.3263 56.5084 32.3584 56.5052C32.5938 56.482 32.8095 56.3738 32.9581 56.2045C33.1066 56.0353 33.1758 55.8188 33.1506 55.6027L33.0116 54.4164L33.7015 54.349L33.8406 55.537C33.8692 55.7507 33.9882 55.9454 34.1719 56.0792C34.3556 56.213 34.5892 56.2751 34.8223 56.252C35.0555 56.229 35.2694 56.1227 35.4179 55.9562C35.5663 55.7896 35.6375 55.576 35.6159 55.3617L35.4771 54.1755L35.8213 54.1419C36.26 54.0987 36.6852 53.9766 37.0726 53.7825C37.4599 53.5885 37.8018 53.3263 38.0788 53.0109C38.3558 52.6955 38.5624 52.3332 38.6868 51.9445C38.8112 51.5559 38.8511 51.1485 38.804 50.7457C38.7569 50.343 38.6239 49.9526 38.4125 49.597C38.2012 49.2414 37.9156 48.9275 37.572 48.6733C37.2285 48.419 36.8338 48.2294 36.4104 48.1151C35.9871 48.0009 35.543 47.9639 35.1042 48.0071ZM32.6464 45.3399L32.983 48.2143L32.293 48.2816L31.9564 45.4071L32.6464 45.3399ZM28.4268 47.2043C28.4044 47.0165 28.4227 46.8264 28.4809 46.6452C28.539 46.4639 28.6358 46.2951 28.7656 46.1485C28.8966 45.9989 29.0586 45.8746 29.2422 45.7829C29.4258 45.6912 29.6275 45.6339 29.8354 45.6142L30.1809 45.5805L30.5175 48.455L30.1734 48.4886C29.7565 48.5299 29.3387 48.4179 29.0114 48.1773C28.6842 47.9366 28.474 47.5868 28.4268 47.2043ZM32.8205 52.7862L32.4838 49.9115L33.1738 49.8441L33.5104 52.7188L32.8205 52.7862ZM36.6985 51.9801C36.5676 52.1288 36.406 52.2524 36.2229 52.3436C36.0398 52.4348 35.8389 52.4919 35.6317 52.5116L35.2859 52.5453L34.9492 49.6707L35.2934 49.6371C35.7102 49.5962 36.1277 49.7081 36.4549 49.9485C36.7822 50.1889 36.9926 50.5384 37.0404 50.9207C37.0629 51.1093 37.0443 51.3001 36.9856 51.482C36.9269 51.6639 36.8293 51.8331 36.6985 51.9801ZM65.9184 54.1493L61.2478 33.8051C60.9876 32.6841 60.255 31.7031 59.2098 31.0763C58.1646 30.4494 56.8918 30.2276 55.6691 30.4592C38.6375 33.7184 21.4115 36.0537 4.08073 37.4527C3.452 37.502 2.8418 37.6731 2.29046 37.9549C1.73911 38.2367 1.25919 38.6226 0.882383 39.0873C0.505581 39.552 0.240485 40.0848 0.104612 40.6505C-0.0312614 41.2162 -0.0348174 41.8019 0.094179 42.369L4.85547 63.1041C4.98047 64.0431 5.48689 64.9042 6.2735 65.5152C7.06012 66.1263 8.06896 66.4423 9.09837 66.4C9.27188 66.4 9.44917 66.3925 9.63025 66.3776C27.3129 64.9793 44.8887 62.6111 62.2632 59.2855C62.8709 59.1692 63.4476 58.9439 63.9604 58.6227C64.4731 58.3015 64.9118 57.8906 65.2513 57.4135C65.5908 56.9364 65.8245 56.4025 65.939 55.8424C66.0534 55.2824 66.0465 54.7069 65.9184 54.1493ZM63.7564 56.5165C63.5447 56.8149 63.2704 57.0718 62.9495 57.272C62.6287 57.4722 62.2676 57.6119 61.8874 57.6828C44.5854 60.9941 27.083 63.3523 9.47417 64.7447H9.47025C9.1404 64.8071 8.79992 64.8048 8.47111 64.738C8.14231 64.6711 7.83261 64.5412 7.56235 64.3567C7.29208 64.1722 7.06735 63.9374 6.90289 63.6676C6.73844 63.3978 6.63797 63.0991 6.60808 62.7912L1.84161 42.0313C1.76212 41.6936 1.76263 41.344 1.8431 41.0064C1.92358 40.6688 2.08214 40.3511 2.30804 40.0746C2.53524 39.7942 2.82457 39.5611 3.15698 39.3907C3.4894 39.2203 3.85735 39.1165 4.23663 39.0861C21.6375 37.6817 38.9331 35.3371 56.0335 32.0645C56.7935 31.9188 57.5853 32.0559 58.2353 32.4456C58.8853 32.8354 59.3403 33.4459 59.5004 34.1432L64.171 54.4874C64.2517 54.834 64.2566 55.1918 64.1855 55.5401C64.1143 55.8885 63.9684 56.2203 63.7564 56.5165ZM31.5915 39.3018C29.4934 39.5182 27.512 40.3001 25.8974 41.5489C24.2827 42.7978 23.1071 44.4576 22.5187 46.3191C21.9304 48.1806 21.9557 50.1603 22.5916 52.0086C23.2274 53.8569 24.4452 55.4909 26.0913 56.7046C27.7375 57.9183 29.7384 58.6572 31.8415 58.8282C33.9446 58.9993 36.0557 58.5947 37.9087 57.6656C39.7616 56.7365 41.2733 55.3244 42.2532 53.6075C43.233 51.8906 43.637 49.9458 43.4143 48.0184C43.2666 46.7315 42.8429 45.4842 42.1676 44.3483C41.4924 43.2125 40.5789 42.2105 39.4799 41.4003C38.3809 40.59 37.118 39.9874 35.7642 39.6273C34.4103 39.2671 32.9922 39.1565 31.5915 39.3018ZM39.719 54.1804C38.6073 55.4433 37.1137 56.3764 35.4259 56.8622C33.7382 57.3481 31.9317 57.3651 30.2335 56.9111C28.5352 56.457 27.0211 55.5523 25.8814 54.3105C24.7418 53.0688 24.0274 51.5454 23.8281 49.932C23.7007 48.8671 23.8048 47.7896 24.1343 46.7619C24.4638 45.7342 25.0122 44.7767 25.7478 43.945C26.4862 43.1013 27.3996 42.4005 28.4351 41.8832C29.4707 41.366 30.6077 41.0425 31.7804 40.9317C34.1358 40.699 36.4955 41.3325 38.3432 42.6935C40.1908 44.0546 41.3758 46.0322 41.6387 48.1935C41.7661 49.2583 41.662 50.3359 41.3325 51.3636C41.003 52.3913 40.4546 53.3487 39.719 54.1804Z" fill="#909090"/>
<path d="M70.5348 13.7845C70.5348 11.8135 71.0649 9.87308 72.0779 8.13537C73.091 6.39766 74.5557 4.91643 76.3421 3.82318C76.661 3.62801 76.903 3.34383 77.0324 3.01265C77.1618 2.68147 77.1717 2.32085 77.0606 1.98411C76.9496 1.64736 76.7234 1.35236 76.4157 1.14269C76.1079 0.933023 75.7348 0.819824 75.3515 0.819824H71.2745C70.4739 0.819815 69.681 0.964583 68.9413 1.24586C68.2016 1.52714 67.5295 1.93942 66.9633 2.45916C66.5475 1.95016 66.0083 1.53704 65.3884 1.2525C64.7685 0.967959 64.0849 0.819824 63.3919 0.819824C62.6988 0.819824 62.0153 0.967959 61.3954 1.2525C60.7755 1.53704 60.2362 1.95016 59.8204 2.45916C59.2543 1.93942 58.5821 1.52714 57.8424 1.24586C57.1027 0.964583 56.3099 0.819815 55.5092 0.819824H51.4321C51.0489 0.819824 50.6758 0.933023 50.368 1.14269C50.0602 1.35236 49.8341 1.64736 49.723 1.98411C49.6119 2.32085 49.6218 2.68147 49.7512 3.01265C49.8806 3.34383 50.1227 3.62801 50.4416 3.82318C52.2279 4.91643 53.6927 6.39766 54.7057 8.13537C55.7188 9.87308 56.2488 11.8135 56.2489 13.7845C56.2489 18.1437 54.7444 22.3908 51.9514 25.9162L44.2728 35.6086C38.1291 43.3636 34.8198 52.706 34.8198 62.295C34.8198 64.4689 35.7605 66.5538 37.435 68.091C39.1094 69.6282 41.3805 70.4917 43.7485 70.4917H83.0354C85.4035 70.4917 87.6745 69.6282 89.3489 68.091C91.0234 66.5538 91.9641 64.4689 91.9641 62.295C91.9641 52.7061 88.6547 43.3637 82.5111 35.6089L74.8324 25.9165C72.0393 22.391 70.5348 18.1438 70.5348 13.7845Z" fill="#F0F0FF"/>
<path d="M59.9414 2.32806C60.8535 3.44819 62.0375 4.35761 63.3995 4.98407C64.7615 5.61052 66.2638 5.93674 67.7872 5.93682C68.1413 5.93681 68.4952 5.9188 68.8472 5.88288C69.0281 5.86368 69.1983 5.79415 69.3349 5.68362C69.4716 5.57309 69.5681 5.42685 69.6116 5.26451C69.6552 5.10217 69.6436 4.9315 69.5784 4.77538C69.5133 4.61926 69.3977 4.48517 69.2471 4.39108C68.3839 3.85699 67.6174 3.20164 66.9758 2.44904L66.9635 2.4592C66.5578 1.96159 66.0338 1.55542 65.4315 1.27155C64.8292 0.987671 64.1643 0.833557 63.4873 0.820915C62.8104 0.808272 62.1392 0.937432 61.5248 1.19858C60.9104 1.45974 60.3689 1.84601 59.9414 2.32806Z" fill="#D5D5D5"/>
<path d="M51.9515 25.9162L44.2729 35.6086C44.0937 35.8347 43.9253 36.0668 43.751 36.2956C44.2436 35.7393 44.7463 35.1896 45.2688 34.6536L53.9758 25.7238C57.1428 22.4757 59.1074 18.39 59.5876 14.0531C59.8048 12.0923 59.4912 10.1126 58.6747 8.28974C57.8583 6.46688 56.5643 4.85726 54.9075 3.60375C54.6699 3.42362 54.487 3.1903 54.3763 2.92632C54.2656 2.66234 54.231 2.37662 54.2757 2.09676C54.3204 1.8169 54.443 1.55235 54.6316 1.32867C54.8202 1.10499 55.0684 0.92973 55.3523 0.819824H51.4327C51.0494 0.819851 50.6764 0.933061 50.3686 1.14272C50.0609 1.35238 49.8347 1.64737 49.7237 1.9841C49.6126 2.32082 49.6225 2.68141 49.7519 3.01257C49.8813 3.34374 50.1233 3.62791 50.4421 3.82309C52.2285 4.91637 53.6932 6.39761 54.7063 8.13534C55.7193 9.87306 56.2494 11.8135 56.2494 13.7845C56.2493 18.1437 54.7446 22.3909 51.9515 25.9162Z" fill="#D5D5D5"/>
<path d="M55.0154 20.4919H71.7683C71.1701 18.9015 70.7863 17.2499 70.6254 15.5739H56.1579C55.9971 17.2499 55.6134 18.9015 55.0154 20.4919Z" fill="#D5D5D5"/>
<path d="M56.158 15.5739C55.9971 17.2499 55.6133 18.9015 55.0151 20.4919H57.6848C58.4624 18.923 59.0226 17.2707 59.3522 15.5739H56.158Z" fill="#C6FFE6"/>
<path d="M83.0354 70.4918C85.4035 70.4918 87.6745 69.6282 89.3489 68.091C91.0234 66.5539 91.9641 64.469 91.9641 62.2951C91.9641 52.7062 88.6548 43.3639 82.5112 35.609L76.3748 27.8632C78.7051 35.0373 77.8888 42.7634 74.1002 49.3928C73.5917 49.307 73.0762 49.2615 72.5593 49.2568C71.0997 49.2584 69.6618 49.5807 68.3657 50.1968L67.9432 50.3977C60.6749 53.8497 52.6123 55.655 44.4289 55.6627L35.3656 55.6141C35.0045 57.8257 34.8221 60.0588 34.8198 62.2951C34.8198 64.469 35.7605 66.5539 37.435 68.091C39.1094 69.6282 41.3805 70.4918 43.7485 70.4918H83.0354Z" fill="#D5D5D5"/>
<path d="M63.3917 54.0984C69.8022 54.0984 74.9989 49.3277 74.9989 43.4427C74.9989 37.5577 69.8022 32.787 63.3917 32.787C56.9812 32.787 51.7844 37.5577 51.7844 43.4427C51.7844 49.3277 56.9812 54.0984 63.3917 54.0984Z" fill="#61BC84"/>
<path d="M64.9147 32.8889L53.6321 49.1967C54.3224 50.182 55.1844 51.0566 56.1835 51.7853L68.552 33.9083C67.4095 33.3858 66.1803 33.0412 64.9147 32.8889ZM61.7187 53.9754L73.0712 37.5665C72.3671 36.5951 71.4947 35.736 70.4885 35.0232L58.1055 52.921C59.2382 53.4533 60.4591 53.8096 61.7187 53.9754Z" fill="#D5D5D5"/>
<path d="M63.3915 51.8551C68.4524 51.8551 72.555 48.0888 72.555 43.4428C72.555 38.7968 68.4524 35.0305 63.3915 35.0305C58.3307 35.0305 54.228 38.7968 54.228 43.4428C54.228 48.0888 58.3307 51.8551 63.3915 51.8551Z" fill="#D5D5D5"/>
<path d="M67.241 35.8097L57.5029 49.8808C56.4932 49.1062 55.6783 48.14 55.1143 47.0486L63.4284 35.0302C64.746 35.032 66.0471 35.2981 67.241 35.8097ZM63.1914 51.8466L71.5949 39.7004C71.0119 38.6275 70.1862 37.6812 69.1731 36.9245L59.4205 51.0207C60.5981 51.5417 61.8843 51.8234 63.1914 51.8466Z" fill="#C6FFE6"/>
<path d="M63.3921 31.9674C60.9198 31.9675 58.5031 32.6406 56.4476 33.9016C54.392 35.1626 52.7899 36.9549 51.8439 39.0517C50.8979 41.1486 50.6505 43.4559 51.1328 45.6819C51.6152 47.9078 52.8058 49.9525 54.554 51.5573C56.3022 53.1621 58.5295 54.255 60.9543 54.6977C63.379 55.1404 65.8924 54.9131 68.1764 54.0446C70.4605 53.176 72.4127 51.7052 73.7862 49.8181C75.1597 47.931 75.8928 45.7124 75.8928 43.4428C75.8891 40.4003 74.5708 37.4834 72.2273 35.332C69.8837 33.1807 66.7063 31.9707 63.3921 31.9674ZM63.3921 53.2788C61.273 53.2787 59.2015 52.7017 57.4397 51.6209C55.6778 50.54 54.3046 49.0038 53.4937 47.2065C52.6829 45.4092 52.4708 43.4315 52.8843 41.5235C53.2978 39.6155 54.3183 37.863 55.8167 36.4875C57.3152 35.1119 59.2243 34.1752 61.3027 33.7957C63.381 33.4162 65.5353 33.611 67.4931 34.3555C69.4508 35.1 71.1241 36.3607 72.3014 37.9782C73.4787 39.5957 74.1071 41.4974 74.1071 43.4428C74.1038 46.0506 72.9739 48.5508 70.9651 50.3948C68.9563 52.2388 66.2328 53.276 63.3921 53.2788ZM65.2249 42.6231H64.2615V40.8971H66.1414C66.3782 40.8971 66.6053 40.8108 66.7727 40.6571C66.9402 40.5033 67.0343 40.2949 67.0343 40.0775C67.0343 39.8601 66.9402 39.6516 66.7727 39.4979C66.6053 39.3442 66.3782 39.2578 66.1414 39.2578H64.2615V37.9747C64.2615 37.7573 64.1674 37.5488 63.9999 37.3951C63.8325 37.2414 63.6054 37.155 63.3686 37.155C63.1318 37.155 62.9047 37.2414 62.7372 37.3951C62.5698 37.5488 62.4757 37.7573 62.4757 37.9747V39.2578H61.5593C61.2 39.2559 60.8439 39.3192 60.5114 39.4441C60.1789 39.569 59.8766 39.7531 59.6218 39.9856C59.3671 40.2181 59.1649 40.4946 59.0269 40.7991C58.889 41.1037 58.818 41.4302 58.818 41.76C58.818 42.0898 58.889 42.4164 59.0269 42.7209C59.1649 43.0255 59.3671 43.3019 59.6218 43.5345C59.8766 43.767 60.1789 43.951 60.5114 44.0759C60.8439 44.2008 61.2 44.2642 61.5593 44.2623H62.4757V45.988H60.1846C59.9478 45.988 59.7207 46.0744 59.5533 46.2281C59.3858 46.3818 59.2918 46.5903 59.2918 46.8077C59.2918 47.0251 59.3858 47.2336 59.5533 47.3873C59.7207 47.541 59.9478 47.6274 60.1846 47.6274H62.4757V48.9105C62.4757 49.1279 62.5698 49.3364 62.7372 49.4901C62.9047 49.6439 63.1318 49.7302 63.3686 49.7302C63.6054 49.7302 63.8325 49.6439 63.9999 49.4901C64.1674 49.3364 64.2615 49.1279 64.2615 48.9105V47.6274H65.2249C65.9478 47.6274 66.6411 47.3637 67.1523 46.8945C67.6634 46.4252 67.9506 45.7888 67.9506 45.1252C67.9506 44.4615 67.6634 43.8251 67.1523 43.3558C66.6411 42.8866 65.9478 42.6231 65.2249 42.6231ZM61.5593 42.6231C61.4351 42.6242 61.3119 42.6027 61.1968 42.5599C61.0817 42.517 60.9769 42.4536 60.8887 42.3734C60.8004 42.2931 60.7304 42.1976 60.6826 42.0924C60.6347 41.9871 60.6101 41.8742 60.6101 41.7602C60.6101 41.6462 60.6347 41.5333 60.6826 41.428C60.7304 41.3228 60.8004 41.2273 60.8887 41.147C60.9769 41.0668 61.0817 41.0034 61.1968 40.9606C61.3119 40.9177 61.4351 40.8962 61.5593 40.8973H62.4757V42.6231H61.5593ZM65.2249 45.9882H64.2615V44.2624H65.2249C65.4742 44.2624 65.7133 44.3534 65.8896 44.5152C66.0658 44.677 66.1649 44.8965 66.1649 45.1253C66.1649 45.3542 66.0658 45.5736 65.8896 45.7355C65.7133 45.8973 65.4742 45.9882 65.2249 45.9882Z" fill="#909090"/>
<path d="M83.2331 35.1266L75.5544 25.4339C72.8641 22.0526 71.4186 17.9717 71.4279 13.7844C71.4258 11.9481 71.9186 10.1398 72.8625 8.5208C73.8064 6.90175 75.1719 5.52224 76.8374 4.50522C77.3218 4.21752 77.6898 3.79157 77.8845 3.29298C78.0793 2.7944 78.09 2.25086 77.9151 1.74613C77.7554 1.23733 77.418 0.790822 76.9548 0.475349C76.4916 0.159876 75.9283 -0.00706577 75.3516 0.000229603H71.2748C69.7421 -0.00387591 68.251 0.458157 67.0345 1.31416C66.0447 0.469638 64.7433 0.000237419 63.392 0.000237419C62.0406 0.000237419 60.7393 0.469638 59.7494 1.31416C58.5329 0.458146 57.0418 -0.00388786 55.5091 0.000229603H51.4324C50.8556 -0.00707011 50.2923 0.159869 49.8291 0.475341C49.3658 0.790813 49.0284 1.23733 48.8688 1.74613C48.6939 2.25083 48.7047 2.7943 48.8995 3.29281C49.0943 3.79133 49.4622 4.21722 49.9465 4.50489C51.6121 5.5219 52.9776 6.90142 53.9214 8.52047C54.8653 10.1395 55.3581 11.9478 55.356 13.7841C55.3654 17.9714 53.9199 22.0522 51.2296 25.4336L43.5509 35.1263C37.2767 43.0122 33.9054 52.5296 33.9271 62.2951C33.9301 64.6856 34.9658 66.9773 36.807 68.6677C38.6483 70.358 41.1447 71.3088 43.7486 71.3115H83.0356C85.6395 71.3088 88.1359 70.3579 89.9772 68.6676C91.8184 66.9773 92.8541 64.6856 92.8571 62.2951C92.8787 52.5297 89.5074 43.0124 83.2331 35.1266ZM56.9532 16.3936H69.8306C69.9765 17.5022 70.2173 18.5985 70.5506 19.6723H56.2333C56.5667 18.5985 56.8074 17.5022 56.9532 16.3936ZM50.9371 3.1412C50.7777 3.04361 50.6567 2.90153 50.592 2.73594C50.5273 2.57036 50.5223 2.39007 50.5779 2.22171C50.6334 2.05334 50.7465 1.90585 50.9003 1.80102C51.0542 1.69619 51.2407 1.63958 51.4324 1.63957H55.5091C56.1928 1.63788 56.8701 1.76066 57.5018 2.00083C58.1335 2.241 58.707 2.59377 59.1892 3.03874C61.0124 4.71251 62.0169 5.63464 64.8952 6.51554C65.1198 6.58433 65.3651 6.56837 65.5769 6.47118C65.7888 6.37398 65.9499 6.20351 66.0248 5.99726C66.0997 5.79101 66.0824 5.56588 65.9765 5.3714C65.8706 5.17691 65.6849 5.02901 65.4603 4.96021C63.7718 4.50535 62.2518 3.63378 61.0658 2.44047C61.4352 2.14572 61.8668 1.92412 62.3337 1.78953C62.8006 1.65493 63.2927 1.61024 63.7793 1.65825C64.2659 1.70626 64.7364 1.84593 65.1615 2.06854C65.5866 2.29114 65.957 2.59188 66.2497 2.95194C66.3266 3.04573 66.4244 3.12327 66.5367 3.17933C66.649 3.2354 66.7731 3.26867 66.9007 3.2769C67.0282 3.28513 67.1561 3.26812 67.2759 3.22704C67.3956 3.18595 67.5044 3.12174 67.5947 3.03874C68.0769 2.59378 68.6504 2.24101 69.2821 2.00084C69.9138 1.76067 70.5911 1.63788 71.2748 1.63957H75.3516C75.5432 1.63958 75.7297 1.69619 75.8836 1.80102C76.0375 1.90585 76.1505 2.05334 76.2061 2.22171C76.2616 2.39007 76.2567 2.57036 76.192 2.73594C76.1273 2.90153 76.0063 3.04361 75.8469 3.1412C73.9364 4.30763 72.3701 5.88991 71.2874 7.74697C70.2048 9.60403 69.6395 11.6782 69.6421 13.7844C69.6421 14.1097 69.6675 14.4313 69.6831 14.7542H57.1007C57.1164 14.4313 57.1419 14.1097 57.1419 13.7844C57.1444 11.6782 56.5791 9.60403 55.4965 7.74697C54.4139 5.88991 52.8475 4.30763 50.9371 3.1412ZM83.0356 69.6721H43.7495C41.6191 69.6698 39.5766 68.8919 38.0701 67.5089C36.5637 66.126 35.7162 64.2509 35.7137 62.2951C35.6926 52.8766 38.9437 43.6972 44.9947 36.0912L52.6733 26.3984C53.9089 24.8335 54.9084 23.1224 55.6445 21.3116H71.1394C71.8755 23.1224 72.8748 24.8335 74.1103 26.3985L81.789 36.0913C87.8405 43.6971 91.0921 52.8765 91.0714 62.2951C91.069 64.251 90.2216 66.1261 88.7151 67.5091C87.2086 68.8921 85.1661 69.67 83.0356 69.6721Z" fill="#909090"/>
<path d="M97.8851 58.8736C97.1189 58.1288 96.0804 57.6695 94.9685 57.5837C93.8565 57.4979 92.7491 57.7916 91.8582 58.4085L89.6261 59.9559C79.7513 66.7957 67.7172 70.4945 55.347 70.4918L58.253 69.2869C62.8826 67.3681 67.2106 64.8873 71.121 61.911L73.2747 60.2716C74.0122 59.7119 74.4881 58.9141 74.6047 58.0422C74.7213 57.1703 74.4698 56.2905 73.9017 55.5836C73.3669 54.9197 72.592 54.4524 71.7159 54.2652C70.8399 54.0781 69.9199 54.1834 69.1207 54.5624L68.6967 54.7632C60.5223 58.6347 51.4479 60.6304 42.25 60.5796L32.5446 60.5269C29.769 60.5239 27.0519 61.2594 24.7222 62.6445C22.3924 64.0296 20.5499 66.0048 19.4175 68.3311L4.46216 99.1803H28.0125L30.7387 93.5555C31.708 91.5618 33.202 89.8206 35.0864 88.4885C36.9707 87.1564 39.1861 86.2753 41.5335 85.9244L62.5897 82.7565C73.6627 81.0935 83.9515 76.458 92.1587 69.4345L97.679 64.7068C98.1116 64.3372 98.4602 63.8927 98.7049 63.3989C98.9495 62.9051 99.0854 62.3717 99.1045 61.8295C99.1237 61.2874 99.0258 60.747 98.8165 60.2397C98.6072 59.7324 98.2906 59.2681 97.8851 58.8736Z" fill="#F0F0FF"/>
<path d="M73.9842 67.6053C68.0218 69.5135 61.7528 70.4892 55.4386 70.4918L58.3303 69.2869C62.9399 67.3663 67.2471 64.885 71.1358 61.9098L72.7578 60.6689C72.7578 60.6689 61.9333 66.4339 51.9463 69.4777C51.5497 69.5992 51.2123 69.8446 50.9928 70.1712C50.7733 70.4978 50.6857 70.8848 50.7453 71.2647C50.8049 71.6445 51.008 71.9931 51.319 72.2495C51.63 72.5059 52.0292 72.6539 52.447 72.6677C58.9583 72.916 67.3454 72.0987 73.9842 67.6053Z" fill="#D5D5D5"/>
<path d="M21.2122 69.9702C22.3446 67.6438 24.1872 65.6686 26.5169 64.2836C28.8466 62.8985 31.5636 62.163 34.3392 62.1659L44.0447 62.2186C53.2426 62.2695 62.317 60.2738 70.4913 56.4023L70.9153 56.2014C71.4342 55.9569 72.0076 55.8259 72.5908 55.8187C73.174 55.8115 73.7511 55.9284 74.2769 56.1601C74.0599 55.7384 73.7525 55.3612 73.3732 55.051C72.9938 54.7409 72.5501 54.5041 72.0688 54.355C71.5875 54.2058 71.0783 54.1473 70.5718 54.1828C70.0653 54.2184 69.5718 54.3474 69.1208 54.5621L68.6968 54.7629C60.5224 58.6344 51.448 60.6302 42.2501 60.5794L32.5446 60.5266C29.7691 60.5236 27.052 61.2592 24.7223 62.6442C22.3925 64.0293 20.55 66.0045 19.4176 68.3308L4.46216 99.1802H7.05147L21.2122 69.9702Z" fill="#D5D5D5"/>
<path d="M97.8852 58.8735C97.1756 58.187 96.2306 57.7452 95.2085 57.6221C95.2352 57.6494 95.2674 57.6698 95.2935 57.6978C95.6777 58.11 95.9692 58.5879 96.1514 59.104C96.3335 59.62 96.4026 60.1641 96.3547 60.7048C96.3068 61.2455 96.1429 61.7721 95.8724 62.2544C95.6019 62.7367 95.2301 63.1651 94.7784 63.5149L89.0139 67.9927C80.4445 74.6446 69.9221 78.8193 58.7726 79.9907L37.5731 82.2231C35.2097 82.47 32.9502 83.252 30.9976 84.4991C29.045 85.7461 27.4606 87.419 26.3867 89.3674L21.2297 99.1802H28.0126L30.7388 93.5555C31.7081 91.5618 33.2022 89.8205 35.0865 88.4885C36.9708 87.1564 39.1863 86.2753 41.5336 85.9244L62.5898 82.7564C73.6628 81.0935 83.9516 76.458 92.1588 69.4344L97.6791 64.7067C98.1117 64.3372 98.4603 63.8927 98.705 63.3989C98.9497 62.9051 99.0855 62.3717 99.1046 61.8295C99.1238 61.2873 99.0259 60.747 98.8166 60.2397C98.6073 59.7324 98.2908 59.2681 97.8852 58.8735Z" fill="#D5D5D5"/>
<path d="M4.4618 99.9999C4.31304 99.9997 4.1667 99.9654 4.03604 99.9001C3.90539 99.8348 3.79455 99.7406 3.71357 99.626C3.6326 99.5115 3.58406 99.3802 3.57235 99.2441C3.56064 99.1079 3.58614 98.9712 3.64652 98.8464L18.602 67.9973C19.8057 65.5269 21.7629 63.4294 24.2371 61.9583C26.7113 60.4871 29.5967 59.7052 32.5446 59.707L42.255 59.7598C51.3098 59.8174 60.2441 57.8526 68.2875 54.0345L68.7108 53.8336C69.7287 53.3455 70.9073 53.2201 72.0199 53.4817C73.1325 53.7432 74.1004 54.3732 74.7375 55.2504C75.3746 56.1276 75.6359 57.1901 75.4711 58.2335C75.3063 59.2769 74.727 60.2275 73.8447 60.9025L71.691 62.5418C68.0728 65.2957 64.1012 67.6329 59.8648 69.5014C70.4589 68.6999 80.59 65.164 89.0883 59.3019L91.3204 57.7547C92.3859 57.0137 93.7123 56.6607 95.0443 56.7636C96.3763 56.8665 97.6198 57.418 98.5354 58.3121C99.0216 58.7852 99.4011 59.3419 99.652 59.9502C99.9028 60.5585 100.02 61.2064 99.9972 61.8565C99.9742 62.5066 99.8114 63.1461 99.5181 63.7382C99.2248 64.3303 98.8068 64.8633 98.2882 65.3065L92.7678 70.0337C84.438 77.1764 73.9843 81.8861 62.7336 83.5649L41.6774 86.7331C39.475 87.059 37.3958 87.884 35.6283 89.1334C33.8607 90.3829 32.4605 92.0174 31.5545 93.8888L28.8284 99.5137C28.7807 99.612 28.7123 99.7008 28.6273 99.7749C28.5422 99.849 28.4421 99.9069 28.3326 99.9455C28.2232 99.9841 28.1065 100.003 27.9893 99.9997C27.8721 99.9969 27.7566 99.9729 27.6495 99.9291C27.5423 99.8853 27.4457 99.8226 27.3649 99.7445C27.2842 99.6664 27.2211 99.5745 27.179 99.474C27.137 99.3735 27.117 99.2664 27.12 99.1588C27.1231 99.0512 27.1492 98.9452 27.1969 98.8469L29.9231 93.222C30.9491 91.102 32.5349 89.2505 34.5369 87.835C36.539 86.4195 38.894 85.4848 41.3887 85.1155L62.445 81.9473C73.3476 80.3204 83.4778 75.7564 91.5497 68.8347L97.07 64.1071C97.4166 63.8113 97.696 63.4553 97.892 63.0599C98.0881 62.6644 98.1969 62.2372 98.2122 61.803C98.2276 61.3687 98.1492 60.936 97.9815 60.5297C97.8138 60.1234 97.5602 59.7516 97.2352 59.4357C96.6208 58.8365 95.7868 58.467 94.8936 58.3981C94.0004 58.3293 93.111 58.566 92.3963 59.0627L90.1642 60.6099C80.1229 67.5372 67.9074 71.2918 55.3469 71.3115C55.1426 71.3116 54.9445 71.2474 54.7855 71.1297C54.6265 71.0119 54.5164 70.8476 54.4734 70.6643C54.4304 70.481 54.4572 70.2897 54.5492 70.1223C54.6413 69.9549 54.7932 69.8215 54.9794 69.7445L57.8856 68.5396C62.4425 66.6508 66.7025 64.2089 70.5515 61.2794L72.7052 59.6401C73.2485 59.2231 73.6045 58.6364 73.7047 57.9929C73.805 57.3494 73.6423 56.6946 73.2481 56.1545C72.8539 55.6145 72.256 55.2275 71.5695 55.068C70.8831 54.9084 70.1566 54.9877 69.53 55.2904L69.1067 55.4913C60.9023 59.3677 51.8097 61.3932 42.5824 61.3999C42.4691 61.3999 42.3575 61.3995 42.2446 61.3991L32.5391 61.3463C29.9373 61.3451 27.3908 62.0354 25.2072 63.334C23.0235 64.6325 21.2961 66.4837 20.2335 68.6639L5.27806 99.5131C5.20775 99.6579 5.09326 99.781 4.9484 99.8674C4.80355 99.9538 4.63454 99.9998 4.4618 99.9999Z" fill="#909090"/>
</svg>
