<svg width="99" height="99" viewBox="0 0 99 99" fill="none" xmlns="http://www.w3.org/2000/svg">
<path d="M99 33.8719C99 33.5905 98.9531 33.3144 98.8645 33.0435L93.1954 16.0319C90.0014 6.44506 81.0602 0 70.9518 0H28.0482C17.9398 0 9.00386 6.43985 5.8046 16.0319L0.135479 33.0435C0.0468998 33.3092 0 33.5905 0 33.8719C0.00521053 38.832 2.006 43.3233 5.22611 46.611C5.22611 46.6318 5.21053 46.6527 5.21053 46.6787V80.7641C5.21053 90.8199 13.3911 99 23.4474 99H41.8248V80.7641C41.8248 76.4553 45.3315 72.9488 49.6406 72.9488C53.9497 72.9488 57.4564 76.4553 57.4564 80.7641V99H75.5526C85.6089 99 93.7895 90.8199 93.7895 80.7641V46.6787C93.7895 46.6579 93.7791 46.6371 93.7739 46.6162C96.994 43.3233 98.9948 38.832 99 33.8719ZM10.7442 17.6837C13.2348 10.2226 20.1857 5.2155 28.0432 5.2155H70.9467C78.8094 5.2155 85.7599 10.2226 88.2453 17.6837L93.7739 34.273C93.5498 41.2704 87.8129 46.8975 80.8099 46.8975C75.0054 46.8975 69.3155 43.167 67.5804 38.2173C67.2156 37.1753 66.2309 36.477 65.1211 36.477H65.1106C64.0007 36.4822 63.0162 37.1909 62.6567 38.2381C60.9685 43.1722 55.3097 46.8975 49.4895 46.8975C43.6693 46.8975 38.0108 43.1774 36.3226 38.2381C35.9631 37.1857 34.9783 36.4822 33.8684 36.477C32.8263 36.6958 31.7686 37.1753 31.3986 38.2173C29.6635 43.167 23.9787 46.8975 18.1742 46.8975C11.166 46.8975 5.42949 41.2704 5.20544 34.273L10.7442 17.6837ZM75.5526 93.7898H62.6669V80.7641C62.6669 73.5844 56.8207 67.7385 49.6406 67.7385C42.4605 67.7385 36.6143 73.5844 36.6143 80.7641V93.7898H23.4474C16.2673 93.7898 10.4211 87.9439 10.4211 80.7641V50.2894C12.7866 51.42 15.3971 52.1077 18.1847 52.1077C24.3748 52.1077 30.3149 49.0806 33.8528 44.4748C37.3595 49.0806 43.2943 52.1077 49.5 52.1077C55.7057 52.1077 61.6405 49.0806 65.1472 44.4748C68.6851 49.0806 74.6304 52.1077 80.8153 52.1077C83.603 52.1077 86.2134 51.42 88.5789 50.2894V80.7641C88.5789 87.9439 82.7327 93.7898 75.5526 93.7898Z" fill="#00B24F"/>
</svg>
