<svg width="120" height="120" viewBox="0 0 120 120" fill="none" xmlns="http://www.w3.org/2000/svg">
<g opacity="0.7">
<path d="M60 63.7524C73.095 63.7524 83.75 53.0974 83.75 40.0024C83.75 26.9074 73.095 16.2524 60 16.2524C46.905 16.2524 36.25 26.9074 36.25 40.0024C36.25 53.0974 46.905 63.7524 60 63.7524ZM60 23.7524C68.96 23.7524 76.25 31.0424 76.25 40.0024C76.25 48.9624 68.96 56.2524 60 56.2524C51.04 56.2524 43.75 48.9624 43.75 40.0024C43.75 31.0424 51.04 23.7524 60 23.7524ZM93.75 87.0026V91.3324C93.75 95.4674 92.235 99.4326 89.4901 102.498C88.7551 103.328 87.7249 103.748 86.6949 103.748C85.7999 103.748 84.9099 103.432 84.1949 102.792C82.6499 101.412 82.5201 99.0426 83.9001 97.4976C85.4101 95.8076 86.2451 93.6174 86.2451 91.3324V87.0026C86.2451 80.7576 82.1051 75.3577 76.1801 73.8727C75.2101 73.6277 74.1999 73.7623 73.3749 74.2273C65.0649 78.8573 54.885 78.8374 46.64 74.2474C45.775 73.7574 44.7651 73.6322 43.8101 73.8672C37.8801 75.3572 33.7399 80.7576 33.7399 87.0026V91.3324C33.7399 93.6174 34.5749 95.8076 36.0849 97.4976C37.4649 99.0426 37.3351 101.412 35.7901 102.792C34.2501 104.167 31.875 104.043 30.495 102.498C27.75 99.4326 26.235 95.4624 26.235 91.3324V87.0026C26.235 77.3176 32.7049 68.9274 41.9699 66.5924C44.7699 65.8824 47.8251 66.2874 50.3101 67.7124C56.2651 71.0224 63.6649 71.0423 69.6899 67.6923C72.1399 66.2873 75.1849 65.8773 77.9999 66.5973C87.2799 68.9273 93.75 77.3176 93.75 87.0026ZM86.4651 19.6075C87.1551 17.6575 89.295 16.6324 91.25 17.3224C98.725 19.9624 103.75 27.0674 103.75 35.0024C103.75 40.3324 101.47 45.4227 97.5 48.9777C96.78 49.6177 95.89 49.9323 95 49.9323C93.97 49.9323 92.9449 49.5122 92.2049 48.6823C90.8249 47.1373 90.955 44.7675 92.5 43.3875C94.885 41.2575 96.25 38.2024 96.25 35.0024C96.25 30.2424 93.235 25.9777 88.75 24.3927C86.795 23.7027 85.7752 21.5575 86.4651 19.6075ZM108.75 74.1675V77.7777C108.75 79.8477 107.07 81.5277 105 81.5277C102.93 81.5277 101.25 79.8477 101.25 77.7777V74.1675C101.25 69.2525 97.995 65.0024 93.335 63.8324C91.33 63.3274 90.105 61.2922 90.61 59.2822C91.12 57.2722 93.1649 56.0576 95.1599 56.5576C103.165 58.5676 108.75 65.8075 108.75 74.1675ZM22.5 51.1975C18.53 47.6425 16.25 42.5523 16.25 37.2223C16.25 29.2873 21.275 22.1822 28.75 19.5422C30.72 18.8522 32.8449 19.8774 33.5349 21.8274C34.2249 23.7824 33.205 25.9225 31.25 26.6125C26.765 28.1975 23.75 32.4623 23.75 37.2223C23.75 40.4173 25.115 43.4723 27.5 45.6073C29.045 46.9873 29.1751 49.3577 27.7951 50.9027C27.0601 51.7327 26.03 52.1527 25 52.1527C24.11 52.1527 23.215 51.8375 22.5 51.1975ZM26.665 66.0522C22.005 67.2222 18.75 71.4723 18.75 76.3873V80.0024C18.75 82.0724 17.07 83.7524 15 83.7524C12.93 83.7524 11.25 82.0724 11.25 80.0024V76.3922C11.25 68.0322 16.8401 60.7924 24.8401 58.7823C26.8451 58.2924 28.885 59.4976 29.39 61.5076C29.895 63.5076 28.675 65.5472 26.665 66.0522Z" fill="#00B24F"/>
</g>
</svg>
