<svg width="153" height="191" viewBox="0 0 153 191" fill="none" xmlns="http://www.w3.org/2000/svg">
<g opacity="0.8">
<path d="M52.4992 69.5299L63.1673 83.6207C64.6893 85.5924 66.9282 86.8834 69.397 87.213C71.8659 87.5426 74.365 86.8842 76.351 85.3809C78.337 83.8776 79.6491 81.651 80.0021 79.1854C80.355 76.7198 79.7203 74.2145 78.2358 72.2144L72.7475 64.9644L91.4804 63.8414C93.0896 63.7293 94.6443 63.2115 95.9994 62.3365C97.3546 61.4614 98.4662 60.2575 99.2306 58.837C99.995 57.4165 100.387 55.8256 100.371 54.2125C100.355 52.5995 99.9303 51.0168 99.1374 49.612L84.0535 23.4851C83.2324 22.0969 82.0735 20.939 80.6847 20.1192C79.2958 19.2993 77.7221 18.8442 76.11 18.7961C74.4979 18.748 72.8999 19.1085 71.4646 19.844C70.0293 20.5796 68.8034 21.6663 67.9011 23.003L56.198 40.7259C54.992 42.5453 54.4523 44.7258 54.6704 46.8977L45.7147 52.0672C43.7735 53.2099 42.302 55.0059 41.5633 57.1339C40.8247 59.2619 40.867 61.5833 41.6828 63.683C42.4985 65.7826 44.0345 67.5237 46.0161 68.5949C47.9977 69.666 50.2957 69.9975 52.4992 69.5299ZM73.7557 78.5345C73.6294 79.1172 73.3396 79.6519 72.9203 80.0759C72.501 80.4998 71.9695 80.7955 71.3882 80.9282C70.8068 81.0609 70.1997 81.0252 69.638 80.8252C69.0762 80.6252 68.5831 80.2692 68.2164 79.799L58.3208 66.7295L63.7625 63.5879L73.1868 76.0362C73.456 76.387 73.6462 76.7919 73.7444 77.2231C73.8426 77.6543 73.8464 78.1016 73.7557 78.5345ZM61.4837 44.2137L73.1852 26.4906C73.4825 26.0401 73.8901 25.673 74.3691 25.4243C74.8482 25.1756 75.3829 25.0535 75.9224 25.0696C76.4619 25.0858 76.9884 25.2395 77.4517 25.5163C77.9151 25.7932 78.3 26.1839 78.5699 26.6513L93.654 52.7786C93.9238 53.2458 94.0696 53.7743 94.0778 54.3137C94.0859 54.8532 93.956 55.3858 93.7005 55.861C93.4449 56.3361 93.0721 56.7381 92.6176 57.0287C92.163 57.3193 91.6417 57.489 91.1032 57.5215L69.8985 58.7923C69.3126 58.823 68.7295 58.6922 68.2129 58.4141C67.6963 58.1361 67.2659 57.7215 66.9688 57.2155L64.1768 52.3797L61.3832 47.54C61.0879 47.0314 60.9408 46.4504 60.9586 45.8625C60.9764 45.2747 61.1583 44.7036 61.4837 44.2137ZM47.7244 61.8781C47.3055 61.1507 47.1922 60.2868 47.4093 59.4759C47.6263 58.665 48.1561 57.9733 48.8824 57.5525L57.1084 52.8034L60.2751 58.2883L52.0486 63.0376C51.3211 63.4558 50.4574 63.5686 49.6469 63.3512C48.8364 63.1339 48.1451 62.6042 47.7244 61.8781ZM97.0799 33.3825C97.5005 34.1091 98.1921 34.6393 99.003 34.8566C99.8139 35.074 100.678 34.9608 101.406 34.542L106.889 31.3758C107.616 30.9557 108.146 30.2641 108.364 29.4531C108.581 28.6421 108.467 27.7781 108.047 27.0509C107.628 26.3238 106.936 25.7931 106.125 25.5755C105.314 25.358 104.45 25.4713 103.723 25.8906L98.2394 29.0568C97.5121 29.4768 96.9814 30.1684 96.764 30.9796C96.5466 31.7907 96.6602 32.6551 97.0799 33.3825ZM90.1261 26.4286C90.8534 26.8476 91.7173 26.9608 92.528 26.7434C93.3388 26.526 94.0301 25.9958 94.4502 25.2692L97.6164 19.7871C97.8246 19.4271 97.9598 19.0297 98.0143 18.6174C98.0688 18.2052 98.0415 17.7863 97.9341 17.3846C97.8266 16.9829 97.6411 16.6063 97.388 16.2763C97.135 15.9463 96.8194 15.6695 96.4593 15.4615C96.0992 15.2535 95.7017 15.1185 95.2894 15.0643C94.8772 15.01 94.4583 15.0375 94.0566 15.1451C93.655 15.2528 93.2785 15.4385 92.9487 15.6918C92.6188 15.945 92.3421 16.2607 92.1343 16.6209L88.9682 22.103C88.76 22.463 88.6249 22.8605 88.5704 23.2728C88.516 23.6851 88.5433 24.104 88.6508 24.5057C88.7584 24.9075 88.944 25.284 89.1971 25.614C89.4503 25.9439 89.7659 26.2207 90.1261 26.4286ZM99.6246 42.881C99.6245 43.2968 99.7063 43.7086 99.8654 44.0928C100.024 44.4769 100.258 44.826 100.552 45.12C100.846 45.4141 101.195 45.6473 101.579 45.8064C101.963 45.9654 102.375 46.0473 102.791 46.0472H109.123C109.963 46.0472 110.768 45.7136 111.362 45.1198C111.956 44.526 112.289 43.7207 112.289 42.881C112.289 42.0413 111.956 41.2359 111.362 40.6422C110.768 40.0484 109.963 39.7148 109.123 39.7148H102.791C102.375 39.7147 101.963 39.7965 101.579 39.9556C101.195 40.1147 100.846 40.3479 100.552 40.6419C100.258 40.936 100.024 41.285 99.8654 41.6692C99.7063 42.0534 99.6245 42.4652 99.6246 42.881Z" fill="white"/>
<path d="M149.45 184.181H143.118V70.1985C143.114 66.8407 141.779 63.6215 139.404 61.2472C137.03 58.8729 133.811 57.5374 130.453 57.5338H126.847C127.751 50.4054 127.128 43.1662 125.017 36.2976C122.907 29.429 119.359 23.0883 114.608 17.6972C109.858 12.3061 104.014 7.98808 97.4654 5.03033C90.9168 2.07258 83.8137 0.542847 76.6282 0.542847C69.4427 0.542847 62.3395 2.07258 55.791 5.03033C49.2425 7.98808 43.3987 12.3061 38.6481 17.6972C33.8976 23.0883 30.3493 29.429 28.239 36.2976C26.1287 43.1662 25.5049 50.4054 26.409 57.5338H22.8033C19.4455 57.5374 16.2262 58.8729 13.8519 61.2472C11.4776 63.6215 10.1421 66.8407 10.1386 70.1985V184.181H3.80622C2.975 184.194 2.18217 184.533 1.59891 185.125C1.01564 185.718 0.688721 186.516 0.688721 187.347C0.688721 188.178 1.01564 188.976 1.59891 189.569C2.18217 190.161 2.975 190.5 3.80622 190.513H149.45C150.281 190.5 151.074 190.161 151.657 189.569C152.241 188.976 152.568 188.178 152.568 187.347C152.568 186.516 152.241 185.718 151.657 185.125C151.074 184.533 150.281 184.194 149.45 184.181ZM76.6282 6.87507C88.3802 6.88824 99.6472 11.5626 107.957 19.8725C116.267 28.1825 120.941 39.4494 120.955 51.2015C118.52 110.007 34.7271 109.989 32.3018 51.2011C32.3151 39.4491 36.9894 28.1823 45.2994 19.8724C53.6093 11.5625 64.8762 6.88826 76.6282 6.87507ZM108.29 95.5279H120.955L120.959 105.026H108.29V95.5279ZM70.2958 101.421C74.4981 101.992 78.7583 101.992 82.9605 101.421V105.026H70.2958V101.421ZM44.9711 105.026H32.3018V95.5279H44.9665L44.9711 105.026ZM60.7973 184.181V155.685C60.7982 154.846 61.132 154.041 61.7256 153.447C62.3192 152.854 63.124 152.52 63.9635 152.519H89.2929C90.1323 152.52 90.9372 152.854 91.5308 153.447C92.1243 154.041 92.4582 154.846 92.459 155.685V184.181H60.7973ZM98.7914 184.181V155.685C98.7886 153.167 97.787 150.752 96.0063 148.972C94.2256 147.191 91.8112 146.189 89.2929 146.187H63.9635C61.4452 146.189 59.0308 147.191 57.2501 148.972C55.4693 150.752 54.4677 153.167 54.465 155.685V184.181H16.4709V70.1985C16.4728 68.5197 17.1406 66.9101 18.3277 65.723C19.5149 64.5359 21.1244 63.8681 22.8033 63.8662H27.6366C30.1833 73.6799 35.6165 82.5036 43.2331 89.1955H32.3018C30.6229 89.1975 29.0134 89.8652 27.8262 91.0524C26.6391 92.2395 25.9713 93.849 25.9694 95.5279V105.026C25.9713 106.705 26.6391 108.315 27.8262 109.502C29.0134 110.689 30.6229 111.357 32.3018 111.359H44.9665C46.6453 111.357 48.2549 110.689 49.442 109.502C50.6291 108.315 51.2969 106.705 51.2988 105.026V95.5279C51.2988 95.3373 51.2592 95.1576 51.2426 94.9713C55.2238 97.2861 59.5041 99.0431 63.9635 100.193V105.026C63.9654 106.705 64.6332 108.315 65.8203 109.502C67.0074 110.689 68.617 111.357 70.2958 111.359H82.9605C84.6394 111.357 86.2489 110.689 87.436 109.502C88.6232 108.315 89.2909 106.705 89.2929 105.026V100.193C93.7522 99.0431 98.0325 97.2861 102.014 94.9713C101.997 95.1576 101.958 95.3373 101.958 95.5279V105.026C101.959 106.705 102.627 108.315 103.814 109.502C105.002 110.689 106.611 111.357 108.29 111.359H120.955C122.633 111.357 124.243 110.689 125.43 109.502C126.617 108.315 127.285 106.705 127.287 105.026V95.5279C127.285 93.849 126.617 92.2395 125.43 91.0524C124.243 89.8652 122.633 89.1975 120.955 89.1955H110.023C117.64 82.5036 123.073 73.6799 125.62 63.8662H130.453C132.132 63.8681 133.741 64.5359 134.929 65.723C136.116 66.9101 136.784 68.5197 136.785 70.1985V184.181H98.7914Z" fill="white"/>
<path d="M44.9665 117.691H32.3018C30.623 117.693 29.0134 118.361 27.8263 119.548C26.6392 120.735 25.9714 122.345 25.9695 124.023V133.522C25.9714 135.201 26.6392 136.81 27.8263 137.997C29.0134 139.185 30.623 139.852 32.3018 139.854H44.9665C46.6454 139.852 48.2549 139.185 49.442 137.997C50.6292 136.81 51.2969 135.201 51.2989 133.522V124.023C51.2969 122.345 50.6292 120.735 49.442 119.548C48.2549 118.361 46.6454 117.693 44.9665 117.691ZM32.3018 133.522V124.023H44.9665L44.9711 133.522H32.3018ZM82.9606 117.691H70.2959C68.617 117.693 67.0075 118.361 65.8204 119.548C64.6332 120.735 63.9655 122.345 63.9635 124.023V133.522C63.9655 135.201 64.6332 136.81 65.8204 137.997C67.0075 139.185 68.617 139.852 70.2959 139.854H82.9606C84.6394 139.852 86.249 139.185 87.4361 137.997C88.6232 136.81 89.291 135.201 89.2929 133.522V124.023C89.291 122.345 88.6232 120.735 87.4361 119.548C86.249 118.361 84.6394 117.693 82.9606 117.691ZM70.2959 133.522V124.023H82.9606L82.9652 133.522H70.2959ZM120.955 117.691H108.29C106.611 117.693 105.002 118.361 103.814 119.548C102.627 120.735 101.96 122.345 101.958 124.023V133.522C101.96 135.201 102.627 136.81 103.814 137.997C105.002 139.185 106.611 139.852 108.29 139.854H120.955C122.633 139.852 124.243 139.185 125.43 137.997C126.617 136.81 127.285 135.201 127.287 133.522V124.023C127.285 122.345 126.617 120.735 125.43 119.548C124.243 118.361 122.633 117.693 120.955 117.691ZM108.29 133.522V124.023H120.955L120.959 133.522H108.29Z" fill="white"/>
</g>
</svg>
