<svg width="120" height="120" viewBox="0 0 120 120" fill="none" xmlns="http://www.w3.org/2000/svg">
<g filter="url(#filter0_f_108_5766)">
<path d="M59.5 105.229C82.9721 105.229 102 86.2015 102 62.7294C102 39.2573 82.9721 20.2294 59.5 20.2294C36.0279 20.2294 17 39.2573 17 62.7294C17 86.2015 36.0279 105.229 59.5 105.229Z" fill="white"/>
<path d="M59.5 105.229C82.9721 105.229 102 86.2015 102 62.7294C102 39.2573 82.9721 20.2294 59.5 20.2294C36.0279 20.2294 17 39.2573 17 62.7294C17 86.2015 36.0279 105.229 59.5 105.229Z" stroke="#111111" stroke-width="3" stroke-miterlimit="10" stroke-linecap="round" stroke-linejoin="round"/>
<path d="M59.5009 15C36.1434 15 17.2026 33.9393 17.2026 57.2975C17.2026 78.5356 32.861 96.113 53.2596 99.1338V72.0025H43.6861V60.9143H53.2596V52.7374C53.2596 43.2469 59.0534 38.0815 67.5192 38.0815C71.5748 38.0815 75.0569 38.3834 76.0773 38.5189V48.4346L70.2064 48.4375C65.6031 48.4375 64.7102 50.6274 64.7102 53.8349V60.9143H75.6896L74.2584 72.0025H64.7102V99.2635C85.6104 96.6945 101.798 78.8909 101.798 57.2975C101.798 33.9393 82.8605 15 59.5009 15Z" fill="#2463FF"/>
<path d="M49.6586 35.5723L48.5943 34.5108M46.2854 32.1998L46.3337 32.2502M43.1219 45.5002L41.6201 45.501M38.3514 45.501H38.4227M59.5852 29.0384V27.5337M59.5852 24.2672V24.3371M59.5009 15C36.1434 15 17.2026 33.9393 17.2026 57.2975C17.2026 78.5356 32.861 96.113 53.2596 99.1338V72.0025H43.6861V60.9143H53.2596V52.7374C53.2596 43.2469 59.0534 38.0815 67.5192 38.0815C71.5748 38.0815 75.0569 38.3834 76.0773 38.5189V48.4346L70.2064 48.4375C65.6031 48.4375 64.7102 50.6274 64.7102 53.8349V60.9143H75.6896L74.2584 72.0025H64.7102V99.2635C85.6104 96.6945 101.798 78.8909 101.798 57.2975C101.798 33.9393 82.8605 15 59.5009 15Z" stroke="#111111" stroke-width="3" stroke-miterlimit="10" stroke-linecap="round" stroke-linejoin="round"/>
</g>
<defs>
<filter id="filter0_f_108_5766" x="7.3" y="5.3" width="104.4" height="109.629" filterUnits="userSpaceOnUse" color-interpolation-filters="sRGB">
<feFlood flood-opacity="0" result="BackgroundImageFix"/>
<feBlend mode="normal" in="SourceGraphic" in2="BackgroundImageFix" result="shape"/>
<feGaussianBlur stdDeviation="4.1" result="effect1_foregroundBlur_108_5766"/>
</filter>
</defs>
</svg>
