<svg width="451" height="468" viewBox="0 0 451 468" fill="none" xmlns="http://www.w3.org/2000/svg">
<g filter="url(#filter0_d_361_14732)">
<rect x="10" y="8" width="416" height="448" rx="14" fill="#111111"/>
</g>
<path d="M60.625 82.7773L56.875 81.8594L58.418 67.5625H73.75V71.5469H62.3242L61.543 78.5195C61.9857 78.2591 62.5977 78.0052 63.3789 77.7578C64.1602 77.4974 65.0521 77.3672 66.0547 77.3672C67.3958 77.3672 68.5938 77.5885 69.6484 78.0312C70.7161 78.4609 71.6211 79.0924 72.3633 79.9258C73.1055 80.7461 73.6719 81.7487 74.0625 82.9336C74.4531 84.1055 74.6484 85.4271 74.6484 86.8984C74.6484 88.2135 74.4531 89.444 74.0625 90.5898C73.6849 91.7357 73.112 92.7448 72.3438 93.6172C71.5755 94.4896 70.6055 95.1732 69.4336 95.668C68.2747 96.1497 66.901 96.3906 65.3125 96.3906C64.1276 96.3906 62.9883 96.2214 61.8945 95.8828C60.8138 95.5312 59.8438 95.0169 58.9844 94.3398C58.125 93.6497 57.4349 92.8034 56.9141 91.8008C56.3932 90.7852 56.0938 89.6198 56.0156 88.3047H60.625C60.7422 89.2292 60.9961 90.0169 61.3867 90.668C61.7904 91.306 62.3242 91.7943 62.9883 92.1328C63.6523 92.4714 64.4206 92.6406 65.293 92.6406C66.0872 92.6406 66.7708 92.5039 67.3438 92.2305C67.9167 91.944 68.3919 91.5404 68.7695 91.0195C69.1602 90.4857 69.4466 89.8607 69.6289 89.1445C69.8242 88.4284 69.9219 87.6341 69.9219 86.7617C69.9219 85.9284 69.8112 85.1667 69.5898 84.4766C69.3815 83.7865 69.0625 83.1875 68.6328 82.6797C68.2161 82.1719 67.6888 81.7812 67.0508 81.5078C66.4128 81.2214 65.6771 81.0781 64.8438 81.0781C63.724 81.0781 62.8646 81.2409 62.2656 81.5664C61.6797 81.8919 61.1328 82.2956 60.625 82.7773ZM77.3867 93.6562C77.3867 92.9271 77.6341 92.3151 78.1289 91.8203C78.6237 91.3125 79.2943 91.0586 80.1406 91.0586C81 91.0586 81.6706 91.3125 82.1523 91.8203C82.6471 92.3151 82.8945 92.9271 82.8945 93.6562C82.8945 94.3854 82.6471 94.9974 82.1523 95.4922C81.6706 95.987 81 96.2344 80.1406 96.2344C79.2943 96.2344 78.6237 95.987 78.1289 95.4922C77.6341 94.9974 77.3867 94.3854 77.3867 93.6562ZM90.3398 92.2891H90.7305C92.5273 92.2891 94.0247 92.0547 95.2227 91.5859C96.4336 91.1042 97.3971 90.4401 98.1133 89.5938C98.8294 88.7474 99.3438 87.7513 99.6562 86.6055C99.9688 85.4596 100.125 84.2161 100.125 82.875V77.9727C100.125 76.8138 100.001 75.7982 99.7539 74.9258C99.5195 74.0404 99.181 73.3047 98.7383 72.7188C98.3086 72.1198 97.8073 71.6706 97.2344 71.3711C96.6745 71.0716 96.069 70.9219 95.418 70.9219C94.7018 70.9219 94.0573 71.0846 93.4844 71.4102C92.9245 71.7227 92.4492 72.1589 92.0586 72.7188C91.681 73.2656 91.388 73.9102 91.1797 74.6523C90.9844 75.3815 90.8867 76.1628 90.8867 76.9961C90.8867 77.7773 90.9779 78.5326 91.1602 79.2617C91.3555 79.9779 91.6419 80.6159 92.0195 81.1758C92.3971 81.7357 92.8724 82.1784 93.4453 82.5039C94.0182 82.8294 94.6888 82.9922 95.457 82.9922C96.1862 82.9922 96.8568 82.8555 97.4688 82.582C98.0807 82.2956 98.6146 81.9115 99.0703 81.4297C99.526 80.9479 99.8841 80.4076 100.145 79.8086C100.405 79.2096 100.548 78.5977 100.574 77.9727L102.371 78.5195C102.371 79.5091 102.163 80.4857 101.746 81.4492C101.342 82.3997 100.776 83.2721 100.047 84.0664C99.3307 84.8477 98.4909 85.4727 97.5273 85.9414C96.5768 86.4102 95.5417 86.6445 94.4219 86.6445C93.0677 86.6445 91.8698 86.3906 90.8281 85.8828C89.7995 85.362 88.9401 84.6589 88.25 83.7734C87.5729 82.888 87.0651 81.8724 86.7266 80.7266C86.388 79.5807 86.2188 78.3763 86.2188 77.1133C86.2188 75.7461 86.4271 74.4635 86.8438 73.2656C87.2604 72.0677 87.8659 71.013 88.6602 70.1016C89.4544 69.1771 90.418 68.4609 91.5508 67.9531C92.6966 67.4323 93.9922 67.1719 95.4375 67.1719C96.974 67.1719 98.3216 67.4714 99.4805 68.0703C100.639 68.6693 101.616 69.4961 102.41 70.5508C103.204 71.6055 103.803 72.8294 104.207 74.2227C104.611 75.6159 104.812 77.1133 104.812 78.7148V80.375C104.812 82.0547 104.663 83.6758 104.363 85.2383C104.064 86.7878 103.576 88.2266 102.898 89.5547C102.234 90.8698 101.355 92.0286 100.262 93.0312C99.181 94.0208 97.8529 94.7956 96.2773 95.3555C94.7148 95.9023 92.8789 96.1758 90.7695 96.1758H90.3398V92.2891ZM126.379 88.2461C126.379 90.0169 125.969 91.5078 125.148 92.7188C124.328 93.9297 123.208 94.8477 121.789 95.4727C120.383 96.0846 118.794 96.3906 117.023 96.3906C115.253 96.3906 113.658 96.0846 112.238 95.4727C110.819 94.8477 109.699 93.9297 108.879 92.7188C108.059 91.5078 107.648 90.0169 107.648 88.2461C107.648 87.0742 107.876 86.013 108.332 85.0625C108.788 84.099 109.432 83.2721 110.266 82.582C111.112 81.8789 112.102 81.3385 113.234 80.9609C114.38 80.5833 115.63 80.3945 116.984 80.3945C118.781 80.3945 120.389 80.7266 121.809 81.3906C123.228 82.0547 124.341 82.9727 125.148 84.1445C125.969 85.3164 126.379 86.6836 126.379 88.2461ZM121.652 88.0117C121.652 87.0612 121.457 86.2279 121.066 85.5117C120.676 84.7956 120.129 84.2422 119.426 83.8516C118.723 83.4609 117.909 83.2656 116.984 83.2656C116.047 83.2656 115.233 83.4609 114.543 83.8516C113.853 84.2422 113.312 84.7956 112.922 85.5117C112.544 86.2279 112.355 87.0612 112.355 88.0117C112.355 88.9753 112.544 89.8086 112.922 90.5117C113.299 91.2018 113.84 91.7292 114.543 92.0938C115.246 92.4583 116.073 92.6406 117.023 92.6406C117.974 92.6406 118.794 92.4583 119.484 92.0938C120.174 91.7292 120.708 91.2018 121.086 90.5117C121.464 89.8086 121.652 88.9753 121.652 88.0117ZM125.734 75.043C125.734 76.4622 125.357 77.7253 124.602 78.832C123.859 79.9388 122.831 80.8112 121.516 81.4492C120.201 82.0742 118.703 82.3867 117.023 82.3867C115.331 82.3867 113.82 82.0742 112.492 81.4492C111.177 80.8112 110.142 79.9388 109.387 78.832C108.645 77.7253 108.273 76.4622 108.273 75.043C108.273 73.3503 108.645 71.9245 109.387 70.7656C110.142 69.5938 111.177 68.7018 112.492 68.0898C113.807 67.4779 115.311 67.1719 117.004 67.1719C118.697 67.1719 120.201 67.4779 121.516 68.0898C122.831 68.7018 123.859 69.5938 124.602 70.7656C125.357 71.9245 125.734 73.3503 125.734 75.043ZM121.027 75.1992C121.027 74.3529 120.858 73.6107 120.52 72.9727C120.194 72.3216 119.732 71.8138 119.133 71.4492C118.534 71.0846 117.824 70.9023 117.004 70.9023C116.184 70.9023 115.474 71.0781 114.875 71.4297C114.276 71.7812 113.814 72.276 113.488 72.9141C113.163 73.5521 113 74.3138 113 75.1992C113 76.0716 113.163 76.8333 113.488 77.4844C113.814 78.1224 114.276 78.6237 114.875 78.9883C115.487 79.3529 116.203 79.5352 117.023 79.5352C117.844 79.5352 118.553 79.3529 119.152 78.9883C119.751 78.6237 120.214 78.1224 120.539 77.4844C120.865 76.8333 121.027 76.0716 121.027 75.1992ZM147.906 67.5625V70.1406L136.539 96H131.578L142.926 71.3125H128.199V67.5625H147.906ZM154.941 91.4688L154.922 94.8281C154.922 96.1562 154.59 97.5234 153.926 98.9297C153.262 100.336 152.383 101.495 151.289 102.406L148.77 100.941C149.134 100.355 149.466 99.763 149.766 99.1641C150.065 98.5651 150.306 97.9271 150.488 97.25C150.671 96.5729 150.762 95.8242 150.762 95.0039V91.4688H154.941ZM163.227 79.6523H166.039C167.133 79.6523 168.038 79.4635 168.754 79.0859C169.483 78.7083 170.023 78.1875 170.375 77.5234C170.727 76.8594 170.902 76.0977 170.902 75.2383C170.902 74.3398 170.74 73.5716 170.414 72.9336C170.102 72.2826 169.62 71.7812 168.969 71.4297C168.331 71.0781 167.517 70.9023 166.527 70.9023C165.694 70.9023 164.939 71.0716 164.262 71.4102C163.598 71.7357 163.07 72.2044 162.68 72.8164C162.289 73.4154 162.094 74.1315 162.094 74.9648H157.367C157.367 73.4544 157.764 72.1133 158.559 70.9414C159.353 69.7695 160.434 68.8516 161.801 68.1875C163.181 67.5104 164.73 67.1719 166.449 67.1719C168.285 67.1719 169.887 67.4779 171.254 68.0898C172.634 68.6888 173.708 69.5872 174.477 70.7852C175.245 71.9831 175.629 73.4674 175.629 75.2383C175.629 76.0456 175.44 76.8659 175.062 77.6992C174.685 78.5326 174.125 79.2943 173.383 79.9844C172.641 80.6615 171.716 81.2148 170.609 81.6445C169.503 82.0612 168.22 82.2695 166.762 82.2695H163.227V79.6523ZM163.227 83.3242V80.7461H166.762C168.428 80.7461 169.848 80.9414 171.02 81.332C172.204 81.7227 173.168 82.263 173.91 82.9531C174.652 83.6302 175.193 84.4049 175.531 85.2773C175.883 86.1497 176.059 87.0742 176.059 88.0508C176.059 89.3789 175.818 90.5638 175.336 91.6055C174.867 92.6341 174.197 93.5065 173.324 94.2227C172.452 94.9388 171.43 95.4792 170.258 95.8438C169.099 96.2083 167.836 96.3906 166.469 96.3906C165.245 96.3906 164.073 96.2214 162.953 95.8828C161.833 95.5443 160.831 95.043 159.945 94.3789C159.06 93.7018 158.357 92.862 157.836 91.8594C157.328 90.8438 157.074 89.6719 157.074 88.3438H161.781C161.781 89.1901 161.977 89.9388 162.367 90.5898C162.771 91.2279 163.331 91.7292 164.047 92.0938C164.776 92.4583 165.609 92.6406 166.547 92.6406C167.536 92.6406 168.389 92.4648 169.105 92.1133C169.822 91.7617 170.368 91.2409 170.746 90.5508C171.137 89.8607 171.332 89.0273 171.332 88.0508C171.332 86.944 171.117 86.0456 170.688 85.3555C170.258 84.6654 169.646 84.1576 168.852 83.832C168.057 83.4935 167.12 83.3242 166.039 83.3242H163.227ZM197.82 67.5625V70.1406L186.453 96H181.492L192.84 71.3125H178.113V67.5625H197.82Z" fill="white"/>
<path d="M56.1055 113.047V123H54.7861V113.047H56.1055ZM59.5781 117.183V123H58.3135V115.604H59.5098L59.5781 117.183ZM59.2773 119.021L58.751 119.001C58.7555 118.495 58.8307 118.028 58.9766 117.6C59.1224 117.167 59.3275 116.791 59.5918 116.472C59.8561 116.153 60.1706 115.907 60.5352 115.733C60.9043 115.556 61.3122 115.467 61.7588 115.467C62.1234 115.467 62.4515 115.517 62.7432 115.617C63.0348 115.713 63.2832 115.868 63.4883 116.082C63.6979 116.296 63.8574 116.574 63.9668 116.916C64.0762 117.253 64.1309 117.666 64.1309 118.153V123H62.8594V118.14C62.8594 117.752 62.8024 117.442 62.6885 117.21C62.5745 116.973 62.4082 116.802 62.1895 116.697C61.9707 116.588 61.7018 116.533 61.3828 116.533C61.0684 116.533 60.7812 116.599 60.5215 116.731C60.2663 116.864 60.0452 117.046 59.8584 117.278C59.6761 117.511 59.5326 117.777 59.4277 118.078C59.3275 118.374 59.2773 118.689 59.2773 119.021ZM67.9385 123H66.6738V114.824C66.6738 114.291 66.7718 113.842 66.9678 113.478C67.1683 113.108 67.4554 112.83 67.8291 112.644C68.2074 112.452 68.6654 112.356 69.2031 112.356C69.4036 112.356 69.6543 112.377 69.9551 112.418C70.2604 112.459 70.584 112.511 70.9258 112.575C71.2721 112.639 71.6094 112.705 71.9375 112.773L71.3496 113.689C70.9167 113.607 70.527 113.546 70.1807 113.505C69.8343 113.459 69.5404 113.437 69.2988 113.437C69.0026 113.437 68.752 113.491 68.5469 113.601C68.3464 113.705 68.1937 113.86 68.0889 114.065C67.9886 114.271 67.9385 114.523 67.9385 114.824V123ZM70.6729 123V112.773H71.9375V123H70.6729ZM69.5107 115.604V116.574H65.5049V115.604H69.5107ZM78.5342 121.291V115.604H79.8057V123H78.5957L78.5342 121.291ZM78.7734 119.732L79.2998 119.719C79.2998 120.211 79.2474 120.667 79.1426 121.086C79.0423 121.501 78.8783 121.861 78.6504 122.166C78.4225 122.471 78.124 122.711 77.7549 122.884C77.3857 123.052 76.9368 123.137 76.4082 123.137C76.0482 123.137 75.7178 123.084 75.417 122.979C75.1208 122.875 74.8656 122.713 74.6514 122.494C74.4372 122.275 74.2708 121.991 74.1523 121.64C74.0384 121.289 73.9814 120.867 73.9814 120.375V115.604H75.2461V120.389C75.2461 120.721 75.2826 120.997 75.3555 121.216C75.4329 121.43 75.5355 121.601 75.6631 121.729C75.7952 121.852 75.9411 121.938 76.1006 121.988C76.2646 122.038 76.4333 122.063 76.6064 122.063C77.1442 122.063 77.5703 121.961 77.8848 121.756C78.1992 121.546 78.4248 121.266 78.5615 120.915C78.7028 120.56 78.7734 120.165 78.7734 119.732ZM84.8027 123.137C84.2878 123.137 83.8206 123.05 83.4014 122.877C82.9867 122.699 82.6289 122.451 82.3281 122.132C82.0319 121.813 81.804 121.435 81.6445 120.997C81.485 120.56 81.4053 120.081 81.4053 119.562V119.274C81.4053 118.673 81.4941 118.137 81.6719 117.668C81.8496 117.194 82.0911 116.793 82.3965 116.465C82.7018 116.137 83.0482 115.888 83.4355 115.72C83.8229 115.551 84.224 115.467 84.6387 115.467C85.1673 115.467 85.623 115.558 86.0059 115.74C86.3932 115.923 86.71 116.178 86.9561 116.506C87.2021 116.829 87.3844 117.212 87.5029 117.654C87.6214 118.092 87.6807 118.57 87.6807 119.09V119.657H82.1572V118.625H86.416V118.529C86.3978 118.201 86.3294 117.882 86.2109 117.572C86.097 117.262 85.9147 117.007 85.6641 116.807C85.4134 116.606 85.0716 116.506 84.6387 116.506C84.3516 116.506 84.0872 116.567 83.8457 116.69C83.6042 116.809 83.3968 116.987 83.2236 117.224C83.0505 117.461 82.916 117.75 82.8203 118.092C82.7246 118.434 82.6768 118.828 82.6768 119.274V119.562C82.6768 119.912 82.7246 120.243 82.8203 120.553C82.9206 120.858 83.0641 121.127 83.251 121.359C83.4424 121.592 83.6725 121.774 83.9414 121.906C84.2148 122.038 84.5247 122.104 84.8711 122.104C85.3177 122.104 85.696 122.013 86.0059 121.831C86.3158 121.649 86.5869 121.405 86.8193 121.1L87.585 121.708C87.4255 121.95 87.2227 122.18 86.9766 122.398C86.7305 122.617 86.4274 122.795 86.0674 122.932C85.7119 123.068 85.2904 123.137 84.8027 123.137ZM90.4219 117.183V123H89.1572V115.604H90.3535L90.4219 117.183ZM90.1211 119.021L89.5947 119.001C89.5993 118.495 89.6745 118.028 89.8203 117.6C89.9661 117.167 90.1712 116.791 90.4355 116.472C90.6999 116.153 91.0143 115.907 91.3789 115.733C91.748 115.556 92.1559 115.467 92.6025 115.467C92.9671 115.467 93.2952 115.517 93.5869 115.617C93.8786 115.713 94.127 115.868 94.332 116.082C94.5417 116.296 94.7012 116.574 94.8105 116.916C94.9199 117.253 94.9746 117.666 94.9746 118.153V123H93.7031V118.14C93.7031 117.752 93.6462 117.442 93.5322 117.21C93.4183 116.973 93.252 116.802 93.0332 116.697C92.8145 116.588 92.5456 116.533 92.2266 116.533C91.9121 116.533 91.625 116.599 91.3652 116.731C91.11 116.864 90.889 117.046 90.7021 117.278C90.5199 117.511 90.3763 117.777 90.2715 118.078C90.1712 118.374 90.1211 118.689 90.1211 119.021ZM99.8555 122.098C100.156 122.098 100.434 122.036 100.689 121.913C100.945 121.79 101.154 121.621 101.318 121.407C101.482 121.188 101.576 120.94 101.599 120.662H102.802C102.779 121.1 102.631 121.507 102.357 121.886C102.089 122.259 101.735 122.562 101.298 122.795C100.86 123.023 100.38 123.137 99.8555 123.137C99.2995 123.137 98.8141 123.039 98.3994 122.843C97.9893 122.647 97.6475 122.378 97.374 122.036C97.1051 121.694 96.9023 121.302 96.7656 120.86C96.6335 120.414 96.5674 119.942 96.5674 119.445V119.158C96.5674 118.661 96.6335 118.192 96.7656 117.75C96.9023 117.303 97.1051 116.909 97.374 116.567C97.6475 116.226 97.9893 115.957 98.3994 115.761C98.8141 115.565 99.2995 115.467 99.8555 115.467C100.434 115.467 100.94 115.585 101.373 115.822C101.806 116.055 102.146 116.374 102.392 116.779C102.642 117.18 102.779 117.636 102.802 118.146H101.599C101.576 117.841 101.489 117.565 101.339 117.319C101.193 117.073 100.993 116.877 100.737 116.731C100.487 116.581 100.193 116.506 99.8555 116.506C99.4681 116.506 99.1423 116.583 98.8779 116.738C98.6182 116.889 98.4108 117.094 98.2559 117.354C98.1055 117.609 97.9961 117.894 97.9277 118.208C97.8639 118.518 97.832 118.835 97.832 119.158V119.445C97.832 119.769 97.8639 120.088 97.9277 120.402C97.9915 120.717 98.0986 121.002 98.249 121.257C98.404 121.512 98.6113 121.717 98.8711 121.872C99.1354 122.022 99.4635 122.098 99.8555 122.098ZM107.293 123.137C106.778 123.137 106.311 123.05 105.892 122.877C105.477 122.699 105.119 122.451 104.818 122.132C104.522 121.813 104.294 121.435 104.135 120.997C103.975 120.56 103.896 120.081 103.896 119.562V119.274C103.896 118.673 103.984 118.137 104.162 117.668C104.34 117.194 104.581 116.793 104.887 116.465C105.192 116.137 105.538 115.888 105.926 115.72C106.313 115.551 106.714 115.467 107.129 115.467C107.658 115.467 108.113 115.558 108.496 115.74C108.883 115.923 109.2 116.178 109.446 116.506C109.692 116.829 109.875 117.212 109.993 117.654C110.112 118.092 110.171 118.57 110.171 119.09V119.657H104.647V118.625H108.906V118.529C108.888 118.201 108.82 117.882 108.701 117.572C108.587 117.262 108.405 117.007 108.154 116.807C107.904 116.606 107.562 116.506 107.129 116.506C106.842 116.506 106.577 116.567 106.336 116.69C106.094 116.809 105.887 116.987 105.714 117.224C105.541 117.461 105.406 117.75 105.311 118.092C105.215 118.434 105.167 118.828 105.167 119.274V119.562C105.167 119.912 105.215 120.243 105.311 120.553C105.411 120.858 105.554 121.127 105.741 121.359C105.933 121.592 106.163 121.774 106.432 121.906C106.705 122.038 107.015 122.104 107.361 122.104C107.808 122.104 108.186 122.013 108.496 121.831C108.806 121.649 109.077 121.405 109.31 121.1L110.075 121.708C109.916 121.95 109.713 122.18 109.467 122.398C109.221 122.617 108.918 122.795 108.558 122.932C108.202 123.068 107.781 123.137 107.293 123.137ZM112.912 116.766V123H111.647V115.604H112.878L112.912 116.766ZM115.223 115.562L115.216 116.738C115.111 116.715 115.011 116.702 114.915 116.697C114.824 116.688 114.719 116.684 114.601 116.684C114.309 116.684 114.051 116.729 113.828 116.82C113.605 116.911 113.416 117.039 113.261 117.203C113.106 117.367 112.983 117.563 112.892 117.791C112.805 118.014 112.748 118.26 112.721 118.529L112.365 118.734C112.365 118.288 112.409 117.868 112.495 117.477C112.586 117.085 112.725 116.738 112.912 116.438C113.099 116.132 113.336 115.895 113.623 115.727C113.915 115.553 114.261 115.467 114.662 115.467C114.753 115.467 114.858 115.478 114.977 115.501C115.095 115.519 115.177 115.54 115.223 115.562ZM120.698 121.038C120.698 120.856 120.657 120.687 120.575 120.532C120.498 120.373 120.336 120.229 120.09 120.102C119.848 119.969 119.484 119.855 118.996 119.76C118.586 119.673 118.215 119.571 117.882 119.452C117.554 119.334 117.273 119.19 117.041 119.021C116.813 118.853 116.638 118.655 116.515 118.427C116.392 118.199 116.33 117.932 116.33 117.627C116.33 117.335 116.394 117.06 116.521 116.8C116.654 116.54 116.838 116.31 117.075 116.109C117.317 115.909 117.606 115.752 117.943 115.638C118.281 115.524 118.657 115.467 119.071 115.467C119.664 115.467 120.17 115.572 120.589 115.781C121.008 115.991 121.329 116.271 121.553 116.622C121.776 116.968 121.888 117.354 121.888 117.777H120.623C120.623 117.572 120.562 117.374 120.438 117.183C120.32 116.987 120.145 116.825 119.912 116.697C119.684 116.57 119.404 116.506 119.071 116.506C118.72 116.506 118.436 116.561 118.217 116.67C118.003 116.775 117.845 116.909 117.745 117.073C117.649 117.237 117.602 117.41 117.602 117.593C117.602 117.729 117.624 117.853 117.67 117.962C117.72 118.067 117.807 118.165 117.93 118.256C118.053 118.342 118.226 118.424 118.449 118.502C118.673 118.579 118.957 118.657 119.304 118.734C119.91 118.871 120.409 119.035 120.801 119.227C121.193 119.418 121.484 119.653 121.676 119.931C121.867 120.209 121.963 120.546 121.963 120.942C121.963 121.266 121.895 121.562 121.758 121.831C121.626 122.1 121.432 122.332 121.177 122.528C120.926 122.72 120.625 122.87 120.274 122.979C119.928 123.084 119.538 123.137 119.105 123.137C118.454 123.137 117.902 123.021 117.451 122.788C117 122.556 116.658 122.255 116.426 121.886C116.193 121.517 116.077 121.127 116.077 120.717H117.349C117.367 121.063 117.467 121.339 117.649 121.544C117.832 121.744 118.055 121.888 118.319 121.975C118.584 122.057 118.846 122.098 119.105 122.098C119.452 122.098 119.741 122.052 119.974 121.961C120.211 121.87 120.391 121.744 120.514 121.585C120.637 121.425 120.698 121.243 120.698 121.038ZM128.361 112.5V123H127.097V112.5H128.361ZM128.061 119.021L127.534 119.001C127.539 118.495 127.614 118.028 127.76 117.6C127.906 117.167 128.111 116.791 128.375 116.472C128.639 116.153 128.954 115.907 129.318 115.733C129.688 115.556 130.095 115.467 130.542 115.467C130.907 115.467 131.235 115.517 131.526 115.617C131.818 115.713 132.066 115.868 132.271 116.082C132.481 116.296 132.641 116.574 132.75 116.916C132.859 117.253 132.914 117.666 132.914 118.153V123H131.643V118.14C131.643 117.752 131.586 117.442 131.472 117.21C131.358 116.973 131.191 116.802 130.973 116.697C130.754 116.588 130.485 116.533 130.166 116.533C129.852 116.533 129.564 116.599 129.305 116.731C129.049 116.864 128.828 117.046 128.642 117.278C128.459 117.511 128.316 117.777 128.211 118.078C128.111 118.374 128.061 118.689 128.061 119.021ZM136.182 115.604V123H134.91V115.604H136.182ZM134.814 113.642C134.814 113.437 134.876 113.263 134.999 113.122C135.127 112.981 135.313 112.91 135.56 112.91C135.801 112.91 135.986 112.981 136.113 113.122C136.245 113.263 136.312 113.437 136.312 113.642C136.312 113.838 136.245 114.006 136.113 114.147C135.986 114.284 135.801 114.353 135.56 114.353C135.313 114.353 135.127 114.284 134.999 114.147C134.876 114.006 134.814 113.838 134.814 113.642ZM139.477 116.766V123H138.212V115.604H139.442L139.477 116.766ZM141.787 115.562L141.78 116.738C141.675 116.715 141.575 116.702 141.479 116.697C141.388 116.688 141.284 116.684 141.165 116.684C140.873 116.684 140.616 116.729 140.393 116.82C140.169 116.911 139.98 117.039 139.825 117.203C139.67 117.367 139.547 117.563 139.456 117.791C139.369 118.014 139.312 118.26 139.285 118.529L138.93 118.734C138.93 118.288 138.973 117.868 139.06 117.477C139.151 117.085 139.29 116.738 139.477 116.438C139.663 116.132 139.9 115.895 140.188 115.727C140.479 115.553 140.826 115.467 141.227 115.467C141.318 115.467 141.423 115.478 141.541 115.501C141.66 115.519 141.742 115.54 141.787 115.562ZM145.889 123.137C145.374 123.137 144.907 123.05 144.487 122.877C144.073 122.699 143.715 122.451 143.414 122.132C143.118 121.813 142.89 121.435 142.73 120.997C142.571 120.56 142.491 120.081 142.491 119.562V119.274C142.491 118.673 142.58 118.137 142.758 117.668C142.936 117.194 143.177 116.793 143.482 116.465C143.788 116.137 144.134 115.888 144.521 115.72C144.909 115.551 145.31 115.467 145.725 115.467C146.253 115.467 146.709 115.558 147.092 115.74C147.479 115.923 147.796 116.178 148.042 116.506C148.288 116.829 148.47 117.212 148.589 117.654C148.707 118.092 148.767 118.57 148.767 119.09V119.657H143.243V118.625H147.502V118.529C147.484 118.201 147.415 117.882 147.297 117.572C147.183 117.262 147.001 117.007 146.75 116.807C146.499 116.606 146.158 116.506 145.725 116.506C145.438 116.506 145.173 116.567 144.932 116.69C144.69 116.809 144.483 116.987 144.31 117.224C144.136 117.461 144.002 117.75 143.906 118.092C143.811 118.434 143.763 118.828 143.763 119.274V119.562C143.763 119.912 143.811 120.243 143.906 120.553C144.007 120.858 144.15 121.127 144.337 121.359C144.528 121.592 144.758 121.774 145.027 121.906C145.301 122.038 145.611 122.104 145.957 122.104C146.404 122.104 146.782 122.013 147.092 121.831C147.402 121.649 147.673 121.405 147.905 121.1L148.671 121.708C148.511 121.95 148.309 122.18 148.062 122.398C147.816 122.617 147.513 122.795 147.153 122.932C146.798 123.068 146.376 123.137 145.889 123.137ZM154.905 121.564V112.5H156.177V123H155.015L154.905 121.564ZM149.929 119.384V119.24C149.929 118.675 149.997 118.162 150.134 117.702C150.275 117.237 150.473 116.839 150.729 116.506C150.988 116.173 151.296 115.918 151.651 115.74C152.011 115.558 152.412 115.467 152.854 115.467C153.319 115.467 153.725 115.549 154.071 115.713C154.422 115.872 154.718 116.107 154.96 116.417C155.206 116.722 155.4 117.091 155.541 117.524C155.682 117.957 155.78 118.447 155.835 118.994V119.623C155.785 120.165 155.687 120.653 155.541 121.086C155.4 121.519 155.206 121.888 154.96 122.193C154.718 122.499 154.422 122.733 154.071 122.897C153.72 123.057 153.31 123.137 152.841 123.137C152.408 123.137 152.011 123.043 151.651 122.856C151.296 122.67 150.988 122.408 150.729 122.07C150.473 121.733 150.275 121.337 150.134 120.881C149.997 120.421 149.929 119.922 149.929 119.384ZM151.2 119.24V119.384C151.2 119.753 151.237 120.099 151.31 120.423C151.387 120.746 151.506 121.031 151.665 121.277C151.825 121.523 152.027 121.717 152.273 121.858C152.52 121.995 152.813 122.063 153.155 122.063C153.575 122.063 153.919 121.975 154.188 121.797C154.461 121.619 154.68 121.384 154.844 121.093C155.008 120.801 155.135 120.484 155.227 120.143V118.495C155.172 118.244 155.092 118.003 154.987 117.771C154.887 117.534 154.755 117.324 154.591 117.142C154.431 116.955 154.233 116.807 153.996 116.697C153.764 116.588 153.488 116.533 153.169 116.533C152.823 116.533 152.524 116.606 152.273 116.752C152.027 116.893 151.825 117.089 151.665 117.34C151.506 117.586 151.387 117.873 151.31 118.201C151.237 118.525 151.2 118.871 151.2 119.24ZM161.283 119.384V119.227C161.283 118.693 161.361 118.199 161.516 117.743C161.671 117.283 161.894 116.884 162.186 116.547C162.477 116.205 162.83 115.941 163.245 115.754C163.66 115.562 164.125 115.467 164.64 115.467C165.159 115.467 165.626 115.562 166.041 115.754C166.46 115.941 166.816 116.205 167.107 116.547C167.404 116.884 167.629 117.283 167.784 117.743C167.939 118.199 168.017 118.693 168.017 119.227V119.384C168.017 119.917 167.939 120.411 167.784 120.867C167.629 121.323 167.404 121.722 167.107 122.063C166.816 122.401 166.463 122.665 166.048 122.856C165.638 123.043 165.173 123.137 164.653 123.137C164.134 123.137 163.667 123.043 163.252 122.856C162.837 122.665 162.482 122.401 162.186 122.063C161.894 121.722 161.671 121.323 161.516 120.867C161.361 120.411 161.283 119.917 161.283 119.384ZM162.548 119.227V119.384C162.548 119.753 162.591 120.102 162.678 120.43C162.764 120.753 162.894 121.04 163.067 121.291C163.245 121.542 163.466 121.74 163.73 121.886C163.995 122.027 164.302 122.098 164.653 122.098C165 122.098 165.303 122.027 165.562 121.886C165.827 121.74 166.046 121.542 166.219 121.291C166.392 121.04 166.522 120.753 166.608 120.43C166.7 120.102 166.745 119.753 166.745 119.384V119.227C166.745 118.862 166.7 118.518 166.608 118.194C166.522 117.866 166.39 117.577 166.212 117.326C166.039 117.071 165.82 116.87 165.556 116.725C165.296 116.579 164.991 116.506 164.64 116.506C164.293 116.506 163.988 116.579 163.724 116.725C163.464 116.87 163.245 117.071 163.067 117.326C162.894 117.577 162.764 117.866 162.678 118.194C162.591 118.518 162.548 118.862 162.548 119.227ZM171.742 121.858L173.766 115.604H175.058L172.398 123H171.551L171.742 121.858ZM170.054 115.604L172.139 121.893L172.282 123H171.435L168.755 115.604H170.054ZM179.248 123.137C178.733 123.137 178.266 123.05 177.847 122.877C177.432 122.699 177.074 122.451 176.773 122.132C176.477 121.813 176.249 121.435 176.09 120.997C175.93 120.56 175.851 120.081 175.851 119.562V119.274C175.851 118.673 175.939 118.137 176.117 117.668C176.295 117.194 176.536 116.793 176.842 116.465C177.147 116.137 177.493 115.888 177.881 115.72C178.268 115.551 178.669 115.467 179.084 115.467C179.613 115.467 180.068 115.558 180.451 115.74C180.839 115.923 181.155 116.178 181.401 116.506C181.647 116.829 181.83 117.212 181.948 117.654C182.067 118.092 182.126 118.57 182.126 119.09V119.657H176.603V118.625H180.861V118.529C180.843 118.201 180.775 117.882 180.656 117.572C180.542 117.262 180.36 117.007 180.109 116.807C179.859 116.606 179.517 116.506 179.084 116.506C178.797 116.506 178.533 116.567 178.291 116.69C178.049 116.809 177.842 116.987 177.669 117.224C177.496 117.461 177.361 117.75 177.266 118.092C177.17 118.434 177.122 118.828 177.122 119.274V119.562C177.122 119.912 177.17 120.243 177.266 120.553C177.366 120.858 177.509 121.127 177.696 121.359C177.888 121.592 178.118 121.774 178.387 121.906C178.66 122.038 178.97 122.104 179.316 122.104C179.763 122.104 180.141 122.013 180.451 121.831C180.761 121.649 181.032 121.405 181.265 121.1L182.03 121.708C181.871 121.95 181.668 122.18 181.422 122.398C181.176 122.617 180.873 122.795 180.513 122.932C180.157 123.068 179.736 123.137 179.248 123.137ZM184.867 116.766V123H183.603V115.604H184.833L184.867 116.766ZM187.178 115.562L187.171 116.738C187.066 116.715 186.966 116.702 186.87 116.697C186.779 116.688 186.674 116.684 186.556 116.684C186.264 116.684 186.007 116.729 185.783 116.82C185.56 116.911 185.371 117.039 185.216 117.203C185.061 117.367 184.938 117.563 184.847 117.791C184.76 118.014 184.703 118.26 184.676 118.529L184.32 118.734C184.32 118.288 184.364 117.868 184.45 117.477C184.541 117.085 184.68 116.738 184.867 116.438C185.054 116.132 185.291 115.895 185.578 115.727C185.87 115.553 186.216 115.467 186.617 115.467C186.708 115.467 186.813 115.478 186.932 115.501C187.05 115.519 187.132 115.54 187.178 115.562ZM194.916 115.604V116.574H190.917V115.604H194.916ZM192.271 113.806H193.535V121.168C193.535 121.419 193.574 121.608 193.651 121.735C193.729 121.863 193.829 121.947 193.952 121.988C194.075 122.029 194.207 122.05 194.349 122.05C194.453 122.05 194.563 122.041 194.677 122.022C194.795 122 194.884 121.981 194.943 121.968L194.95 123C194.85 123.032 194.718 123.062 194.554 123.089C194.394 123.121 194.201 123.137 193.973 123.137C193.663 123.137 193.378 123.075 193.118 122.952C192.858 122.829 192.651 122.624 192.496 122.337C192.346 122.045 192.271 121.653 192.271 121.161V113.806ZM197.664 112.5V123H196.399V112.5H197.664ZM197.363 119.021L196.837 119.001C196.841 118.495 196.917 118.028 197.062 117.6C197.208 117.167 197.413 116.791 197.678 116.472C197.942 116.153 198.257 115.907 198.621 115.733C198.99 115.556 199.398 115.467 199.845 115.467C200.209 115.467 200.537 115.517 200.829 115.617C201.121 115.713 201.369 115.868 201.574 116.082C201.784 116.296 201.943 116.574 202.053 116.916C202.162 117.253 202.217 117.666 202.217 118.153V123H200.945V118.14C200.945 117.752 200.888 117.442 200.774 117.21C200.66 116.973 200.494 116.802 200.275 116.697C200.057 116.588 199.788 116.533 199.469 116.533C199.154 116.533 198.867 116.599 198.607 116.731C198.352 116.864 198.131 117.046 197.944 117.278C197.762 117.511 197.618 117.777 197.514 118.078C197.413 118.374 197.363 118.689 197.363 119.021ZM207.18 123.137C206.665 123.137 206.198 123.05 205.778 122.877C205.364 122.699 205.006 122.451 204.705 122.132C204.409 121.813 204.181 121.435 204.021 120.997C203.862 120.56 203.782 120.081 203.782 119.562V119.274C203.782 118.673 203.871 118.137 204.049 117.668C204.227 117.194 204.468 116.793 204.773 116.465C205.079 116.137 205.425 115.888 205.812 115.72C206.2 115.551 206.601 115.467 207.016 115.467C207.544 115.467 208 115.558 208.383 115.74C208.77 115.923 209.087 116.178 209.333 116.506C209.579 116.829 209.761 117.212 209.88 117.654C209.998 118.092 210.058 118.57 210.058 119.09V119.657H204.534V118.625H208.793V118.529C208.775 118.201 208.706 117.882 208.588 117.572C208.474 117.262 208.292 117.007 208.041 116.807C207.79 116.606 207.449 116.506 207.016 116.506C206.729 116.506 206.464 116.567 206.223 116.69C205.981 116.809 205.774 116.987 205.601 117.224C205.427 117.461 205.293 117.75 205.197 118.092C205.102 118.434 205.054 118.828 205.054 119.274V119.562C205.054 119.912 205.102 120.243 205.197 120.553C205.298 120.858 205.441 121.127 205.628 121.359C205.819 121.592 206.049 121.774 206.318 121.906C206.592 122.038 206.902 122.104 207.248 122.104C207.695 122.104 208.073 122.013 208.383 121.831C208.693 121.649 208.964 121.405 209.196 121.1L209.962 121.708C209.802 121.95 209.6 122.18 209.354 122.398C209.107 122.617 208.804 122.795 208.444 122.932C208.089 123.068 207.667 123.137 207.18 123.137ZM217.085 122.234L219.143 115.604H220.496L217.529 124.142C217.461 124.324 217.37 124.52 217.256 124.729C217.146 124.944 217.005 125.146 216.832 125.338C216.659 125.529 216.449 125.684 216.203 125.803C215.962 125.926 215.672 125.987 215.335 125.987C215.235 125.987 215.107 125.974 214.952 125.946C214.797 125.919 214.688 125.896 214.624 125.878L214.617 124.853C214.654 124.857 214.711 124.862 214.788 124.866C214.87 124.875 214.927 124.88 214.959 124.88C215.246 124.88 215.49 124.841 215.69 124.764C215.891 124.691 216.06 124.565 216.196 124.388C216.338 124.215 216.458 123.975 216.559 123.67L217.085 122.234ZM215.574 115.604L217.495 121.346L217.823 122.679L216.914 123.144L214.193 115.604H215.574ZM224.611 123.137C224.096 123.137 223.629 123.05 223.21 122.877C222.795 122.699 222.438 122.451 222.137 122.132C221.84 121.813 221.613 121.435 221.453 120.997C221.294 120.56 221.214 120.081 221.214 119.562V119.274C221.214 118.673 221.303 118.137 221.48 117.668C221.658 117.194 221.9 116.793 222.205 116.465C222.51 116.137 222.857 115.888 223.244 115.72C223.632 115.551 224.033 115.467 224.447 115.467C224.976 115.467 225.432 115.558 225.814 115.74C226.202 115.923 226.519 116.178 226.765 116.506C227.011 116.829 227.193 117.212 227.312 117.654C227.43 118.092 227.489 118.57 227.489 119.09V119.657H221.966V118.625H226.225V118.529C226.206 118.201 226.138 117.882 226.02 117.572C225.906 117.262 225.723 117.007 225.473 116.807C225.222 116.606 224.88 116.506 224.447 116.506C224.16 116.506 223.896 116.567 223.654 116.69C223.413 116.809 223.205 116.987 223.032 117.224C222.859 117.461 222.725 117.75 222.629 118.092C222.533 118.434 222.485 118.828 222.485 119.274V119.562C222.485 119.912 222.533 120.243 222.629 120.553C222.729 120.858 222.873 121.127 223.06 121.359C223.251 121.592 223.481 121.774 223.75 121.906C224.023 122.038 224.333 122.104 224.68 122.104C225.126 122.104 225.505 122.013 225.814 121.831C226.124 121.649 226.396 121.405 226.628 121.1L227.394 121.708C227.234 121.95 227.031 122.18 226.785 122.398C226.539 122.617 226.236 122.795 225.876 122.932C225.521 123.068 225.099 123.137 224.611 123.137ZM233.327 121.735V117.928C233.327 117.636 233.268 117.383 233.149 117.169C233.035 116.95 232.862 116.782 232.63 116.663C232.397 116.545 232.11 116.485 231.769 116.485C231.45 116.485 231.169 116.54 230.928 116.649C230.691 116.759 230.504 116.902 230.367 117.08C230.235 117.258 230.169 117.449 230.169 117.654H228.904C228.904 117.39 228.973 117.128 229.109 116.868C229.246 116.608 229.442 116.374 229.697 116.164C229.957 115.95 230.267 115.781 230.627 115.658C230.992 115.531 231.397 115.467 231.844 115.467C232.382 115.467 232.855 115.558 233.266 115.74C233.68 115.923 234.004 116.198 234.236 116.567C234.473 116.932 234.592 117.39 234.592 117.941V121.387C234.592 121.633 234.612 121.895 234.653 122.173C234.699 122.451 234.765 122.69 234.852 122.891V123H233.532C233.468 122.854 233.418 122.66 233.382 122.419C233.345 122.173 233.327 121.945 233.327 121.735ZM233.546 118.516L233.56 119.404H232.281C231.921 119.404 231.6 119.434 231.317 119.493C231.035 119.548 230.798 119.632 230.606 119.746C230.415 119.86 230.269 120.004 230.169 120.177C230.069 120.345 230.019 120.544 230.019 120.771C230.019 121.004 230.071 121.216 230.176 121.407C230.281 121.599 230.438 121.751 230.647 121.865C230.862 121.975 231.124 122.029 231.434 122.029C231.821 122.029 232.163 121.947 232.459 121.783C232.755 121.619 232.99 121.419 233.163 121.182C233.341 120.945 233.437 120.715 233.45 120.491L233.99 121.1C233.958 121.291 233.872 121.503 233.73 121.735C233.589 121.968 233.4 122.191 233.163 122.405C232.931 122.615 232.653 122.79 232.329 122.932C232.01 123.068 231.65 123.137 231.249 123.137C230.748 123.137 230.308 123.039 229.93 122.843C229.556 122.647 229.264 122.385 229.055 122.057C228.85 121.724 228.747 121.353 228.747 120.942C228.747 120.546 228.825 120.197 228.979 119.896C229.134 119.591 229.358 119.338 229.649 119.138C229.941 118.933 230.292 118.778 230.702 118.673C231.112 118.568 231.57 118.516 232.076 118.516H233.546ZM237.846 116.766V123H236.581V115.604H237.812L237.846 116.766ZM240.156 115.562L240.149 116.738C240.045 116.715 239.944 116.702 239.849 116.697C239.757 116.688 239.653 116.684 239.534 116.684C239.243 116.684 238.985 116.729 238.762 116.82C238.538 116.911 238.349 117.039 238.194 117.203C238.039 117.367 237.916 117.563 237.825 117.791C237.739 118.014 237.682 118.26 237.654 118.529L237.299 118.734C237.299 118.288 237.342 117.868 237.429 117.477C237.52 117.085 237.659 116.738 237.846 116.438C238.033 116.132 238.27 115.895 238.557 115.727C238.848 115.553 239.195 115.467 239.596 115.467C239.687 115.467 239.792 115.478 239.91 115.501C240.029 115.519 240.111 115.54 240.156 115.562Z" fill="white"/>
<ellipse cx="378.596" cy="48" rx="11.6093" ry="12" fill="#BDBDBD"/>
<rect x="376.661" y="45.3334" width="3.86975" height="10.6666" rx="1.93488" fill="#111111"/>
<rect x="376.661" y="40" width="3.86975" height="3.99999" rx="1.93488" fill="#111111"/>
<path d="M43.7168 344.168V345.105H39.8987V344.168H43.7168ZM48.5375 340.273V349H47.4807V341.381H47.4295L45.2989 342.795V341.722L47.4807 340.273H48.5375ZM53.894 349.119C53.252 349.119 52.7051 348.945 52.2534 348.595C51.8017 348.243 51.4565 347.733 51.2179 347.065C50.9793 346.395 50.8599 345.585 50.8599 344.636C50.8599 343.693 50.9793 342.888 51.2179 342.22C51.4594 341.55 51.806 341.038 52.2577 340.686C52.7122 340.331 53.2577 340.153 53.894 340.153C54.5304 340.153 55.0744 340.331 55.5261 340.686C55.9807 341.038 56.3273 341.55 56.5659 342.22C56.8074 342.888 56.9281 343.693 56.9281 344.636C56.9281 345.585 56.8088 346.395 56.5702 347.065C56.3315 347.733 55.9864 348.243 55.5347 348.595C55.083 348.945 54.5361 349.119 53.894 349.119ZM53.894 348.182C54.5304 348.182 55.0247 347.875 55.377 347.261C55.7293 346.648 55.9054 345.773 55.9054 344.636C55.9054 343.881 55.8244 343.237 55.6625 342.706C55.5034 342.175 55.2733 341.77 54.9722 341.491C54.6739 341.213 54.3145 341.074 53.894 341.074C53.2634 341.074 52.7705 341.385 52.4153 342.007C52.0602 342.626 51.8827 343.503 51.8827 344.636C51.8827 345.392 51.9622 346.034 52.1213 346.562C52.2804 347.091 52.5091 347.493 52.8074 347.768C53.1085 348.044 53.4707 348.182 53.894 348.182ZM61.394 349.119C60.752 349.119 60.2051 348.945 59.7534 348.595C59.3017 348.243 58.9565 347.733 58.7179 347.065C58.4793 346.395 58.3599 345.585 58.3599 344.636C58.3599 343.693 58.4793 342.888 58.7179 342.22C58.9594 341.55 59.306 341.038 59.7577 340.686C60.2122 340.331 60.7577 340.153 61.394 340.153C62.0304 340.153 62.5744 340.331 63.0261 340.686C63.4807 341.038 63.8273 341.55 64.0659 342.22C64.3074 342.888 64.4281 343.693 64.4281 344.636C64.4281 345.585 64.3088 346.395 64.0702 347.065C63.8315 347.733 63.4864 348.243 63.0347 348.595C62.583 348.945 62.0361 349.119 61.394 349.119ZM61.394 348.182C62.0304 348.182 62.5247 347.875 62.877 347.261C63.2293 346.648 63.4054 345.773 63.4054 344.636C63.4054 343.881 63.3244 343.237 63.1625 342.706C63.0034 342.175 62.7733 341.77 62.4722 341.491C62.1739 341.213 61.8145 341.074 61.394 341.074C60.7634 341.074 60.2705 341.385 59.9153 342.007C59.5602 342.626 59.3827 343.503 59.3827 344.636C59.3827 345.392 59.4622 346.034 59.6213 346.562C59.7804 347.091 60.0091 347.493 60.3074 347.768C60.6085 348.044 60.9707 348.182 61.394 348.182Z" fill="white"/>
<path d="M49.3067 313.168V314.105H45.4885V313.168H49.3067ZM53.9569 318.119C53.5989 318.114 53.241 318.045 52.883 317.915C52.5251 317.784 52.1984 317.564 51.9029 317.254C51.6075 316.942 51.3702 316.52 51.1913 315.989C51.0123 315.455 50.9228 314.784 50.9228 313.977C50.9228 313.205 50.9952 312.52 51.1401 311.923C51.285 311.324 51.4952 310.82 51.7708 310.411C52.0464 309.999 52.3788 309.686 52.768 309.473C53.16 309.26 53.6018 309.153 54.0933 309.153C54.5819 309.153 55.0166 309.251 55.3972 309.447C55.7808 309.641 56.0933 309.911 56.3347 310.257C56.5762 310.604 56.7325 311.003 56.8035 311.455H55.7637C55.6671 311.062 55.4796 310.737 55.2012 310.479C54.9228 310.22 54.5535 310.091 54.0933 310.091C53.4171 310.091 52.8844 310.385 52.4952 310.973C52.1089 311.561 51.9143 312.386 51.9114 313.449H51.9796C52.1387 313.207 52.3276 313.001 52.5464 312.831C52.768 312.658 53.0123 312.524 53.2793 312.43C53.5464 312.337 53.8291 312.29 54.1273 312.29C54.6273 312.29 55.0847 312.415 55.4995 312.665C55.9143 312.912 56.2467 313.254 56.4967 313.692C56.7467 314.126 56.8717 314.625 56.8717 315.188C56.8717 315.727 56.7509 316.222 56.5094 316.67C56.268 317.116 55.9285 317.472 55.491 317.736C55.0563 317.997 54.545 318.125 53.9569 318.119ZM53.9569 317.182C54.3148 317.182 54.6359 317.092 54.92 316.913C55.2069 316.734 55.4327 316.494 55.5975 316.193C55.7651 315.892 55.8489 315.557 55.8489 315.188C55.8489 314.827 55.768 314.499 55.606 314.203C55.4469 313.905 55.2268 313.668 54.9455 313.491C54.6671 313.315 54.3489 313.227 53.991 313.227C53.7211 313.227 53.4697 313.281 53.2367 313.389C53.0038 313.494 52.7992 313.639 52.6231 313.824C52.4498 314.009 52.3134 314.22 52.214 314.459C52.1146 314.695 52.0648 314.943 52.0648 315.205C52.0648 315.551 52.1458 315.875 52.3077 316.176C52.4725 316.477 52.6969 316.72 52.981 316.905C53.268 317.089 53.5933 317.182 53.9569 317.182ZM61.394 318.119C60.752 318.119 60.2051 317.945 59.7534 317.595C59.3017 317.243 58.9565 316.733 58.7179 316.065C58.4793 315.395 58.3599 314.585 58.3599 313.636C58.3599 312.693 58.4793 311.888 58.7179 311.22C58.9594 310.55 59.306 310.038 59.7577 309.686C60.2122 309.331 60.7577 309.153 61.394 309.153C62.0304 309.153 62.5744 309.331 63.0261 309.686C63.4807 310.038 63.8273 310.55 64.0659 311.22C64.3074 311.888 64.4281 312.693 64.4281 313.636C64.4281 314.585 64.3088 315.395 64.0702 316.065C63.8315 316.733 63.4864 317.243 63.0347 317.595C62.583 317.945 62.0361 318.119 61.394 318.119ZM61.394 317.182C62.0304 317.182 62.5247 316.875 62.877 316.261C63.2293 315.648 63.4054 314.773 63.4054 313.636C63.4054 312.881 63.3244 312.237 63.1625 311.706C63.0034 311.175 62.7733 310.77 62.4722 310.491C62.1739 310.213 61.8145 310.074 61.394 310.074C60.7634 310.074 60.2705 310.385 59.9153 311.007C59.5602 311.626 59.3827 312.503 59.3827 313.636C59.3827 314.392 59.4622 315.034 59.6213 315.562C59.7804 316.091 60.0091 316.493 60.3074 316.768C60.6085 317.044 60.9707 317.182 61.394 317.182Z" fill="white"/>
<path d="M49.9395 286.168V287.105H46.1213V286.168H49.9395ZM51.2818 291V290.233L54.1625 287.08C54.5006 286.71 54.779 286.389 54.9977 286.116C55.2165 285.841 55.3784 285.582 55.4835 285.341C55.5915 285.097 55.6455 284.841 55.6455 284.574C55.6455 284.267 55.5716 284.001 55.4239 283.777C55.279 283.553 55.0801 283.379 54.8273 283.257C54.5744 283.135 54.2903 283.074 53.975 283.074C53.6398 283.074 53.3472 283.143 53.0972 283.283C52.85 283.419 52.6582 283.611 52.5219 283.858C52.3884 284.105 52.3216 284.395 52.3216 284.727H51.3159C51.3159 284.216 51.4338 283.767 51.6696 283.381C51.9054 282.994 52.2264 282.693 52.6327 282.477C53.0418 282.261 53.5006 282.153 54.0091 282.153C54.5205 282.153 54.9736 282.261 55.3685 282.477C55.7634 282.693 56.073 282.984 56.2974 283.351C56.5219 283.717 56.6341 284.125 56.6341 284.574C56.6341 284.895 56.5759 285.209 56.4594 285.516C56.3457 285.82 56.1469 286.159 55.8628 286.534C55.5815 286.906 55.1909 287.361 54.6909 287.898L52.7307 289.994V290.062H56.7875V291H51.2818ZM61.394 291.119C60.752 291.119 60.2051 290.945 59.7534 290.595C59.3017 290.243 58.9565 289.733 58.7179 289.065C58.4793 288.395 58.3599 287.585 58.3599 286.636C58.3599 285.693 58.4793 284.888 58.7179 284.22C58.9594 283.55 59.306 283.038 59.7577 282.686C60.2122 282.331 60.7577 282.153 61.394 282.153C62.0304 282.153 62.5744 282.331 63.0261 282.686C63.4807 283.038 63.8273 283.55 64.0659 284.22C64.3074 284.888 64.4281 285.693 64.4281 286.636C64.4281 287.585 64.3088 288.395 64.0702 289.065C63.8315 289.733 63.4864 290.243 63.0347 290.595C62.583 290.945 62.0361 291.119 61.394 291.119ZM61.394 290.182C62.0304 290.182 62.5247 289.875 62.877 289.261C63.2293 288.648 63.4054 287.773 63.4054 286.636C63.4054 285.881 63.3244 285.237 63.1625 284.706C63.0034 284.175 62.7733 283.77 62.4722 283.491C62.1739 283.213 61.8145 283.074 61.394 283.074C60.7634 283.074 60.2705 283.385 59.9153 284.007C59.5602 284.626 59.3827 285.503 59.3827 286.636C59.3827 287.392 59.4622 288.034 59.6213 288.562C59.7804 289.091 60.0091 289.493 60.3074 289.768C60.6085 290.044 60.9707 290.182 61.394 290.182Z" fill="white"/>
<path d="M61.394 265.119C60.752 265.119 60.2051 264.945 59.7534 264.595C59.3017 264.243 58.9565 263.733 58.7179 263.065C58.4793 262.395 58.3599 261.585 58.3599 260.636C58.3599 259.693 58.4793 258.888 58.7179 258.22C58.9594 257.55 59.306 257.038 59.7577 256.686C60.2122 256.331 60.7577 256.153 61.394 256.153C62.0304 256.153 62.5744 256.331 63.0261 256.686C63.4807 257.038 63.8273 257.55 64.0659 258.22C64.3074 258.888 64.4281 259.693 64.4281 260.636C64.4281 261.585 64.3088 262.395 64.0702 263.065C63.8315 263.733 63.4864 264.243 63.0347 264.595C62.583 264.945 62.0361 265.119 61.394 265.119ZM61.394 264.182C62.0304 264.182 62.5247 263.875 62.877 263.261C63.2293 262.648 63.4054 261.773 63.4054 260.636C63.4054 259.881 63.3244 259.237 63.1625 258.706C63.0034 258.175 62.7733 257.77 62.4722 257.491C62.1739 257.213 61.8145 257.074 61.394 257.074C60.7634 257.074 60.2705 257.385 59.9153 258.007C59.5602 258.626 59.3827 259.503 59.3827 260.636C59.3827 261.392 59.4622 262.034 59.6213 262.562C59.7804 263.091 60.0091 263.493 60.3074 263.768C60.6085 264.044 60.9707 264.182 61.394 264.182Z" fill="white"/>
<path d="M51.2818 237V236.233L54.1625 233.08C54.5006 232.71 54.779 232.389 54.9977 232.116C55.2165 231.841 55.3784 231.582 55.4835 231.341C55.5915 231.097 55.6455 230.841 55.6455 230.574C55.6455 230.267 55.5716 230.001 55.4239 229.777C55.279 229.553 55.0801 229.379 54.8273 229.257C54.5744 229.135 54.2903 229.074 53.975 229.074C53.6398 229.074 53.3472 229.143 53.0972 229.283C52.85 229.419 52.6582 229.611 52.5219 229.858C52.3884 230.105 52.3216 230.395 52.3216 230.727H51.3159C51.3159 230.216 51.4338 229.767 51.6696 229.381C51.9054 228.994 52.2264 228.693 52.6327 228.477C53.0418 228.261 53.5006 228.153 54.0091 228.153C54.5205 228.153 54.9736 228.261 55.3685 228.477C55.7634 228.693 56.073 228.984 56.2974 229.351C56.5219 229.717 56.6341 230.125 56.6341 230.574C56.6341 230.895 56.5759 231.209 56.4594 231.516C56.3457 231.82 56.1469 232.159 55.8628 232.534C55.5815 232.906 55.1909 233.361 54.6909 233.898L52.7307 235.994V236.062H56.7875V237H51.2818ZM61.394 237.119C60.752 237.119 60.2051 236.945 59.7534 236.595C59.3017 236.243 58.9565 235.733 58.7179 235.065C58.4793 234.395 58.3599 233.585 58.3599 232.636C58.3599 231.693 58.4793 230.888 58.7179 230.22C58.9594 229.55 59.306 229.038 59.7577 228.686C60.2122 228.331 60.7577 228.153 61.394 228.153C62.0304 228.153 62.5744 228.331 63.0261 228.686C63.4807 229.038 63.8273 229.55 64.0659 230.22C64.3074 230.888 64.4281 231.693 64.4281 232.636C64.4281 233.585 64.3088 234.395 64.0702 235.065C63.8315 235.733 63.4864 236.243 63.0347 236.595C62.583 236.945 62.0361 237.119 61.394 237.119ZM61.394 236.182C62.0304 236.182 62.5247 235.875 62.877 235.261C63.2293 234.648 63.4054 233.773 63.4054 232.636C63.4054 231.881 63.3244 231.237 63.1625 230.706C63.0034 230.175 62.7733 229.77 62.4722 229.491C62.1739 229.213 61.8145 229.074 61.394 229.074C60.7634 229.074 60.2705 229.385 59.9153 230.007C59.5602 230.626 59.3827 231.503 59.3827 232.636C59.3827 233.392 59.4622 234.034 59.6213 234.562C59.7804 235.091 60.0091 235.493 60.3074 235.768C60.6085 236.044 60.9707 236.182 61.394 236.182Z" fill="white"/>
<path d="M53.9569 210.119C53.5989 210.114 53.241 210.045 52.883 209.915C52.5251 209.784 52.1984 209.564 51.9029 209.254C51.6075 208.942 51.3702 208.52 51.1913 207.989C51.0123 207.455 50.9228 206.784 50.9228 205.977C50.9228 205.205 50.9952 204.52 51.1401 203.923C51.285 203.324 51.4952 202.82 51.7708 202.411C52.0464 201.999 52.3788 201.686 52.768 201.473C53.16 201.26 53.6018 201.153 54.0933 201.153C54.5819 201.153 55.0166 201.251 55.3972 201.447C55.7808 201.641 56.0933 201.911 56.3347 202.257C56.5762 202.604 56.7325 203.003 56.8035 203.455H55.7637C55.6671 203.062 55.4796 202.737 55.2012 202.479C54.9228 202.22 54.5535 202.091 54.0933 202.091C53.4171 202.091 52.8844 202.385 52.4952 202.973C52.1089 203.561 51.9143 204.386 51.9114 205.449H51.9796C52.1387 205.207 52.3276 205.001 52.5464 204.831C52.768 204.658 53.0123 204.524 53.2793 204.43C53.5464 204.337 53.8291 204.29 54.1273 204.29C54.6273 204.29 55.0847 204.415 55.4995 204.665C55.9143 204.912 56.2467 205.254 56.4967 205.692C56.7467 206.126 56.8717 206.625 56.8717 207.188C56.8717 207.727 56.7509 208.222 56.5094 208.67C56.268 209.116 55.9285 209.472 55.491 209.736C55.0563 209.997 54.545 210.125 53.9569 210.119ZM53.9569 209.182C54.3148 209.182 54.6359 209.092 54.92 208.913C55.2069 208.734 55.4327 208.494 55.5975 208.193C55.7651 207.892 55.8489 207.557 55.8489 207.188C55.8489 206.827 55.768 206.499 55.606 206.203C55.4469 205.905 55.2268 205.668 54.9455 205.491C54.6671 205.315 54.3489 205.227 53.991 205.227C53.7211 205.227 53.4697 205.281 53.2367 205.389C53.0038 205.494 52.7992 205.639 52.6231 205.824C52.4498 206.009 52.3134 206.22 52.214 206.459C52.1146 206.695 52.0648 206.943 52.0648 207.205C52.0648 207.551 52.1458 207.875 52.3077 208.176C52.4725 208.477 52.6969 208.72 52.981 208.905C53.268 209.089 53.5933 209.182 53.9569 209.182ZM61.394 210.119C60.752 210.119 60.2051 209.945 59.7534 209.595C59.3017 209.243 58.9565 208.733 58.7179 208.065C58.4793 207.395 58.3599 206.585 58.3599 205.636C58.3599 204.693 58.4793 203.888 58.7179 203.22C58.9594 202.55 59.306 202.038 59.7577 201.686C60.2122 201.331 60.7577 201.153 61.394 201.153C62.0304 201.153 62.5744 201.331 63.0261 201.686C63.4807 202.038 63.8273 202.55 64.0659 203.22C64.3074 203.888 64.4281 204.693 64.4281 205.636C64.4281 206.585 64.3088 207.395 64.0702 208.065C63.8315 208.733 63.4864 209.243 63.0347 209.595C62.583 209.945 62.0361 210.119 61.394 210.119ZM61.394 209.182C62.0304 209.182 62.5247 208.875 62.877 208.261C63.2293 207.648 63.4054 206.773 63.4054 205.636C63.4054 204.881 63.3244 204.237 63.1625 203.706C63.0034 203.175 62.7733 202.77 62.4722 202.491C62.1739 202.213 61.8145 202.074 61.394 202.074C60.7634 202.074 60.2705 202.385 59.9153 203.007C59.5602 203.626 59.3827 204.503 59.3827 205.636C59.3827 206.392 59.4622 207.034 59.6213 207.562C59.7804 208.091 60.0091 208.493 60.3074 208.768C60.6085 209.044 60.9707 209.182 61.394 209.182Z" fill="white"/>
<path d="M48.5375 174.273V183H47.4807V175.381H47.4295L45.2989 176.795V175.722L47.4807 174.273H48.5375ZM53.894 183.119C53.252 183.119 52.7051 182.945 52.2534 182.595C51.8017 182.243 51.4565 181.733 51.2179 181.065C50.9793 180.395 50.8599 179.585 50.8599 178.636C50.8599 177.693 50.9793 176.888 51.2179 176.22C51.4594 175.55 51.806 175.038 52.2577 174.686C52.7122 174.331 53.2577 174.153 53.894 174.153C54.5304 174.153 55.0744 174.331 55.5261 174.686C55.9807 175.038 56.3273 175.55 56.5659 176.22C56.8074 176.888 56.9281 177.693 56.9281 178.636C56.9281 179.585 56.8088 180.395 56.5702 181.065C56.3315 181.733 55.9864 182.243 55.5347 182.595C55.083 182.945 54.5361 183.119 53.894 183.119ZM53.894 182.182C54.5304 182.182 55.0247 181.875 55.377 181.261C55.7293 180.648 55.9054 179.773 55.9054 178.636C55.9054 177.881 55.8244 177.237 55.6625 176.706C55.5034 176.175 55.2733 175.77 54.9722 175.491C54.6739 175.213 54.3145 175.074 53.894 175.074C53.2634 175.074 52.7705 175.385 52.4153 176.007C52.0602 176.626 51.8827 177.503 51.8827 178.636C51.8827 179.392 51.9622 180.034 52.1213 180.562C52.2804 181.091 52.5091 181.493 52.8074 181.768C53.1085 182.044 53.4707 182.182 53.894 182.182ZM61.394 183.119C60.752 183.119 60.2051 182.945 59.7534 182.595C59.3017 182.243 58.9565 181.733 58.7179 181.065C58.4793 180.395 58.3599 179.585 58.3599 178.636C58.3599 177.693 58.4793 176.888 58.7179 176.22C58.9594 175.55 59.306 175.038 59.7577 174.686C60.2122 174.331 60.7577 174.153 61.394 174.153C62.0304 174.153 62.5744 174.331 63.0261 174.686C63.4807 175.038 63.8273 175.55 64.0659 176.22C64.3074 176.888 64.4281 177.693 64.4281 178.636C64.4281 179.585 64.3088 180.395 64.0702 181.065C63.8315 181.733 63.4864 182.243 63.0347 182.595C62.583 182.945 62.0361 183.119 61.394 183.119ZM61.394 182.182C62.0304 182.182 62.5247 181.875 62.877 181.261C63.2293 180.648 63.4054 179.773 63.4054 178.636C63.4054 177.881 63.3244 177.237 63.1625 176.706C63.0034 176.175 62.7733 175.77 62.4722 175.491C62.1739 175.213 61.8145 175.074 61.394 175.074C60.7634 175.074 60.2705 175.385 59.9153 176.007C59.5602 176.626 59.3827 177.503 59.3827 178.636C59.3827 179.392 59.4622 180.034 59.6213 180.562C59.7804 181.091 60.0091 181.493 60.3074 181.768C60.6085 182.044 60.9707 182.182 61.394 182.182Z" fill="white"/>
<path d="M10 153H426" stroke="#4F4F4F" stroke-width="2"/>
<path d="M109.737 420V411.273H112.685C113.37 411.273 113.93 411.396 114.364 411.643C114.802 411.888 115.126 412.219 115.336 412.636C115.546 413.054 115.651 413.52 115.651 414.034C115.651 414.548 115.546 415.016 115.336 415.436C115.129 415.857 114.808 416.192 114.373 416.442C113.938 416.689 113.381 416.812 112.702 416.812H110.589V415.875H112.668C113.137 415.875 113.513 415.794 113.798 415.632C114.082 415.47 114.288 415.251 114.415 414.976C114.546 414.697 114.612 414.384 114.612 414.034C114.612 413.685 114.546 413.372 114.415 413.097C114.288 412.821 114.08 412.605 113.793 412.449C113.506 412.29 113.126 412.21 112.651 412.21H110.793V420H109.737ZM117.217 420V413.455H118.189V414.443H118.257C118.376 414.119 118.592 413.857 118.905 413.655C119.217 413.453 119.57 413.352 119.962 413.352C120.036 413.352 120.128 413.354 120.239 413.357C120.349 413.359 120.433 413.364 120.49 413.369V414.392C120.456 414.384 120.378 414.371 120.256 414.354C120.136 414.334 120.01 414.324 119.876 414.324C119.558 414.324 119.274 414.391 119.024 414.524C118.777 414.655 118.581 414.837 118.436 415.07C118.294 415.3 118.223 415.562 118.223 415.858V420H117.217ZM124.142 420.136C123.551 420.136 123.033 419.996 122.587 419.714C122.143 419.433 121.797 419.04 121.547 418.534C121.3 418.028 121.176 417.437 121.176 416.761C121.176 416.08 121.3 415.484 121.547 414.976C121.797 414.467 122.143 414.072 122.587 413.791C123.033 413.51 123.551 413.369 124.142 413.369C124.733 413.369 125.25 413.51 125.693 413.791C126.139 414.072 126.486 414.467 126.733 414.976C126.983 415.484 127.108 416.08 127.108 416.761C127.108 417.437 126.983 418.028 126.733 418.534C126.486 419.04 126.139 419.433 125.693 419.714C125.25 419.996 124.733 420.136 124.142 420.136ZM124.142 419.233C124.591 419.233 124.96 419.118 125.25 418.888C125.54 418.658 125.754 418.355 125.893 417.98C126.033 417.605 126.102 417.199 126.102 416.761C126.102 416.324 126.033 415.916 125.893 415.538C125.754 415.161 125.54 414.855 125.25 414.622C124.96 414.389 124.591 414.273 124.142 414.273C123.693 414.273 123.324 414.389 123.034 414.622C122.744 414.855 122.53 415.161 122.391 415.538C122.251 415.916 122.182 416.324 122.182 416.761C122.182 417.199 122.251 417.605 122.391 417.98C122.53 418.355 122.744 418.658 123.034 418.888C123.324 419.118 123.693 419.233 124.142 419.233ZM131.115 420.136C130.569 420.136 130.088 419.999 129.67 419.723C129.252 419.445 128.926 419.053 128.69 418.547C128.454 418.038 128.336 417.438 128.336 416.744C128.336 416.057 128.454 415.46 128.69 414.955C128.926 414.449 129.254 414.058 129.674 413.783C130.095 413.507 130.581 413.369 131.132 413.369C131.558 413.369 131.895 413.44 132.142 413.582C132.392 413.722 132.582 413.881 132.713 414.06C132.846 414.236 132.95 414.381 133.024 414.494H133.109V411.273H134.115V420H133.143V418.994H133.024C132.95 419.114 132.845 419.264 132.708 419.446C132.572 419.625 132.377 419.786 132.125 419.928C131.872 420.067 131.535 420.136 131.115 420.136ZM131.251 419.233C131.654 419.233 131.995 419.128 132.274 418.918C132.552 418.705 132.764 418.411 132.909 418.036C133.054 417.658 133.126 417.222 133.126 416.727C133.126 416.239 133.055 415.811 132.913 415.445C132.771 415.075 132.561 414.788 132.282 414.584C132.004 414.376 131.66 414.273 131.251 414.273C130.825 414.273 130.47 414.382 130.186 414.601C129.904 414.817 129.693 415.111 129.551 415.483C129.412 415.852 129.342 416.267 129.342 416.727C129.342 417.193 129.413 417.616 129.555 417.997C129.7 418.375 129.913 418.676 130.194 418.901C130.478 419.122 130.831 419.233 131.251 419.233ZM140.221 417.324V413.455H141.227V420H140.221V418.892H140.153C140 419.224 139.761 419.507 139.437 419.74C139.113 419.97 138.704 420.085 138.21 420.085C137.801 420.085 137.437 419.996 137.119 419.817C136.801 419.635 136.551 419.362 136.369 418.999C136.187 418.632 136.096 418.17 136.096 417.614V413.455H137.102V417.545C137.102 418.023 137.235 418.403 137.502 418.688C137.772 418.972 138.116 419.114 138.534 419.114C138.784 419.114 139.038 419.05 139.297 418.922C139.558 418.794 139.777 418.598 139.953 418.334C140.132 418.07 140.221 417.733 140.221 417.324ZM145.728 420.136C145.114 420.136 144.586 419.991 144.143 419.702C143.7 419.412 143.359 419.013 143.12 418.504C142.881 417.996 142.762 417.415 142.762 416.761C142.762 416.097 142.884 415.51 143.129 415.001C143.376 414.49 143.719 414.091 144.16 413.804C144.603 413.514 145.12 413.369 145.711 413.369C146.171 413.369 146.586 413.455 146.955 413.625C147.325 413.795 147.627 414.034 147.863 414.341C148.099 414.648 148.245 415.006 148.302 415.415H147.296C147.219 415.116 147.049 414.852 146.785 414.622C146.523 414.389 146.171 414.273 145.728 414.273C145.336 414.273 144.992 414.375 144.697 414.58C144.404 414.781 144.175 415.067 144.011 415.436C143.849 415.803 143.768 416.233 143.768 416.727C143.768 417.233 143.847 417.673 144.006 418.048C144.168 418.423 144.396 418.714 144.688 418.922C144.984 419.129 145.33 419.233 145.728 419.233C145.989 419.233 146.227 419.188 146.44 419.097C146.653 419.006 146.833 418.875 146.981 418.705C147.129 418.534 147.234 418.33 147.296 418.091H148.302C148.245 418.477 148.104 418.825 147.88 419.135C147.658 419.442 147.364 419.686 146.998 419.868C146.634 420.047 146.211 420.136 145.728 420.136ZM152.619 413.455V414.307H149.227V413.455H152.619ZM150.215 411.886H151.221V418.125C151.221 418.409 151.262 418.622 151.344 418.764C151.43 418.903 151.538 418.997 151.668 419.045C151.802 419.091 151.942 419.114 152.09 419.114C152.201 419.114 152.292 419.108 152.363 419.097C152.434 419.082 152.491 419.071 152.533 419.062L152.738 419.966C152.67 419.991 152.575 420.017 152.452 420.043C152.33 420.071 152.175 420.085 151.988 420.085C151.704 420.085 151.425 420.024 151.153 419.902C150.883 419.78 150.658 419.594 150.479 419.344C150.303 419.094 150.215 418.778 150.215 418.398V411.886ZM160.558 411.273V420H159.501V412.381H159.45L157.319 413.795V412.722L159.501 411.273H160.558Z" fill="white"/>
<rect x="79.6562" y="412" width="20.3163" height="8" fill="#63ABFD"/>
<path d="M213.252 420V411.273H216.201C216.886 411.273 217.445 411.396 217.88 411.643C218.317 411.888 218.641 412.219 218.852 412.636C219.062 413.054 219.167 413.52 219.167 414.034C219.167 414.548 219.062 415.016 218.852 415.436C218.644 415.857 218.323 416.192 217.888 416.442C217.454 416.689 216.897 416.812 216.218 416.812H214.104V415.875H216.184C216.653 415.875 217.029 415.794 217.313 415.632C217.597 415.47 217.803 415.251 217.931 414.976C218.062 414.697 218.127 414.384 218.127 414.034C218.127 413.685 218.062 413.372 217.931 413.097C217.803 412.821 217.596 412.605 217.309 412.449C217.022 412.29 216.641 412.21 216.167 412.21H214.309V420H213.252ZM220.733 420V413.455H221.705V414.443H221.773C221.892 414.119 222.108 413.857 222.42 413.655C222.733 413.453 223.085 413.352 223.477 413.352C223.551 413.352 223.643 413.354 223.754 413.357C223.865 413.359 223.949 413.364 224.006 413.369V414.392C223.972 414.384 223.893 414.371 223.771 414.354C223.652 414.334 223.526 414.324 223.392 414.324C223.074 414.324 222.79 414.391 222.54 414.524C222.293 414.655 222.097 414.837 221.952 415.07C221.81 415.3 221.739 415.562 221.739 415.858V420H220.733ZM227.658 420.136C227.067 420.136 226.548 419.996 226.102 419.714C225.659 419.433 225.312 419.04 225.062 418.534C224.815 418.028 224.692 417.437 224.692 416.761C224.692 416.08 224.815 415.484 225.062 414.976C225.312 414.467 225.659 414.072 226.102 413.791C226.548 413.51 227.067 413.369 227.658 413.369C228.249 413.369 228.766 413.51 229.209 413.791C229.655 414.072 230.001 414.467 230.249 414.976C230.499 415.484 230.624 416.08 230.624 416.761C230.624 417.437 230.499 418.028 230.249 418.534C230.001 419.04 229.655 419.433 229.209 419.714C228.766 419.996 228.249 420.136 227.658 420.136ZM227.658 419.233C228.107 419.233 228.476 419.118 228.766 418.888C229.055 418.658 229.27 418.355 229.409 417.98C229.548 417.605 229.618 417.199 229.618 416.761C229.618 416.324 229.548 415.916 229.409 415.538C229.27 415.161 229.055 414.855 228.766 414.622C228.476 414.389 228.107 414.273 227.658 414.273C227.209 414.273 226.839 414.389 226.55 414.622C226.26 414.855 226.045 415.161 225.906 415.538C225.767 415.916 225.697 416.324 225.697 416.761C225.697 417.199 225.767 417.605 225.906 417.98C226.045 418.355 226.26 418.658 226.55 418.888C226.839 419.118 227.209 419.233 227.658 419.233ZM234.63 420.136C234.085 420.136 233.603 419.999 233.186 419.723C232.768 419.445 232.441 419.053 232.206 418.547C231.97 418.038 231.852 417.438 231.852 416.744C231.852 416.057 231.97 415.46 232.206 414.955C232.441 414.449 232.77 414.058 233.19 413.783C233.61 413.507 234.096 413.369 234.647 413.369C235.074 413.369 235.41 413.44 235.657 413.582C235.907 413.722 236.098 413.881 236.228 414.06C236.362 414.236 236.466 414.381 236.539 414.494H236.625V411.273H237.63V420H236.659V418.994H236.539C236.466 419.114 236.36 419.264 236.224 419.446C236.088 419.625 235.893 419.786 235.64 419.928C235.387 420.067 235.051 420.136 234.63 420.136ZM234.767 419.233C235.17 419.233 235.511 419.128 235.789 418.918C236.068 418.705 236.279 418.411 236.424 418.036C236.569 417.658 236.642 417.222 236.642 416.727C236.642 416.239 236.571 415.811 236.429 415.445C236.287 415.075 236.076 414.788 235.798 414.584C235.52 414.376 235.176 414.273 234.767 414.273C234.341 414.273 233.985 414.382 233.701 414.601C233.42 414.817 233.208 415.111 233.066 415.483C232.927 415.852 232.858 416.267 232.858 416.727C232.858 417.193 232.929 417.616 233.071 417.997C233.216 418.375 233.429 418.676 233.71 418.901C233.994 419.122 234.346 419.233 234.767 419.233ZM243.737 417.324V413.455H244.743V420H243.737V418.892H243.669C243.515 419.224 243.277 419.507 242.953 419.74C242.629 419.97 242.22 420.085 241.725 420.085C241.316 420.085 240.953 419.996 240.635 419.817C240.316 419.635 240.066 419.362 239.885 418.999C239.703 418.632 239.612 418.17 239.612 417.614V413.455H240.618V417.545C240.618 418.023 240.751 418.403 241.018 418.688C241.288 418.972 241.632 419.114 242.049 419.114C242.299 419.114 242.554 419.05 242.812 418.922C243.074 418.794 243.292 418.598 243.468 418.334C243.647 418.07 243.737 417.733 243.737 417.324ZM249.244 420.136C248.63 420.136 248.102 419.991 247.658 419.702C247.215 419.412 246.874 419.013 246.636 418.504C246.397 417.996 246.278 417.415 246.278 416.761C246.278 416.097 246.4 415.51 246.644 415.001C246.891 414.49 247.235 414.091 247.675 413.804C248.119 413.514 248.636 413.369 249.227 413.369C249.687 413.369 250.102 413.455 250.471 413.625C250.84 413.795 251.143 414.034 251.379 414.341C251.614 414.648 251.761 415.006 251.817 415.415H250.812C250.735 415.116 250.565 414.852 250.3 414.622C250.039 414.389 249.687 414.273 249.244 414.273C248.852 414.273 248.508 414.375 248.212 414.58C247.92 414.781 247.691 415.067 247.526 415.436C247.364 415.803 247.283 416.233 247.283 416.727C247.283 417.233 247.363 417.673 247.522 418.048C247.684 418.423 247.911 418.714 248.204 418.922C248.499 419.129 248.846 419.233 249.244 419.233C249.505 419.233 249.742 419.188 249.955 419.097C250.168 419.006 250.349 418.875 250.496 418.705C250.644 418.534 250.749 418.33 250.812 418.091H251.817C251.761 418.477 251.62 418.825 251.396 419.135C251.174 419.442 250.88 419.686 250.513 419.868C250.15 420.047 249.727 420.136 249.244 420.136ZM256.134 413.455V414.307H252.742V413.455H256.134ZM253.731 411.886H254.737V418.125C254.737 418.409 254.778 418.622 254.86 418.764C254.945 418.903 255.053 418.997 255.184 419.045C255.317 419.091 255.458 419.114 255.606 419.114C255.717 419.114 255.808 419.108 255.879 419.097C255.95 419.082 256.006 419.071 256.049 419.062L256.254 419.966C256.185 419.991 256.09 420.017 255.968 420.043C255.846 420.071 255.691 420.085 255.504 420.085C255.219 420.085 254.941 420.024 254.668 419.902C254.398 419.78 254.174 419.594 253.995 419.344C253.819 419.094 253.731 418.778 253.731 418.398V411.886ZM261.005 420V419.233L263.886 416.08C264.224 415.71 264.502 415.389 264.721 415.116C264.94 414.841 265.102 414.582 265.207 414.341C265.315 414.097 265.369 413.841 265.369 413.574C265.369 413.267 265.295 413.001 265.147 412.777C265.002 412.553 264.803 412.379 264.55 412.257C264.298 412.135 264.013 412.074 263.698 412.074C263.363 412.074 263.07 412.143 262.82 412.283C262.573 412.419 262.381 412.611 262.245 412.858C262.112 413.105 262.045 413.395 262.045 413.727H261.039C261.039 413.216 261.157 412.767 261.393 412.381C261.629 411.994 261.95 411.693 262.356 411.477C262.765 411.261 263.224 411.153 263.732 411.153C264.244 411.153 264.697 411.261 265.092 411.477C265.487 411.693 265.796 411.984 266.021 412.351C266.245 412.717 266.357 413.125 266.357 413.574C266.357 413.895 266.299 414.209 266.183 414.516C266.069 414.82 265.87 415.159 265.586 415.534C265.305 415.906 264.914 416.361 264.414 416.898L262.454 418.994V419.062H266.511V420H261.005Z" fill="white"/>
<rect x="183.173" y="412" width="20.3163" height="8" fill="#00B24F"/>
<path d="M95.1797 355.727H96.0603V360.926C96.0603 361.39 95.9751 361.784 95.8047 362.109C95.6342 362.433 95.3939 362.679 95.0838 362.847C94.7736 363.015 94.4079 363.099 93.9865 363.099C93.5888 363.099 93.2348 363.027 92.9247 362.883C92.6146 362.736 92.3707 362.528 92.1932 362.258C92.0156 361.988 91.9268 361.667 91.9268 361.295H92.7933C92.7933 361.501 92.8442 361.681 92.946 361.835C93.0502 361.987 93.1922 362.105 93.3721 362.19C93.5521 362.276 93.7568 362.318 93.9865 362.318C94.2398 362.318 94.4552 362.265 94.6328 362.158C94.8103 362.052 94.9453 361.896 95.0376 361.69C95.1323 361.481 95.1797 361.227 95.1797 360.926V355.727ZM99.3167 363.128C98.9711 363.128 98.6574 363.063 98.3757 362.933C98.094 362.8 97.8702 362.609 97.7045 362.361C97.5388 362.11 97.4559 361.807 97.4559 361.452C97.4559 361.139 97.5175 360.886 97.6406 360.692C97.7637 360.495 97.9282 360.341 98.1342 360.23C98.3402 360.119 98.5674 360.036 98.816 359.982C99.067 359.925 99.3191 359.88 99.5724 359.847C99.9039 359.804 100.173 359.772 100.379 359.751C100.587 359.727 100.738 359.688 100.833 359.634C100.93 359.579 100.979 359.484 100.979 359.349V359.321C100.979 358.971 100.883 358.698 100.691 358.504C100.502 358.31 100.214 358.213 99.8281 358.213C99.428 358.213 99.1143 358.301 98.887 358.476C98.6598 358.651 98.5 358.838 98.4076 359.037L97.6122 358.753C97.7542 358.421 97.9436 358.163 98.1804 357.979C98.4195 357.792 98.6799 357.661 98.9616 357.588C99.2457 357.512 99.5251 357.474 99.7997 357.474C99.9749 357.474 100.176 357.496 100.403 357.538C100.633 357.579 100.854 357.663 101.067 357.79C101.283 357.918 101.462 358.111 101.604 358.369C101.746 358.627 101.817 358.973 101.817 359.406V363H100.979V362.261H100.936C100.879 362.38 100.785 362.506 100.652 362.641C100.519 362.776 100.343 362.891 100.123 362.986C99.9027 363.08 99.634 363.128 99.3167 363.128ZM99.4446 362.375C99.776 362.375 100.055 362.31 100.283 362.18C100.512 362.049 100.685 361.881 100.801 361.675C100.919 361.469 100.979 361.253 100.979 361.026V360.259C100.943 360.301 100.865 360.34 100.744 360.376C100.626 360.409 100.489 360.438 100.332 360.464C100.178 360.488 100.028 360.509 99.8814 360.528C99.737 360.545 99.6198 360.559 99.5298 360.571C99.312 360.599 99.1084 360.646 98.919 360.71C98.732 360.771 98.5805 360.865 98.4645 360.99C98.3508 361.113 98.294 361.281 98.294 361.494C98.294 361.786 98.4017 362.006 98.6172 362.155C98.835 362.302 99.1108 362.375 99.4446 362.375ZM104.184 359.719V363H103.346V357.545H104.156V358.398H104.227C104.355 358.121 104.549 357.898 104.809 357.73C105.07 357.56 105.406 357.474 105.818 357.474C106.187 357.474 106.51 357.55 106.787 357.702C107.064 357.851 107.28 358.078 107.434 358.384C107.588 358.687 107.665 359.07 107.665 359.534V363H106.827V359.591C106.827 359.162 106.715 358.829 106.493 358.589C106.27 358.348 105.965 358.227 105.577 358.227C105.309 358.227 105.07 358.285 104.859 358.401C104.651 358.517 104.486 358.687 104.366 358.909C104.245 359.132 104.184 359.402 104.184 359.719Z" fill="white"/>
<path d="M152.084 363V355.727H156.445V356.509H152.965V358.966H156.118V359.747H152.965V363H152.084ZM159.726 363.114C159.201 363.114 158.747 362.998 158.366 362.766C157.987 362.531 157.695 362.205 157.489 361.786C157.285 361.364 157.183 360.874 157.183 360.315C157.183 359.757 157.285 359.264 157.489 358.838C157.695 358.41 157.981 358.076 158.348 357.837C158.718 357.595 159.148 357.474 159.641 357.474C159.925 357.474 160.205 357.522 160.482 357.616C160.759 357.711 161.012 357.865 161.239 358.078C161.466 358.289 161.647 358.568 161.782 358.916C161.917 359.264 161.985 359.693 161.985 360.202V360.557H157.78V359.832H161.132C161.132 359.525 161.071 359.25 160.948 359.009C160.827 358.767 160.654 358.576 160.429 358.437C160.207 358.297 159.944 358.227 159.641 358.227C159.307 358.227 159.018 358.31 158.774 358.476C158.533 358.639 158.347 358.852 158.217 359.115C158.087 359.378 158.022 359.66 158.022 359.96V360.443C158.022 360.855 158.093 361.204 158.235 361.491C158.379 361.775 158.579 361.991 158.835 362.141C159.09 362.287 159.388 362.361 159.726 362.361C159.946 362.361 160.145 362.33 160.323 362.268C160.503 362.205 160.658 362.11 160.788 361.984C160.918 361.857 161.019 361.698 161.09 361.509L161.899 361.736C161.814 362.01 161.671 362.252 161.47 362.46C161.268 362.666 161.02 362.827 160.724 362.943C160.428 363.057 160.095 363.114 159.726 363.114ZM163.373 363V355.727H164.211V358.412H164.282C164.344 358.317 164.429 358.196 164.538 358.05C164.649 357.901 164.808 357.768 165.014 357.652C165.222 357.534 165.504 357.474 165.859 357.474C166.318 357.474 166.723 357.589 167.073 357.819C167.424 358.049 167.697 358.374 167.894 358.795C168.09 359.217 168.188 359.714 168.188 360.287C168.188 360.865 168.09 361.365 167.894 361.789C167.697 362.21 167.425 362.537 167.077 362.769C166.729 362.999 166.328 363.114 165.873 363.114C165.523 363.114 165.242 363.056 165.031 362.94C164.821 362.821 164.659 362.687 164.545 362.538C164.431 362.387 164.344 362.261 164.282 362.162H164.183V363H163.373ZM164.197 360.273C164.197 360.685 164.257 361.048 164.378 361.363C164.499 361.675 164.675 361.92 164.907 362.098C165.139 362.273 165.423 362.361 165.759 362.361C166.11 362.361 166.402 362.268 166.637 362.084C166.873 361.897 167.051 361.646 167.169 361.331C167.29 361.014 167.35 360.661 167.35 360.273C167.35 359.889 167.291 359.544 167.173 359.236C167.057 358.926 166.88 358.681 166.644 358.501C166.409 358.318 166.115 358.227 165.759 358.227C165.419 358.227 165.132 358.314 164.9 358.487C164.668 358.657 164.493 358.896 164.375 359.204C164.256 359.509 164.197 359.866 164.197 360.273Z" fill="white"/>
<path d="M202.982 355.727H204.034L206.505 361.764H206.59L209.062 355.727H210.113V363H209.289V357.474H209.218L206.946 363H206.15L203.877 357.474H203.806V363H202.982V355.727ZM213.37 363.128C213.025 363.128 212.711 363.063 212.429 362.933C212.148 362.8 211.924 362.609 211.758 362.361C211.593 362.11 211.51 361.807 211.51 361.452C211.51 361.139 211.571 360.886 211.694 360.692C211.817 360.495 211.982 360.341 212.188 360.23C212.394 360.119 212.621 360.036 212.87 359.982C213.121 359.925 213.373 359.88 213.626 359.847C213.958 359.804 214.226 359.772 214.432 359.751C214.641 359.727 214.792 359.688 214.887 359.634C214.984 359.579 215.032 359.484 215.032 359.349V359.321C215.032 358.971 214.937 358.698 214.745 358.504C214.555 358.31 214.268 358.213 213.882 358.213C213.482 358.213 213.168 358.301 212.941 358.476C212.713 358.651 212.554 358.838 212.461 359.037L211.666 358.753C211.808 358.421 211.997 358.163 212.234 357.979C212.473 357.792 212.734 357.661 213.015 357.588C213.299 357.512 213.579 357.474 213.853 357.474C214.029 357.474 214.23 357.496 214.457 357.538C214.687 357.579 214.908 357.663 215.121 357.79C215.337 357.918 215.515 358.111 215.657 358.369C215.799 358.627 215.87 358.973 215.87 359.406V363H215.032V362.261H214.99C214.933 362.38 214.838 362.506 214.706 362.641C214.573 362.776 214.397 362.891 214.177 362.986C213.956 363.08 213.688 363.128 213.37 363.128ZM213.498 362.375C213.83 362.375 214.109 362.31 214.336 362.18C214.566 362.049 214.739 361.881 214.855 361.675C214.973 361.469 215.032 361.253 215.032 361.026V360.259C214.997 360.301 214.919 360.34 214.798 360.376C214.68 360.409 214.542 360.438 214.386 360.464C214.232 360.488 214.082 360.509 213.935 360.528C213.791 360.545 213.673 360.559 213.584 360.571C213.366 360.599 213.162 360.646 212.973 360.71C212.786 360.771 212.634 360.865 212.518 360.99C212.405 361.113 212.348 361.281 212.348 361.494C212.348 361.786 212.455 362.006 212.671 362.155C212.889 362.302 213.164 362.375 213.498 362.375ZM217.4 363V357.545H218.21V358.369H218.267C218.366 358.099 218.546 357.88 218.806 357.712C219.067 357.544 219.36 357.46 219.687 357.46C219.749 357.46 219.826 357.461 219.918 357.464C220.01 357.466 220.08 357.47 220.127 357.474V358.327C220.099 358.32 220.034 358.309 219.932 358.295C219.833 358.278 219.727 358.27 219.616 358.27C219.351 358.27 219.114 358.326 218.906 358.437C218.7 358.546 218.536 358.697 218.416 358.891C218.297 359.083 218.238 359.302 218.238 359.548V363H217.4Z" fill="white"/>
<path d="M254.427 363H253.504L256.174 355.727H257.084L259.754 363H258.831L256.657 356.878H256.601L254.427 363ZM254.768 360.159H258.49V360.94H254.768V360.159ZM260.773 365.045V357.545H261.583V358.412H261.682C261.744 358.317 261.829 358.196 261.938 358.05C262.049 357.901 262.208 357.768 262.414 357.652C262.622 357.534 262.904 357.474 263.259 357.474C263.718 357.474 264.123 357.589 264.473 357.819C264.824 358.049 265.097 358.374 265.294 358.795C265.49 359.217 265.588 359.714 265.588 360.287C265.588 360.865 265.49 361.365 265.294 361.789C265.097 362.21 264.825 362.537 264.477 362.769C264.129 362.999 263.728 363.114 263.273 363.114C262.923 363.114 262.642 363.056 262.432 362.94C262.221 362.821 262.059 362.687 261.945 362.538C261.831 362.387 261.744 362.261 261.682 362.162H261.611V365.045H260.773ZM261.597 360.273C261.597 360.685 261.657 361.048 261.778 361.363C261.899 361.675 262.075 361.92 262.307 362.098C262.539 362.273 262.823 362.361 263.16 362.361C263.51 362.361 263.802 362.268 264.037 362.084C264.273 361.897 264.451 361.646 264.569 361.331C264.69 361.014 264.75 360.661 264.75 360.273C264.75 359.889 264.691 359.544 264.573 359.236C264.457 358.926 264.28 358.681 264.044 358.501C263.809 358.318 263.515 358.227 263.16 358.227C262.819 358.227 262.532 358.314 262.3 358.487C262.068 358.657 261.893 358.896 261.775 359.204C261.656 359.509 261.597 359.866 261.597 360.273ZM266.867 363V357.545H267.677V358.369H267.733C267.833 358.099 268.013 357.88 268.273 357.712C268.534 357.544 268.827 357.46 269.154 357.46C269.215 357.46 269.292 357.461 269.385 357.464C269.477 357.466 269.547 357.47 269.594 357.474V358.327C269.566 358.32 269.501 358.309 269.399 358.295C269.299 358.278 269.194 358.27 269.083 358.27C268.818 358.27 268.581 358.326 268.373 358.437C268.167 358.546 268.003 358.697 267.883 358.891C267.764 359.083 267.705 359.302 267.705 359.548V363H266.867Z" fill="white"/>
<path d="M304.271 355.727H305.322L307.793 361.764H307.879L310.35 355.727H311.401V363H310.577V357.474H310.506L308.234 363H307.438L305.165 357.474H305.094V363H304.271V355.727ZM314.659 363.128C314.313 363.128 313.999 363.063 313.717 362.933C313.436 362.8 313.212 362.609 313.046 362.361C312.881 362.11 312.798 361.807 312.798 361.452C312.798 361.139 312.859 360.886 312.982 360.692C313.106 360.495 313.27 360.341 313.476 360.23C313.682 360.119 313.909 360.036 314.158 359.982C314.409 359.925 314.661 359.88 314.914 359.847C315.246 359.804 315.514 359.772 315.72 359.751C315.929 359.727 316.08 359.688 316.175 359.634C316.272 359.579 316.32 359.484 316.32 359.349V359.321C316.32 358.971 316.225 358.698 316.033 358.504C315.843 358.31 315.556 358.213 315.17 358.213C314.77 358.213 314.456 358.301 314.229 358.476C314.002 358.651 313.842 358.838 313.749 359.037L312.954 358.753C313.096 358.421 313.285 358.163 313.522 357.979C313.761 357.792 314.022 357.661 314.303 357.588C314.588 357.512 314.867 357.474 315.141 357.474C315.317 357.474 315.518 357.496 315.745 357.538C315.975 357.579 316.196 357.663 316.409 357.79C316.625 357.918 316.803 358.111 316.945 358.369C317.088 358.627 317.159 358.973 317.159 359.406V363H316.32V362.261H316.278C316.221 362.38 316.126 362.506 315.994 362.641C315.861 362.776 315.685 362.891 315.465 362.986C315.244 363.08 314.976 363.128 314.659 363.128ZM314.786 362.375C315.118 362.375 315.397 362.31 315.624 362.18C315.854 362.049 316.027 361.881 316.143 361.675C316.261 361.469 316.32 361.253 316.32 361.026V360.259C316.285 360.301 316.207 360.34 316.086 360.376C315.968 360.409 315.83 360.438 315.674 360.464C315.52 360.488 315.37 360.509 315.223 360.528C315.079 360.545 314.962 360.559 314.872 360.571C314.654 360.599 314.45 360.646 314.261 360.71C314.074 360.771 313.922 360.865 313.806 360.99C313.693 361.113 313.636 361.281 313.636 361.494C313.636 361.786 313.744 362.006 313.959 362.155C314.177 362.302 314.453 362.375 314.786 362.375ZM318.688 363V357.545H319.526V363H318.688ZM319.114 356.636C318.951 356.636 318.81 356.581 318.692 356.469C318.576 356.358 318.518 356.224 318.518 356.068C318.518 355.912 318.576 355.778 318.692 355.667C318.81 355.556 318.951 355.5 319.114 355.5C319.278 355.5 319.417 355.556 319.533 355.667C319.652 355.778 319.711 355.912 319.711 356.068C319.711 356.224 319.652 356.358 319.533 356.469C319.417 356.581 319.278 356.636 319.114 356.636Z" fill="white"/>
<path d="M359.203 355.727H360.084V360.926C360.084 361.39 359.999 361.784 359.828 362.109C359.658 362.433 359.417 362.679 359.107 362.847C358.797 363.015 358.431 363.099 358.01 363.099C357.612 363.099 357.258 363.027 356.948 362.883C356.638 362.736 356.394 362.528 356.217 362.258C356.039 361.988 355.95 361.667 355.95 361.295H356.817C356.817 361.501 356.868 361.681 356.969 361.835C357.074 361.987 357.216 362.105 357.396 362.19C357.575 362.276 357.78 362.318 358.01 362.318C358.263 362.318 358.479 362.265 358.656 362.158C358.834 362.052 358.969 361.896 359.061 361.69C359.156 361.481 359.203 361.227 359.203 360.926V355.727ZM365.173 360.77V357.545H366.011V363H365.173V362.077H365.116C364.988 362.354 364.789 362.589 364.519 362.783C364.249 362.975 363.908 363.071 363.496 363.071C363.156 363.071 362.852 362.996 362.587 362.847C362.322 362.696 362.114 362.469 361.962 362.165C361.811 361.86 361.735 361.475 361.735 361.011V357.545H362.573V360.955C362.573 361.352 362.684 361.67 362.907 361.906C363.132 362.143 363.418 362.261 363.766 362.261C363.975 362.261 364.187 362.208 364.402 362.102C364.62 361.995 364.802 361.832 364.949 361.612C365.098 361.391 365.173 361.111 365.173 360.77ZM368.384 359.719V363H367.546V357.545H368.355V358.398H368.426C368.554 358.121 368.748 357.898 369.009 357.73C369.269 357.56 369.605 357.474 370.017 357.474C370.387 357.474 370.71 357.55 370.987 357.702C371.264 357.851 371.479 358.078 371.633 358.384C371.787 358.687 371.864 359.07 371.864 359.534V363H371.026V359.591C371.026 359.162 370.914 358.829 370.692 358.589C370.469 358.348 370.164 358.227 369.776 358.227C369.508 358.227 369.269 358.285 369.058 358.401C368.85 358.517 368.686 358.687 368.565 358.909C368.444 359.132 368.384 359.402 368.384 359.719Z" fill="white"/>
<ellipse cx="80.14" cy="318.5" rx="3.38605" ry="3.5" fill="#63ABFD"/>
<ellipse cx="132.382" cy="291.5" rx="3.38605" ry="3.5" fill="#63ABFD"/>
<ellipse cx="183.657" cy="318.5" rx="3.38605" ry="3.5" fill="#63ABFD"/>
<ellipse cx="234.931" cy="210.5" rx="3.38605" ry="3.5" fill="#63ABFD"/>
<ellipse cx="286.205" cy="264.5" rx="3.38605" ry="3.5" fill="#63ABFD"/>
<ellipse cx="337.48" cy="237.5" rx="3.38605" ry="3.5" fill="#63ABFD"/>
<ellipse cx="388.754" cy="318.5" rx="3.38605" ry="3.5" fill="#63ABFD"/>
<g filter="url(#filter1_dddddd_361_14732)">
<path d="M80.1396 319L132.865 291L183.656 319L234.93 211L286.205 264L337.479 237.5L388.754 319" stroke="#63ABFD" stroke-width="2"/>
</g>
<ellipse cx="80.14" cy="263.5" rx="3.38605" ry="3.5" fill="#00B24F"/>
<ellipse cx="132.382" cy="237.5" rx="3.38605" ry="3.5" fill="#00B24F"/>
<ellipse cx="183.657" cy="261.5" rx="3.38605" ry="3.5" fill="#00B24F"/>
<ellipse cx="234.931" cy="291.5" rx="3.38605" ry="3.5" fill="#00B24F"/>
<ellipse cx="286.205" cy="319.5" rx="3.38605" ry="3.5" fill="#00B24F"/>
<ellipse cx="337.48" cy="291.5" rx="3.38605" ry="3.5" fill="#00B24F"/>
<ellipse cx="388.754" cy="264.5" rx="3.38605" ry="3.5" fill="#00B24F"/>
<g filter="url(#filter2_dddddd_361_14732)">
<path d="M83 263L137 237.5L189.5 263L242 291.5L295.5 319.5L348.5 291.5L402 263" stroke="#00B24F" stroke-width="2"/>
</g>
<defs>
<filter id="filter0_d_361_14732" x="0" y="0" width="436" height="468" filterUnits="userSpaceOnUse" color-interpolation-filters="sRGB">
<feFlood flood-opacity="0" result="BackgroundImageFix"/>
<feColorMatrix in="SourceAlpha" type="matrix" values="0 0 0 0 0 0 0 0 0 0 0 0 0 0 0 0 0 0 127 0" result="hardAlpha"/>
<feOffset dy="2"/>
<feGaussianBlur stdDeviation="5"/>
<feComposite in2="hardAlpha" operator="out"/>
<feColorMatrix type="matrix" values="0 0 0 0 0 0 0 0 0 0 0 0 0 0 0 0 0 0 0.1 0"/>
<feBlend mode="normal" in2="BackgroundImageFix" result="effect1_dropShadow_361_14732"/>
<feBlend mode="normal" in="SourceGraphic" in2="effect1_dropShadow_361_14732" result="shape"/>
</filter>
<filter id="filter1_dddddd_361_14732" x="31.4381" y="161.035" width="406.394" height="207.587" filterUnits="userSpaceOnUse" color-interpolation-filters="sRGB">
<feFlood flood-opacity="0" result="BackgroundImageFix"/>
<feColorMatrix in="SourceAlpha" type="matrix" values="0 0 0 0 0 0 0 0 0 0 0 0 0 0 0 0 0 0 127 0" result="hardAlpha"/>
<feOffset/>
<feGaussianBlur stdDeviation="0.5742"/>
<feColorMatrix type="matrix" values="0 0 0 0 0.388235 0 0 0 0 0.670588 0 0 0 0 0.988235 0 0 0 1 0"/>
<feBlend mode="normal" in2="BackgroundImageFix" result="effect1_dropShadow_361_14732"/>
<feColorMatrix in="SourceAlpha" type="matrix" values="0 0 0 0 0 0 0 0 0 0 0 0 0 0 0 0 0 0 127 0" result="hardAlpha"/>
<feOffset/>
<feGaussianBlur stdDeviation="1.1484"/>
<feColorMatrix type="matrix" values="0 0 0 0 0.388235 0 0 0 0 0.670588 0 0 0 0 0.988235 0 0 0 1 0"/>
<feBlend mode="normal" in2="effect1_dropShadow_361_14732" result="effect2_dropShadow_361_14732"/>
<feColorMatrix in="SourceAlpha" type="matrix" values="0 0 0 0 0 0 0 0 0 0 0 0 0 0 0 0 0 0 127 0" result="hardAlpha"/>
<feOffset/>
<feGaussianBlur stdDeviation="4.0194"/>
<feColorMatrix type="matrix" values="0 0 0 0 0.388235 0 0 0 0 0.670588 0 0 0 0 0.988235 0 0 0 1 0"/>
<feBlend mode="normal" in2="effect2_dropShadow_361_14732" result="effect3_dropShadow_361_14732"/>
<feColorMatrix in="SourceAlpha" type="matrix" values="0 0 0 0 0 0 0 0 0 0 0 0 0 0 0 0 0 0 127 0" result="hardAlpha"/>
<feOffset/>
<feGaussianBlur stdDeviation="8.0388"/>
<feColorMatrix type="matrix" values="0 0 0 0 0.388235 0 0 0 0 0.670588 0 0 0 0 0.988235 0 0 0 1 0"/>
<feBlend mode="normal" in2="effect3_dropShadow_361_14732" result="effect4_dropShadow_361_14732"/>
<feColorMatrix in="SourceAlpha" type="matrix" values="0 0 0 0 0 0 0 0 0 0 0 0 0 0 0 0 0 0 127 0" result="hardAlpha"/>
<feOffset/>
<feGaussianBlur stdDeviation="13.7808"/>
<feColorMatrix type="matrix" values="0 0 0 0 0.388235 0 0 0 0 0.670588 0 0 0 0 0.988235 0 0 0 1 0"/>
<feBlend mode="normal" in2="effect4_dropShadow_361_14732" result="effect5_dropShadow_361_14732"/>
<feColorMatrix in="SourceAlpha" type="matrix" values="0 0 0 0 0 0 0 0 0 0 0 0 0 0 0 0 0 0 127 0" result="hardAlpha"/>
<feOffset/>
<feGaussianBlur stdDeviation="24.1164"/>
<feColorMatrix type="matrix" values="0 0 0 0 0.388235 0 0 0 0 0.670588 0 0 0 0 0.988235 0 0 0 1 0"/>
<feBlend mode="normal" in2="effect5_dropShadow_361_14732" result="effect6_dropShadow_361_14732"/>
<feBlend mode="normal" in="SourceGraphic" in2="effect6_dropShadow_361_14732" result="shape"/>
</filter>
<filter id="filter2_dddddd_361_14732" x="34.3404" y="188.158" width="416.362" height="180.704" filterUnits="userSpaceOnUse" color-interpolation-filters="sRGB">
<feFlood flood-opacity="0" result="BackgroundImageFix"/>
<feColorMatrix in="SourceAlpha" type="matrix" values="0 0 0 0 0 0 0 0 0 0 0 0 0 0 0 0 0 0 127 0" result="hardAlpha"/>
<feOffset/>
<feGaussianBlur stdDeviation="0.5742"/>
<feColorMatrix type="matrix" values="0 0 0 0 0 0 0 0 0 0.698039 0 0 0 0 0.309804 0 0 0 1 0"/>
<feBlend mode="normal" in2="BackgroundImageFix" result="effect1_dropShadow_361_14732"/>
<feColorMatrix in="SourceAlpha" type="matrix" values="0 0 0 0 0 0 0 0 0 0 0 0 0 0 0 0 0 0 127 0" result="hardAlpha"/>
<feOffset/>
<feGaussianBlur stdDeviation="1.1484"/>
<feColorMatrix type="matrix" values="0 0 0 0 0 0 0 0 0 0.698039 0 0 0 0 0.309804 0 0 0 1 0"/>
<feBlend mode="normal" in2="effect1_dropShadow_361_14732" result="effect2_dropShadow_361_14732"/>
<feColorMatrix in="SourceAlpha" type="matrix" values="0 0 0 0 0 0 0 0 0 0 0 0 0 0 0 0 0 0 127 0" result="hardAlpha"/>
<feOffset/>
<feGaussianBlur stdDeviation="4.0194"/>
<feColorMatrix type="matrix" values="0 0 0 0 0 0 0 0 0 0.698039 0 0 0 0 0.309804 0 0 0 1 0"/>
<feBlend mode="normal" in2="effect2_dropShadow_361_14732" result="effect3_dropShadow_361_14732"/>
<feColorMatrix in="SourceAlpha" type="matrix" values="0 0 0 0 0 0 0 0 0 0 0 0 0 0 0 0 0 0 127 0" result="hardAlpha"/>
<feOffset/>
<feGaussianBlur stdDeviation="8.0388"/>
<feColorMatrix type="matrix" values="0 0 0 0 0 0 0 0 0 0.698039 0 0 0 0 0.309804 0 0 0 1 0"/>
<feBlend mode="normal" in2="effect3_dropShadow_361_14732" result="effect4_dropShadow_361_14732"/>
<feColorMatrix in="SourceAlpha" type="matrix" values="0 0 0 0 0 0 0 0 0 0 0 0 0 0 0 0 0 0 127 0" result="hardAlpha"/>
<feOffset/>
<feGaussianBlur stdDeviation="13.7808"/>
<feColorMatrix type="matrix" values="0 0 0 0 0 0 0 0 0 0.698039 0 0 0 0 0.309804 0 0 0 1 0"/>
<feBlend mode="normal" in2="effect4_dropShadow_361_14732" result="effect5_dropShadow_361_14732"/>
<feColorMatrix in="SourceAlpha" type="matrix" values="0 0 0 0 0 0 0 0 0 0 0 0 0 0 0 0 0 0 127 0" result="hardAlpha"/>
<feOffset/>
<feGaussianBlur stdDeviation="24.1164"/>
<feColorMatrix type="matrix" values="0 0 0 0 0 0 0 0 0 0.698039 0 0 0 0 0.309804 0 0 0 1 0"/>
<feBlend mode="normal" in2="effect5_dropShadow_361_14732" result="effect6_dropShadow_361_14732"/>
<feBlend mode="normal" in="SourceGraphic" in2="effect6_dropShadow_361_14732" result="shape"/>
</filter>
</defs>
</svg>
