<svg width="167" height="174" viewBox="0 0 167 174" fill="none" xmlns="http://www.w3.org/2000/svg">
<g opacity="0.8">
<path d="M80.6545 87.18L86.6019 95.8149L92.5493 87.18H101.47C103.048 87.18 104.56 86.5735 105.676 85.494C106.791 84.4144 107.418 82.9502 107.418 81.4234V64.1537C107.418 62.627 106.791 61.1628 105.676 60.0832C104.56 59.0036 103.048 58.3971 101.47 58.3971H71.7334C70.1561 58.3971 68.6433 59.0036 67.528 60.0832C66.4126 61.1628 65.786 62.627 65.786 64.1537V81.4234C65.786 82.9502 66.4126 84.4144 67.528 85.494C68.6433 86.5735 70.1561 87.18 71.7334 87.18H80.6545Z" fill="white"/>
<path d="M131.207 75.6669C131.207 51.8605 111.197 32.4925 86.6019 32.4925C62.0065 32.4925 41.9965 51.8605 41.9965 75.6669C42.0124 83.2428 44.0798 90.6822 47.9926 97.2436C51.9053 103.805 57.5267 109.259 64.2962 113.062L67.2759 108.082C61.4074 104.786 56.5343 100.058 53.1422 94.3707C49.7502 88.6831 47.9578 82.2341 47.9438 75.6669C47.9438 55.0353 65.2865 38.2491 86.6019 38.2491C107.917 38.2491 125.26 55.0353 125.26 75.6669C125.26 88.9099 118.257 100.901 106.523 107.743L109.592 112.673C123.128 104.778 131.207 90.9477 131.207 75.6669ZM46.3946 11.7343L49.4931 16.6475C60.6728 10.0577 73.5124 6.57713 86.6019 6.58792C98.58 6.58792 110.424 9.51514 120.859 15.0501L123.72 10.0016C111.805 3.70454 98.3892 0.549949 84.8176 0.854067C71.246 1.15818 57.9955 4.91033 46.3946 11.7343ZM13.33 51.7195C10.6477 59.4132 9.28577 67.4695 9.28577 75.6669C9.28577 83.8643 10.6477 91.9206 13.33 99.6143L18.9652 97.7693C16.4881 90.6743 15.2332 83.2368 15.2332 75.6669C15.2332 68.097 16.4881 60.6595 18.9652 53.5616L13.33 51.7195ZM46.3946 139.599C49.3683 141.352 52.4877 142.927 55.6725 144.274L58.0544 139.001C55.1037 137.749 52.2426 136.307 49.4902 134.686L46.3946 139.599ZM126.809 139.599L123.714 134.686C120.961 136.307 118.1 137.749 115.149 139.001L117.531 144.274C120.729 142.918 123.828 141.357 126.809 139.599ZM159.874 99.6143C162.556 91.9206 163.918 83.8643 163.918 75.6669C163.918 67.4695 162.556 59.4132 159.874 51.7195L154.239 53.5645C156.716 60.6595 157.971 68.097 157.971 75.6669C157.971 83.2368 156.716 90.6743 154.239 97.7722L159.874 99.6143Z" fill="white"/>
<path d="M62.7855 173.529H110.365V144.746C110.365 138.1 105.66 132.545 99.3263 130.898C101.047 129.201 102.385 127.176 103.257 124.952C104.128 122.728 104.513 120.353 104.388 117.978C103.909 108.779 96.085 101.572 86.5751 101.572C77.0652 101.572 69.2414 108.776 68.7716 117.837C68.7409 118.171 68.728 118.506 68.7329 118.841C68.7326 123.351 70.5607 127.68 73.8239 130.898C67.487 132.545 62.7855 138.1 62.7855 144.746V173.529ZM74.7011 118.266C74.716 117.958 74.7993 117.673 74.8379 117.373C78.0793 114.607 82.2534 113.081 86.5751 113.085C91.0714 113.085 95.1751 114.708 98.3004 117.365C98.351 117.713 98.4402 118.047 98.458 118.407C98.4729 118.551 98.467 118.697 98.467 118.841C98.467 125.191 93.1321 130.355 86.5722 130.355C80.0122 130.355 74.6774 125.191 74.6774 118.841C74.6803 118.697 74.6774 118.551 74.7011 118.266ZM0.364624 26.736C0.364624 37.8434 9.70204 46.8841 21.1805 46.8841C32.659 46.8841 41.9964 37.8434 41.9964 26.736C41.9964 15.6287 32.659 6.58801 21.1805 6.58801C9.70204 6.58801 0.364624 15.6287 0.364624 26.736ZM12.2594 33.3561C12.2594 31.8294 12.886 30.3652 14.0014 29.2856C15.1167 28.206 16.6295 27.5995 18.2068 27.5995H21.1805C20.3885 27.6169 19.6009 27.4809 18.8639 27.1995C18.127 26.9182 17.4555 26.4972 16.889 25.9612C16.3224 25.4252 15.8722 24.7851 15.5648 24.0784C15.2573 23.3717 15.0989 22.6127 15.0987 21.8459C15.0985 21.0791 15.2565 20.32 15.5636 19.6131C15.8707 18.9063 16.3206 18.2659 16.8868 17.7297C17.4531 17.1934 18.1243 16.7721 18.8612 16.4904C19.598 16.2087 20.3855 16.0723 21.1775 16.0892C22.7315 16.1225 24.2102 16.7433 25.2972 17.8186C26.3842 18.894 26.9931 20.3385 26.9935 21.843C26.9938 23.3474 26.3857 24.7923 25.2993 25.8681C24.2129 26.944 22.7344 27.5655 21.1805 27.5995H24.1542C25.7316 27.5995 27.2443 28.206 28.3597 29.2856C29.475 30.3652 30.1016 31.8294 30.1016 33.3561V38.1773C27.6097 40.0021 24.5408 41.1275 21.1805 41.1275C17.8202 41.1275 14.7514 40.0021 12.2594 38.1744V33.3561ZM146.076 6.67148C134.597 6.67148 125.26 15.7122 125.26 26.8195C125.26 37.9268 134.597 46.9675 146.076 46.9675C157.554 46.9675 166.892 37.9268 166.892 26.8195C166.892 15.7122 157.554 6.67148 146.076 6.67148ZM154.997 38.2607C152.505 40.0884 149.436 41.2138 146.076 41.2138C142.716 41.2138 139.647 40.0884 137.155 38.2607V33.4396C137.155 31.9128 137.781 30.4486 138.897 29.3691C140.012 28.2895 141.525 27.683 143.102 27.683H146.076C145.284 27.7003 144.496 27.5643 143.759 27.283C143.022 27.0017 142.351 26.5806 141.784 26.0447C141.218 25.5087 140.768 24.8686 140.46 24.1619C140.153 23.4552 139.994 22.6961 139.994 21.9293C139.994 21.1625 140.152 20.4034 140.459 19.6966C140.766 18.9897 141.216 18.3494 141.782 17.8131C142.348 17.2769 143.02 16.8555 143.757 16.5738C144.493 16.2921 145.281 16.1558 146.073 16.1727C147.65 16.1723 149.163 16.7785 150.279 17.8578C151.394 18.9371 152.021 20.4011 152.022 21.9279C152.022 23.4546 151.396 24.919 150.281 25.9988C149.166 27.0786 147.653 27.6826 146.076 27.683L149.05 27.6859C150.627 27.6859 152.14 28.2924 153.255 29.3719C154.37 30.4515 154.997 31.9157 154.997 33.4425V38.2636V38.2607ZM24.1542 141.868C35.6327 141.868 44.9701 132.827 44.9701 121.72C44.9701 110.612 35.6327 101.572 24.1542 101.572C12.6757 101.572 3.33832 110.612 3.33832 121.72C3.33832 132.827 12.6757 141.868 24.1542 141.868ZM15.2331 128.34C15.2331 126.813 15.8597 125.349 16.9751 124.269C18.0904 123.19 19.6032 122.583 21.1805 122.583H24.1542C23.3622 122.6 22.5746 122.464 21.8376 122.183C21.1007 121.902 20.4292 121.481 19.8627 120.945C19.2961 120.409 18.8459 119.769 18.5385 119.062C18.231 118.355 18.0726 117.596 18.0724 116.829C18.0722 116.063 18.2302 115.304 18.5373 114.597C18.8444 113.89 19.2943 113.249 19.8605 112.713C20.4268 112.177 21.098 111.756 21.8349 111.474C22.5717 111.192 23.3592 111.056 24.1512 111.073C25.7052 111.106 27.1839 111.727 28.2709 112.802C29.3579 113.878 29.9668 115.322 29.9672 116.827C29.9675 118.331 29.3594 119.776 28.273 120.852C27.1866 121.928 25.7081 122.549 24.1542 122.583H27.1279C28.7053 122.583 30.218 123.19 31.3334 124.269C32.4487 125.349 33.0753 126.813 33.0753 128.34V133.161C30.5834 134.986 27.5145 136.111 24.1542 136.111C20.7939 136.111 17.7251 134.986 15.2331 133.158V128.34ZM146.076 141.951C157.554 141.951 166.892 132.91 166.892 121.803C166.892 110.696 157.554 101.655 146.076 101.655C134.597 101.655 125.26 110.696 125.26 121.803C125.26 132.91 134.597 141.951 146.076 141.951ZM137.155 128.423C137.155 126.896 137.781 125.432 138.897 124.353C140.012 123.273 141.525 122.667 143.102 122.667H146.076C145.284 122.684 144.496 122.548 143.759 122.267C143.022 121.985 142.351 121.564 141.784 121.028C141.218 120.492 140.768 119.852 140.46 119.145C140.153 118.439 139.994 117.68 139.994 116.913C139.994 116.146 140.152 115.387 140.459 114.68C140.766 113.973 141.216 113.333 141.782 112.797C142.348 112.26 143.02 111.839 143.757 111.557C144.493 111.276 145.281 111.139 146.073 111.156C146.854 111.156 147.627 111.305 148.349 111.594C149.071 111.883 149.726 112.307 150.279 112.841C150.831 113.376 151.269 114.01 151.568 114.709C151.868 115.407 152.022 116.155 152.022 116.911C152.022 117.667 151.868 118.416 151.57 119.115C151.271 119.813 150.833 120.448 150.281 120.982C149.729 121.517 149.073 121.941 148.352 122.231C147.63 122.52 146.857 122.669 146.076 122.669H149.05C150.627 122.669 152.14 123.276 153.255 124.356C154.37 125.435 154.997 126.899 154.997 128.426V133.247C152.505 135.075 149.436 136.2 146.076 136.2C142.716 136.2 139.647 135.075 137.155 133.247V128.426V128.423Z" fill="white"/>
</g>
</svg>
