<svg width="106" height="106" viewBox="0 0 106 106" fill="none" xmlns="http://www.w3.org/2000/svg">
<path fill-rule="evenodd" clip-rule="evenodd" d="M67.3985 51.8928L64.2344 55.0569C63.7768 55.5139 63.4139 56.0567 63.1662 56.654C62.9186 57.2514 62.7911 57.8918 62.7911 58.5384C62.7911 59.1851 62.9186 59.8255 63.1662 60.4229C63.4139 61.0202 63.7768 61.563 64.2344 62.02L66.1338 63.9145C67.0566 64.837 68.308 65.3553 69.6129 65.3553C70.9177 65.3553 72.1691 64.837 73.0919 63.9145L76.2561 60.7455L85.1137 69.603C90.4146 64.301 93.8419 57.4149 94.8756 49.989C95.9092 42.5632 94.493 35.0028 90.8416 28.4547L101.559 17.7321C102.482 16.8093 103 15.5578 103 14.253C103 12.9482 102.482 11.6967 101.559 10.7739L95.231 4.44077C94.3082 3.51824 93.0568 3 91.7519 3C90.4471 3 89.1957 3.51824 88.2729 4.44077L77.5552 15.1634C71.0059 11.5096 63.4435 10.092 56.0156 11.1257C48.5876 12.1594 41.6997 15.588 36.397 20.8913L45.2545 29.7488L42.0855 32.913C41.163 33.8358 40.6447 35.0872 40.6447 36.392C40.6447 37.6969 41.163 38.9483 42.0855 39.8711L43.9849 41.7656C44.9077 42.6882 46.1592 43.2064 47.464 43.2064C48.7689 43.2064 50.0203 42.6882 50.9431 41.7656L54.1072 38.6015L67.4034 51.8879L67.3985 51.8928ZM15.1683 77.5503L4.44077 88.2679C3.51824 89.1907 3 90.4422 3 91.747C3 93.0518 3.51824 94.3033 4.44077 95.2261L10.769 101.554C11.6918 102.477 12.9432 102.995 14.2481 102.995C15.5529 102.995 16.8043 102.477 17.7271 101.554L28.4448 90.8366C34.9941 94.4904 42.5565 95.908 49.9844 94.8743C57.4124 93.8406 64.3003 90.4119 69.603 85.1087L20.8863 36.392C15.5836 41.6963 12.1561 48.5857 11.1241 56.0147C10.0922 63.4436 11.512 71.0015 15.1683 77.5503Z" stroke="#D5D5D5" stroke-width="6"/>
</svg>
