<svg width="100" height="100" viewBox="0 0 100 100" fill="none" xmlns="http://www.w3.org/2000/svg">
<rect width="100" height="100" rx="10" fill="#27292D"/>
<path d="M37.6173 33.0528C36.8681 32.3417 36.8681 31.1856 37.6173 30.4744L49.1436 19.5334C49.8928 18.8222 51.1109 18.8222 51.8601 19.5334L63.3864 30.4744C64.1356 31.1856 64.1356 32.3417 63.3864 33.0528C63.0099 33.4102 62.5181 33.5853 62.0263 33.5853C61.5345 33.5853 61.0427 33.4066 60.6662 33.0528L52.4211 25.2264V46.3535C52.4211 47.36 51.5604 48.177 50.5 48.177C49.4396 48.177 48.5789 47.36 48.5789 46.3535V25.2264L40.3338 33.0528C39.5846 33.7676 38.3665 33.7676 37.6173 33.0528ZM69.7105 44.53C68.6501 44.53 67.7895 45.3469 67.7895 46.3535C67.7895 47.36 68.6501 48.177 69.7105 48.177C77.1258 48.177 83.1579 53.9028 83.1579 60.9415V64.5885C83.1579 71.6272 77.1258 77.353 69.7105 77.353H31.2895C23.8742 77.353 17.8421 71.6272 17.8421 64.5885V60.9415C17.8421 53.9028 23.8742 48.177 31.2895 48.177C32.3499 48.177 33.2105 47.36 33.2105 46.3535C33.2105 45.3469 32.3499 44.53 31.2895 44.53C21.7572 44.53 14 51.8933 14 60.9415V64.5885C14 73.6367 21.7572 81 31.2895 81H69.7105C79.2428 81 87 73.6367 87 64.5885V60.9415C87 51.8896 79.2466 44.53 69.7105 44.53ZM69.7105 64.5885C71.8314 64.5885 73.5526 62.9546 73.5526 60.9415C73.5526 58.9283 71.8314 57.2945 69.7105 57.2945C67.5897 57.2945 65.8684 58.9283 65.8684 60.9415C65.8684 62.9546 67.5897 64.5885 69.7105 64.5885Z" fill="#656565"/>
</svg>
