<svg width="100" height="100" viewBox="0 0 100 100" fill="none" xmlns="http://www.w3.org/2000/svg">
<path d="M78.125 56.25C71.875 56.25 66.875 58.75 63.125 62.5L43.125 51.875C43.75 50 43.75 48.75 43.75 46.875V44.375L61.875 36.25C65.625 40.625 71.25 43.75 78.125 43.75C90 43.75 100 33.75 100 21.875C100 10 90 0 78.125 0C66.25 0 56.25 10 56.25 21.875V24.375L38.125 32.5C34.375 28.125 28.75 25 21.875 25C10 25 0 35 0 46.875C0 58.75 10 68.75 21.875 68.75C28.125 68.75 33.125 66.25 36.875 62.5L56.25 73.125V78.125C56.25 90 66.25 100 78.125 100C90 100 100 90 100 78.125C100 66.25 90 56.25 78.125 56.25ZM78.125 6.25C86.875 6.25 93.75 13.125 93.75 21.875C93.75 30.625 86.875 37.5 78.125 37.5C69.375 37.5 62.5 30.625 62.5 21.875C62.5 13.125 69.375 6.25 78.125 6.25ZM21.875 62.5C13.125 62.5 6.25 55.625 6.25 46.875C6.25 38.125 13.125 31.25 21.875 31.25C30.625 31.25 37.5 38.125 37.5 46.875C37.5 55.625 30.625 62.5 21.875 62.5ZM78.125 93.75C69.375 93.75 62.5 86.875 62.5 78.125C62.5 69.375 69.375 62.5 78.125 62.5C86.875 62.5 93.75 69.375 93.75 78.125C93.75 86.875 86.875 93.75 78.125 93.75Z" fill="#D5D5D5"/>
</svg>
