<svg width="179" height="179" viewBox="0 0 179 179" fill="none" xmlns="http://www.w3.org/2000/svg">
<path d="M7.56976 0.444458H0.445312V7.5689H7.56976V0.444458Z" fill="black"/>
<path d="M14.6942 0.444458H7.56976V7.5689H14.6942V0.444458Z" fill="black"/>
<path d="M21.8186 0.444458H14.6942V7.5689H21.8186V0.444458Z" fill="black"/>
<path d="M28.9431 0.444458H21.8186V7.5689H28.9431V0.444458Z" fill="black"/>
<path d="M36.0675 0.444458H28.9431V7.5689H36.0675V0.444458Z" fill="black"/>
<path d="M43.192 0.444458H36.0675V7.5689H43.192V0.444458Z" fill="black"/>
<path d="M50.3164 0.444458H43.192V7.5689H50.3164V0.444458Z" fill="black"/>
<path d="M64.5653 0.444458H57.4409V7.5689H64.5653V0.444458Z" fill="black"/>
<path d="M71.6898 0.444458H64.5653V7.5689H71.6898V0.444458Z" fill="black"/>
<path d="M100.188 0.444458H93.0631V7.5689H100.188V0.444458Z" fill="black"/>
<path d="M121.561 0.444458H114.436V7.5689H121.561V0.444458Z" fill="black"/>
<path d="M135.81 0.444458H128.685V7.5689H135.81V0.444458Z" fill="black"/>
<path d="M142.934 0.444458H135.81V7.5689H142.934V0.444458Z" fill="black"/>
<path d="M150.059 0.444458H142.934V7.5689H150.059V0.444458Z" fill="black"/>
<path d="M157.183 0.444458H150.059V7.5689H157.183V0.444458Z" fill="black"/>
<path d="M164.308 0.444458H157.183V7.5689H164.308V0.444458Z" fill="black"/>
<path d="M171.432 0.444458H164.308V7.5689H171.432V0.444458Z" fill="black"/>
<path d="M178.556 0.444458H171.432V7.5689H178.556V0.444458Z" fill="black"/>
<path d="M7.56976 7.5689H0.445312V14.6933H7.56976V7.5689Z" fill="black"/>
<path d="M50.3164 7.5689H43.192V14.6933H50.3164V7.5689Z" fill="black"/>
<path d="M93.0631 7.5689H85.9386V14.6933H93.0631V7.5689Z" fill="black"/>
<path d="M100.188 7.5689H93.0631V14.6933H100.188V7.5689Z" fill="black"/>
<path d="M121.561 7.5689H114.436V14.6933H121.561V7.5689Z" fill="black"/>
<path d="M135.81 7.5689H128.685V14.6933H135.81V7.5689Z" fill="black"/>
<path d="M178.556 7.5689H171.432V14.6933H178.556V7.5689Z" fill="black"/>
<path d="M7.56976 14.6933H0.445312V21.8178H7.56976V14.6933Z" fill="black"/>
<path d="M21.8186 14.6933H14.6942V21.8178H21.8186V14.6933Z" fill="black"/>
<path d="M28.9431 14.6933H21.8186V21.8178H28.9431V14.6933Z" fill="black"/>
<path d="M36.0675 14.6933H28.9431V21.8178H36.0675V14.6933Z" fill="black"/>
<path d="M50.3164 14.6933H43.192V21.8178H50.3164V14.6933Z" fill="black"/>
<path d="M71.6898 14.6933H64.5653V21.8178H71.6898V14.6933Z" fill="black"/>
<path d="M78.8142 14.6933H71.6898V21.8178H78.8142V14.6933Z" fill="black"/>
<path d="M85.9386 14.6933H78.8142V21.8178H85.9386V14.6933Z" fill="black"/>
<path d="M93.0631 14.6933H85.9386V21.8178H93.0631V14.6933Z" fill="black"/>
<path d="M100.188 14.6933H93.0631V21.8178H100.188V14.6933Z" fill="black"/>
<path d="M121.561 14.6933H114.436V21.8178H121.561V14.6933Z" fill="black"/>
<path d="M135.81 14.6933H128.685V21.8178H135.81V14.6933Z" fill="black"/>
<path d="M150.059 14.6933H142.934V21.8178H150.059V14.6933Z" fill="black"/>
<path d="M157.183 14.6933H150.059V21.8178H157.183V14.6933Z" fill="black"/>
<path d="M164.308 14.6933H157.183V21.8178H164.308V14.6933Z" fill="black"/>
<path d="M178.556 14.6933H171.432V21.8178H178.556V14.6933Z" fill="black"/>
<path d="M7.56976 21.8178H0.445312V28.9422H7.56976V21.8178Z" fill="black"/>
<path d="M21.8186 21.8178H14.6942V28.9422H21.8186V21.8178Z" fill="black"/>
<path d="M28.9431 21.8178H21.8186V28.9422H28.9431V21.8178Z" fill="black"/>
<path d="M36.0675 21.8178H28.9431V28.9422H36.0675V21.8178Z" fill="black"/>
<path d="M50.3164 21.8178H43.192V28.9422H50.3164V21.8178Z" fill="black"/>
<path d="M71.6898 21.8178H64.5653V28.9422H71.6898V21.8178Z" fill="black"/>
<path d="M78.8142 21.8178H71.6898V28.9422H78.8142V21.8178Z" fill="black"/>
<path d="M100.188 21.8178H93.0631V28.9422H100.188V21.8178Z" fill="black"/>
<path d="M135.81 21.8178H128.685V28.9422H135.81V21.8178Z" fill="black"/>
<path d="M150.059 21.8178H142.934V28.9422H150.059V21.8178Z" fill="black"/>
<path d="M157.183 21.8178H150.059V28.9422H157.183V21.8178Z" fill="black"/>
<path d="M164.308 21.8178H157.183V28.9422H164.308V21.8178Z" fill="black"/>
<path d="M178.556 21.8178H171.432V28.9422H178.556V21.8178Z" fill="black"/>
<path d="M7.56976 28.9422H0.445312V36.0667H7.56976V28.9422Z" fill="black"/>
<path d="M21.8186 28.9422H14.6942V36.0667H21.8186V28.9422Z" fill="black"/>
<path d="M28.9431 28.9422H21.8186V36.0667H28.9431V28.9422Z" fill="black"/>
<path d="M36.0675 28.9422H28.9431V36.0667H36.0675V28.9422Z" fill="black"/>
<path d="M50.3164 28.9422H43.192V36.0667H50.3164V28.9422Z" fill="black"/>
<path d="M64.5653 28.9422H57.4409V36.0667H64.5653V28.9422Z" fill="black"/>
<path d="M78.8142 28.9422H71.6898V36.0667H78.8142V28.9422Z" fill="black"/>
<path d="M85.9386 28.9422H78.8142V36.0667H85.9386V28.9422Z" fill="black"/>
<path d="M93.0631 28.9422H85.9386V36.0667H93.0631V28.9422Z" fill="black"/>
<path d="M107.312 28.9422H100.188V36.0667H107.312V28.9422Z" fill="black"/>
<path d="M135.81 28.9422H128.685V36.0667H135.81V28.9422Z" fill="black"/>
<path d="M150.059 28.9422H142.934V36.0667H150.059V28.9422Z" fill="black"/>
<path d="M157.183 28.9422H150.059V36.0667H157.183V28.9422Z" fill="black"/>
<path d="M164.308 28.9422H157.183V36.0667H164.308V28.9422Z" fill="black"/>
<path d="M178.556 28.9422H171.432V36.0667H178.556V28.9422Z" fill="black"/>
<path d="M7.56976 36.0667H0.445312V43.1911H7.56976V36.0667Z" fill="black"/>
<path d="M50.3164 36.0667H43.192V43.1911H50.3164V36.0667Z" fill="black"/>
<path d="M107.312 36.0667H100.188V43.1911H107.312V36.0667Z" fill="black"/>
<path d="M135.81 36.0667H128.685V43.1911H135.81V36.0667Z" fill="black"/>
<path d="M178.556 36.0667H171.432V43.1911H178.556V36.0667Z" fill="black"/>
<path d="M7.56976 43.1911H0.445312V50.3156H7.56976V43.1911Z" fill="black"/>
<path d="M14.6942 43.1911H7.56976V50.3156H14.6942V43.1911Z" fill="black"/>
<path d="M21.8186 43.1911H14.6942V50.3156H21.8186V43.1911Z" fill="black"/>
<path d="M28.9431 43.1911H21.8186V50.3156H28.9431V43.1911Z" fill="black"/>
<path d="M36.0675 43.1911H28.9431V50.3156H36.0675V43.1911Z" fill="black"/>
<path d="M43.192 43.1911H36.0675V50.3156H43.192V43.1911Z" fill="black"/>
<path d="M50.3164 43.1911H43.192V50.3156H50.3164V43.1911Z" fill="black"/>
<path d="M64.5653 43.1911H57.4409V50.3156H64.5653V43.1911Z" fill="black"/>
<path d="M78.8142 43.1911H71.6898V50.3156H78.8142V43.1911Z" fill="black"/>
<path d="M93.0631 43.1911H85.9386V50.3156H93.0631V43.1911Z" fill="black"/>
<path d="M107.312 43.1911H100.188V50.3156H107.312V43.1911Z" fill="black"/>
<path d="M121.561 43.1911H114.436V50.3156H121.561V43.1911Z" fill="black"/>
<path d="M135.81 43.1911H128.685V50.3156H135.81V43.1911Z" fill="black"/>
<path d="M142.934 43.1911H135.81V50.3156H142.934V43.1911Z" fill="black"/>
<path d="M150.059 43.1911H142.934V50.3156H150.059V43.1911Z" fill="black"/>
<path d="M157.183 43.1911H150.059V50.3156H157.183V43.1911Z" fill="black"/>
<path d="M164.308 43.1911H157.183V50.3156H164.308V43.1911Z" fill="black"/>
<path d="M171.432 43.1911H164.308V50.3156H171.432V43.1911Z" fill="black"/>
<path d="M178.556 43.1911H171.432V50.3156H178.556V43.1911Z" fill="black"/>
<path d="M64.5653 50.3156H57.4409V57.44H64.5653V50.3156Z" fill="black"/>
<path d="M78.8142 50.3156H71.6898V57.44H78.8142V50.3156Z" fill="black"/>
<path d="M93.0631 50.3156H85.9386V57.44H93.0631V50.3156Z" fill="black"/>
<path d="M100.188 50.3156H93.0631V57.44H100.188V50.3156Z" fill="black"/>
<path d="M114.436 50.3156H107.312L107.312 57.44H114.436V50.3156Z" fill="black"/>
<path d="M121.561 50.3156H114.436V57.44H121.561V50.3156Z" fill="black"/>
<path d="M7.56976 57.44H0.445312V64.5645H7.56976V57.44Z" fill="black"/>
<path d="M28.9431 57.44H21.8186V64.5645H28.9431V57.44Z" fill="black"/>
<path d="M36.0675 57.44H28.9431V64.5645H36.0675V57.44Z" fill="black"/>
<path d="M43.192 57.44H36.0675V64.5645H43.192V57.44Z" fill="black"/>
<path d="M50.3164 57.44H43.192V64.5645H50.3164V57.44Z" fill="black"/>
<path d="M57.4409 57.44H50.3164V64.5645H57.4409V57.44Z" fill="black"/>
<path d="M64.5653 57.44H57.4409V64.5645H64.5653V57.44Z" fill="black"/>
<path d="M71.6898 57.44H64.5653V64.5645H71.6898V57.44Z" fill="black"/>
<path d="M100.188 57.44H93.0631V64.5645H100.188V57.44Z" fill="black"/>
<path d="M121.561 57.44H114.436V64.5645H121.561V57.44Z" fill="black"/>
<path d="M128.685 57.44H121.561V64.5645H128.685V57.44Z" fill="black"/>
<path d="M135.81 57.44H128.685V64.5645H135.81V57.44Z" fill="black"/>
<path d="M150.059 57.44H142.934V64.5645H150.059V57.44Z" fill="black"/>
<path d="M178.556 57.44H171.432V64.5645H178.556V57.44Z" fill="black"/>
<path d="M14.6942 64.5645H7.56976V71.6889H14.6942V64.5645Z" fill="black"/>
<path d="M28.9431 64.5645H21.8186V71.6889H28.9431V64.5645Z" fill="black"/>
<path d="M36.0675 64.5645H28.9431V71.6889H36.0675V64.5645Z" fill="black"/>
<path d="M57.4409 64.5645H50.3164V71.6889H57.4409V64.5645Z" fill="black"/>
<path d="M64.5653 64.5645H57.4409V71.6889H64.5653V64.5645Z" fill="black"/>
<path d="M93.0631 64.5645H85.9386V71.6889H93.0631V64.5645Z" fill="black"/>
<path d="M114.436 64.5645H107.312V71.6889H114.436V64.5645Z" fill="black"/>
<path d="M128.685 64.5645H121.561V71.6889H128.685V64.5645Z" fill="black"/>
<path d="M135.81 64.5645H128.685V71.6889H135.81V64.5645Z" fill="black"/>
<path d="M150.059 64.5645H142.934V71.6889H150.059V64.5645Z" fill="black"/>
<path d="M157.183 64.5645H150.059V71.6889H157.183V64.5645Z" fill="black"/>
<path d="M164.308 64.5645H157.183V71.6889H164.308V64.5645Z" fill="black"/>
<path d="M171.432 64.5645H164.308V71.6889H171.432V64.5645Z" fill="black"/>
<path d="M178.556 64.5645H171.432V71.6889H178.556V64.5645Z" fill="black"/>
<path d="M7.56976 71.6889H0.445312V78.8133H7.56976V71.6889Z" fill="black"/>
<path d="M14.6942 71.6889H7.56976V78.8133H14.6942V71.6889Z" fill="black"/>
<path d="M28.9431 71.6889H21.8186V78.8133H28.9431V71.6889Z" fill="black"/>
<path d="M36.0675 71.6889H28.9431V78.8133H36.0675V71.6889Z" fill="black"/>
<path d="M43.192 71.6889H36.0675V78.8133H43.192V71.6889Z" fill="black"/>
<path d="M50.3164 71.6889H43.192V78.8133H50.3164V71.6889Z" fill="black"/>
<path d="M57.4409 71.6889H50.3164V78.8133H57.4409V71.6889Z" fill="black"/>
<path d="M71.6898 71.6889H64.5653V78.8133H71.6898V71.6889Z" fill="black"/>
<path d="M85.9386 71.6889H78.8142V78.8133H85.9386V71.6889Z" fill="black"/>
<path d="M93.0631 71.6889H85.9386V78.8133H93.0631V71.6889Z" fill="black"/>
<path d="M107.312 71.6889H100.188V78.8133H107.312L107.312 71.6889Z" fill="black"/>
<path d="M121.561 71.6889H114.436V78.8133H121.561V71.6889Z" fill="black"/>
<path d="M128.685 71.6889H121.561V78.8133H128.685V71.6889Z" fill="black"/>
<path d="M135.81 71.6889H128.685V78.8133H135.81V71.6889Z" fill="black"/>
<path d="M142.934 71.6889H135.81V78.8133H142.934V71.6889Z" fill="black"/>
<path d="M150.059 71.6889H142.934V78.8133H150.059V71.6889Z" fill="black"/>
<path d="M157.183 71.6889H150.059V78.8133H157.183V71.6889Z" fill="black"/>
<path d="M164.308 71.6889H157.183V78.8133H164.308V71.6889Z" fill="black"/>
<path d="M171.432 71.6889H164.308V78.8133H171.432V71.6889Z" fill="black"/>
<path d="M7.56976 78.8133H0.445312V85.9378H7.56976V78.8133Z" fill="black"/>
<path d="M36.0675 78.8133H28.9431V85.9378H36.0675V78.8133Z" fill="black"/>
<path d="M43.192 78.8133H36.0675V85.9378H43.192V78.8133Z" fill="black"/>
<path d="M57.4409 78.8133H50.3164V85.9378H57.4409V78.8133Z" fill="black"/>
<path d="M71.6898 78.8133H64.5653V85.9378H71.6898V78.8133Z" fill="black"/>
<path d="M78.8142 78.8133H71.6898V85.9378H78.8142V78.8133Z" fill="black"/>
<path d="M107.312 78.8133H100.188V85.9378H107.312V78.8133Z" fill="black"/>
<path d="M114.436 78.8133H107.312V85.9378H114.436V78.8133Z" fill="black"/>
<path d="M150.059 78.8133H142.934V85.9378H150.059V78.8133Z" fill="black"/>
<path d="M164.308 78.8133H157.183V85.9378H164.308V78.8133Z" fill="black"/>
<path d="M171.432 78.8133H164.308V85.9378H171.432V78.8133Z" fill="black"/>
<path d="M7.56976 85.9378H0.445312V93.0622H7.56976V85.9378Z" fill="black"/>
<path d="M28.9431 85.9378H21.8186V93.0622H28.9431V85.9378Z" fill="black"/>
<path d="M36.0675 85.9378H28.9431V93.0622H36.0675V85.9378Z" fill="black"/>
<path d="M43.192 85.9378H36.0675V93.0622H43.192V85.9378Z" fill="black"/>
<path d="M50.3164 85.9378H43.192V93.0622H50.3164V85.9378Z" fill="black"/>
<path d="M57.4409 85.9378H50.3164V93.0622H57.4409V85.9378Z" fill="black"/>
<path d="M64.5653 85.9378H57.4409V93.0622H64.5653V85.9378Z" fill="black"/>
<path d="M78.8142 85.9378H71.6898V93.0622H78.8142V85.9378Z" fill="black"/>
<path d="M85.9386 85.9378H78.8142V93.0622H85.9386V85.9378Z" fill="black"/>
<path d="M100.188 85.9378H93.0631V93.0622H100.188V85.9378Z" fill="black"/>
<path d="M107.312 85.9378H100.188V93.0622H107.312V85.9378Z" fill="black"/>
<path d="M121.561 85.9378H114.436V93.0622H121.561V85.9378Z" fill="black"/>
<path d="M142.934 85.9378H135.81V93.0622H142.934V85.9378Z" fill="black"/>
<path d="M157.183 85.9378H150.059V93.0622H157.183V85.9378Z" fill="black"/>
<path d="M164.308 85.9378H157.183V93.0622H164.308V85.9378Z" fill="black"/>
<path d="M178.556 85.9378H171.432V93.0622H178.556V85.9378Z" fill="black"/>
<path d="M7.56976 93.0622H0.445312V100.187H7.56976V93.0622Z" fill="black"/>
<path d="M14.6942 93.0622H7.56976V100.187H14.6942V93.0622Z" fill="black"/>
<path d="M57.4409 93.0622H50.3164V100.187H57.4409V93.0622Z" fill="black"/>
<path d="M64.5653 93.0622H57.4409V100.187H64.5653V93.0622Z" fill="black"/>
<path d="M71.6898 93.0622H64.5653V100.187H71.6898V93.0622Z" fill="black"/>
<path d="M93.0631 93.0622H85.9386V100.187H93.0631V93.0622Z" fill="black"/>
<path d="M107.312 93.0622H100.188V100.187H107.312V93.0622Z" fill="black"/>
<path d="M114.436 93.0622H107.312V100.187H114.436V93.0622Z" fill="black"/>
<path d="M121.561 93.0622H114.436V100.187H121.561V93.0622Z" fill="black"/>
<path d="M128.685 93.0622H121.561V100.187H128.685V93.0622Z" fill="black"/>
<path d="M150.059 93.0622H142.934V100.187H150.059V93.0622Z" fill="black"/>
<path d="M164.308 93.0622H157.183V100.187H164.308V93.0622Z" fill="black"/>
<path d="M171.432 93.0622H164.308V100.187H171.432V93.0622Z" fill="black"/>
<path d="M178.556 93.0622H171.432V100.187H178.556V93.0622Z" fill="black"/>
<path d="M7.56976 100.187H0.445312V107.311H7.56976V100.187Z" fill="black"/>
<path d="M14.6942 100.187H7.56976V107.311H14.6942V100.187Z" fill="black"/>
<path d="M21.8186 100.187H14.6942V107.311H21.8186V100.187Z" fill="black"/>
<path d="M50.3164 100.187H43.192V107.311H50.3164V100.187Z" fill="black"/>
<path d="M71.6898 100.187H64.5653V107.311H71.6898V100.187Z" fill="black"/>
<path d="M85.9386 100.187H78.8142V107.311H85.9386V100.187Z" fill="black"/>
<path d="M93.0631 100.187H85.9386V107.311H93.0631V100.187Z" fill="black"/>
<path d="M107.312 100.187H100.188V107.311H107.312V100.187Z" fill="black"/>
<path d="M128.685 100.187H121.561V107.311H128.685V100.187Z" fill="black"/>
<path d="M142.934 100.187H135.81V107.311H142.934V100.187Z" fill="black"/>
<path d="M150.059 100.187H142.934V107.311H150.059V100.187Z" fill="black"/>
<path d="M164.308 100.187H157.183V107.311H164.308V100.187Z" fill="black"/>
<path d="M14.6942 107.311H7.56976V114.436H14.6942V107.311Z" fill="black"/>
<path d="M57.4409 107.311L50.3164 107.311V114.436H57.4409V107.311Z" fill="black"/>
<path d="M93.0631 107.311H85.9386V114.436H93.0631V107.311Z" fill="black"/>
<path d="M107.312 107.311H100.188V114.436H107.312V107.311Z" fill="black"/>
<path d="M114.436 107.311L107.312 107.311V114.436H114.436V107.311Z" fill="black"/>
<path d="M135.81 107.311H128.685V114.436H135.81V107.311Z" fill="black"/>
<path d="M150.059 107.311H142.934V114.436H150.059V107.311Z" fill="black"/>
<path d="M171.432 107.311L164.308 107.311V114.436H171.432V107.311Z" fill="black"/>
<path d="M7.56976 114.436H0.445312V121.56H7.56976V114.436Z" fill="black"/>
<path d="M43.192 114.436H36.0675V121.56H43.192V114.436Z" fill="black"/>
<path d="M50.3164 114.436H43.192V121.56H50.3164V114.436Z" fill="black"/>
<path d="M57.4409 114.436H50.3164V121.56H57.4409V114.436Z" fill="black"/>
<path d="M71.6898 114.436H64.5653V121.56H71.6898V114.436Z" fill="black"/>
<path d="M78.8142 114.436H71.6898V121.56H78.8142V114.436Z" fill="black"/>
<path d="M93.0631 114.436H85.9386V121.56H93.0631V114.436Z" fill="black"/>
<path d="M114.436 114.436H107.312L107.312 121.56H114.436V114.436Z" fill="black"/>
<path d="M121.561 114.436H114.436V121.56H121.561V114.436Z" fill="black"/>
<path d="M128.685 114.436H121.561V121.56H128.685V114.436Z" fill="black"/>
<path d="M135.81 114.436H128.685V121.56H135.81V114.436Z" fill="black"/>
<path d="M142.934 114.436H135.81V121.56H142.934V114.436Z" fill="black"/>
<path d="M150.059 114.436H142.934V121.56H150.059V114.436Z" fill="black"/>
<path d="M157.183 114.436H150.059V121.56H157.183V114.436Z" fill="black"/>
<path d="M171.432 114.436H164.308V121.56H171.432V114.436Z" fill="black"/>
<path d="M64.5653 121.56H57.4409V128.684H64.5653V121.56Z" fill="black"/>
<path d="M78.8142 121.56H71.6898V128.684H78.8142V121.56Z" fill="black"/>
<path d="M93.0631 121.56H85.9386V128.684H93.0631V121.56Z" fill="black"/>
<path d="M114.436 121.56H107.312V128.684H114.436V121.56Z" fill="black"/>
<path d="M121.561 121.56H114.436V128.684H121.561V121.56Z" fill="black"/>
<path d="M150.059 121.56H142.934V128.684H150.059V121.56Z" fill="black"/>
<path d="M157.183 121.56H150.059V128.684H157.183V121.56Z" fill="black"/>
<path d="M164.308 121.56H157.183V128.684H164.308V121.56Z" fill="black"/>
<path d="M7.56976 128.684H0.445312V135.809H7.56976V128.684Z" fill="black"/>
<path d="M14.6942 128.684H7.56976V135.809H14.6942V128.684Z" fill="black"/>
<path d="M21.8186 128.684H14.6942V135.809H21.8186V128.684Z" fill="black"/>
<path d="M28.9431 128.684H21.8186V135.809H28.9431V128.684Z" fill="black"/>
<path d="M36.0675 128.684H28.9431V135.809H36.0675V128.684Z" fill="black"/>
<path d="M43.192 128.684H36.0675V135.809H43.192V128.684Z" fill="black"/>
<path d="M50.3164 128.684H43.192V135.809H50.3164V128.684Z" fill="black"/>
<path d="M64.5653 128.684H57.4409V135.809H64.5653V128.684Z" fill="black"/>
<path d="M93.0631 128.684H85.9386V135.809H93.0631V128.684Z" fill="black"/>
<path d="M114.436 128.684H107.312V135.809H114.436V128.684Z" fill="black"/>
<path d="M121.561 128.684H114.436V135.809H121.561V128.684Z" fill="black"/>
<path d="M135.81 128.684H128.685V135.809H135.81V128.684Z" fill="black"/>
<path d="M150.059 128.684H142.934V135.809H150.059V128.684Z" fill="black"/>
<path d="M157.183 128.684H150.059V135.809H157.183V128.684Z" fill="black"/>
<path d="M164.308 128.684H157.183V135.809H164.308V128.684Z" fill="black"/>
<path d="M178.556 128.684H171.432V135.809H178.556V128.684Z" fill="black"/>
<path d="M7.56976 135.809H0.445312V142.933H7.56976V135.809Z" fill="black"/>
<path d="M50.3164 135.809H43.192V142.933H50.3164V135.809Z" fill="black"/>
<path d="M64.5653 135.809H57.4409V142.933H64.5653V135.809Z" fill="black"/>
<path d="M78.8142 135.809H71.6898V142.933H78.8142V135.809Z" fill="black"/>
<path d="M107.312 135.809H100.188V142.933H107.312L107.312 135.809Z" fill="black"/>
<path d="M121.561 135.809H114.436V142.933H121.561V135.809Z" fill="black"/>
<path d="M150.059 135.809H142.934V142.933H150.059V135.809Z" fill="black"/>
<path d="M164.308 135.809H157.183V142.933H164.308V135.809Z" fill="black"/>
<path d="M7.56976 142.933H0.445312V150.058H7.56976V142.933Z" fill="black"/>
<path d="M21.8186 142.933H14.6942V150.058H21.8186V142.933Z" fill="black"/>
<path d="M28.9431 142.933H21.8186V150.058H28.9431V142.933Z" fill="black"/>
<path d="M36.0675 142.933H28.9431V150.058H36.0675V142.933Z" fill="black"/>
<path d="M50.3164 142.933H43.192V150.058H50.3164V142.933Z" fill="black"/>
<path d="M64.5653 142.933H57.4409V150.058H64.5653V142.933Z" fill="black"/>
<path d="M71.6898 142.933H64.5653V150.058H71.6898V142.933Z" fill="black"/>
<path d="M78.8142 142.933H71.6898V150.058H78.8142V142.933Z" fill="black"/>
<path d="M100.188 142.933H93.0631V150.058H100.188V142.933Z" fill="black"/>
<path d="M107.312 142.933H100.188V150.058H107.312V142.933Z" fill="black"/>
<path d="M121.561 142.933H114.436V150.058H121.561V142.933Z" fill="black"/>
<path d="M128.685 142.933H121.561V150.058H128.685V142.933Z" fill="black"/>
<path d="M135.81 142.933H128.685V150.058H135.81V142.933Z" fill="black"/>
<path d="M142.934 142.933H135.81V150.058H142.934V142.933Z" fill="black"/>
<path d="M150.059 142.933H142.934V150.058H150.059V142.933Z" fill="black"/>
<path d="M178.556 142.933H171.432V150.058H178.556V142.933Z" fill="black"/>
<path d="M7.56976 150.058H0.445312V157.182H7.56976V150.058Z" fill="black"/>
<path d="M21.8186 150.058H14.6942V157.182H21.8186V150.058Z" fill="black"/>
<path d="M28.9431 150.058H21.8186V157.182H28.9431V150.058Z" fill="black"/>
<path d="M36.0675 150.058H28.9431V157.182H36.0675V150.058Z" fill="black"/>
<path d="M50.3164 150.058H43.192V157.182H50.3164V150.058Z" fill="black"/>
<path d="M64.5653 150.058H57.4409V157.182H64.5653V150.058Z" fill="black"/>
<path d="M93.0631 150.058H85.9386V157.182H93.0631V150.058Z" fill="black"/>
<path d="M121.561 150.058H114.436V157.182H121.561V150.058Z" fill="black"/>
<path d="M128.685 150.058H121.561V157.182H128.685V150.058Z" fill="black"/>
<path d="M157.183 150.058H150.059V157.182H157.183V150.058Z" fill="black"/>
<path d="M7.56976 157.182H0.445312V164.307H7.56976V157.182Z" fill="black"/>
<path d="M21.8186 157.182H14.6942V164.307H21.8186V157.182Z" fill="black"/>
<path d="M28.9431 157.182H21.8186V164.307H28.9431V157.182Z" fill="black"/>
<path d="M36.0675 157.182H28.9431V164.307H36.0675V157.182Z" fill="black"/>
<path d="M50.3164 157.182H43.192V164.307H50.3164V157.182Z" fill="black"/>
<path d="M85.9386 157.182H78.8142V164.307H85.9386V157.182Z" fill="black"/>
<path d="M93.0631 157.182H85.9386V164.307H93.0631V157.182Z" fill="black"/>
<path d="M107.312 157.182H100.188V164.307H107.312V157.182Z" fill="black"/>
<path d="M114.436 157.182H107.312V164.307H114.436V157.182Z" fill="black"/>
<path d="M121.561 157.182H114.436V164.307H121.561V157.182Z" fill="black"/>
<path d="M142.934 157.182H135.81V164.307H142.934V157.182Z" fill="black"/>
<path d="M150.059 157.182H142.934V164.307H150.059V157.182Z" fill="black"/>
<path d="M164.308 157.182H157.183V164.307H164.308V157.182Z" fill="black"/>
<path d="M171.432 157.182H164.308V164.307H171.432V157.182Z" fill="black"/>
<path d="M178.556 157.182H171.432V164.307H178.556V157.182Z" fill="black"/>
<path d="M7.56976 164.307H0.445312V171.431H7.56976V164.307Z" fill="black"/>
<path d="M50.3164 164.307H43.192V171.431H50.3164V164.307Z" fill="black"/>
<path d="M71.6898 164.307H64.5653V171.431H71.6898V164.307Z" fill="black"/>
<path d="M78.8142 164.307H71.6898V171.431H78.8142V164.307Z" fill="black"/>
<path d="M85.9386 164.307H78.8142V171.431H85.9386V164.307Z" fill="black"/>
<path d="M100.188 164.307H93.0631V171.431H100.188V164.307Z" fill="black"/>
<path d="M107.312 164.307H100.188V171.431H107.312V164.307Z" fill="black"/>
<path d="M128.685 164.307H121.561V171.431H128.685V164.307Z" fill="black"/>
<path d="M135.81 164.307H128.685V171.431H135.81V164.307Z" fill="black"/>
<path d="M142.934 164.307H135.81V171.431H142.934V164.307Z" fill="black"/>
<path d="M150.059 164.307H142.934V171.431H150.059V164.307Z" fill="black"/>
<path d="M164.308 164.307H157.183V171.431H164.308V164.307Z" fill="black"/>
<path d="M171.432 164.307H164.308V171.431H171.432V164.307Z" fill="black"/>
<path d="M178.556 164.307H171.432V171.431H178.556V164.307Z" fill="black"/>
<path d="M7.56976 171.431H0.445312V178.556H7.56976V171.431Z" fill="black"/>
<path d="M14.6942 171.431H7.56976V178.556H14.6942V171.431Z" fill="black"/>
<path d="M21.8186 171.431H14.6942V178.556H21.8186V171.431Z" fill="black"/>
<path d="M28.9431 171.431H21.8186V178.556H28.9431V171.431Z" fill="black"/>
<path d="M36.0675 171.431H28.9431V178.556H36.0675V171.431Z" fill="black"/>
<path d="M43.192 171.431H36.0675V178.556H43.192V171.431Z" fill="black"/>
<path d="M50.3164 171.431H43.192V178.556H50.3164V171.431Z" fill="black"/>
<path d="M64.5653 171.431H57.4409V178.556H64.5653V171.431Z" fill="black"/>
<path d="M85.9386 171.431H78.8142V178.556H85.9386V171.431Z" fill="black"/>
<path d="M93.0631 171.431H85.9386V178.556H93.0631V171.431Z" fill="black"/>
<path d="M121.561 171.431H114.436V178.556H121.561V171.431Z" fill="black"/>
<path d="M157.183 171.431H150.059V178.556H157.183V171.431Z" fill="black"/>
<path d="M178.556 171.431H171.432V178.556H178.556V171.431Z" fill="black"/>
<mask id="mask0_1500_5954" style="mask-type:alpha" maskUnits="userSpaceOnUse" x="0" y="0" width="179" height="179">
<path d="M7.56976 0.444458H0.445312V7.5689H7.56976V0.444458Z" fill="black"/>
<path d="M14.6942 0.444458H7.56976V7.5689H14.6942V0.444458Z" fill="black"/>
<path d="M21.8186 0.444458H14.6942V7.5689H21.8186V0.444458Z" fill="black"/>
<path d="M28.9431 0.444458H21.8186V7.5689H28.9431V0.444458Z" fill="black"/>
<path d="M36.0675 0.444458H28.9431V7.5689H36.0675V0.444458Z" fill="black"/>
<path d="M43.192 0.444458H36.0675V7.5689H43.192V0.444458Z" fill="black"/>
<path d="M50.3164 0.444458H43.192V7.5689H50.3164V0.444458Z" fill="black"/>
<path d="M64.5653 0.444458H57.4409V7.5689H64.5653V0.444458Z" fill="black"/>
<path d="M71.6898 0.444458H64.5653V7.5689H71.6898V0.444458Z" fill="black"/>
<path d="M100.188 0.444458H93.0631V7.5689H100.188V0.444458Z" fill="black"/>
<path d="M121.561 0.444458H114.436V7.5689H121.561V0.444458Z" fill="black"/>
<path d="M135.81 0.444458H128.685V7.5689H135.81V0.444458Z" fill="black"/>
<path d="M142.934 0.444458H135.81V7.5689H142.934V0.444458Z" fill="black"/>
<path d="M150.059 0.444458H142.934V7.5689H150.059V0.444458Z" fill="black"/>
<path d="M157.183 0.444458H150.059V7.5689H157.183V0.444458Z" fill="black"/>
<path d="M164.308 0.444458H157.183V7.5689H164.308V0.444458Z" fill="black"/>
<path d="M171.432 0.444458H164.308V7.5689H171.432V0.444458Z" fill="black"/>
<path d="M178.556 0.444458H171.432V7.5689H178.556V0.444458Z" fill="black"/>
<path d="M7.56976 7.5689H0.445312V14.6933H7.56976V7.5689Z" fill="black"/>
<path d="M50.3164 7.5689H43.192V14.6933H50.3164V7.5689Z" fill="black"/>
<path d="M93.0631 7.5689H85.9386V14.6933H93.0631V7.5689Z" fill="black"/>
<path d="M100.188 7.5689H93.0631V14.6933H100.188V7.5689Z" fill="black"/>
<path d="M121.561 7.5689H114.436V14.6933H121.561V7.5689Z" fill="black"/>
<path d="M135.81 7.5689H128.685V14.6933H135.81V7.5689Z" fill="black"/>
<path d="M178.556 7.5689H171.432V14.6933H178.556V7.5689Z" fill="black"/>
<path d="M7.56976 14.6933H0.445312V21.8178H7.56976V14.6933Z" fill="black"/>
<path d="M21.8186 14.6933H14.6942V21.8178H21.8186V14.6933Z" fill="black"/>
<path d="M28.9431 14.6933H21.8186V21.8178H28.9431V14.6933Z" fill="black"/>
<path d="M36.0675 14.6933H28.9431V21.8178H36.0675V14.6933Z" fill="black"/>
<path d="M50.3164 14.6933H43.192V21.8178H50.3164V14.6933Z" fill="black"/>
<path d="M71.6898 14.6933H64.5653V21.8178H71.6898V14.6933Z" fill="black"/>
<path d="M78.8142 14.6933H71.6898V21.8178H78.8142V14.6933Z" fill="black"/>
<path d="M85.9386 14.6933H78.8142V21.8178H85.9386V14.6933Z" fill="black"/>
<path d="M93.0631 14.6933H85.9386V21.8178H93.0631V14.6933Z" fill="black"/>
<path d="M100.188 14.6933H93.0631V21.8178H100.188V14.6933Z" fill="black"/>
<path d="M121.561 14.6933H114.436V21.8178H121.561V14.6933Z" fill="black"/>
<path d="M135.81 14.6933H128.685V21.8178H135.81V14.6933Z" fill="black"/>
<path d="M150.059 14.6933H142.934V21.8178H150.059V14.6933Z" fill="black"/>
<path d="M157.183 14.6933H150.059V21.8178H157.183V14.6933Z" fill="black"/>
<path d="M164.308 14.6933H157.183V21.8178H164.308V14.6933Z" fill="black"/>
<path d="M178.556 14.6933H171.432V21.8178H178.556V14.6933Z" fill="black"/>
<path d="M7.56976 21.8178H0.445312V28.9422H7.56976V21.8178Z" fill="black"/>
<path d="M21.8186 21.8178H14.6942V28.9422H21.8186V21.8178Z" fill="black"/>
<path d="M28.9431 21.8178H21.8186V28.9422H28.9431V21.8178Z" fill="black"/>
<path d="M36.0675 21.8178H28.9431V28.9422H36.0675V21.8178Z" fill="black"/>
<path d="M50.3164 21.8178H43.192V28.9422H50.3164V21.8178Z" fill="black"/>
<path d="M71.6898 21.8178H64.5653V28.9422H71.6898V21.8178Z" fill="black"/>
<path d="M78.8142 21.8178H71.6898V28.9422H78.8142V21.8178Z" fill="black"/>
<path d="M100.188 21.8178H93.0631V28.9422H100.188V21.8178Z" fill="black"/>
<path d="M135.81 21.8178H128.685V28.9422H135.81V21.8178Z" fill="black"/>
<path d="M150.059 21.8178H142.934V28.9422H150.059V21.8178Z" fill="black"/>
<path d="M157.183 21.8178H150.059V28.9422H157.183V21.8178Z" fill="black"/>
<path d="M164.308 21.8178H157.183V28.9422H164.308V21.8178Z" fill="black"/>
<path d="M178.556 21.8178H171.432V28.9422H178.556V21.8178Z" fill="black"/>
<path d="M7.56976 28.9422H0.445312V36.0667H7.56976V28.9422Z" fill="black"/>
<path d="M21.8186 28.9422H14.6942V36.0667H21.8186V28.9422Z" fill="black"/>
<path d="M28.9431 28.9422H21.8186V36.0667H28.9431V28.9422Z" fill="black"/>
<path d="M36.0675 28.9422H28.9431V36.0667H36.0675V28.9422Z" fill="black"/>
<path d="M50.3164 28.9422H43.192V36.0667H50.3164V28.9422Z" fill="black"/>
<path d="M64.5653 28.9422H57.4409V36.0667H64.5653V28.9422Z" fill="black"/>
<path d="M78.8142 28.9422H71.6898V36.0667H78.8142V28.9422Z" fill="black"/>
<path d="M85.9386 28.9422H78.8142V36.0667H85.9386V28.9422Z" fill="black"/>
<path d="M93.0631 28.9422H85.9386V36.0667H93.0631V28.9422Z" fill="black"/>
<path d="M107.312 28.9422H100.188V36.0667H107.312V28.9422Z" fill="black"/>
<path d="M135.81 28.9422H128.685V36.0667H135.81V28.9422Z" fill="black"/>
<path d="M150.059 28.9422H142.934V36.0667H150.059V28.9422Z" fill="black"/>
<path d="M157.183 28.9422H150.059V36.0667H157.183V28.9422Z" fill="black"/>
<path d="M164.308 28.9422H157.183V36.0667H164.308V28.9422Z" fill="black"/>
<path d="M178.556 28.9422H171.432V36.0667H178.556V28.9422Z" fill="black"/>
<path d="M7.56976 36.0667H0.445312V43.1911H7.56976V36.0667Z" fill="black"/>
<path d="M50.3164 36.0667H43.192V43.1911H50.3164V36.0667Z" fill="black"/>
<path d="M107.312 36.0667H100.188V43.1911H107.312V36.0667Z" fill="black"/>
<path d="M135.81 36.0667H128.685V43.1911H135.81V36.0667Z" fill="black"/>
<path d="M178.556 36.0667H171.432V43.1911H178.556V36.0667Z" fill="black"/>
<path d="M7.56976 43.1911H0.445312V50.3156H7.56976V43.1911Z" fill="black"/>
<path d="M14.6942 43.1911H7.56976V50.3156H14.6942V43.1911Z" fill="black"/>
<path d="M21.8186 43.1911H14.6942V50.3156H21.8186V43.1911Z" fill="black"/>
<path d="M28.9431 43.1911H21.8186V50.3156H28.9431V43.1911Z" fill="black"/>
<path d="M36.0675 43.1911H28.9431V50.3156H36.0675V43.1911Z" fill="black"/>
<path d="M43.192 43.1911H36.0675V50.3156H43.192V43.1911Z" fill="black"/>
<path d="M50.3164 43.1911H43.192V50.3156H50.3164V43.1911Z" fill="black"/>
<path d="M64.5653 43.1911H57.4409V50.3156H64.5653V43.1911Z" fill="black"/>
<path d="M78.8142 43.1911H71.6898V50.3156H78.8142V43.1911Z" fill="black"/>
<path d="M93.0631 43.1911H85.9386V50.3156H93.0631V43.1911Z" fill="black"/>
<path d="M107.312 43.1911H100.188V50.3156H107.312V43.1911Z" fill="black"/>
<path d="M121.561 43.1911H114.436V50.3156H121.561V43.1911Z" fill="black"/>
<path d="M135.81 43.1911H128.685V50.3156H135.81V43.1911Z" fill="black"/>
<path d="M142.934 43.1911H135.81V50.3156H142.934V43.1911Z" fill="black"/>
<path d="M150.059 43.1911H142.934V50.3156H150.059V43.1911Z" fill="black"/>
<path d="M157.183 43.1911H150.059V50.3156H157.183V43.1911Z" fill="black"/>
<path d="M164.308 43.1911H157.183V50.3156H164.308V43.1911Z" fill="black"/>
<path d="M171.432 43.1911H164.308V50.3156H171.432V43.1911Z" fill="black"/>
<path d="M178.556 43.1911H171.432V50.3156H178.556V43.1911Z" fill="black"/>
<path d="M64.5653 50.3156H57.4409V57.44H64.5653V50.3156Z" fill="black"/>
<path d="M78.8142 50.3156H71.6898V57.44H78.8142V50.3156Z" fill="black"/>
<path d="M93.0631 50.3156H85.9386V57.44H93.0631V50.3156Z" fill="black"/>
<path d="M100.188 50.3156H93.0631V57.44H100.188V50.3156Z" fill="black"/>
<path d="M114.436 50.3156H107.312L107.312 57.44H114.436V50.3156Z" fill="black"/>
<path d="M121.561 50.3156H114.436V57.44H121.561V50.3156Z" fill="black"/>
<path d="M7.56976 57.44H0.445312V64.5645H7.56976V57.44Z" fill="black"/>
<path d="M28.9431 57.44H21.8186V64.5645H28.9431V57.44Z" fill="black"/>
<path d="M36.0675 57.44H28.9431V64.5645H36.0675V57.44Z" fill="black"/>
<path d="M43.192 57.44H36.0675V64.5645H43.192V57.44Z" fill="black"/>
<path d="M50.3164 57.44H43.192V64.5645H50.3164V57.44Z" fill="black"/>
<path d="M57.4409 57.44H50.3164V64.5645H57.4409V57.44Z" fill="black"/>
<path d="M64.5653 57.44H57.4409V64.5645H64.5653V57.44Z" fill="black"/>
<path d="M71.6898 57.44H64.5653V64.5645H71.6898V57.44Z" fill="black"/>
<path d="M100.188 57.44H93.0631V64.5645H100.188V57.44Z" fill="black"/>
<path d="M121.561 57.44H114.436V64.5645H121.561V57.44Z" fill="black"/>
<path d="M128.685 57.44H121.561V64.5645H128.685V57.44Z" fill="black"/>
<path d="M135.81 57.44H128.685V64.5645H135.81V57.44Z" fill="black"/>
<path d="M150.059 57.44H142.934V64.5645H150.059V57.44Z" fill="black"/>
<path d="M178.556 57.44H171.432V64.5645H178.556V57.44Z" fill="black"/>
<path d="M14.6942 64.5645H7.56976V71.6889H14.6942V64.5645Z" fill="black"/>
<path d="M28.9431 64.5645H21.8186V71.6889H28.9431V64.5645Z" fill="black"/>
<path d="M36.0675 64.5645H28.9431V71.6889H36.0675V64.5645Z" fill="black"/>
<path d="M57.4409 64.5645H50.3164V71.6889H57.4409V64.5645Z" fill="black"/>
<path d="M64.5653 64.5645H57.4409V71.6889H64.5653V64.5645Z" fill="black"/>
<path d="M93.0631 64.5645H85.9386V71.6889H93.0631V64.5645Z" fill="black"/>
<path d="M114.436 64.5645H107.312V71.6889H114.436V64.5645Z" fill="black"/>
<path d="M128.685 64.5645H121.561V71.6889H128.685V64.5645Z" fill="black"/>
<path d="M135.81 64.5645H128.685V71.6889H135.81V64.5645Z" fill="black"/>
<path d="M150.059 64.5645H142.934V71.6889H150.059V64.5645Z" fill="black"/>
<path d="M157.183 64.5645H150.059V71.6889H157.183V64.5645Z" fill="black"/>
<path d="M164.308 64.5645H157.183V71.6889H164.308V64.5645Z" fill="black"/>
<path d="M171.432 64.5645H164.308V71.6889H171.432V64.5645Z" fill="black"/>
<path d="M178.556 64.5645H171.432V71.6889H178.556V64.5645Z" fill="black"/>
<path d="M7.56976 71.6889H0.445312V78.8133H7.56976V71.6889Z" fill="black"/>
<path d="M14.6942 71.6889H7.56976V78.8133H14.6942V71.6889Z" fill="black"/>
<path d="M28.9431 71.6889H21.8186V78.8133H28.9431V71.6889Z" fill="black"/>
<path d="M36.0675 71.6889H28.9431V78.8133H36.0675V71.6889Z" fill="black"/>
<path d="M43.192 71.6889H36.0675V78.8133H43.192V71.6889Z" fill="black"/>
<path d="M50.3164 71.6889H43.192V78.8133H50.3164V71.6889Z" fill="black"/>
<path d="M57.4409 71.6889H50.3164V78.8133H57.4409V71.6889Z" fill="black"/>
<path d="M71.6898 71.6889H64.5653V78.8133H71.6898V71.6889Z" fill="black"/>
<path d="M85.9386 71.6889H78.8142V78.8133H85.9386V71.6889Z" fill="black"/>
<path d="M93.0631 71.6889H85.9386V78.8133H93.0631V71.6889Z" fill="black"/>
<path d="M107.312 71.6889H100.188V78.8133H107.312L107.312 71.6889Z" fill="black"/>
<path d="M121.561 71.6889H114.436V78.8133H121.561V71.6889Z" fill="black"/>
<path d="M128.685 71.6889H121.561V78.8133H128.685V71.6889Z" fill="black"/>
<path d="M135.81 71.6889H128.685V78.8133H135.81V71.6889Z" fill="black"/>
<path d="M142.934 71.6889H135.81V78.8133H142.934V71.6889Z" fill="black"/>
<path d="M150.059 71.6889H142.934V78.8133H150.059V71.6889Z" fill="black"/>
<path d="M157.183 71.6889H150.059V78.8133H157.183V71.6889Z" fill="black"/>
<path d="M164.308 71.6889H157.183V78.8133H164.308V71.6889Z" fill="black"/>
<path d="M171.432 71.6889H164.308V78.8133H171.432V71.6889Z" fill="black"/>
<path d="M7.56976 78.8133H0.445312V85.9378H7.56976V78.8133Z" fill="black"/>
<path d="M36.0675 78.8133H28.9431V85.9378H36.0675V78.8133Z" fill="black"/>
<path d="M43.192 78.8133H36.0675V85.9378H43.192V78.8133Z" fill="black"/>
<path d="M57.4409 78.8133H50.3164V85.9378H57.4409V78.8133Z" fill="black"/>
<path d="M71.6898 78.8133H64.5653V85.9378H71.6898V78.8133Z" fill="black"/>
<path d="M78.8142 78.8133H71.6898V85.9378H78.8142V78.8133Z" fill="black"/>
<path d="M107.312 78.8133H100.188V85.9378H107.312V78.8133Z" fill="black"/>
<path d="M114.436 78.8133H107.312V85.9378H114.436V78.8133Z" fill="black"/>
<path d="M150.059 78.8133H142.934V85.9378H150.059V78.8133Z" fill="black"/>
<path d="M164.308 78.8133H157.183V85.9378H164.308V78.8133Z" fill="black"/>
<path d="M171.432 78.8133H164.308V85.9378H171.432V78.8133Z" fill="black"/>
<path d="M7.56976 85.9378H0.445312V93.0622H7.56976V85.9378Z" fill="black"/>
<path d="M28.9431 85.9378H21.8186V93.0622H28.9431V85.9378Z" fill="black"/>
<path d="M36.0675 85.9378H28.9431V93.0622H36.0675V85.9378Z" fill="black"/>
<path d="M43.192 85.9378H36.0675V93.0622H43.192V85.9378Z" fill="black"/>
<path d="M50.3164 85.9378H43.192V93.0622H50.3164V85.9378Z" fill="black"/>
<path d="M57.4409 85.9378H50.3164V93.0622H57.4409V85.9378Z" fill="black"/>
<path d="M64.5653 85.9378H57.4409V93.0622H64.5653V85.9378Z" fill="black"/>
<path d="M78.8142 85.9378H71.6898V93.0622H78.8142V85.9378Z" fill="black"/>
<path d="M85.9386 85.9378H78.8142V93.0622H85.9386V85.9378Z" fill="black"/>
<path d="M100.188 85.9378H93.0631V93.0622H100.188V85.9378Z" fill="black"/>
<path d="M107.312 85.9378H100.188V93.0622H107.312V85.9378Z" fill="black"/>
<path d="M121.561 85.9378H114.436V93.0622H121.561V85.9378Z" fill="black"/>
<path d="M142.934 85.9378H135.81V93.0622H142.934V85.9378Z" fill="black"/>
<path d="M157.183 85.9378H150.059V93.0622H157.183V85.9378Z" fill="black"/>
<path d="M164.308 85.9378H157.183V93.0622H164.308V85.9378Z" fill="black"/>
<path d="M178.556 85.9378H171.432V93.0622H178.556V85.9378Z" fill="black"/>
<path d="M7.56976 93.0622H0.445312V100.187H7.56976V93.0622Z" fill="black"/>
<path d="M14.6942 93.0622H7.56976V100.187H14.6942V93.0622Z" fill="black"/>
<path d="M57.4409 93.0622H50.3164V100.187H57.4409V93.0622Z" fill="black"/>
<path d="M64.5653 93.0622H57.4409V100.187H64.5653V93.0622Z" fill="black"/>
<path d="M71.6898 93.0622H64.5653V100.187H71.6898V93.0622Z" fill="black"/>
<path d="M93.0631 93.0622H85.9386V100.187H93.0631V93.0622Z" fill="black"/>
<path d="M107.312 93.0622H100.188V100.187H107.312V93.0622Z" fill="black"/>
<path d="M114.436 93.0622H107.312V100.187H114.436V93.0622Z" fill="black"/>
<path d="M121.561 93.0622H114.436V100.187H121.561V93.0622Z" fill="black"/>
<path d="M128.685 93.0622H121.561V100.187H128.685V93.0622Z" fill="black"/>
<path d="M150.059 93.0622H142.934V100.187H150.059V93.0622Z" fill="black"/>
<path d="M164.308 93.0622H157.183V100.187H164.308V93.0622Z" fill="black"/>
<path d="M171.432 93.0622H164.308V100.187H171.432V93.0622Z" fill="black"/>
<path d="M178.556 93.0622H171.432V100.187H178.556V93.0622Z" fill="black"/>
<path d="M7.56976 100.187H0.445312V107.311H7.56976V100.187Z" fill="black"/>
<path d="M14.6942 100.187H7.56976V107.311H14.6942V100.187Z" fill="black"/>
<path d="M21.8186 100.187H14.6942V107.311H21.8186V100.187Z" fill="black"/>
<path d="M50.3164 100.187H43.192V107.311H50.3164V100.187Z" fill="black"/>
<path d="M71.6898 100.187H64.5653V107.311H71.6898V100.187Z" fill="black"/>
<path d="M85.9386 100.187H78.8142V107.311H85.9386V100.187Z" fill="black"/>
<path d="M93.0631 100.187H85.9386V107.311H93.0631V100.187Z" fill="black"/>
<path d="M107.312 100.187H100.188V107.311H107.312V100.187Z" fill="black"/>
<path d="M128.685 100.187H121.561V107.311H128.685V100.187Z" fill="black"/>
<path d="M142.934 100.187H135.81V107.311H142.934V100.187Z" fill="black"/>
<path d="M150.059 100.187H142.934V107.311H150.059V100.187Z" fill="black"/>
<path d="M164.308 100.187H157.183V107.311H164.308V100.187Z" fill="black"/>
<path d="M14.6942 107.311H7.56976V114.436H14.6942V107.311Z" fill="black"/>
<path d="M57.4409 107.311L50.3164 107.311V114.436H57.4409V107.311Z" fill="black"/>
<path d="M93.0631 107.311H85.9386V114.436H93.0631V107.311Z" fill="black"/>
<path d="M107.312 107.311H100.188V114.436H107.312V107.311Z" fill="black"/>
<path d="M114.436 107.311L107.312 107.311V114.436H114.436V107.311Z" fill="black"/>
<path d="M135.81 107.311H128.685V114.436H135.81V107.311Z" fill="black"/>
<path d="M150.059 107.311H142.934V114.436H150.059V107.311Z" fill="black"/>
<path d="M171.432 107.311L164.308 107.311V114.436H171.432V107.311Z" fill="black"/>
<path d="M7.56976 114.436H0.445312V121.56H7.56976V114.436Z" fill="black"/>
<path d="M43.192 114.436H36.0675V121.56H43.192V114.436Z" fill="black"/>
<path d="M50.3164 114.436H43.192V121.56H50.3164V114.436Z" fill="black"/>
<path d="M57.4409 114.436H50.3164V121.56H57.4409V114.436Z" fill="black"/>
<path d="M71.6898 114.436H64.5653V121.56H71.6898V114.436Z" fill="black"/>
<path d="M78.8142 114.436H71.6898V121.56H78.8142V114.436Z" fill="black"/>
<path d="M93.0631 114.436H85.9386V121.56H93.0631V114.436Z" fill="black"/>
<path d="M114.436 114.436H107.312L107.312 121.56H114.436V114.436Z" fill="black"/>
<path d="M121.561 114.436H114.436V121.56H121.561V114.436Z" fill="black"/>
<path d="M128.685 114.436H121.561V121.56H128.685V114.436Z" fill="black"/>
<path d="M135.81 114.436H128.685V121.56H135.81V114.436Z" fill="black"/>
<path d="M142.934 114.436H135.81V121.56H142.934V114.436Z" fill="black"/>
<path d="M150.059 114.436H142.934V121.56H150.059V114.436Z" fill="black"/>
<path d="M157.183 114.436H150.059V121.56H157.183V114.436Z" fill="black"/>
<path d="M171.432 114.436H164.308V121.56H171.432V114.436Z" fill="black"/>
<path d="M64.5653 121.56H57.4409V128.684H64.5653V121.56Z" fill="black"/>
<path d="M78.8142 121.56H71.6898V128.684H78.8142V121.56Z" fill="black"/>
<path d="M93.0631 121.56H85.9386V128.684H93.0631V121.56Z" fill="black"/>
<path d="M114.436 121.56H107.312V128.684H114.436V121.56Z" fill="black"/>
<path d="M121.561 121.56H114.436V128.684H121.561V121.56Z" fill="black"/>
<path d="M150.059 121.56H142.934V128.684H150.059V121.56Z" fill="black"/>
<path d="M157.183 121.56H150.059V128.684H157.183V121.56Z" fill="black"/>
<path d="M164.308 121.56H157.183V128.684H164.308V121.56Z" fill="black"/>
<path d="M7.56976 128.684H0.445312V135.809H7.56976V128.684Z" fill="black"/>
<path d="M14.6942 128.684H7.56976V135.809H14.6942V128.684Z" fill="black"/>
<path d="M21.8186 128.684H14.6942V135.809H21.8186V128.684Z" fill="black"/>
<path d="M28.9431 128.684H21.8186V135.809H28.9431V128.684Z" fill="black"/>
<path d="M36.0675 128.684H28.9431V135.809H36.0675V128.684Z" fill="black"/>
<path d="M43.192 128.684H36.0675V135.809H43.192V128.684Z" fill="black"/>
<path d="M50.3164 128.684H43.192V135.809H50.3164V128.684Z" fill="black"/>
<path d="M64.5653 128.684H57.4409V135.809H64.5653V128.684Z" fill="black"/>
<path d="M93.0631 128.684H85.9386V135.809H93.0631V128.684Z" fill="black"/>
<path d="M114.436 128.684H107.312V135.809H114.436V128.684Z" fill="black"/>
<path d="M121.561 128.684H114.436V135.809H121.561V128.684Z" fill="black"/>
<path d="M135.81 128.684H128.685V135.809H135.81V128.684Z" fill="black"/>
<path d="M150.059 128.684H142.934V135.809H150.059V128.684Z" fill="black"/>
<path d="M157.183 128.684H150.059V135.809H157.183V128.684Z" fill="black"/>
<path d="M164.308 128.684H157.183V135.809H164.308V128.684Z" fill="black"/>
<path d="M178.556 128.684H171.432V135.809H178.556V128.684Z" fill="black"/>
<path d="M7.56976 135.809H0.445312V142.933H7.56976V135.809Z" fill="black"/>
<path d="M50.3164 135.809H43.192V142.933H50.3164V135.809Z" fill="black"/>
<path d="M64.5653 135.809H57.4409V142.933H64.5653V135.809Z" fill="black"/>
<path d="M78.8142 135.809H71.6898V142.933H78.8142V135.809Z" fill="black"/>
<path d="M107.312 135.809H100.188V142.933H107.312L107.312 135.809Z" fill="black"/>
<path d="M121.561 135.809H114.436V142.933H121.561V135.809Z" fill="black"/>
<path d="M150.059 135.809H142.934V142.933H150.059V135.809Z" fill="black"/>
<path d="M164.308 135.809H157.183V142.933H164.308V135.809Z" fill="black"/>
<path d="M7.56976 142.933H0.445312V150.058H7.56976V142.933Z" fill="black"/>
<path d="M21.8186 142.933H14.6942V150.058H21.8186V142.933Z" fill="black"/>
<path d="M28.9431 142.933H21.8186V150.058H28.9431V142.933Z" fill="black"/>
<path d="M36.0675 142.933H28.9431V150.058H36.0675V142.933Z" fill="black"/>
<path d="M50.3164 142.933H43.192V150.058H50.3164V142.933Z" fill="black"/>
<path d="M64.5653 142.933H57.4409V150.058H64.5653V142.933Z" fill="black"/>
<path d="M71.6898 142.933H64.5653V150.058H71.6898V142.933Z" fill="black"/>
<path d="M78.8142 142.933H71.6898V150.058H78.8142V142.933Z" fill="black"/>
<path d="M100.188 142.933H93.0631V150.058H100.188V142.933Z" fill="black"/>
<path d="M107.312 142.933H100.188V150.058H107.312V142.933Z" fill="black"/>
<path d="M121.561 142.933H114.436V150.058H121.561V142.933Z" fill="black"/>
<path d="M128.685 142.933H121.561V150.058H128.685V142.933Z" fill="black"/>
<path d="M135.81 142.933H128.685V150.058H135.81V142.933Z" fill="black"/>
<path d="M142.934 142.933H135.81V150.058H142.934V142.933Z" fill="black"/>
<path d="M150.059 142.933H142.934V150.058H150.059V142.933Z" fill="black"/>
<path d="M178.556 142.933H171.432V150.058H178.556V142.933Z" fill="black"/>
<path d="M7.56976 150.058H0.445312V157.182H7.56976V150.058Z" fill="black"/>
<path d="M21.8186 150.058H14.6942V157.182H21.8186V150.058Z" fill="black"/>
<path d="M28.9431 150.058H21.8186V157.182H28.9431V150.058Z" fill="black"/>
<path d="M36.0675 150.058H28.9431V157.182H36.0675V150.058Z" fill="black"/>
<path d="M50.3164 150.058H43.192V157.182H50.3164V150.058Z" fill="black"/>
<path d="M64.5653 150.058H57.4409V157.182H64.5653V150.058Z" fill="black"/>
<path d="M93.0631 150.058H85.9386V157.182H93.0631V150.058Z" fill="black"/>
<path d="M121.561 150.058H114.436V157.182H121.561V150.058Z" fill="black"/>
<path d="M128.685 150.058H121.561V157.182H128.685V150.058Z" fill="black"/>
<path d="M157.183 150.058H150.059V157.182H157.183V150.058Z" fill="black"/>
<path d="M7.56976 157.182H0.445312V164.307H7.56976V157.182Z" fill="black"/>
<path d="M21.8186 157.182H14.6942V164.307H21.8186V157.182Z" fill="black"/>
<path d="M28.9431 157.182H21.8186V164.307H28.9431V157.182Z" fill="black"/>
<path d="M36.0675 157.182H28.9431V164.307H36.0675V157.182Z" fill="black"/>
<path d="M50.3164 157.182H43.192V164.307H50.3164V157.182Z" fill="black"/>
<path d="M85.9386 157.182H78.8142V164.307H85.9386V157.182Z" fill="black"/>
<path d="M93.0631 157.182H85.9386V164.307H93.0631V157.182Z" fill="black"/>
<path d="M107.312 157.182H100.188V164.307H107.312V157.182Z" fill="black"/>
<path d="M114.436 157.182H107.312V164.307H114.436V157.182Z" fill="black"/>
<path d="M121.561 157.182H114.436V164.307H121.561V157.182Z" fill="black"/>
<path d="M142.934 157.182H135.81V164.307H142.934V157.182Z" fill="black"/>
<path d="M150.059 157.182H142.934V164.307H150.059V157.182Z" fill="black"/>
<path d="M164.308 157.182H157.183V164.307H164.308V157.182Z" fill="black"/>
<path d="M171.432 157.182H164.308V164.307H171.432V157.182Z" fill="black"/>
<path d="M178.556 157.182H171.432V164.307H178.556V157.182Z" fill="black"/>
<path d="M7.56976 164.307H0.445312V171.431H7.56976V164.307Z" fill="black"/>
<path d="M50.3164 164.307H43.192V171.431H50.3164V164.307Z" fill="black"/>
<path d="M71.6898 164.307H64.5653V171.431H71.6898V164.307Z" fill="black"/>
<path d="M78.8142 164.307H71.6898V171.431H78.8142V164.307Z" fill="black"/>
<path d="M85.9386 164.307H78.8142V171.431H85.9386V164.307Z" fill="black"/>
<path d="M100.188 164.307H93.0631V171.431H100.188V164.307Z" fill="black"/>
<path d="M107.312 164.307H100.188V171.431H107.312V164.307Z" fill="black"/>
<path d="M128.685 164.307H121.561V171.431H128.685V164.307Z" fill="black"/>
<path d="M135.81 164.307H128.685V171.431H135.81V164.307Z" fill="black"/>
<path d="M142.934 164.307H135.81V171.431H142.934V164.307Z" fill="black"/>
<path d="M150.059 164.307H142.934V171.431H150.059V164.307Z" fill="black"/>
<path d="M164.308 164.307H157.183V171.431H164.308V164.307Z" fill="black"/>
<path d="M171.432 164.307H164.308V171.431H171.432V164.307Z" fill="black"/>
<path d="M178.556 164.307H171.432V171.431H178.556V164.307Z" fill="black"/>
<path d="M7.56976 171.431H0.445312V178.556H7.56976V171.431Z" fill="black"/>
<path d="M14.6942 171.431H7.56976V178.556H14.6942V171.431Z" fill="black"/>
<path d="M21.8186 171.431H14.6942V178.556H21.8186V171.431Z" fill="black"/>
<path d="M28.9431 171.431H21.8186V178.556H28.9431V171.431Z" fill="black"/>
<path d="M36.0675 171.431H28.9431V178.556H36.0675V171.431Z" fill="black"/>
<path d="M43.192 171.431H36.0675V178.556H43.192V171.431Z" fill="black"/>
<path d="M50.3164 171.431H43.192V178.556H50.3164V171.431Z" fill="black"/>
<path d="M64.5653 171.431H57.4409V178.556H64.5653V171.431Z" fill="black"/>
<path d="M85.9386 171.431H78.8142V178.556H85.9386V171.431Z" fill="black"/>
<path d="M93.0631 171.431H85.9386V178.556H93.0631V171.431Z" fill="black"/>
<path d="M121.561 171.431H114.436V178.556H121.561V171.431Z" fill="black"/>
<path d="M157.183 171.431H150.059V178.556H157.183V171.431Z" fill="black"/>
<path d="M178.556 171.431H171.432V178.556H178.556V171.431Z" fill="black"/>
</mask>
<g mask="url(#mask0_1500_5954)">
</g>
</svg>
