<svg width="120" height="120" viewBox="0 0 120 120" fill="none" xmlns="http://www.w3.org/2000/svg">
<g filter="url(#filter0_f_108_5740)">
<path d="M31.7378 52.3707H83.5989V96.0182H31.7378V52.3707Z" fill="white"/>
<path d="M94.5158 46.4778C92.0256 46.4751 89.6101 47.4721 87.6738 49.3017C81.0501 44.4827 72.6435 41.5765 63.6349 40.9638L68.335 23.7608L81.2495 27.2797C81.5897 32.7267 85.521 37.0355 90.3067 37.0355C95.3144 37.0355 99.3901 32.3174 99.3901 26.5161C99.3901 20.7182 95.3144 16 90.3067 16C88.6478 15.9988 87.02 16.5271 85.5992 17.5278C84.1784 18.5286 83.0185 19.9637 82.2447 21.6784L67.2369 17.5883C66.6329 17.4207 65.9971 17.5255 65.4563 17.8816C64.9156 18.2378 64.5097 18.8191 64.3196 19.5096L58.4829 40.8595C48.7758 41.1367 39.6511 44.0505 32.5407 49.1483C30.6314 47.4154 28.2823 46.4754 25.8647 46.4769C19.8735 46.4769 15 52.1197 15 59.0559C15 63.3418 16.8626 67.1319 19.7038 69.4007C19.5833 70.4011 19.5227 71.4102 19.5224 72.4204C19.5224 81.0898 23.8744 89.1522 31.7776 95.1239C39.353 100.848 49.3821 104 60.0075 104C70.6336 104 80.6598 100.848 88.2359 95.1239C96.1369 89.1522 100.49 81.0889 100.49 72.4204C100.49 71.495 100.436 70.5762 100.339 69.6609C103.363 67.4277 105.378 63.5096 105.378 59.055C105.378 52.1206 100.506 46.4778 94.5158 46.4778ZM90.3075 21.7148C92.5959 21.7148 94.4585 23.8709 94.4585 26.5169C94.4585 29.1654 92.5966 31.319 90.3075 31.319C88.0205 31.319 86.1571 29.1663 86.1571 26.5169C86.1571 23.8709 88.0205 21.7148 90.3075 21.7148ZM40.6288 66.8361C40.6288 62.9273 43.4627 59.6491 46.8384 59.6491C50.2155 59.6491 52.9551 62.9273 52.9551 66.8361C52.9551 70.7441 50.2163 73.9189 46.8384 73.9189C43.4627 73.9197 40.6288 70.7449 40.6288 66.8361ZM75.0675 87.6648C71.9203 91.3033 67.07 93.0729 60.2367 93.0729C60.2215 93.0729 60.2041 93.0695 60.1881 93.0695C60.1714 93.0695 60.1569 93.0729 60.1402 93.0729C53.304 93.0729 48.4559 91.3033 45.313 87.6648C45.0835 87.401 44.9012 87.0865 44.7768 86.7395C44.6524 86.3925 44.5883 86.0201 44.5883 85.6439C44.5883 85.2677 44.6524 84.8953 44.7768 84.5483C44.9012 84.2014 45.0835 83.8868 45.313 83.623C45.7782 83.0874 46.4051 82.7872 47.0582 82.7872C47.7113 82.7872 48.3381 83.0874 48.8033 83.623C50.9735 86.1342 54.6821 87.3589 60.1402 87.3589C60.1569 87.3589 60.1714 87.3614 60.1881 87.3614L60.2367 87.3589C65.6941 87.3589 69.4063 86.1342 71.5787 83.623C72.0435 83.0869 72.6703 82.7862 73.3235 82.7862C73.9766 82.7862 74.6035 83.0869 75.0683 83.623C75.2972 83.8872 75.4789 84.202 75.603 84.5489C75.727 84.8958 75.7908 85.2681 75.7907 85.6441C75.7907 86.0201 75.7267 86.3923 75.6026 86.7392C75.4784 87.0861 75.2966 87.4007 75.0675 87.6648ZM73.635 73.9197C70.2571 73.9197 67.4189 70.7449 67.4189 66.837C67.4189 62.924 70.2571 59.65 73.635 59.65C77.0129 59.65 79.7524 62.924 79.7524 66.837C79.7517 70.7449 77.0129 73.9197 73.635 73.9197Z" fill="#F8571D"/>
<path d="M94.5158 46.4778C92.0256 46.4751 89.6101 47.4721 87.6738 49.3017C81.0501 44.4827 72.6435 41.5765 63.6349 40.9638L68.335 23.7608L81.2495 27.2797C81.5897 32.7267 85.521 37.0355 90.3067 37.0355C95.3144 37.0355 99.3901 32.3174 99.3901 26.5161C99.3901 20.7182 95.3144 16 90.3067 16C88.6478 15.9988 87.02 16.5271 85.5992 17.5278C84.1784 18.5286 83.0185 19.9637 82.2447 21.6784L67.2369 17.5883C66.6329 17.4207 65.9971 17.5255 65.4563 17.8816C64.9156 18.2378 64.5097 18.8191 64.3196 19.5096L58.4829 40.8595C48.7758 41.1367 39.6511 44.0505 32.5407 49.1483C30.6314 47.4154 28.2823 46.4754 25.8647 46.4769C19.8735 46.4769 15 52.1197 15 59.0559C15 63.3418 16.8626 67.1319 19.7038 69.4007C19.6958 69.4677 19.6929 69.5346 19.6856 69.6016C28.2163 75.2486 43.1624 78.9964 60.1896 78.9964C78.9967 78.9964 94.4056 74.335 102.399 67.6921C104.244 65.4394 105.378 62.3985 105.378 59.0567C105.378 52.1206 100.506 46.4778 94.5158 46.4778ZM90.3075 21.7148C92.5959 21.7148 94.4585 23.8709 94.4585 26.5169C94.4585 29.1654 92.5966 31.319 90.3075 31.319C88.0205 31.319 86.1571 29.1663 86.1571 26.5169C86.1571 23.8709 88.0205 21.7148 90.3075 21.7148ZM46.8377 73.9197C43.4627 73.9197 40.6281 70.7449 40.6281 66.837C40.6281 62.9282 43.462 59.65 46.8377 59.65C50.2148 59.65 52.9544 62.9282 52.9544 66.837C52.9544 70.7449 50.2155 73.9197 46.8377 73.9197ZM73.635 73.9197C70.2571 73.9197 67.4189 70.7449 67.4189 66.837C67.4189 62.924 70.2571 59.65 73.635 59.65C77.0129 59.65 79.7524 62.924 79.7524 66.837C79.7517 70.7449 77.0129 73.9197 73.635 73.9197Z" fill="#F7851E"/>
<path d="M94.5158 46.4778C92.0256 46.4751 89.6101 47.4721 87.6738 49.3017C81.0501 44.4827 72.6435 41.5765 63.6349 40.9638L68.335 23.7608L81.2495 27.2797C81.5897 32.7267 85.521 37.0355 90.3067 37.0355C95.3144 37.0355 99.3901 32.3174 99.3901 26.5161C99.3901 20.7182 95.3144 16 90.3067 16C88.6478 15.9988 87.02 16.5271 85.5992 17.5278C84.1784 18.5286 83.0185 19.9637 82.2447 21.6784L67.2369 17.5883C66.6329 17.4207 65.9971 17.5255 65.4563 17.8816C64.9156 18.2378 64.5097 18.8191 64.3196 19.5096L58.4829 40.8595C48.7758 41.1367 39.6511 44.0505 32.5407 49.1483C30.6314 47.4154 28.2823 46.4754 25.8647 46.4769C19.8735 46.4769 15 52.1197 15 59.0559C15 63.3418 16.8626 67.1319 19.7038 69.4007C19.5833 70.4011 19.5227 71.4102 19.5224 72.4204C19.5224 81.0898 23.8744 89.1522 31.7776 95.1239C39.353 100.848 49.3821 104 60.0075 104C70.6336 104 80.6598 100.848 88.2359 95.1239C96.1369 89.1522 100.49 81.0889 100.49 72.4204C100.49 71.495 100.436 70.5762 100.339 69.6609C103.363 67.4277 105.378 63.5096 105.378 59.055C105.378 52.1206 100.506 46.4778 94.5158 46.4778ZM90.3075 21.7148C92.5959 21.7148 94.4585 23.8709 94.4585 26.5169C94.4585 29.1654 92.5966 31.319 90.3075 31.319C88.0205 31.319 86.1571 29.1663 86.1571 26.5169C86.1571 23.8709 88.0205 21.7148 90.3075 21.7148ZM40.6288 66.8361C40.6288 62.9273 43.4627 59.6491 46.8384 59.6491C50.2155 59.6491 52.9551 62.9273 52.9551 66.8361C52.9551 70.7441 50.2163 73.9189 46.8384 73.9189C43.4627 73.9197 40.6288 70.7449 40.6288 66.8361ZM75.0675 87.6648C71.9203 91.3033 67.07 93.0729 60.2367 93.0729C60.2215 93.0729 60.2041 93.0695 60.1881 93.0695C60.1714 93.0695 60.1569 93.0729 60.1402 93.0729C53.304 93.0729 48.4559 91.3033 45.313 87.6648C45.0835 87.401 44.9012 87.0865 44.7768 86.7395C44.6524 86.3925 44.5883 86.0201 44.5883 85.6439C44.5883 85.2677 44.6524 84.8953 44.7768 84.5483C44.9012 84.2014 45.0835 83.8868 45.313 83.623C45.7782 83.0874 46.4051 82.7872 47.0582 82.7872C47.7112 82.7872 48.3381 83.0874 48.8033 83.623C50.9735 86.1342 54.6821 87.3589 60.1402 87.3589C60.1569 87.3589 60.1714 87.3614 60.1881 87.3614L60.2367 87.3589C65.6941 87.3589 69.4063 86.1342 71.5787 83.623C72.0435 83.0869 72.6703 82.7862 73.3235 82.7862C73.9766 82.7862 74.6035 83.0869 75.0683 83.623C75.2972 83.8872 75.4789 84.202 75.603 84.5489C75.727 84.8958 75.7908 85.2681 75.7907 85.6441C75.7907 86.0201 75.7267 86.3923 75.6026 86.7392C75.4784 87.0861 75.2966 87.4007 75.0675 87.6648ZM73.635 73.9197C70.2571 73.9197 67.4189 70.7449 67.4189 66.837C67.4189 62.924 70.2571 59.65 73.635 59.65C77.0129 59.65 79.7525 62.924 79.7525 66.837C79.7517 70.7449 77.0129 73.9197 73.635 73.9197Z" stroke="#33363A" stroke-width="3" stroke-miterlimit="10" stroke-linecap="round" stroke-linejoin="round"/>
</g>
<defs>
<filter id="filter0_f_108_5740" x="5.3" y="6.3" width="109.778" height="107.4" filterUnits="userSpaceOnUse" color-interpolation-filters="sRGB">
<feFlood flood-opacity="0" result="BackgroundImageFix"/>
<feBlend mode="normal" in="SourceGraphic" in2="BackgroundImageFix" result="shape"/>
<feGaussianBlur stdDeviation="4.1" result="effect1_foregroundBlur_108_5740"/>
</filter>
</defs>
</svg>
