<svg xmlns="http://www.w3.org/2000/svg" xmlns:xlink="http://www.w3.org/1999/xlink" width="500" zoomAndPan="magnify" viewBox="0 0 375 374.999991" height="500" preserveAspectRatio="xMidYMid meet" version="1.0"><defs><g/></defs><g fill="#ffffff" fill-opacity="1"><g transform="translate(123.274289, 209.059673)"><g><path d="M 24.269531 -0.578125 C 22.046875 -5.511719 19.648438 -10.402344 17.425781 -15.425781 C 20.980469 -16.714844 23.960938 -19.558594 23.960938 -24.980469 C 23.960938 -35.472656 13.957031 -35.5625 11.957031 -35.5625 L 0.445312 -35.5625 C 0.222656 -35.5625 0 -35.339844 0 -35.160156 L 0 -29.117188 L 11.957031 -29.117188 C 13.023438 -29.117188 17.203125 -28.894531 17.203125 -24.980469 C 17.203125 -21.070312 13.425781 -20.894531 11.957031 -20.894531 L 0 -20.894531 L 0 -0.398438 C 0 -0.222656 0.222656 0 0.445312 0 L 6.269531 0 C 6.535156 0 6.757812 -0.222656 6.757812 -0.398438 L 6.757812 -14.359375 L 10.578125 -14.359375 L 17.070312 -0.265625 C 17.113281 -0.132812 17.382812 0 17.515625 0 L 23.871094 0 C 24.226562 0 24.40625 -0.265625 24.269531 -0.578125 Z M 24.269531 -0.578125 "/></g></g></g><g fill="#ffffff" fill-opacity="1"><g transform="translate(151.144141, 209.059673)"><g><path d="M 16.890625 -6.625 L 6.800781 -6.625 L 6.800781 -14.625 L 20.757812 -14.625 C 21.027344 -14.625 21.25 -14.847656 21.25 -15.023438 L 21.25 -20.671875 C 21.25 -20.894531 21.027344 -21.070312 20.757812 -21.070312 L 6.800781 -21.070312 L 6.800781 -29.117188 L 16.890625 -29.117188 L 16.890625 -35.5625 L 0.488281 -35.5625 C 0.222656 -35.5625 0 -35.339844 0 -35.160156 L 0 -0.398438 C 0 -0.222656 0.222656 0 0.488281 0 L 16.890625 0 Z M 16.890625 -6.625 "/></g></g></g><g fill="#ffffff" fill-opacity="1"><g transform="translate(175.769204, 209.059673)"><g><path d="M 20.757812 -21.070312 L 6.800781 -21.070312 L 6.800781 -29.117188 L 16.890625 -29.117188 L 16.890625 -35.5625 L 0.488281 -35.5625 C 0.222656 -35.5625 0 -35.339844 0 -35.160156 L 0 -0.398438 C 0 -0.222656 0.222656 0 0.488281 0 L 6.800781 0 L 6.800781 -14.625 L 20.757812 -14.625 C 21.027344 -14.625 21.25 -14.847656 21.25 -15.023438 L 21.25 -20.671875 C 21.25 -20.894531 21.027344 -21.070312 20.757812 -21.070312 Z M 20.757812 -21.070312 "/></g></g></g><g fill="#0d9955" fill-opacity="1"><g transform="translate(200.395377, 209.059673)"><g><path d="M 5.46875 -17.382812 C 5.289062 -17.070312 5.511719 -16.757812 5.914062 -16.757812 L 10.625 -16.757812 C 13.46875 -16.535156 15.335938 -14.359375 15.335938 -11.335938 C 15.335938 -8.933594 13.78125 -6.445312 10.757812 -6.445312 C 8.667969 -6.445312 6.625 -7.957031 6.625 -10.359375 C 6.625 -10.578125 6.402344 -10.757812 6.179688 -10.757812 L 0.488281 -10.757812 C 0.222656 -10.757812 0 -10.578125 0 -10.359375 C 0 -4 5.023438 0 10.757812 0 C 16.535156 0 22.09375 -3.199219 22.09375 -10.933594 C 22.09375 -16.535156 19.46875 -20.582031 14.847656 -21.960938 L 22.226562 -34.941406 C 22.402344 -35.296875 22.183594 -35.5625 21.78125 -35.5625 L 1.644531 -35.5625 C 1.332031 -35.5625 1.15625 -35.382812 1.15625 -35.160156 L 1.15625 -29.648438 C 1.15625 -29.472656 1.332031 -29.25 1.644531 -29.25 L 12.402344 -29.25 Z M 5.46875 -17.382812 "/></g></g></g><g fill="#ffffff" fill-opacity="1"><g transform="translate(226.141469, 209.059673)"><g><path d="M 24.269531 -0.578125 C 22.046875 -5.511719 19.648438 -10.402344 17.425781 -15.425781 C 20.980469 -16.714844 23.960938 -19.558594 23.960938 -24.980469 C 23.960938 -35.472656 13.957031 -35.5625 11.957031 -35.5625 L 0.445312 -35.5625 C 0.222656 -35.5625 0 -35.339844 0 -35.160156 L 0 -29.117188 L 11.957031 -29.117188 C 13.023438 -29.117188 17.203125 -28.894531 17.203125 -24.980469 C 17.203125 -21.070312 13.425781 -20.894531 11.957031 -20.894531 L 0 -20.894531 L 0 -0.398438 C 0 -0.222656 0.222656 0 0.445312 0 L 6.269531 0 C 6.535156 0 6.757812 -0.222656 6.757812 -0.398438 L 6.757812 -14.359375 L 10.578125 -14.359375 L 17.070312 -0.265625 C 17.113281 -0.132812 17.382812 0 17.515625 0 L 23.871094 0 C 24.226562 0 24.40625 -0.265625 24.269531 -0.578125 Z M 24.269531 -0.578125 "/></g></g></g></svg>