<svg width="1056" height="432" viewBox="0 0 1056 432" fill="none" xmlns="http://www.w3.org/2000/svg">
<path d="M0 16C0 7.16343 7.16344 0 16 0H1040C1048.84 0 1056 7.16344 1056 16V416C1056 424.837 1048.84 432 1040 432H16C7.16343 432 0 424.837 0 416V16Z" fill="#111111"/>
<path d="M32.5568 31.3643V29.8182H40.6804V31.3643H37.5334V40H35.7038V31.3643H32.5568ZM44.3904 40.1491C43.6447 40.1491 42.9984 39.9851 42.4515 39.657C41.9047 39.3288 41.4804 38.8698 41.1788 38.2798C40.8805 37.6899 40.7314 37.0005 40.7314 36.2116C40.7314 35.4228 40.8805 34.7318 41.1788 34.1385C41.4804 33.5452 41.9047 33.0845 42.4515 32.7564C42.9984 32.4283 43.6447 32.2642 44.3904 32.2642C45.1362 32.2642 45.7825 32.4283 46.3294 32.7564C46.8762 33.0845 47.2988 33.5452 47.5971 34.1385C47.8987 34.7318 48.0495 35.4228 48.0495 36.2116C48.0495 37.0005 47.8987 37.6899 47.5971 38.2798C47.2988 38.8698 46.8762 39.3288 46.3294 39.657C45.7825 39.9851 45.1362 40.1491 44.3904 40.1491ZM44.4004 38.7074C44.8047 38.7074 45.1428 38.5964 45.4146 38.3743C45.6864 38.1489 45.8886 37.8473 46.0211 37.4695C46.157 37.0916 46.225 36.6707 46.225 36.2067C46.225 35.7393 46.157 35.3168 46.0211 34.9389C45.8886 34.5578 45.6864 34.2545 45.4146 34.0291C45.1428 33.8037 44.8047 33.6911 44.4004 33.6911C43.9861 33.6911 43.6414 33.8037 43.3663 34.0291C43.0945 34.2545 42.8907 34.5578 42.7548 34.9389C42.6222 35.3168 42.5559 35.7393 42.5559 36.2067C42.5559 36.6707 42.6222 37.0916 42.7548 37.4695C42.8907 37.8473 43.0945 38.1489 43.3663 38.3743C43.6414 38.5964 43.9861 38.7074 44.4004 38.7074ZM53.3903 32.3636V33.7557H49.0004V32.3636H53.3903ZM50.0842 30.5341H51.8839V37.7031C51.8839 37.9451 51.9203 38.1307 51.9933 38.2599C52.0695 38.3859 52.1689 38.4721 52.2915 38.5185C52.4142 38.5649 52.5501 38.5881 52.6992 38.5881C52.8119 38.5881 52.9147 38.5798 53.0075 38.5632C53.1036 38.5466 53.1765 38.5317 53.2262 38.5185L53.5295 39.9254C53.4334 39.9586 53.2958 39.995 53.1168 40.0348C52.9412 40.0746 52.7257 40.0978 52.4705 40.1044C52.0198 40.1177 51.6138 40.0497 51.2525 39.9006C50.8912 39.7481 50.6045 39.5128 50.3924 39.1946C50.1836 38.8764 50.0808 38.4787 50.0842 38.0014V30.5341ZM57.6472 40.1342C57.0473 40.1342 56.5104 39.9801 56.0364 39.6719C55.5624 39.3636 55.1879 38.9162 54.9128 38.3295C54.6377 37.7429 54.5002 37.0303 54.5002 36.1918C54.5002 35.3433 54.6394 34.6274 54.9178 34.044C55.1995 33.4574 55.579 33.0149 56.0563 32.7166C56.5336 32.415 57.0655 32.2642 57.6522 32.2642C58.0996 32.2642 58.4675 32.3404 58.7559 32.4929C59.0442 32.642 59.2729 32.8227 59.4419 33.0348C59.611 33.2436 59.7419 33.4408 59.8347 33.6264H59.9093V32.3636H61.714V40H59.9441V38.7969H59.8347C59.7419 38.9825 59.6077 39.1797 59.432 39.3885C59.2563 39.594 59.0243 39.7696 58.736 39.9155C58.4476 40.0613 58.0847 40.1342 57.6472 40.1342ZM58.1493 38.6577C58.5305 38.6577 58.8553 38.5549 59.1238 38.3494C59.3922 38.1406 59.5961 37.8506 59.7353 37.4794C59.8745 37.1082 59.9441 36.6757 59.9441 36.1818C59.9441 35.688 59.8745 35.2588 59.7353 34.8942C59.5994 34.5296 59.3972 34.2462 59.1287 34.044C58.8636 33.8419 58.5371 33.7408 58.1493 33.7408C57.7483 33.7408 57.4135 33.8452 57.1451 34.054C56.8766 34.2628 56.6744 34.5511 56.5385 34.919C56.4026 35.2869 56.3347 35.7079 56.3347 36.1818C56.3347 36.6591 56.4026 37.085 56.5385 37.4595C56.6777 37.8307 56.8816 38.1241 57.15 38.3395C57.4218 38.5516 57.7549 38.6577 58.1493 38.6577ZM65.4315 29.8182V40H63.6317V29.8182H65.4315ZM77.2527 29.8182H79.0971V36.4702C79.0971 37.1993 78.9248 37.8407 78.5801 38.3942C78.2387 38.9477 77.7581 39.3802 77.1383 39.6918C76.5185 40 75.7943 40.1541 74.9657 40.1541C74.1338 40.1541 73.408 40 72.7882 39.6918C72.1684 39.3802 71.6878 38.9477 71.3464 38.3942C71.005 37.8407 70.8343 37.1993 70.8343 36.4702V29.8182H72.6788V36.3161C72.6788 36.7403 72.7716 37.1181 72.9572 37.4496C73.1461 37.781 73.4113 38.0412 73.7527 38.2301C74.094 38.4157 74.4984 38.5085 74.9657 38.5085C75.4331 38.5085 75.8374 38.4157 76.1788 38.2301C76.5235 38.0412 76.7886 37.781 76.9743 37.4496C77.1599 37.1181 77.2527 36.7403 77.2527 36.3161V29.8182ZM87.0579 34.3821L85.4173 34.5611C85.3709 34.3954 85.2897 34.2396 85.1737 34.0938C85.061 33.9479 84.9085 33.8303 84.7163 33.7408C84.524 33.6513 84.2887 33.6065 84.0103 33.6065C83.6358 33.6065 83.3209 33.6877 83.0657 33.8501C82.8138 34.0125 82.6895 34.223 82.6928 34.4815C82.6895 34.7036 82.7707 34.8842 82.9364 35.0234C83.1055 35.1626 83.3839 35.277 83.7717 35.3665L85.0742 35.6449C85.7968 35.8007 86.3337 36.0476 86.685 36.3857C87.0397 36.7237 87.2186 37.1662 87.2219 37.7131C87.2186 38.1937 87.0778 38.6179 86.7994 38.9858C86.5243 39.3504 86.1415 39.6354 85.6509 39.8409C85.1604 40.0464 84.5969 40.1491 83.9606 40.1491C83.0259 40.1491 82.2736 39.9536 81.7035 39.5625C81.1334 39.1681 80.7937 38.6196 80.6843 37.9169L82.4393 37.7479C82.5188 38.0926 82.6879 38.3527 82.9464 38.5284C83.2049 38.7041 83.5413 38.7919 83.9556 38.7919C84.3832 38.7919 84.7262 38.7041 84.9847 38.5284C85.2466 38.3527 85.3775 38.1357 85.3775 37.8771C85.3775 37.6584 85.293 37.4777 85.1239 37.3352C84.9582 37.1927 84.6997 37.0833 84.3484 37.0071L83.0458 36.7337C82.3133 36.5812 81.7714 36.3243 81.4201 35.9631C81.0688 35.5985 80.8948 35.1378 80.8981 34.581C80.8948 34.1103 81.0224 33.7027 81.2809 33.358C81.5427 33.0099 81.9057 32.7415 82.3697 32.5526C82.837 32.3603 83.3756 32.2642 83.9854 32.2642C84.8803 32.2642 85.5846 32.4548 86.0984 32.8359C86.6154 33.2171 86.9353 33.7325 87.0579 34.3821ZM92.0866 40.1491C91.321 40.1491 90.6598 39.9901 90.103 39.6719C89.5495 39.3504 89.1236 38.8963 88.8253 38.3097C88.527 37.7197 88.3778 37.0253 88.3778 36.2266C88.3778 35.4411 88.527 34.7517 88.8253 34.1584C89.1269 33.5618 89.5478 33.0978 90.0881 32.7663C90.6283 32.4316 91.263 32.2642 91.9922 32.2642C92.4628 32.2642 92.907 32.3404 93.3246 32.4929C93.7455 32.642 94.1167 32.8741 94.4382 33.1889C94.763 33.5038 95.0182 33.9048 95.2038 34.392C95.3894 34.8759 95.4822 35.4527 95.4822 36.1222V36.674H89.223V35.4609H93.7571C93.7538 35.1162 93.6792 34.8097 93.5334 34.5412C93.3875 34.2694 93.1837 34.0556 92.9219 33.8999C92.6634 33.7441 92.3617 33.6662 92.017 33.6662C91.6491 33.6662 91.326 33.7557 91.0476 33.9347C90.7692 34.1103 90.5521 34.3423 90.3963 34.6307C90.2438 34.9157 90.166 35.2289 90.1626 35.5703V36.6293C90.1626 37.0734 90.2438 37.4545 90.4062 37.7727C90.5687 38.0876 90.7957 38.3295 91.0874 38.4986C91.379 38.6643 91.7204 38.7472 92.1115 38.7472C92.3733 38.7472 92.6103 38.7107 92.8224 38.6378C93.0346 38.5616 93.2185 38.4505 93.3743 38.3047C93.5301 38.1589 93.6477 37.9782 93.7273 37.7628L95.4077 37.9517C95.3016 38.3958 95.0994 38.7836 94.8011 39.1151C94.5062 39.4432 94.1283 39.6984 93.6676 39.8807C93.2069 40.0597 92.6799 40.1491 92.0866 40.1491ZM97.0048 40V32.3636H98.7498V33.6364H98.8294C98.9686 33.1955 99.2072 32.8558 99.5453 32.6172C99.8867 32.3752 100.276 32.2543 100.714 32.2543C100.813 32.2543 100.924 32.2592 101.047 32.2692C101.173 32.2758 101.277 32.2874 101.36 32.304V33.9595C101.284 33.933 101.163 33.9098 100.997 33.8899C100.835 33.8667 100.677 33.8551 100.525 33.8551C100.197 33.8551 99.9016 33.9264 99.6397 34.0689C99.3812 34.2081 99.1774 34.402 99.0282 34.6506C98.8791 34.8991 98.8045 35.1858 98.8045 35.5107V40H97.0048ZM108.591 34.3821L106.95 34.5611C106.904 34.3954 106.823 34.2396 106.707 34.0938C106.594 33.9479 106.442 33.8303 106.249 33.7408C106.057 33.6513 105.822 33.6065 105.544 33.6065C105.169 33.6065 104.854 33.6877 104.599 33.8501C104.347 34.0125 104.223 34.223 104.226 34.4815C104.223 34.7036 104.304 34.8842 104.47 35.0234C104.639 35.1626 104.917 35.277 105.305 35.3665L106.607 35.6449C107.33 35.8007 107.867 36.0476 108.218 36.3857C108.573 36.7237 108.752 37.1662 108.755 37.7131C108.752 38.1937 108.611 38.6179 108.333 38.9858C108.057 39.3504 107.675 39.6354 107.184 39.8409C106.694 40.0464 106.13 40.1491 105.494 40.1491C104.559 40.1491 103.807 39.9536 103.237 39.5625C102.667 39.1681 102.327 38.6196 102.218 37.9169L103.972 37.7479C104.052 38.0926 104.221 38.3527 104.48 38.5284C104.738 38.7041 105.075 38.7919 105.489 38.7919C105.916 38.7919 106.259 38.7041 106.518 38.5284C106.78 38.3527 106.911 38.1357 106.911 37.8771C106.911 37.6584 106.826 37.4777 106.657 37.3352C106.491 37.1927 106.233 37.0833 105.882 37.0071L104.579 36.7337C103.847 36.5812 103.305 36.3243 102.953 35.9631C102.602 35.5985 102.428 35.1378 102.431 34.581C102.428 34.1103 102.556 33.7027 102.814 33.358C103.076 33.0099 103.439 32.7415 103.903 32.5526C104.37 32.3603 104.909 32.2642 105.519 32.2642C106.414 32.2642 107.118 32.4548 107.632 32.8359C108.149 33.2171 108.468 33.7325 108.591 34.3821Z" fill="white"/>
<path d="M126.676 30.9119V29.8182H134.312V30.9119H131.111V40H129.878V30.9119H126.676ZM138.051 40.1591C137.362 40.1591 136.757 39.995 136.237 39.6669C135.719 39.3388 135.315 38.8797 135.023 38.2898C134.735 37.6998 134.591 37.0104 134.591 36.2216C134.591 35.4261 134.735 34.7318 135.023 34.1385C135.315 33.5452 135.719 33.0845 136.237 32.7564C136.757 32.4283 137.362 32.2642 138.051 32.2642C138.741 32.2642 139.344 32.4283 139.861 32.7564C140.381 33.0845 140.786 33.5452 141.074 34.1385C141.366 34.7318 141.511 35.4261 141.511 36.2216C141.511 37.0104 141.366 37.6998 141.074 38.2898C140.786 38.8797 140.381 39.3388 139.861 39.6669C139.344 39.995 138.741 40.1591 138.051 40.1591ZM138.051 39.1051C138.575 39.1051 139.006 38.9709 139.344 38.7024C139.682 38.4339 139.932 38.081 140.094 37.6435C140.257 37.206 140.338 36.732 140.338 36.2216C140.338 35.7112 140.257 35.2356 140.094 34.7947C139.932 34.3539 139.682 33.9976 139.344 33.7259C139.006 33.4541 138.575 33.3182 138.051 33.3182C137.527 33.3182 137.097 33.4541 136.759 33.7259C136.42 33.9976 136.17 34.3539 136.008 34.7947C135.845 35.2356 135.764 35.7112 135.764 36.2216C135.764 36.732 135.845 37.206 136.008 37.6435C136.17 38.081 136.42 38.4339 136.759 38.7024C137.097 38.9709 137.527 39.1051 138.051 39.1051ZM146.623 32.3636V33.358H142.666V32.3636H146.623ZM143.819 30.5341H144.993V37.8125C144.993 38.1439 145.041 38.3925 145.137 38.5582C145.236 38.7206 145.362 38.83 145.515 38.8864C145.671 38.9394 145.835 38.9659 146.007 38.9659C146.136 38.9659 146.242 38.9593 146.325 38.946C146.408 38.9295 146.474 38.9162 146.524 38.9062L146.763 39.9602C146.683 39.9901 146.572 40.0199 146.43 40.0497C146.287 40.0829 146.106 40.0994 145.888 40.0994C145.556 40.0994 145.231 40.0282 144.913 39.8857C144.598 39.7431 144.336 39.526 144.128 39.2344C143.922 38.9427 143.819 38.5748 143.819 38.1307V30.5341ZM151.19 40.1591C150.553 40.1591 149.992 39.9983 149.504 39.6768C149.017 39.352 148.636 38.8946 148.361 38.3047C148.086 37.7114 147.948 37.0104 147.948 36.2017C147.948 35.3996 148.086 34.7036 148.361 34.1136C148.636 33.5237 149.019 33.0679 149.509 32.7464C150 32.425 150.567 32.2642 151.21 32.2642C151.707 32.2642 152.1 32.3471 152.388 32.5128C152.68 32.6752 152.902 32.8608 153.054 33.0696C153.21 33.2751 153.331 33.4441 153.417 33.5767H153.517V32.3636H154.69V40H153.556V38.8267H153.417C153.331 38.9659 153.208 39.1416 153.049 39.3537C152.89 39.5625 152.663 39.7498 152.368 39.9155C152.073 40.0779 151.68 40.1591 151.19 40.1591ZM151.349 39.1051C151.82 39.1051 152.217 38.9825 152.542 38.7372C152.867 38.4886 153.114 38.1456 153.283 37.7081C153.452 37.2673 153.536 36.7585 153.536 36.1818C153.536 35.6117 153.454 35.1129 153.288 34.6854C153.122 34.2545 152.877 33.9197 152.552 33.6811C152.227 33.4392 151.826 33.3182 151.349 33.3182C150.852 33.3182 150.437 33.4458 150.106 33.701C149.778 33.9529 149.531 34.2959 149.365 34.7301C149.203 35.161 149.122 35.6449 149.122 36.1818C149.122 36.7254 149.204 37.2192 149.37 37.6634C149.539 38.1042 149.788 38.4555 150.116 38.7173C150.447 38.9759 150.858 39.1051 151.349 39.1051ZM158.175 29.8182V40H157.002V29.8182H158.175ZM164.42 40V29.8182H167.861C168.66 29.8182 169.313 29.9624 169.82 30.2507C170.33 30.5357 170.708 30.9219 170.953 31.4091C171.198 31.8963 171.321 32.4399 171.321 33.0398C171.321 33.6397 171.198 34.1849 170.953 34.6754C170.711 35.166 170.337 35.5571 169.83 35.8487C169.322 36.1371 168.673 36.2812 167.881 36.2812H165.415V35.1875H167.841C168.388 35.1875 168.827 35.093 169.158 34.9041C169.49 34.7152 169.73 34.46 169.879 34.1385C170.032 33.8137 170.108 33.4474 170.108 33.0398C170.108 32.6321 170.032 32.2675 169.879 31.946C169.73 31.6245 169.488 31.3726 169.153 31.1903C168.819 31.0047 168.375 30.9119 167.821 30.9119H165.653V40H164.42ZM173.148 40V32.3636H174.282V33.517H174.361C174.5 33.1392 174.752 32.8326 175.117 32.5973C175.481 32.362 175.892 32.2443 176.35 32.2443C176.436 32.2443 176.544 32.246 176.673 32.2493C176.802 32.2526 176.9 32.2576 176.966 32.2642V33.4574C176.926 33.4474 176.835 33.4325 176.693 33.4126C176.554 33.3894 176.406 33.3778 176.25 33.3778C175.879 33.3778 175.548 33.4557 175.256 33.6115C174.968 33.764 174.739 33.9761 174.57 34.2479C174.404 34.5163 174.321 34.8229 174.321 35.1676V40H173.148ZM181.227 40.1591C180.538 40.1591 179.933 39.995 179.412 39.6669C178.895 39.3388 178.491 38.8797 178.199 38.2898C177.911 37.6998 177.767 37.0104 177.767 36.2216C177.767 35.4261 177.911 34.7318 178.199 34.1385C178.491 33.5452 178.895 33.0845 179.412 32.7564C179.933 32.4283 180.538 32.2642 181.227 32.2642C181.916 32.2642 182.52 32.4283 183.037 32.7564C183.557 33.0845 183.961 33.5452 184.25 34.1385C184.541 34.7318 184.687 35.4261 184.687 36.2216C184.687 37.0104 184.541 37.6998 184.25 38.2898C183.961 38.8797 183.557 39.3388 183.037 39.6669C182.52 39.995 181.916 40.1591 181.227 40.1591ZM181.227 39.1051C181.751 39.1051 182.181 38.9709 182.52 38.7024C182.858 38.4339 183.108 38.081 183.27 37.6435C183.433 37.206 183.514 36.732 183.514 36.2216C183.514 35.7112 183.433 35.2356 183.27 34.7947C183.108 34.3539 182.858 33.9976 182.52 33.7259C182.181 33.4541 181.751 33.3182 181.227 33.3182C180.703 33.3182 180.272 33.4541 179.934 33.7259C179.596 33.9976 179.346 34.3539 179.184 34.7947C179.021 35.2356 178.94 35.7112 178.94 36.2216C178.94 36.732 179.021 37.206 179.184 37.6435C179.346 38.081 179.596 38.4339 179.934 38.7024C180.272 38.9709 180.703 39.1051 181.227 39.1051ZM186.478 32.3636H187.651V40.5568C187.651 41.0275 187.57 41.4351 187.408 41.7798C187.249 42.1245 187.007 42.3913 186.682 42.5803C186.36 42.7692 185.954 42.8636 185.464 42.8636C185.424 42.8636 185.384 42.8636 185.345 42.8636C185.305 42.8636 185.265 42.8636 185.225 42.8636V41.7699C185.265 41.7699 185.302 41.7699 185.335 41.7699C185.368 41.7699 185.404 41.7699 185.444 41.7699C185.802 41.7699 186.064 41.6638 186.23 41.4517C186.395 41.2429 186.478 40.9446 186.478 40.5568V32.3636ZM187.055 31.0909C186.826 31.0909 186.629 31.013 186.463 30.8572C186.301 30.7015 186.22 30.5142 186.22 30.2955C186.22 30.0767 186.301 29.8894 186.463 29.7337C186.629 29.5779 186.826 29.5 187.055 29.5C187.284 29.5 187.479 29.5779 187.642 29.7337C187.807 29.8894 187.89 30.0767 187.89 30.2955C187.89 30.5142 187.807 30.7015 187.642 30.8572C187.479 31.013 187.284 31.0909 187.055 31.0909ZM193.002 40.1591C192.266 40.1591 191.632 39.9967 191.098 39.6719C190.568 39.3438 190.158 38.8864 189.87 38.2997C189.585 37.7098 189.442 37.0237 189.442 36.2415C189.442 35.4593 189.585 34.7699 189.87 34.1733C190.158 33.5734 190.559 33.1061 191.073 32.7713C191.59 32.4332 192.193 32.2642 192.883 32.2642C193.281 32.2642 193.673 32.3305 194.061 32.4631C194.449 32.5956 194.802 32.8111 195.12 33.1094C195.438 33.4044 195.692 33.7955 195.881 34.2827C196.07 34.7699 196.164 35.3698 196.164 36.0824V36.5795H190.278V35.5653H194.971C194.971 35.1345 194.885 34.75 194.712 34.4119C194.543 34.0739 194.301 33.8071 193.987 33.6115C193.675 33.416 193.307 33.3182 192.883 33.3182C192.415 33.3182 192.011 33.4342 191.67 33.6662C191.332 33.8949 191.071 34.1932 190.889 34.5611C190.707 34.929 190.616 35.3234 190.616 35.7443V36.4205C190.616 36.9972 190.715 37.486 190.914 37.8871C191.116 38.2848 191.396 38.5881 191.754 38.7969C192.112 39.0024 192.528 39.1051 193.002 39.1051C193.31 39.1051 193.589 39.062 193.837 38.9759C194.089 38.8864 194.306 38.7538 194.489 38.5781C194.671 38.3991 194.812 38.1771 194.911 37.9119L196.045 38.2301C195.925 38.6146 195.725 38.9527 195.443 39.2443C195.161 39.5327 194.813 39.758 194.399 39.9205C193.985 40.0795 193.519 40.1591 193.002 40.1591ZM201.051 40.1591C200.335 40.1591 199.719 39.9901 199.202 39.652C198.685 39.3139 198.287 38.8482 198.009 38.255C197.73 37.6617 197.591 36.9839 197.591 36.2216C197.591 35.446 197.733 34.7616 198.018 34.1683C198.307 33.5717 198.708 33.1061 199.222 32.7713C199.739 32.4332 200.342 32.2642 201.031 32.2642C201.568 32.2642 202.052 32.3636 202.483 32.5625C202.914 32.7614 203.267 33.0398 203.542 33.3977C203.817 33.7557 203.988 34.1733 204.054 34.6506H202.881C202.791 34.3026 202.592 33.9943 202.284 33.7259C201.979 33.4541 201.568 33.3182 201.051 33.3182C200.594 33.3182 200.193 33.4375 199.848 33.6761C199.507 33.9115 199.24 34.2446 199.048 34.6754C198.859 35.103 198.764 35.6051 198.764 36.1818C198.764 36.7718 198.857 37.2855 199.043 37.723C199.232 38.1605 199.497 38.5002 199.838 38.7422C200.183 38.9841 200.587 39.1051 201.051 39.1051C201.356 39.1051 201.633 39.0521 201.881 38.946C202.13 38.84 202.34 38.6875 202.513 38.4886C202.685 38.2898 202.808 38.0511 202.881 37.7727H204.054C203.988 38.2235 203.824 38.6295 203.562 38.9908C203.303 39.3487 202.96 39.6338 202.533 39.8459C202.108 40.0547 201.615 40.1591 201.051 40.1591ZM209.09 32.3636V33.358H205.133V32.3636H209.09ZM206.286 30.5341H207.46V37.8125C207.46 38.1439 207.508 38.3925 207.604 38.5582C207.703 38.7206 207.829 38.83 207.982 38.8864C208.137 38.9394 208.301 38.9659 208.474 38.9659C208.603 38.9659 208.709 38.9593 208.792 38.946C208.875 38.9295 208.941 38.9162 208.991 38.9062L209.229 39.9602C209.15 39.9901 209.039 40.0199 208.896 40.0497C208.754 40.0829 208.573 40.0994 208.354 40.0994C208.023 40.0994 207.698 40.0282 207.38 39.8857C207.065 39.7431 206.803 39.526 206.594 39.2344C206.389 38.9427 206.286 38.5748 206.286 38.1307V30.5341ZM216.127 34.0739L215.074 34.3722C215.007 34.1965 214.909 34.0258 214.78 33.8601C214.654 33.6911 214.482 33.5518 214.263 33.4425C214.044 33.3331 213.764 33.2784 213.423 33.2784C212.956 33.2784 212.566 33.3861 212.255 33.6016C211.946 33.8137 211.792 34.0838 211.792 34.4119C211.792 34.7036 211.898 34.9339 212.11 35.103C212.323 35.272 212.654 35.4129 213.105 35.5256L214.238 35.804C214.921 35.9697 215.43 36.2232 215.765 36.5646C216.099 36.9027 216.267 37.3385 216.267 37.8722C216.267 38.3097 216.141 38.7008 215.889 39.0455C215.64 39.3902 215.292 39.6619 214.845 39.8608C214.397 40.0597 213.877 40.1591 213.284 40.1591C212.505 40.1591 211.86 39.9901 211.35 39.652C210.839 39.3139 210.516 38.8201 210.38 38.1705L211.494 37.892C211.6 38.303 211.801 38.6113 212.096 38.8168C212.394 39.0223 212.783 39.125 213.264 39.125C213.811 39.125 214.245 39.009 214.566 38.777C214.891 38.5417 215.054 38.2599 215.054 37.9318C215.054 37.6667 214.961 37.4446 214.775 37.2656C214.59 37.0833 214.305 36.9474 213.92 36.858L212.647 36.5597C211.948 36.3939 211.434 36.1371 211.106 35.7891C210.781 35.4377 210.619 34.9986 210.619 34.4716C210.619 34.0407 210.74 33.6596 210.982 33.3281C211.227 32.9967 211.56 32.7365 211.981 32.5476C212.405 32.3587 212.886 32.2642 213.423 32.2642C214.179 32.2642 214.772 32.4299 215.203 32.7614C215.637 33.0928 215.945 33.5303 216.127 34.0739Z" fill="white"/>
<path d="M242.824 34.9091C242.824 35.983 242.63 36.911 242.242 37.6932C241.854 38.4754 241.322 39.0786 240.646 39.5028C239.97 39.9271 239.198 40.1392 238.33 40.1392C237.461 40.1392 236.689 39.9271 236.013 39.5028C235.337 39.0786 234.805 38.4754 234.417 37.6932C234.029 36.911 233.835 35.983 233.835 34.9091C233.835 33.8352 234.029 32.9072 234.417 32.125C234.805 31.3428 235.337 30.7396 236.013 30.3153C236.689 29.8911 237.461 29.679 238.33 29.679C239.198 29.679 239.97 29.8911 240.646 30.3153C241.322 30.7396 241.854 31.3428 242.242 32.125C242.63 32.9072 242.824 33.8352 242.824 34.9091ZM241.631 34.9091C241.631 34.0275 241.483 33.2834 241.188 32.6768C240.897 32.0703 240.5 31.6113 240 31.2997C239.503 30.9882 238.946 30.8324 238.33 30.8324C237.713 30.8324 237.155 30.9882 236.654 31.2997C236.157 31.6113 235.761 32.0703 235.466 32.6768C235.174 33.2834 235.028 34.0275 235.028 34.9091C235.028 35.7907 235.174 36.5348 235.466 37.1413C235.761 37.7479 236.157 38.2069 236.654 38.5185C237.155 38.83 237.713 38.9858 238.33 38.9858C238.946 38.9858 239.503 38.83 240 38.5185C240.5 38.2069 240.897 37.7479 241.188 37.1413C241.483 36.5348 241.631 35.7907 241.631 34.9091ZM244.738 42.8636V32.3636H245.871V33.5767H246.011C246.097 33.4441 246.216 33.2751 246.369 33.0696C246.524 32.8608 246.746 32.6752 247.035 32.5128C247.326 32.3471 247.721 32.2642 248.218 32.2642C248.861 32.2642 249.428 32.425 249.918 32.7464C250.409 33.0679 250.792 33.5237 251.067 34.1136C251.342 34.7036 251.479 35.3996 251.479 36.2017C251.479 37.0104 251.342 37.7114 251.067 38.3047C250.792 38.8946 250.411 39.352 249.923 39.6768C249.436 39.9983 248.874 40.1591 248.238 40.1591C247.747 40.1591 247.355 40.0779 247.06 39.9155C246.765 39.7498 246.538 39.5625 246.379 39.3537C246.219 39.1416 246.097 38.9659 246.011 38.8267H245.911V42.8636H244.738ZM245.891 36.1818C245.891 36.7585 245.976 37.2673 246.145 37.7081C246.314 38.1456 246.561 38.4886 246.886 38.7372C247.21 38.9825 247.608 39.1051 248.079 39.1051C248.569 39.1051 248.979 38.9759 249.307 38.7173C249.638 38.4555 249.887 38.1042 250.053 37.6634C250.222 37.2192 250.306 36.7254 250.306 36.1818C250.306 35.6449 250.223 35.161 250.058 34.7301C249.895 34.2959 249.648 33.9529 249.317 33.701C248.989 33.4458 248.576 33.3182 248.079 33.3182C247.602 33.3182 247.201 33.4392 246.876 33.6811C246.551 33.9197 246.306 34.2545 246.14 34.6854C245.974 35.1129 245.891 35.6117 245.891 36.1818ZM256.471 40.1591C255.735 40.1591 255.1 39.9967 254.567 39.6719C254.036 39.3438 253.627 38.8864 253.339 38.2997C253.054 37.7098 252.911 37.0237 252.911 36.2415C252.911 35.4593 253.054 34.7699 253.339 34.1733C253.627 33.5734 254.028 33.1061 254.542 32.7713C255.059 32.4332 255.662 32.2642 256.352 32.2642C256.749 32.2642 257.142 32.3305 257.53 32.4631C257.918 32.5956 258.271 32.8111 258.589 33.1094C258.907 33.4044 259.161 33.7955 259.349 34.2827C259.538 34.7699 259.633 35.3698 259.633 36.0824V36.5795H253.746V35.5653H258.44C258.44 35.1345 258.353 34.75 258.181 34.4119C258.012 34.0739 257.77 33.8071 257.455 33.6115C257.144 33.416 256.776 33.3182 256.352 33.3182C255.884 33.3182 255.48 33.4342 255.138 33.6662C254.8 33.8949 254.54 34.1932 254.358 34.5611C254.176 34.929 254.085 35.3234 254.085 35.7443V36.4205C254.085 36.9972 254.184 37.486 254.383 37.8871C254.585 38.2848 254.865 38.5881 255.223 38.7969C255.581 39.0024 255.997 39.1051 256.471 39.1051C256.779 39.1051 257.058 39.062 257.306 38.9759C257.558 38.8864 257.775 38.7538 257.957 38.5781C258.14 38.3991 258.281 38.1771 258.38 37.9119L259.513 38.2301C259.394 38.6146 259.194 38.9527 258.912 39.2443C258.63 39.5327 258.282 39.758 257.868 39.9205C257.454 40.0795 256.988 40.1591 256.471 40.1591ZM261.418 40V32.3636H262.551V33.517H262.631C262.77 33.1392 263.022 32.8326 263.386 32.5973C263.751 32.362 264.162 32.2443 264.619 32.2443C264.705 32.2443 264.813 32.246 264.942 32.2493C265.072 32.2526 265.17 32.2576 265.236 32.2642V33.4574C265.196 33.4474 265.105 33.4325 264.962 33.4126C264.823 33.3894 264.676 33.3778 264.52 33.3778C264.149 33.3778 263.817 33.4557 263.526 33.6115C263.237 33.764 263.009 33.9761 262.839 34.2479C262.674 34.5163 262.591 34.8229 262.591 35.1676V40H261.418ZM269.278 40.1591C268.641 40.1591 268.08 39.9983 267.592 39.6768C267.105 39.352 266.724 38.8946 266.449 38.3047C266.174 37.7114 266.036 37.0104 266.036 36.2017C266.036 35.3996 266.174 34.7036 266.449 34.1136C266.724 33.5237 267.107 33.0679 267.597 32.7464C268.088 32.425 268.655 32.2642 269.298 32.2642C269.795 32.2642 270.188 32.3471 270.476 32.5128C270.768 32.6752 270.99 32.8608 271.142 33.0696C271.298 33.2751 271.419 33.4441 271.505 33.5767H271.604V32.3636H272.778V40H271.644V38.8267H271.505C271.419 38.9659 271.296 39.1416 271.137 39.3537C270.978 39.5625 270.751 39.7498 270.456 39.9155C270.161 40.0779 269.768 40.1591 269.278 40.1591ZM269.437 39.1051C269.907 39.1051 270.305 38.9825 270.63 38.7372C270.955 38.4886 271.202 38.1456 271.371 37.7081C271.54 37.2673 271.624 36.7585 271.624 36.1818C271.624 35.6117 271.541 35.1129 271.376 34.6854C271.21 34.2545 270.965 33.9197 270.64 33.6811C270.315 33.4392 269.914 33.3182 269.437 33.3182C268.94 33.3182 268.525 33.4458 268.194 33.701C267.866 33.9529 267.619 34.2959 267.453 34.7301C267.291 35.161 267.21 35.6449 267.21 36.1818C267.21 36.7254 267.292 37.2192 267.458 37.6634C267.627 38.1042 267.876 38.4555 268.204 38.7173C268.535 38.9759 268.946 39.1051 269.437 39.1051ZM278.411 32.3636V33.358H274.453V32.3636H278.411ZM275.607 30.5341H276.78V37.8125C276.78 38.1439 276.828 38.3925 276.924 38.5582C277.023 38.7206 277.149 38.83 277.302 38.8864C277.458 38.9394 277.622 38.9659 277.794 38.9659C277.923 38.9659 278.029 38.9593 278.112 38.946C278.195 38.9295 278.261 38.9162 278.311 38.9062L278.55 39.9602C278.47 39.9901 278.359 40.0199 278.217 40.0497C278.074 40.0829 277.893 40.0994 277.675 40.0994C277.343 40.0994 277.018 40.0282 276.7 39.8857C276.385 39.7431 276.124 39.526 275.915 39.2344C275.709 38.9427 275.607 38.5748 275.607 38.1307V30.5341ZM280.175 40V32.3636H281.349V40H280.175ZM280.772 31.0909C280.543 31.0909 280.346 31.013 280.18 30.8572C280.018 30.7015 279.937 30.5142 279.937 30.2955C279.937 30.0767 280.018 29.8894 280.18 29.7337C280.346 29.5779 280.543 29.5 280.772 29.5C281.001 29.5 281.196 29.5779 281.359 29.7337C281.524 29.8894 281.607 30.0767 281.607 30.2955C281.607 30.5142 281.524 30.7015 281.359 30.8572C281.196 31.013 281.001 31.0909 280.772 31.0909ZM284.671 35.4062V40H283.498V32.3636H284.631V33.5568H284.731C284.91 33.169 285.181 32.8575 285.546 32.6222C285.911 32.3835 286.381 32.2642 286.958 32.2642C287.475 32.2642 287.927 32.3703 288.315 32.5824C288.703 32.7912 289.005 33.1094 289.22 33.5369C289.435 33.9612 289.543 34.4981 289.543 35.1477V40H288.37V35.2273C288.37 34.6274 288.214 34.16 287.903 33.8253C287.591 33.4872 287.163 33.3182 286.62 33.3182C286.245 33.3182 285.911 33.3994 285.616 33.5618C285.324 33.7242 285.094 33.9612 284.925 34.2727C284.756 34.5843 284.671 34.9621 284.671 35.4062ZM294.77 43.0227C294.203 43.0227 293.716 42.9498 293.308 42.804C292.9 42.6615 292.56 42.4725 292.289 42.2372C292.02 42.0052 291.806 41.7566 291.647 41.4915L292.582 40.8352C292.688 40.9744 292.822 41.1335 292.985 41.3125C293.147 41.4948 293.369 41.6522 293.651 41.7848C293.936 41.9207 294.309 41.9886 294.77 41.9886C295.386 41.9886 295.895 41.8395 296.296 41.5412C296.697 41.2429 296.897 40.7756 296.897 40.1392V38.5881H296.798C296.712 38.7273 296.589 38.8996 296.43 39.1051C296.274 39.3073 296.049 39.4879 295.754 39.647C295.462 39.8028 295.068 39.8807 294.571 39.8807C293.954 39.8807 293.401 39.7348 292.91 39.4432C292.423 39.1515 292.037 38.7273 291.752 38.1705C291.47 37.6136 291.329 36.9375 291.329 36.142C291.329 35.3598 291.467 34.6787 291.742 34.0987C292.017 33.5154 292.4 33.0646 292.89 32.7464C293.381 32.425 293.948 32.2642 294.591 32.2642C295.088 32.2642 295.482 32.3471 295.774 32.5128C296.069 32.6752 296.294 32.8608 296.45 33.0696C296.609 33.2751 296.732 33.4441 296.818 33.5767H296.937V32.3636H298.071V40.2188C298.071 40.875 297.922 41.4086 297.623 41.8196C297.328 42.2339 296.931 42.5372 296.43 42.7294C295.933 42.925 295.379 43.0227 294.77 43.0227ZM294.73 38.8267C295.2 38.8267 295.598 38.719 295.923 38.5036C296.248 38.2881 296.495 37.9782 296.664 37.5739C296.833 37.1695 296.917 36.6856 296.917 36.1222C296.917 35.572 296.834 35.0864 296.669 34.6655C296.503 34.2446 296.258 33.9148 295.933 33.6761C295.608 33.4375 295.207 33.3182 294.73 33.3182C294.233 33.3182 293.818 33.4441 293.487 33.696C293.159 33.9479 292.912 34.286 292.746 34.7102C292.584 35.1345 292.502 35.6051 292.502 36.1222C292.502 36.6525 292.585 37.1214 292.751 37.5291C292.92 37.9335 293.169 38.2517 293.497 38.4837C293.828 38.7124 294.239 38.8267 294.73 38.8267ZM309.883 32.3636C309.824 31.8598 309.582 31.4688 309.157 31.1903C308.733 30.9119 308.213 30.7727 307.596 30.7727C307.145 30.7727 306.751 30.8456 306.413 30.9915C306.078 31.1373 305.816 31.3378 305.627 31.593C305.442 31.8482 305.349 32.1383 305.349 32.4631C305.349 32.7348 305.414 32.9685 305.543 33.1641C305.676 33.3563 305.845 33.517 306.05 33.6463C306.256 33.7723 306.471 33.8767 306.696 33.9595C306.922 34.0391 307.129 34.1037 307.318 34.1534L308.352 34.4318C308.617 34.5014 308.912 34.5975 309.237 34.7202C309.565 34.8428 309.878 35.0102 310.176 35.2223C310.478 35.4311 310.727 35.6996 310.922 36.0277C311.118 36.3558 311.216 36.7585 311.216 37.2358C311.216 37.786 311.071 38.2831 310.783 38.7273C310.498 39.1714 310.08 39.5244 309.53 39.7862C308.983 40.0481 308.319 40.179 307.537 40.179C306.807 40.179 306.176 40.0613 305.642 39.826C305.112 39.5907 304.694 39.2625 304.39 38.8416C304.088 38.4207 303.917 37.9318 303.877 37.375H305.15C305.183 37.7595 305.313 38.0777 305.538 38.3295C305.767 38.5781 306.055 38.7637 306.403 38.8864C306.754 39.0057 307.132 39.0653 307.537 39.0653C308.007 39.0653 308.43 38.9891 308.804 38.8366C309.179 38.6809 309.475 38.4654 309.694 38.1903C309.913 37.9119 310.022 37.5871 310.022 37.2159C310.022 36.8778 309.928 36.6027 309.739 36.3906C309.55 36.1785 309.301 36.0062 308.993 35.8736C308.685 35.741 308.352 35.625 307.994 35.5256L306.741 35.1676C305.946 34.9389 305.316 34.6125 304.852 34.1882C304.388 33.764 304.156 33.2088 304.156 32.5227C304.156 31.9527 304.31 31.4555 304.618 31.0312C304.93 30.6037 305.347 30.2723 305.871 30.0369C306.398 29.7983 306.986 29.679 307.636 29.679C308.292 29.679 308.876 29.7966 309.386 30.032C309.896 30.264 310.301 30.5821 310.599 30.9865C310.901 31.3909 311.06 31.8499 311.076 32.3636H309.883ZM316.405 32.3636V33.358H312.447V32.3636H316.405ZM313.601 30.5341H314.774V37.8125C314.774 38.1439 314.822 38.3925 314.918 38.5582C315.018 38.7206 315.144 38.83 315.296 38.8864C315.452 38.9394 315.616 38.9659 315.788 38.9659C315.917 38.9659 316.023 38.9593 316.106 38.946C316.189 38.9295 316.256 38.9162 316.305 38.9062L316.544 39.9602C316.464 39.9901 316.353 40.0199 316.211 40.0497C316.068 40.0829 315.888 40.0994 315.669 40.0994C315.337 40.0994 315.013 40.0282 314.694 39.8857C314.38 39.7431 314.118 39.526 313.909 39.2344C313.703 38.9427 313.601 38.5748 313.601 38.1307V30.5341ZM320.971 40.1591C320.335 40.1591 319.773 39.9983 319.286 39.6768C318.798 39.352 318.417 38.8946 318.142 38.3047C317.867 37.7114 317.73 37.0104 317.73 36.2017C317.73 35.3996 317.867 34.7036 318.142 34.1136C318.417 33.5237 318.8 33.0679 319.291 32.7464C319.781 32.425 320.348 32.2642 320.991 32.2642C321.488 32.2642 321.881 32.3471 322.169 32.5128C322.461 32.6752 322.683 32.8608 322.835 33.0696C322.991 33.2751 323.112 33.4441 323.198 33.5767H323.298V32.3636H324.471V40H323.338V38.8267H323.198C323.112 38.9659 322.99 39.1416 322.83 39.3537C322.671 39.5625 322.444 39.7498 322.149 39.9155C321.854 40.0779 321.462 40.1591 320.971 40.1591ZM321.13 39.1051C321.601 39.1051 321.999 38.9825 322.323 38.7372C322.648 38.4886 322.895 38.1456 323.064 37.7081C323.233 37.2673 323.318 36.7585 323.318 36.1818C323.318 35.6117 323.235 35.1129 323.069 34.6854C322.903 34.2545 322.658 33.9197 322.333 33.6811C322.008 33.4392 321.607 33.3182 321.13 33.3182C320.633 33.3182 320.219 33.4458 319.887 33.701C319.559 33.9529 319.312 34.2959 319.146 34.7301C318.984 35.161 318.903 35.6449 318.903 36.1818C318.903 36.7254 318.986 37.2192 319.151 37.6634C319.32 38.1042 319.569 38.4555 319.897 38.7173C320.229 38.9759 320.64 39.1051 321.13 39.1051ZM330.104 32.3636V33.358H326.146V32.3636H330.104ZM327.3 30.5341H328.473V37.8125C328.473 38.1439 328.521 38.3925 328.617 38.5582C328.717 38.7206 328.843 38.83 328.995 38.8864C329.151 38.9394 329.315 38.9659 329.487 38.9659C329.617 38.9659 329.723 38.9593 329.806 38.946C329.888 38.9295 329.955 38.9162 330.004 38.9062L330.243 39.9602C330.164 39.9901 330.052 40.0199 329.91 40.0497C329.767 40.0829 329.587 40.0994 329.368 40.0994C329.037 40.0994 328.712 40.0282 328.394 39.8857C328.079 39.7431 327.817 39.526 327.608 39.2344C327.403 38.9427 327.3 38.5748 327.3 38.1307V30.5341ZM336.681 36.8778V32.3636H337.855V40H336.681V38.7074H336.602C336.423 39.0952 336.144 39.425 335.767 39.6967C335.389 39.9652 334.911 40.0994 334.335 40.0994C333.857 40.0994 333.433 39.995 333.062 39.7862C332.691 39.5741 332.399 39.2559 332.187 38.8317C331.975 38.4041 331.869 37.8655 331.869 37.2159V32.3636H333.042V37.1364C333.042 37.6932 333.198 38.1373 333.509 38.4688C333.824 38.8002 334.225 38.9659 334.713 38.9659C335.004 38.9659 335.301 38.8913 335.602 38.7422C335.907 38.593 336.163 38.3643 336.368 38.0561C336.577 37.7479 336.681 37.3551 336.681 36.8778ZM345.413 34.0739L344.359 34.3722C344.292 34.1965 344.195 34.0258 344.065 33.8601C343.939 33.6911 343.767 33.5518 343.548 33.4425C343.33 33.3331 343.049 33.2784 342.708 33.2784C342.241 33.2784 341.851 33.3861 341.54 33.6016C341.232 33.8137 341.077 34.0838 341.077 34.4119C341.077 34.7036 341.183 34.9339 341.396 35.103C341.608 35.272 341.939 35.4129 342.39 35.5256L343.523 35.804C344.206 35.9697 344.715 36.2232 345.05 36.5646C345.384 36.9027 345.552 37.3385 345.552 37.8722C345.552 38.3097 345.426 38.7008 345.174 39.0455C344.925 39.3902 344.577 39.6619 344.13 39.8608C343.683 40.0597 343.162 40.1591 342.569 40.1591C341.79 40.1591 341.145 39.9901 340.635 39.652C340.125 39.3139 339.801 38.8201 339.665 38.1705L340.779 37.892C340.885 38.303 341.086 38.6113 341.381 38.8168C341.679 39.0223 342.068 39.125 342.549 39.125C343.096 39.125 343.53 39.009 343.852 38.777C344.176 38.5417 344.339 38.2599 344.339 37.9318C344.339 37.6667 344.246 37.4446 344.06 37.2656C343.875 37.0833 343.59 36.9474 343.205 36.858L341.933 36.5597C341.233 36.3939 340.719 36.1371 340.391 35.7891C340.067 35.4377 339.904 34.9986 339.904 34.4716C339.904 34.0407 340.025 33.6596 340.267 33.3281C340.512 32.9967 340.845 32.7365 341.266 32.5476C341.691 32.3587 342.171 32.2642 342.708 32.2642C343.464 32.2642 344.057 32.4299 344.488 32.7614C344.922 33.0928 345.23 33.5303 345.413 34.0739Z" fill="white"/>
<path d="M365.784 26.5369V43.2812H364.79V26.5369H365.784Z" fill="white"/>
<path d="M399 35C399 36.6569 397.657 38 396 38C394.343 38 393 36.6569 393 35C393 33.3431 394.343 32 396 32C397.657 32 399 33.3431 399 35Z" fill="white"/>
<path d="M404.58 31.2102V30.2727H411.125V31.2102H408.381V39H407.324V31.2102H404.58ZM413.625 35.0625V39H412.62V30.2727H413.625V33.4773H413.711C413.864 33.1392 414.094 32.8707 414.401 32.6719C414.711 32.4702 415.123 32.3693 415.637 32.3693C416.083 32.3693 416.473 32.4588 416.809 32.6378C417.144 32.8139 417.404 33.0852 417.588 33.4517C417.776 33.8153 417.87 34.2784 417.87 34.8409V39H416.864V34.9091C416.864 34.3892 416.729 33.9872 416.459 33.7031C416.192 33.4162 415.821 33.2727 415.347 33.2727C415.017 33.2727 414.722 33.3423 414.461 33.4815C414.202 33.6207 413.998 33.8239 413.847 34.0909C413.699 34.358 413.625 34.6818 413.625 35.0625ZM419.71 39V32.4545H420.715V39H419.71ZM420.221 31.3636C420.025 31.3636 419.856 31.2969 419.714 31.1634C419.575 31.0298 419.505 30.8693 419.505 30.6818C419.505 30.4943 419.575 30.3338 419.714 30.2003C419.856 30.0668 420.025 30 420.221 30C420.417 30 420.585 30.0668 420.724 30.2003C420.866 30.3338 420.937 30.4943 420.937 30.6818C420.937 30.8693 420.866 31.0298 420.724 31.1634C420.585 31.2969 420.417 31.3636 420.221 31.3636ZM427.194 33.9205L426.29 34.1761C426.233 34.0256 426.15 33.8793 426.039 33.7372C425.931 33.5923 425.783 33.473 425.596 33.3793C425.408 33.2855 425.168 33.2386 424.875 33.2386C424.475 33.2386 424.141 33.331 423.874 33.5156C423.61 33.6974 423.478 33.929 423.478 34.2102C423.478 34.4602 423.569 34.6577 423.75 34.8026C423.932 34.9474 424.216 35.0682 424.603 35.1648L425.574 35.4034C426.159 35.5455 426.596 35.7628 426.882 36.0554C427.169 36.3452 427.313 36.7187 427.313 37.1761C427.313 37.5511 427.205 37.8864 426.989 38.1818C426.776 38.4773 426.478 38.7102 426.094 38.8807C425.711 39.0511 425.265 39.1364 424.756 39.1364C424.088 39.1364 423.536 38.9915 423.098 38.7017C422.661 38.4119 422.384 37.9886 422.267 37.4318L423.222 37.1932C423.313 37.5455 423.485 37.8097 423.738 37.9858C423.993 38.1619 424.327 38.25 424.739 38.25C425.208 38.25 425.58 38.1506 425.855 37.9517C426.134 37.75 426.273 37.5085 426.273 37.2273C426.273 37 426.194 36.8097 426.034 36.6562C425.875 36.5 425.631 36.3835 425.301 36.3068L424.211 36.0511C423.611 35.9091 423.171 35.6889 422.89 35.3906C422.611 35.0895 422.472 34.7131 422.472 34.2614C422.472 33.892 422.576 33.5653 422.783 33.2812C422.993 32.9972 423.279 32.7741 423.64 32.6122C424.003 32.4503 424.415 32.3693 424.875 32.3693C425.523 32.3693 426.032 32.5114 426.401 32.7955C426.773 33.0795 427.037 33.4545 427.194 33.9205ZM432.849 41.4545C432.679 41.4545 432.527 41.4403 432.393 41.4119C432.26 41.3864 432.168 41.3608 432.116 41.3352L432.372 40.4489C432.616 40.5114 432.832 40.5341 433.02 40.517C433.207 40.5 433.374 40.4162 433.518 40.2656C433.666 40.1179 433.801 39.8778 433.923 39.5455L434.111 39.0341L431.69 32.4545H432.781L434.588 37.6705H434.656L436.463 32.4545H437.554L434.776 39.9545C434.651 40.2926 434.496 40.5724 434.311 40.794C434.126 41.0185 433.912 41.1847 433.668 41.2926C433.426 41.4006 433.153 41.4545 432.849 41.4545ZM441.391 39.1364C440.761 39.1364 440.217 38.9972 439.759 38.7188C439.305 38.4375 438.954 38.0455 438.707 37.5426C438.462 37.0369 438.34 36.4489 438.34 35.7784C438.34 35.108 438.462 34.517 438.707 34.0057C438.954 33.4915 439.298 33.0909 439.738 32.804C440.181 32.5142 440.698 32.3693 441.289 32.3693C441.63 32.3693 441.967 32.4261 442.299 32.5398C442.631 32.6534 442.934 32.8381 443.207 33.0938C443.479 33.3466 443.697 33.6818 443.859 34.0994C444.021 34.517 444.102 35.0312 444.102 35.642V36.0682H439.056V35.1989H443.079C443.079 34.8295 443.005 34.5 442.857 34.2102C442.712 33.9205 442.505 33.6918 442.235 33.5241C441.968 33.3565 441.653 33.2727 441.289 33.2727C440.888 33.2727 440.542 33.3722 440.249 33.571C439.96 33.767 439.737 34.0227 439.58 34.3381C439.424 34.6534 439.346 34.9915 439.346 35.3523V35.9318C439.346 36.4261 439.431 36.8452 439.602 37.1889C439.775 37.5298 440.015 37.7898 440.322 37.9688C440.629 38.1449 440.985 38.233 441.391 38.233C441.656 38.233 441.894 38.196 442.107 38.1222C442.323 38.0455 442.509 37.9318 442.665 37.7812C442.822 37.6278 442.942 37.4375 443.028 37.2102L443.999 37.483C443.897 37.8125 443.725 38.1023 443.484 38.3523C443.242 38.5994 442.944 38.7926 442.589 38.9318C442.234 39.0682 441.835 39.1364 441.391 39.1364ZM448.103 39.1364C447.558 39.1364 447.076 38.9986 446.658 38.723C446.241 38.4446 445.914 38.0526 445.678 37.5469C445.442 37.0384 445.325 36.4375 445.325 35.7443C445.325 35.0568 445.442 34.4602 445.678 33.9545C445.914 33.4489 446.242 33.0582 446.663 32.7827C447.083 32.5071 447.569 32.3693 448.12 32.3693C448.546 32.3693 448.883 32.4403 449.13 32.5824C449.38 32.7216 449.57 32.8807 449.701 33.0597C449.835 33.2358 449.938 33.3807 450.012 33.4943H450.097V32.4545H451.103V39H450.131V37.9943H450.012C449.938 38.1136 449.833 38.2642 449.697 38.446C449.56 38.625 449.366 38.7855 449.113 38.9276C448.86 39.0668 448.523 39.1364 448.103 39.1364ZM448.239 38.233C448.643 38.233 448.984 38.1278 449.262 37.9176C449.54 37.7045 449.752 37.4105 449.897 37.0355C450.042 36.6577 450.114 36.2216 450.114 35.7273C450.114 35.2386 450.043 34.8111 449.901 34.4446C449.759 34.0753 449.549 33.7884 449.271 33.5838C448.992 33.3764 448.648 33.2727 448.239 33.2727C447.813 33.2727 447.458 33.3821 447.174 33.6009C446.893 33.8168 446.681 34.1108 446.539 34.483C446.4 34.8523 446.33 35.267 446.33 35.7273C446.33 36.1932 446.401 36.6165 446.543 36.9972C446.688 37.375 446.901 37.6761 447.183 37.9006C447.467 38.1222 447.819 38.233 448.239 38.233ZM453.085 39V32.4545H454.056V33.4432H454.124C454.244 33.1193 454.46 32.8565 454.772 32.6548C455.085 32.4531 455.437 32.3523 455.829 32.3523C455.903 32.3523 455.995 32.3537 456.106 32.3565C456.217 32.3594 456.3 32.3636 456.357 32.3693V33.392C456.323 33.3835 456.245 33.3707 456.123 33.3537C456.004 33.3338 455.877 33.3239 455.744 33.3239C455.425 33.3239 455.141 33.3906 454.891 33.5241C454.644 33.6548 454.448 33.8366 454.303 34.0696C454.161 34.2997 454.09 34.5625 454.09 34.858V39H453.085Z" fill="white"/>
<path d="M496 35C496 36.6569 494.657 38 493 38C491.343 38 490 36.6569 490 35C490 33.3431 491.343 32 493 32C494.657 32 496 33.3431 496 35Z" fill="#A8C5DA"/>
<path d="M502.057 39V30.2727H503.114V38.0625H507.17V39H502.057ZM511.142 39.1364C510.597 39.1364 510.115 38.9986 509.697 38.723C509.28 38.4446 508.953 38.0526 508.717 37.5469C508.482 37.0384 508.364 36.4375 508.364 35.7443C508.364 35.0568 508.482 34.4602 508.717 33.9545C508.953 33.4489 509.281 33.0582 509.702 32.7827C510.122 32.5071 510.608 32.3693 511.159 32.3693C511.585 32.3693 511.922 32.4403 512.169 32.5824C512.419 32.7216 512.609 32.8807 512.74 33.0597C512.874 33.2358 512.977 33.3807 513.051 33.4943H513.136V32.4545H514.142V39H513.17V37.9943H513.051C512.977 38.1136 512.872 38.2642 512.736 38.446C512.599 38.625 512.405 38.7855 512.152 38.9276C511.899 39.0668 511.563 39.1364 511.142 39.1364ZM511.278 38.233C511.682 38.233 512.023 38.1278 512.301 37.9176C512.58 37.7045 512.791 37.4105 512.936 37.0355C513.081 36.6577 513.153 36.2216 513.153 35.7273C513.153 35.2386 513.082 34.8111 512.94 34.4446C512.798 34.0753 512.588 33.7884 512.31 33.5838C512.031 33.3764 511.688 33.2727 511.278 33.2727C510.852 33.2727 510.497 33.3821 510.213 33.6009C509.932 33.8168 509.72 34.1108 509.578 34.483C509.439 34.8523 509.369 35.267 509.369 35.7273C509.369 36.1932 509.44 36.6165 509.582 36.9972C509.727 37.375 509.94 37.6761 510.222 37.9006C510.506 38.1222 510.858 38.233 511.278 38.233ZM520.76 33.9205L519.857 34.1761C519.8 34.0256 519.716 33.8793 519.605 33.7372C519.497 33.5923 519.349 33.473 519.162 33.3793C518.974 33.2855 518.734 33.2386 518.442 33.2386C518.041 33.2386 517.707 33.331 517.44 33.5156C517.176 33.6974 517.044 33.929 517.044 34.2102C517.044 34.4602 517.135 34.6577 517.317 34.8026C517.499 34.9474 517.783 35.0682 518.169 35.1648L519.141 35.4034C519.726 35.5455 520.162 35.7628 520.449 36.0554C520.736 36.3452 520.879 36.7187 520.879 37.1761C520.879 37.5511 520.771 37.8864 520.555 38.1818C520.342 38.4773 520.044 38.7102 519.661 38.8807C519.277 39.0511 518.831 39.1364 518.322 39.1364C517.655 39.1364 517.102 38.9915 516.665 38.7017C516.227 38.4119 515.95 37.9886 515.834 37.4318L516.788 37.1932C516.879 37.5455 517.051 37.8097 517.304 37.9858C517.56 38.1619 517.893 38.25 518.305 38.25C518.774 38.25 519.146 38.1506 519.422 37.9517C519.7 37.75 519.839 37.5085 519.839 37.2273C519.839 37 519.76 36.8097 519.601 36.6562C519.442 36.5 519.197 36.3835 518.868 36.3068L517.777 36.0511C517.178 35.9091 516.737 35.6889 516.456 35.3906C516.178 35.0895 516.038 34.7131 516.038 34.2614C516.038 33.892 516.142 33.5653 516.349 33.2812C516.56 32.9972 516.845 32.7741 517.206 32.6122C517.57 32.4503 517.982 32.3693 518.442 32.3693C519.089 32.3693 519.598 32.5114 519.967 32.7955C520.339 33.0795 520.604 33.4545 520.76 33.9205ZM525.24 32.4545V33.3068H521.848V32.4545H525.24ZM522.836 30.8864H523.842V37.125C523.842 37.4091 523.883 37.6222 523.966 37.7642C524.051 37.9034 524.159 37.9972 524.289 38.0455C524.423 38.0909 524.564 38.1136 524.711 38.1136C524.822 38.1136 524.913 38.108 524.984 38.0966C525.055 38.0824 525.112 38.071 525.154 38.0625L525.359 38.9659C525.291 38.9915 525.196 39.017 525.074 39.0426C524.951 39.071 524.797 39.0852 524.609 39.0852C524.325 39.0852 524.047 39.0241 523.774 38.902C523.504 38.7798 523.279 38.5938 523.1 38.3438C522.924 38.0938 522.836 37.7784 522.836 37.3977V30.8864ZM530.775 41.4545C530.605 41.4545 530.453 41.4403 530.319 41.4119C530.186 41.3864 530.093 41.3608 530.042 41.3352L530.298 40.4489C530.542 40.5114 530.758 40.5341 530.946 40.517C531.133 40.5 531.299 40.4162 531.444 40.2656C531.592 40.1179 531.727 39.8778 531.849 39.5455L532.037 39.0341L529.616 32.4545H530.707L532.514 37.6705H532.582L534.389 32.4545H535.48L532.701 39.9545C532.576 40.2926 532.422 40.5724 532.237 40.794C532.052 41.0185 531.838 41.1847 531.593 41.2926C531.352 41.4006 531.079 41.4545 530.775 41.4545ZM539.317 39.1364C538.686 39.1364 538.142 38.9972 537.685 38.7188C537.23 38.4375 536.88 38.0455 536.632 37.5426C536.388 37.0369 536.266 36.4489 536.266 35.7784C536.266 35.108 536.388 34.517 536.632 34.0057C536.88 33.4915 537.223 33.0909 537.664 32.804C538.107 32.5142 538.624 32.3693 539.215 32.3693C539.556 32.3693 539.892 32.4261 540.225 32.5398C540.557 32.6534 540.86 32.8381 541.132 33.0938C541.405 33.3466 541.623 33.6818 541.784 34.0994C541.946 34.517 542.027 35.0312 542.027 35.642V36.0682H536.982V35.1989H541.005C541.005 34.8295 540.931 34.5 540.783 34.2102C540.638 33.9205 540.431 33.6918 540.161 33.5241C539.894 33.3565 539.578 33.2727 539.215 33.2727C538.814 33.2727 538.468 33.3722 538.175 33.571C537.885 33.767 537.662 34.0227 537.506 34.3381C537.35 34.6534 537.272 34.9915 537.272 35.3523V35.9318C537.272 36.4261 537.357 36.8452 537.527 37.1889C537.701 37.5298 537.941 37.7898 538.248 37.9688C538.554 38.1449 538.911 38.233 539.317 38.233C539.581 38.233 539.82 38.196 540.033 38.1222C540.249 38.0455 540.435 37.9318 540.591 37.7812C540.748 37.6278 540.868 37.4375 540.953 37.2102L541.925 37.483C541.823 37.8125 541.651 38.1023 541.409 38.3523C541.168 38.5994 540.87 38.7926 540.515 38.9318C540.159 39.0682 539.76 39.1364 539.317 39.1364ZM546.029 39.1364C545.483 39.1364 545.002 38.9986 544.584 38.723C544.167 38.4446 543.84 38.0526 543.604 37.5469C543.368 37.0384 543.25 36.4375 543.25 35.7443C543.25 35.0568 543.368 34.4602 543.604 33.9545C543.84 33.4489 544.168 33.0582 544.588 32.7827C545.009 32.5071 545.495 32.3693 546.046 32.3693C546.472 32.3693 546.809 32.4403 547.056 32.5824C547.306 32.7216 547.496 32.8807 547.627 33.0597C547.76 33.2358 547.864 33.3807 547.938 33.4943H548.023V32.4545H549.029V39H548.057V37.9943H547.938C547.864 38.1136 547.759 38.2642 547.623 38.446C547.486 38.625 547.292 38.7855 547.039 38.9276C546.786 39.0668 546.449 39.1364 546.029 39.1364ZM546.165 38.233C546.569 38.233 546.909 38.1278 547.188 37.9176C547.466 37.7045 547.678 37.4105 547.823 37.0355C547.968 36.6577 548.04 36.2216 548.04 35.7273C548.04 35.2386 547.969 34.8111 547.827 34.4446C547.685 34.0753 547.475 33.7884 547.196 33.5838C546.918 33.3764 546.574 33.2727 546.165 33.2727C545.739 33.2727 545.384 33.3821 545.1 33.6009C544.819 33.8168 544.607 34.1108 544.465 34.483C544.326 34.8523 544.256 35.267 544.256 35.7273C544.256 36.1932 544.327 36.6165 544.469 36.9972C544.614 37.375 544.827 37.6761 545.108 37.9006C545.392 38.1222 545.745 38.233 546.165 38.233ZM551.01 39V32.4545H551.982V33.4432H552.05C552.169 33.1193 552.385 32.8565 552.698 32.6548C553.01 32.4531 553.363 32.3523 553.755 32.3523C553.828 32.3523 553.921 32.3537 554.032 32.3565C554.142 32.3594 554.226 32.3636 554.283 32.3693V33.392C554.249 33.3835 554.171 33.3707 554.049 33.3537C553.929 33.3338 553.803 33.3239 553.669 33.3239C553.351 33.3239 553.067 33.3906 552.817 33.5241C552.57 33.6548 552.374 33.8366 552.229 34.0696C552.087 34.2997 552.016 34.5625 552.016 34.858V39H551.01Z" fill="white"/>
<path d="M24.9038 72.8182H25.9776C26.0089 73.1136 26.1097 73.3636 26.2802 73.5682C26.4535 73.7699 26.6779 73.9233 26.9535 74.0284C27.229 74.1307 27.5344 74.1818 27.8697 74.1818C28.2333 74.1818 28.56 74.1207 28.8498 73.9986C29.1396 73.8764 29.3697 73.6946 29.5401 73.4531C29.7106 73.2088 29.7958 72.9062 29.7958 72.5455C29.7958 72.2301 29.7219 71.9375 29.5742 71.6676C29.4265 71.3949 29.1893 71.1747 28.8626 71.0071C28.5359 70.8395 28.1026 70.7557 27.5629 70.7557H26.864V69.9034L29.0458 67.2784V67.2102H25.3299V66.2727H30.4947V67.0398L28.1594 69.8693V69.9375C28.5344 69.9545 28.8839 70.0312 29.2077 70.1676C29.5344 70.304 29.8185 70.4886 30.06 70.7216C30.3043 70.9545 30.4947 71.2259 30.631 71.5355C30.7674 71.8452 30.8356 72.1818 30.8356 72.5455C30.8356 73.0426 30.7077 73.4858 30.4521 73.875C30.1992 74.2614 29.8484 74.5653 29.3995 74.7869C28.9535 75.0085 28.4379 75.1193 27.8526 75.1193C27.3356 75.1193 26.8597 75.0284 26.4251 74.8466C25.9904 74.6648 25.6367 74.402 25.364 74.0582C25.0913 73.7145 24.9379 73.3011 24.9038 72.8182ZM35.4219 75.1193C34.7798 75.1193 34.233 74.9446 33.7812 74.5952C33.3295 74.2429 32.9844 73.733 32.7457 73.0653C32.5071 72.3949 32.3878 71.5852 32.3878 70.6364C32.3878 69.6932 32.5071 68.8878 32.7457 68.2202C32.9872 67.5497 33.3338 67.0384 33.7855 66.6861C34.2401 66.331 34.7855 66.1534 35.4219 66.1534C36.0582 66.1534 36.6023 66.331 37.054 66.6861C37.5085 67.0384 37.8551 67.5497 38.0938 68.2202C38.3352 68.8878 38.456 69.6932 38.456 70.6364C38.456 71.5852 38.3366 72.3949 38.098 73.0653C37.8594 73.733 37.5142 74.2429 37.0625 74.5952C36.6108 74.9446 36.0639 75.1193 35.4219 75.1193ZM35.4219 74.1818C36.0582 74.1818 36.5526 73.875 36.9048 73.2614C37.2571 72.6477 37.4332 71.7727 37.4332 70.6364C37.4332 69.8807 37.3523 69.2372 37.1903 68.706C37.0313 68.1747 36.8011 67.7699 36.5 67.4915C36.2017 67.2131 35.8423 67.0739 35.4219 67.0739C34.7912 67.0739 34.2983 67.3849 33.9432 68.0071C33.5881 68.6264 33.4105 69.5028 33.4105 70.6364C33.4105 71.392 33.4901 72.0341 33.6491 72.5625C33.8082 73.0909 34.0369 73.4929 34.3352 73.7685C34.6364 74.044 34.9986 74.1818 35.4219 74.1818ZM40.2287 75V66.2727H41.2855V70.6023H41.3878L45.3082 66.2727H46.6889L43.0241 70.2102L46.6889 75H45.4105L42.3764 70.9432L41.2855 72.1705V75H40.2287Z" fill="white"/>
<path d="M25.3097 161.5V160.733L28.1903 157.58C28.5284 157.21 28.8068 156.889 29.0256 156.616C29.2443 156.341 29.4063 156.082 29.5114 155.841C29.6193 155.597 29.6733 155.341 29.6733 155.074C29.6733 154.767 29.5994 154.501 29.4517 154.277C29.3068 154.053 29.108 153.879 28.8551 153.757C28.6023 153.635 28.3182 153.574 28.0028 153.574C27.6676 153.574 27.375 153.643 27.125 153.783C26.8778 153.919 26.6861 154.111 26.5497 154.358C26.4162 154.605 26.3494 154.895 26.3494 155.227H25.3438C25.3438 154.716 25.4616 154.267 25.6974 153.881C25.9332 153.494 26.2543 153.193 26.6605 152.977C27.0696 152.761 27.5284 152.653 28.0369 152.653C28.5483 152.653 29.0014 152.761 29.3963 152.977C29.7912 153.193 30.1009 153.484 30.3253 153.851C30.5497 154.217 30.6619 154.625 30.6619 155.074C30.6619 155.395 30.6037 155.709 30.4872 156.016C30.3736 156.32 30.1747 156.659 29.8906 157.034C29.6094 157.406 29.2188 157.861 28.7188 158.398L26.7585 160.494V160.562H30.8153V161.5H25.3097ZM35.4219 161.619C34.7798 161.619 34.233 161.445 33.7812 161.095C33.3295 160.743 32.9844 160.233 32.7457 159.565C32.5071 158.895 32.3878 158.085 32.3878 157.136C32.3878 156.193 32.5071 155.388 32.7457 154.72C32.9872 154.05 33.3338 153.538 33.7855 153.186C34.2401 152.831 34.7855 152.653 35.4219 152.653C36.0582 152.653 36.6023 152.831 37.054 153.186C37.5085 153.538 37.8551 154.05 38.0938 154.72C38.3352 155.388 38.456 156.193 38.456 157.136C38.456 158.085 38.3366 158.895 38.098 159.565C37.8594 160.233 37.5142 160.743 37.0625 161.095C36.6108 161.445 36.0639 161.619 35.4219 161.619ZM35.4219 160.682C36.0582 160.682 36.5526 160.375 36.9048 159.761C37.2571 159.148 37.4332 158.273 37.4332 157.136C37.4332 156.381 37.3523 155.737 37.1903 155.206C37.0313 154.675 36.8011 154.27 36.5 153.991C36.2017 153.713 35.8423 153.574 35.4219 153.574C34.7912 153.574 34.2983 153.885 33.9432 154.507C33.5881 155.126 33.4105 156.003 33.4105 157.136C33.4105 157.892 33.4901 158.534 33.6491 159.062C33.8082 159.591 34.0369 159.993 34.3352 160.268C34.6364 160.544 34.9986 160.682 35.4219 160.682ZM40.2287 161.5V152.773H41.2855V157.102H41.3878L45.3082 152.773H46.6889L43.0241 156.71L46.6889 161.5H45.4105L42.3764 157.443L41.2855 158.67V161.5H40.2287Z" fill="white"/>
<path d="M30.0739 239.273V248H29.017V240.807H28.9489C28.9091 240.886 28.8068 240.977 28.642 241.08C28.4773 241.179 28.2642 241.267 28.0028 241.344C27.7415 241.418 27.4432 241.455 27.108 241.455V240.568C27.446 240.568 27.7386 240.507 27.9858 240.385C28.233 240.263 28.4389 240.119 28.6037 239.955C28.7713 239.79 28.8977 239.641 28.983 239.507C29.071 239.374 29.1222 239.295 29.1364 239.273H30.0739ZM35.4219 248.119C34.7798 248.119 34.233 247.945 33.7812 247.595C33.3295 247.243 32.9844 246.733 32.7457 246.065C32.5071 245.395 32.3878 244.585 32.3878 243.636C32.3878 242.693 32.5071 241.888 32.7457 241.22C32.9872 240.55 33.3338 240.038 33.7855 239.686C34.2401 239.331 34.7855 239.153 35.4219 239.153C36.0582 239.153 36.6023 239.331 37.054 239.686C37.5085 240.038 37.8551 240.55 38.0938 241.22C38.3352 241.888 38.456 242.693 38.456 243.636C38.456 244.585 38.3366 245.395 38.098 246.065C37.8594 246.733 37.5142 247.243 37.0625 247.595C36.6108 247.945 36.0639 248.119 35.4219 248.119ZM35.4219 247.182C36.0582 247.182 36.5526 246.875 36.9048 246.261C37.2571 245.648 37.4332 244.773 37.4332 243.636C37.4332 242.881 37.3523 242.237 37.1903 241.706C37.0313 241.175 36.8011 240.77 36.5 240.491C36.2017 240.213 35.8423 240.074 35.4219 240.074C34.7912 240.074 34.2983 240.385 33.9432 241.007C33.5881 241.626 33.4105 242.503 33.4105 243.636C33.4105 244.392 33.4901 245.034 33.6491 245.562C33.8082 246.091 34.0369 246.493 34.3352 246.768C34.6364 247.044 34.9986 247.182 35.4219 247.182ZM40.2287 248V239.273H41.2855V243.602H41.3878L45.3082 239.273H46.6889L43.0241 243.21L46.6889 248H45.4105L42.3764 243.943L41.2855 245.17V248H40.2287Z" fill="white"/>
<path d="M43.25 334.619C42.608 334.619 42.0611 334.445 41.6094 334.095C41.1577 333.743 40.8125 333.233 40.5739 332.565C40.3352 331.895 40.2159 331.085 40.2159 330.136C40.2159 329.193 40.3352 328.388 40.5739 327.72C40.8153 327.05 41.1619 326.538 41.6136 326.186C42.0682 325.831 42.6136 325.653 43.25 325.653C43.8864 325.653 44.4304 325.831 44.8821 326.186C45.3366 326.538 45.6832 327.05 45.9219 327.72C46.1634 328.388 46.2841 329.193 46.2841 330.136C46.2841 331.085 46.1648 331.895 45.9261 332.565C45.6875 333.233 45.3423 333.743 44.8906 334.095C44.4389 334.445 43.892 334.619 43.25 334.619ZM43.25 333.682C43.8864 333.682 44.3807 333.375 44.733 332.761C45.0852 332.148 45.2614 331.273 45.2614 330.136C45.2614 329.381 45.1804 328.737 45.0185 328.206C44.8594 327.675 44.6293 327.27 44.3281 326.991C44.0298 326.713 43.6705 326.574 43.25 326.574C42.6193 326.574 42.1264 326.885 41.7713 327.507C41.4162 328.126 41.2386 329.003 41.2386 330.136C41.2386 330.892 41.3182 331.534 41.4773 332.062C41.6364 332.591 41.8651 332.993 42.1634 333.268C42.4645 333.544 42.8267 333.682 43.25 333.682Z" fill="white"/>
<path d="M126.118 394.273H127.175V400.511C127.175 401.068 127.072 401.541 126.868 401.93C126.663 402.32 126.375 402.615 126.003 402.817C125.631 403.018 125.192 403.119 124.686 403.119C124.209 403.119 123.784 403.033 123.412 402.859C123.04 402.683 122.747 402.433 122.534 402.109C122.321 401.786 122.214 401.401 122.214 400.955H123.254C123.254 401.202 123.315 401.418 123.437 401.602C123.562 401.784 123.733 401.926 123.949 402.028C124.165 402.131 124.41 402.182 124.686 402.182C124.99 402.182 125.249 402.118 125.462 401.99C125.675 401.862 125.837 401.675 125.947 401.428C126.061 401.178 126.118 400.872 126.118 400.511V394.273ZM131.628 403.136C131.082 403.136 130.601 402.999 130.183 402.723C129.766 402.445 129.439 402.053 129.203 401.547C128.967 401.038 128.849 400.438 128.849 399.744C128.849 399.057 128.967 398.46 129.203 397.955C129.439 397.449 129.767 397.058 130.187 396.783C130.608 396.507 131.094 396.369 131.645 396.369C132.071 396.369 132.408 396.44 132.655 396.582C132.905 396.722 133.095 396.881 133.226 397.06C133.359 397.236 133.463 397.381 133.537 397.494H133.622V396.455H134.628V403H133.656V401.994H133.537C133.463 402.114 133.358 402.264 133.222 402.446C133.085 402.625 132.891 402.786 132.638 402.928C132.385 403.067 132.048 403.136 131.628 403.136ZM131.764 402.233C132.168 402.233 132.508 402.128 132.787 401.918C133.065 401.705 133.277 401.411 133.422 401.036C133.567 400.658 133.639 400.222 133.639 399.727C133.639 399.239 133.568 398.811 133.426 398.445C133.284 398.075 133.074 397.788 132.795 397.584C132.517 397.376 132.173 397.273 131.764 397.273C131.338 397.273 130.983 397.382 130.699 397.601C130.418 397.817 130.206 398.111 130.064 398.483C129.925 398.852 129.855 399.267 129.855 399.727C129.855 400.193 129.926 400.616 130.068 400.997C130.213 401.375 130.426 401.676 130.707 401.901C130.991 402.122 131.344 402.233 131.764 402.233ZM137.615 399.062V403H136.609V396.455H137.581V397.477H137.666C137.82 397.145 138.053 396.878 138.365 396.676C138.678 396.472 139.081 396.369 139.575 396.369C140.018 396.369 140.406 396.46 140.739 396.642C141.071 396.821 141.33 397.094 141.514 397.46C141.699 397.824 141.791 398.284 141.791 398.841V403H140.785V398.909C140.785 398.395 140.652 397.994 140.385 397.707C140.118 397.418 139.751 397.273 139.285 397.273C138.964 397.273 138.678 397.342 138.425 397.482C138.175 397.621 137.977 397.824 137.832 398.091C137.687 398.358 137.615 398.682 137.615 399.062Z" fill="white"/>
<path d="M261.199 403V394.273H266.432V395.21H262.256V398.159H266.04V399.097H262.256V403H261.199ZM270.369 403.136C269.739 403.136 269.195 402.997 268.737 402.719C268.283 402.438 267.932 402.045 267.685 401.543C267.44 401.037 267.318 400.449 267.318 399.778C267.318 399.108 267.44 398.517 267.685 398.006C267.932 397.491 268.276 397.091 268.716 396.804C269.159 396.514 269.676 396.369 270.267 396.369C270.608 396.369 270.945 396.426 271.277 396.54C271.609 396.653 271.912 396.838 272.185 397.094C272.457 397.347 272.675 397.682 272.837 398.099C272.999 398.517 273.08 399.031 273.08 399.642V400.068H268.034V399.199H272.057C272.057 398.83 271.983 398.5 271.835 398.21C271.69 397.92 271.483 397.692 271.213 397.524C270.946 397.357 270.631 397.273 270.267 397.273C269.866 397.273 269.52 397.372 269.227 397.571C268.937 397.767 268.714 398.023 268.558 398.338C268.402 398.653 268.324 398.991 268.324 399.352V399.932C268.324 400.426 268.409 400.845 268.58 401.189C268.753 401.53 268.993 401.79 269.3 401.969C269.607 402.145 269.963 402.233 270.369 402.233C270.633 402.233 270.872 402.196 271.085 402.122C271.301 402.045 271.487 401.932 271.643 401.781C271.8 401.628 271.92 401.437 272.006 401.21L272.977 401.483C272.875 401.812 272.703 402.102 272.462 402.352C272.22 402.599 271.922 402.793 271.567 402.932C271.212 403.068 270.812 403.136 270.369 403.136ZM274.746 403V394.273H275.751V397.494H275.837C275.91 397.381 276.013 397.236 276.143 397.06C276.277 396.881 276.467 396.722 276.714 396.582C276.964 396.44 277.303 396.369 277.729 396.369C278.28 396.369 278.766 396.507 279.186 396.783C279.607 397.058 279.935 397.449 280.17 397.955C280.406 398.46 280.524 399.057 280.524 399.744C280.524 400.438 280.406 401.038 280.17 401.547C279.935 402.053 279.608 402.445 279.19 402.723C278.773 402.999 278.291 403.136 277.746 403.136C277.325 403.136 276.989 403.067 276.736 402.928C276.483 402.786 276.288 402.625 276.152 402.446C276.016 402.264 275.91 402.114 275.837 401.994H275.717V403H274.746ZM275.734 399.727C275.734 400.222 275.807 400.658 275.952 401.036C276.097 401.411 276.308 401.705 276.587 401.918C276.865 402.128 277.206 402.233 277.609 402.233C278.03 402.233 278.381 402.122 278.662 401.901C278.946 401.676 279.159 401.375 279.301 400.997C279.446 400.616 279.518 400.193 279.518 399.727C279.518 399.267 279.447 398.852 279.305 398.483C279.166 398.111 278.955 397.817 278.67 397.601C278.389 397.382 278.035 397.273 277.609 397.273C277.2 397.273 276.857 397.376 276.578 397.584C276.3 397.788 276.089 398.075 275.947 398.445C275.805 398.811 275.734 399.239 275.734 399.727Z" fill="white"/>
<path d="M398.832 394.273H400.093L403.059 401.517H403.161L406.127 394.273H407.388V403H406.4V396.369H406.315L403.587 403H402.633L399.906 396.369H399.82V403H398.832V394.273ZM411.843 403.136C411.297 403.136 410.816 402.999 410.398 402.723C409.98 402.445 409.654 402.053 409.418 401.547C409.182 401.038 409.064 400.438 409.064 399.744C409.064 399.057 409.182 398.46 409.418 397.955C409.654 397.449 409.982 397.058 410.402 396.783C410.823 396.507 411.309 396.369 411.86 396.369C412.286 396.369 412.622 396.44 412.87 396.582C413.12 396.722 413.31 396.881 413.441 397.06C413.574 397.236 413.678 397.381 413.752 397.494H413.837V396.455H414.843V403H413.871V401.994H413.752C413.678 402.114 413.573 402.264 413.436 402.446C413.3 402.625 413.105 402.786 412.853 402.928C412.6 403.067 412.263 403.136 411.843 403.136ZM411.979 402.233C412.382 402.233 412.723 402.128 413.002 401.918C413.28 401.705 413.492 401.411 413.637 401.036C413.782 400.658 413.854 400.222 413.854 399.727C413.854 399.239 413.783 398.811 413.641 398.445C413.499 398.075 413.289 397.788 413.01 397.584C412.732 397.376 412.388 397.273 411.979 397.273C411.553 397.273 411.198 397.382 410.914 397.601C410.632 397.817 410.421 398.111 410.279 398.483C410.14 398.852 410.07 399.267 410.07 399.727C410.07 400.193 410.141 400.616 410.283 400.997C410.428 401.375 410.641 401.676 410.922 401.901C411.206 402.122 411.559 402.233 411.979 402.233ZM416.824 403V396.455H417.796V397.443H417.864C417.983 397.119 418.199 396.857 418.512 396.655C418.824 396.453 419.176 396.352 419.569 396.352C419.642 396.352 419.735 396.354 419.845 396.357C419.956 396.359 420.04 396.364 420.097 396.369V397.392C420.063 397.384 419.985 397.371 419.863 397.354C419.743 397.334 419.617 397.324 419.483 397.324C419.165 397.324 418.881 397.391 418.631 397.524C418.384 397.655 418.188 397.837 418.043 398.07C417.901 398.3 417.83 398.562 417.83 398.858V403H416.824Z" fill="white"/>
<path d="M538.971 403H537.863L541.067 394.273H542.158L545.363 403H544.255L541.647 395.653H541.579L538.971 403ZM539.38 399.591H543.846V400.528H539.38V399.591ZM546.586 405.455V396.455H547.557V397.494H547.677C547.751 397.381 547.853 397.236 547.984 397.06C548.117 396.881 548.307 396.722 548.555 396.582C548.805 396.44 549.143 396.369 549.569 396.369C550.12 396.369 550.606 396.507 551.026 396.783C551.447 397.058 551.775 397.449 552.011 397.955C552.246 398.46 552.364 399.057 552.364 399.744C552.364 400.438 552.246 401.038 552.011 401.547C551.775 402.053 551.448 402.445 551.031 402.723C550.613 402.999 550.131 403.136 549.586 403.136C549.165 403.136 548.829 403.067 548.576 402.928C548.323 402.786 548.129 402.625 547.992 402.446C547.856 402.264 547.751 402.114 547.677 401.994H547.592V405.455H546.586ZM547.575 399.727C547.575 400.222 547.647 400.658 547.792 401.036C547.937 401.411 548.148 401.705 548.427 401.918C548.705 402.128 549.046 402.233 549.45 402.233C549.87 402.233 550.221 402.122 550.502 401.901C550.786 401.676 550.999 401.375 551.141 400.997C551.286 400.616 551.359 400.193 551.359 399.727C551.359 399.267 551.288 398.852 551.146 398.483C551.006 398.111 550.795 397.817 550.511 397.601C550.229 397.382 549.876 397.273 549.45 397.273C549.04 397.273 548.697 397.376 548.418 397.584C548.14 397.788 547.93 398.075 547.788 398.445C547.646 398.811 547.575 399.239 547.575 399.727ZM553.898 403V396.455H554.87V397.443H554.938C555.057 397.119 555.273 396.857 555.586 396.655C555.898 396.453 556.251 396.352 556.643 396.352C556.717 396.352 556.809 396.354 556.92 396.357C557.031 396.359 557.114 396.364 557.171 396.369V397.392C557.137 397.384 557.059 397.371 556.937 397.354C556.817 397.334 556.691 397.324 556.557 397.324C556.239 397.324 555.955 397.391 555.705 397.524C555.458 397.655 555.262 397.837 555.117 398.07C554.975 398.3 554.904 398.562 554.904 398.858V403H553.898Z" fill="white"/>
<path d="M674.582 394.273H675.843L678.809 401.517H678.911L681.877 394.273H683.138V403H682.15V396.369H682.065L679.337 403H678.383L675.656 396.369H675.57V403H674.582V394.273ZM687.593 403.136C687.047 403.136 686.566 402.999 686.148 402.723C685.73 402.445 685.404 402.053 685.168 401.547C684.932 401.038 684.814 400.438 684.814 399.744C684.814 399.057 684.932 398.46 685.168 397.955C685.404 397.449 685.732 397.058 686.152 396.783C686.573 396.507 687.059 396.369 687.61 396.369C688.036 396.369 688.372 396.44 688.62 396.582C688.87 396.722 689.06 396.881 689.191 397.06C689.324 397.236 689.428 397.381 689.502 397.494H689.587V396.455H690.593V403H689.621V401.994H689.502C689.428 402.114 689.323 402.264 689.186 402.446C689.05 402.625 688.855 402.786 688.603 402.928C688.35 403.067 688.013 403.136 687.593 403.136ZM687.729 402.233C688.132 402.233 688.473 402.128 688.752 401.918C689.03 401.705 689.242 401.411 689.387 401.036C689.532 400.658 689.604 400.222 689.604 399.727C689.604 399.239 689.533 398.811 689.391 398.445C689.249 398.075 689.039 397.788 688.76 397.584C688.482 397.376 688.138 397.273 687.729 397.273C687.303 397.273 686.948 397.382 686.664 397.601C686.382 397.817 686.171 398.111 686.029 398.483C685.89 398.852 685.82 399.267 685.82 399.727C685.82 400.193 685.891 400.616 686.033 400.997C686.178 401.375 686.391 401.676 686.672 401.901C686.956 402.122 687.309 402.233 687.729 402.233ZM693.222 405.455C693.051 405.455 692.899 405.44 692.766 405.412C692.632 405.386 692.54 405.361 692.489 405.335L692.745 404.449C692.989 404.511 693.205 404.534 693.392 404.517C693.58 404.5 693.746 404.416 693.891 404.266C694.039 404.118 694.174 403.878 694.296 403.545L694.483 403.034L692.063 396.455H693.154L694.961 401.67H695.029L696.836 396.455H697.926L695.148 403.955C695.023 404.293 694.868 404.572 694.684 404.794C694.499 405.018 694.284 405.185 694.04 405.293C693.799 405.401 693.526 405.455 693.222 405.455Z" fill="white"/>
<path d="M818.501 394.273H819.557V400.511C819.557 401.068 819.455 401.541 819.251 401.93C819.046 402.32 818.758 402.615 818.386 402.817C818.013 403.018 817.575 403.119 817.069 403.119C816.592 403.119 816.167 403.033 815.795 402.859C815.423 402.683 815.13 402.433 814.917 402.109C814.704 401.786 814.597 401.401 814.597 400.955H815.637C815.637 401.202 815.698 401.418 815.82 401.602C815.945 401.784 816.116 401.926 816.332 402.028C816.548 402.131 816.793 402.182 817.069 402.182C817.373 402.182 817.631 402.118 817.844 401.99C818.057 401.862 818.219 401.675 818.33 401.428C818.444 401.178 818.501 400.872 818.501 400.511V394.273ZM825.664 400.324V396.455H826.67V403H825.664V401.892H825.596C825.442 402.224 825.204 402.507 824.88 402.74C824.556 402.97 824.147 403.085 823.653 403.085C823.244 403.085 822.88 402.996 822.562 402.817C822.244 402.635 821.994 402.362 821.812 401.999C821.63 401.632 821.539 401.17 821.539 400.614V396.455H822.545V400.545C822.545 401.023 822.678 401.403 822.945 401.688C823.215 401.972 823.559 402.114 823.977 402.114C824.227 402.114 824.481 402.05 824.739 401.922C825.001 401.794 825.219 401.598 825.396 401.334C825.575 401.07 825.664 400.733 825.664 400.324ZM829.517 399.062V403H828.512V396.455H829.483V397.477H829.569C829.722 397.145 829.955 396.878 830.267 396.676C830.58 396.472 830.983 396.369 831.478 396.369C831.921 396.369 832.309 396.46 832.641 396.642C832.973 396.821 833.232 397.094 833.417 397.46C833.601 397.824 833.694 398.284 833.694 398.841V403H832.688V398.909C832.688 398.395 832.554 397.994 832.287 397.707C832.02 397.418 831.654 397.273 831.188 397.273C830.867 397.273 830.58 397.342 830.327 397.482C830.077 397.621 829.88 397.824 829.735 398.091C829.59 398.358 829.517 398.682 829.517 399.062Z" fill="white"/>
<path d="M959.016 394.273H960.073V400.511C960.073 401.068 959.971 401.541 959.766 401.93C959.562 402.32 959.273 402.615 958.901 402.817C958.529 403.018 958.09 403.119 957.584 403.119C957.107 403.119 956.682 403.033 956.31 402.859C955.938 402.683 955.646 402.433 955.432 402.109C955.219 401.786 955.113 401.401 955.113 400.955H956.153C956.153 401.202 956.214 401.418 956.336 401.602C956.461 401.784 956.631 401.926 956.847 402.028C957.063 402.131 957.309 402.182 957.584 402.182C957.888 402.182 958.147 402.118 958.36 401.99C958.573 401.862 958.735 401.675 958.846 401.428C958.959 401.178 959.016 400.872 959.016 400.511V394.273ZM966.18 400.324V396.455H967.185V403H966.18V401.892H966.111C965.958 402.224 965.719 402.507 965.396 402.74C965.072 402.97 964.663 403.085 964.168 403.085C963.759 403.085 963.396 402.996 963.077 402.817C962.759 402.635 962.509 402.362 962.327 401.999C962.146 401.632 962.055 401.17 962.055 400.614V396.455H963.06V400.545C963.06 401.023 963.194 401.403 963.461 401.688C963.731 401.972 964.075 402.114 964.492 402.114C964.742 402.114 964.996 402.05 965.255 401.922C965.516 401.794 965.735 401.598 965.911 401.334C966.09 401.07 966.18 400.733 966.18 400.324ZM970.033 394.273V403H969.027V394.273H970.033Z" fill="white"/>
<mask id="mask0_417_20511" style="mask-type:alpha" maskUnits="userSpaceOnUse" x="63" y="62" width="969" height="346">
<rect x="63" y="62" width="969" height="346" fill="black"/>
</mask>
<g mask="url(#mask0_417_20511)">
<path d="M66.4609 322.942L129.777 255.415C133.744 251.185 139.352 248.884 145.146 249.11L215.176 251.843L292.316 257.654C296.828 257.994 301.322 256.794 305.064 254.25L406.716 185.131C411.552 181.843 418.164 183.388 421.043 188.478L481.252 294.933C484.541 300.748 490.517 304.537 497.18 305.032L587.33 311.725C593.942 312.216 600.367 309.398 604.485 304.202L652.781 243.264C658.009 236.668 666.807 234.05 674.791 236.717L741.144 258.879C752.03 262.515 763.736 256.263 766.769 245.194L788.998 164.063C791.232 155.909 798.352 150.041 806.782 149.404L895.934 142.675C898.174 142.506 900.369 141.961 902.428 141.062L1004.31 96.6" stroke="#A8C5DA" stroke-linecap="round" stroke-dasharray="2 4"/>
</g>
<mask id="mask1_417_20511" style="mask-type:alpha" maskUnits="userSpaceOnUse" x="63" y="62" width="969" height="346">
<rect x="63" y="62" width="969" height="346" fill="black"/>
</mask>
<g mask="url(#mask1_417_20511)">
<mask id="mask2_417_20511" style="mask-type:alpha" maskUnits="userSpaceOnUse" x="66" y="109" width="939" height="299">
<path d="M119.72 245.099L66.4609 265.039V408H1004.31V158.751L941.062 166.39C937.416 166.831 933.961 168.266 931.077 170.54L880.303 210.572C872.855 216.444 862.307 216.277 855.048 210.173L808.628 171.134C799.655 163.588 787.108 161.961 776.507 166.968L734.726 186.701C727.436 190.144 718.729 187.21 715.011 180.057L682.31 117.157C677.293 107.506 663.993 106.237 657.241 114.765L636.313 141.198C627.679 152.104 613.999 157.741 600.188 156.084L547.014 149.705C539.381 148.789 531.899 152.33 527.767 158.812L476.578 239.11C472.538 245.447 465.286 248.985 457.805 248.268L378.003 240.616C366.728 239.535 355.522 243.285 347.169 250.936L320.871 275.022C308.728 286.144 293.449 293.247 277.119 295.364L232.14 301.193C227.831 301.751 223.643 303.008 219.738 304.913L198.334 315.358C188.617 320.1 176.891 316.261 171.86 306.691L144.435 254.523C139.746 245.605 129.156 241.566 119.72 245.099Z" fill="url(#paint0_radial_417_20511)"/>
</mask>
<g mask="url(#mask2_417_20511)">
<path opacity="0.6" d="M119.72 245.099L66.4609 265.039V408H1004.31V158.751L941.062 166.39C937.416 166.831 933.961 168.266 931.077 170.54L880.303 210.572C872.855 216.444 862.307 216.277 855.048 210.173L808.628 171.134C799.655 163.588 787.108 161.961 776.507 166.968L734.726 186.701C727.436 190.144 718.729 187.21 715.011 180.057L682.31 117.157C677.293 107.506 663.993 106.237 657.241 114.765L636.313 141.198C627.679 152.104 613.999 157.741 600.188 156.084L547.014 149.705C539.381 148.789 531.899 152.33 527.767 158.812L476.578 239.11C472.538 245.447 465.286 248.985 457.805 248.268L378.003 240.616C366.728 239.535 355.522 243.285 347.169 250.936L320.871 275.022C308.728 286.144 293.449 293.247 277.119 295.364L232.14 301.193C227.831 301.751 223.643 303.008 219.738 304.913L198.334 315.358C188.617 320.1 176.891 316.261 171.86 306.691L144.435 254.523C139.746 245.605 129.156 241.566 119.72 245.099Z" fill="#00B24F"/>
</g>
<path d="M66.4609 264.351L109.88 248.162C119.213 244.682 123.879 242.942 128.262 243.274C132.123 243.567 135.816 244.974 138.893 247.325C142.384 249.994 144.709 254.398 149.359 263.207L166.443 295.57C171.516 305.181 174.053 309.987 177.865 312.73C181.219 315.145 185.238 316.46 189.371 316.497C194.067 316.539 198.954 314.163 208.73 309.413L216.226 305.769C219.744 304.059 221.504 303.204 223.328 302.528C224.949 301.927 226.607 301.431 228.292 301.044C230.188 300.609 232.128 300.359 236.008 299.858L262.167 296.482C277.041 294.562 284.478 293.602 291.477 291.347C297.69 289.345 303.634 286.591 309.177 283.145C315.423 279.263 320.963 274.209 332.043 264.103L339.325 257.46C347.046 250.417 350.907 246.896 355.351 244.53C359.29 242.434 363.552 241.012 367.961 240.322C372.935 239.544 378.136 240.04 388.54 241.034L450.539 246.954C457.606 247.629 461.14 247.967 464.369 247.198C467.226 246.517 469.897 245.217 472.194 243.388C474.791 241.32 476.705 238.33 480.532 232.351L523.708 164.9C527.632 158.769 529.594 155.703 532.264 153.609C534.624 151.757 537.371 150.46 540.3 149.813C543.613 149.082 547.227 149.514 554.455 150.377L586.952 154.26C599.893 155.806 606.364 156.579 612.413 155.438C617.767 154.428 622.858 152.334 627.374 149.286C632.477 145.842 636.532 140.741 644.643 130.538L648.646 125.502C656.304 115.87 660.133 111.053 664.536 109.679C668.384 108.479 672.553 108.877 676.104 110.785C680.167 112.968 683.014 118.422 688.709 129.331L711.015 172.062C714.76 179.235 716.632 182.822 719.46 184.888C721.95 186.706 724.939 187.713 728.021 187.772C731.523 187.84 735.184 186.117 742.506 182.673L766.158 171.548C776.211 166.819 781.238 164.455 786.379 163.947C790.924 163.497 795.511 164.091 799.792 165.684C804.634 167.485 808.892 171.051 817.409 178.185L847.616 203.485C854.71 209.426 858.257 212.396 862.232 213.575C865.738 214.615 869.462 214.674 872.999 213.745C877.01 212.692 880.648 209.835 887.926 204.121L928.441 172.309C931.063 170.25 932.374 169.22 933.813 168.43C935.091 167.729 936.441 167.17 937.84 166.762C939.416 166.303 941.071 166.104 944.382 165.706L1004.31 158.497" stroke="#00B24F" stroke-linecap="round"/>
</g>
<defs>
<radialGradient id="paint0_radial_417_20511" cx="0" cy="0" r="1" gradientUnits="userSpaceOnUse" gradientTransform="translate(535.387 153.802) rotate(90) scale(169.448 460.134)">
<stop stop-opacity="0.08"/>
<stop offset="1" stop-opacity="0"/>
</radialGradient>
</defs>
</svg>
