<svg width="78" height="36" viewBox="0 0 78 36" fill="none" xmlns="http://www.w3.org/2000/svg">
<rect x="0.5" y="0.5" width="77" height="35" stroke="#00B24F"/>
<path d="M17.316 23V13.2H18.814L23.098 20.354H22.314L26.528 13.2H28.026L28.04 23H26.318L26.304 15.902H26.668L23.084 21.88H22.272L18.632 15.902H19.052V23H17.316ZM32.3671 17.274H37.2391V18.772H32.3671V17.274ZM32.5071 21.474H38.0371V23H30.6871V13.2H37.8411V14.726H32.5071V21.474ZM40.066 23V13.2H41.564L47.71 20.746H46.968V13.2H48.774V23H47.276L41.13 15.454H41.872V23H40.066ZM55.614 23.14C54.27 23.14 53.2153 22.762 52.45 22.006C51.694 21.25 51.316 20.158 51.316 18.73V13.2H53.136V18.66C53.136 19.668 53.3507 20.4007 53.78 20.858C54.2187 21.3153 54.8347 21.544 55.628 21.544C56.4213 21.544 57.0327 21.3153 57.462 20.858C57.8913 20.4007 58.106 19.668 58.106 18.66V13.2H59.898V18.73C59.898 20.158 59.5153 21.25 58.75 22.006C57.994 22.762 56.9487 23.14 55.614 23.14Z" fill="white"/>
</svg>
