<svg width="436" height="432" viewBox="0 0 436 432" fill="none" xmlns="http://www.w3.org/2000/svg">
<g filter="url(#filter0_d_361_14613)">
<rect x="10" y="8" width="416" height="412" rx="14" fill="#111111"/>
</g>
<path d="M59.5039 37.375V48.75H57.3633V37.375H59.5039ZM63.0352 37.375V39.0703H53.8711V37.375H63.0352ZM62.7227 44.6094V44.4453C62.7227 43.8255 62.8112 43.2552 62.9883 42.7344C63.1654 42.2083 63.4232 41.7526 63.7617 41.3672C64.1003 40.9818 64.5143 40.6823 65.0039 40.4688C65.4935 40.25 66.0508 40.1406 66.6758 40.1406C67.3112 40.1406 67.8737 40.25 68.3633 40.4688C68.8581 40.6823 69.2747 40.9818 69.6133 41.3672C69.9518 41.7526 70.2096 42.2083 70.3867 42.7344C70.5638 43.2552 70.6523 43.8255 70.6523 44.4453V44.6094C70.6523 45.224 70.5638 45.7943 70.3867 46.3203C70.2096 46.8411 69.9518 47.2969 69.6133 47.6875C69.2747 48.0729 68.8607 48.3724 68.3711 48.5859C67.8815 48.7995 67.3216 48.9062 66.6914 48.9062C66.0664 48.9062 65.5065 48.7995 65.0117 48.5859C64.5169 48.3724 64.1003 48.0729 63.7617 47.6875C63.4232 47.2969 63.1654 46.8411 62.9883 46.3203C62.8112 45.7943 62.7227 45.224 62.7227 44.6094ZM64.7852 44.4453V44.6094C64.7852 44.9792 64.8216 45.3255 64.8945 45.6484C64.9674 45.9714 65.0794 46.2552 65.2305 46.5C65.3815 46.7448 65.5768 46.9375 65.8164 47.0781C66.0612 47.2135 66.3529 47.2812 66.6914 47.2812C67.0247 47.2812 67.3112 47.2135 67.5508 47.0781C67.7904 46.9375 67.9857 46.7448 68.1367 46.5C68.293 46.2552 68.4076 45.9714 68.4805 45.6484C68.5534 45.3255 68.5898 44.9792 68.5898 44.6094V44.4453C68.5898 44.0807 68.5534 43.7396 68.4805 43.4219C68.4076 43.099 68.293 42.8151 68.1367 42.5703C67.9857 42.3203 67.7878 42.125 67.543 41.9844C67.3034 41.8385 67.0143 41.7656 66.6758 41.7656C66.3424 41.7656 66.056 41.8385 65.8164 41.9844C65.5768 42.125 65.3815 42.3203 65.2305 42.5703C65.0794 42.8151 64.9674 43.099 64.8945 43.4219C64.8216 43.7396 64.7852 44.0807 64.7852 44.4453ZM76.1523 40.2969V41.7812H71.3086V40.2969H76.1523ZM72.6055 38.2188H74.6758V46.3125C74.6758 46.5625 74.7096 46.7552 74.7773 46.8906C74.8451 47.026 74.9466 47.1172 75.082 47.1641C75.2174 47.2109 75.3789 47.2344 75.5664 47.2344C75.7018 47.2344 75.8268 47.2266 75.9414 47.2109C76.056 47.1953 76.1523 47.1797 76.2305 47.1641L76.2383 48.7109C76.0664 48.7682 75.8711 48.8151 75.6523 48.8516C75.4388 48.888 75.1966 48.9062 74.9258 48.9062C74.4622 48.9062 74.056 48.8281 73.707 48.6719C73.3581 48.5104 73.0872 48.2526 72.8945 47.8984C72.7018 47.5391 72.6055 47.0651 72.6055 46.4766V38.2188ZM82.1836 46.9531V43.0547C82.1836 42.7682 82.1341 42.5208 82.0352 42.3125C81.9362 42.1042 81.7852 41.9427 81.582 41.8281C81.3789 41.7135 81.1211 41.6562 80.8086 41.6562C80.5326 41.6562 80.2904 41.7031 80.082 41.7969C79.8789 41.8906 79.7227 42.0234 79.6133 42.1953C79.5039 42.362 79.4492 42.5547 79.4492 42.7734H77.3789C77.3789 42.4245 77.4622 42.0938 77.6289 41.7812C77.7956 41.4635 78.0326 41.1823 78.3398 40.9375C78.6523 40.6875 79.0247 40.4922 79.457 40.3516C79.8945 40.2109 80.3841 40.1406 80.9258 40.1406C81.5664 40.1406 82.1367 40.25 82.6367 40.4688C83.1419 40.6823 83.5378 41.0052 83.8242 41.4375C84.1159 41.8698 84.2617 42.4141 84.2617 43.0703V46.7578C84.2617 47.1797 84.2878 47.5417 84.3398 47.8438C84.3971 48.1406 84.4805 48.3984 84.5898 48.6172V48.75H82.4883C82.3893 48.5365 82.3138 48.2656 82.2617 47.9375C82.2096 47.6042 82.1836 47.276 82.1836 46.9531ZM82.4727 43.6016L82.4883 44.8281H81.1836C80.8607 44.8281 80.5768 44.862 80.332 44.9297C80.0872 44.9922 79.8867 45.0859 79.7305 45.2109C79.5742 45.3307 79.457 45.4766 79.3789 45.6484C79.3008 45.8151 79.2617 46.0052 79.2617 46.2188C79.2617 46.4271 79.3086 46.6146 79.4023 46.7812C79.5013 46.9479 79.6419 47.0807 79.8242 47.1797C80.0117 47.2734 80.2305 47.3203 80.4805 47.3203C80.8451 47.3203 81.1628 47.2474 81.4336 47.1016C81.7044 46.9505 81.9154 46.7682 82.0664 46.5547C82.2174 46.3411 82.2982 46.138 82.3086 45.9453L82.9023 46.8359C82.8294 47.0495 82.7201 47.276 82.5742 47.5156C82.4284 47.7552 82.2409 47.9792 82.0117 48.1875C81.7826 48.3958 81.5065 48.5677 81.1836 48.7031C80.8607 48.8385 80.4857 48.9062 80.0586 48.9062C79.5117 48.9062 79.0221 48.7969 78.5898 48.5781C78.1576 48.3594 77.8164 48.0599 77.5664 47.6797C77.3164 47.2995 77.1914 46.8672 77.1914 46.3828C77.1914 45.9349 77.2747 45.5391 77.4414 45.1953C77.6081 44.8516 77.8555 44.5625 78.1836 44.3281C78.5117 44.0885 78.918 43.9089 79.4023 43.7891C79.8919 43.6641 80.4518 43.6016 81.082 43.6016H82.4727ZM88.3086 36.75V48.75H86.2383V36.75H88.3086ZM98.9102 46.4375C98.9102 46.2604 98.8633 46.1016 98.7695 45.9609C98.6758 45.8203 98.4987 45.6927 98.2383 45.5781C97.9831 45.4583 97.6081 45.3464 97.1133 45.2422C96.6758 45.1484 96.2721 45.0312 95.9023 44.8906C95.5326 44.75 95.2148 44.5807 94.9492 44.3828C94.6836 44.1797 94.4753 43.9427 94.3242 43.6719C94.1784 43.3958 94.1055 43.0781 94.1055 42.7188C94.1055 42.3698 94.181 42.0417 94.332 41.7344C94.4831 41.4219 94.7018 41.1484 94.9883 40.9141C95.2747 40.6745 95.6237 40.487 96.0352 40.3516C96.4466 40.2109 96.9102 40.1406 97.4258 40.1406C98.1445 40.1406 98.7617 40.2578 99.2773 40.4922C99.7982 40.7266 100.197 41.0495 100.473 41.4609C100.749 41.8672 100.887 42.3255 100.887 42.8359H98.8242C98.8242 42.612 98.7721 42.4089 98.668 42.2266C98.569 42.0443 98.4154 41.8984 98.207 41.7891C97.9987 41.6745 97.7357 41.6172 97.418 41.6172C97.1315 41.6172 96.8893 41.6641 96.6914 41.7578C96.4987 41.8516 96.3529 41.974 96.2539 42.125C96.1549 42.276 96.1055 42.4427 96.1055 42.625C96.1055 42.7604 96.1315 42.8828 96.1836 42.9922C96.2409 43.0964 96.332 43.1927 96.457 43.2812C96.582 43.3698 96.7513 43.4505 96.9648 43.5234C97.1836 43.5964 97.4518 43.6667 97.7695 43.7344C98.3997 43.8594 98.9492 44.026 99.418 44.2344C99.8919 44.4375 100.262 44.7083 100.527 45.0469C100.793 45.3854 100.926 45.8177 100.926 46.3438C100.926 46.7188 100.845 47.0625 100.684 47.375C100.522 47.6823 100.288 47.9505 99.9805 48.1797C99.6732 48.4089 99.306 48.5885 98.8789 48.7188C98.4518 48.8438 97.9701 48.9062 97.4336 48.9062C96.6576 48.9062 96.0013 48.7682 95.4648 48.4922C94.9284 48.2109 94.5221 47.8568 94.2461 47.4297C93.9701 46.9974 93.832 46.5495 93.832 46.0859H95.8086C95.8242 46.4141 95.9128 46.6771 96.0742 46.875C96.2357 47.0729 96.4388 47.2161 96.6836 47.3047C96.9336 47.388 97.1966 47.4297 97.4727 47.4297C97.7852 47.4297 98.0482 47.388 98.2617 47.3047C98.4753 47.2161 98.6367 47.099 98.7461 46.9531C98.8555 46.8021 98.9102 46.6302 98.9102 46.4375ZM107.152 46.9531V43.0547C107.152 42.7682 107.103 42.5208 107.004 42.3125C106.905 42.1042 106.754 41.9427 106.551 41.8281C106.348 41.7135 106.09 41.6562 105.777 41.6562C105.501 41.6562 105.259 41.7031 105.051 41.7969C104.848 41.8906 104.691 42.0234 104.582 42.1953C104.473 42.362 104.418 42.5547 104.418 42.7734H102.348C102.348 42.4245 102.431 42.0938 102.598 41.7812C102.764 41.4635 103.001 41.1823 103.309 40.9375C103.621 40.6875 103.993 40.4922 104.426 40.3516C104.863 40.2109 105.353 40.1406 105.895 40.1406C106.535 40.1406 107.105 40.25 107.605 40.4688C108.111 40.6823 108.507 41.0052 108.793 41.4375C109.085 41.8698 109.23 42.4141 109.23 43.0703V46.7578C109.23 47.1797 109.257 47.5417 109.309 47.8438C109.366 48.1406 109.449 48.3984 109.559 48.6172V48.75H107.457C107.358 48.5365 107.283 48.2656 107.23 47.9375C107.178 47.6042 107.152 47.276 107.152 46.9531ZM107.441 43.6016L107.457 44.8281H106.152C105.829 44.8281 105.546 44.862 105.301 44.9297C105.056 44.9922 104.855 45.0859 104.699 45.2109C104.543 45.3307 104.426 45.4766 104.348 45.6484C104.27 45.8151 104.23 46.0052 104.23 46.2188C104.23 46.4271 104.277 46.6146 104.371 46.7812C104.47 46.9479 104.611 47.0807 104.793 47.1797C104.98 47.2734 105.199 47.3203 105.449 47.3203C105.814 47.3203 106.132 47.2474 106.402 47.1016C106.673 46.9505 106.884 46.7682 107.035 46.5547C107.186 46.3411 107.267 46.138 107.277 45.9453L107.871 46.8359C107.798 47.0495 107.689 47.276 107.543 47.5156C107.397 47.7552 107.21 47.9792 106.98 48.1875C106.751 48.3958 106.475 48.5677 106.152 48.7031C105.829 48.8385 105.454 48.9062 105.027 48.9062C104.48 48.9062 103.991 48.7969 103.559 48.5781C103.126 48.3594 102.785 48.0599 102.535 47.6797C102.285 47.2995 102.16 46.8672 102.16 46.3828C102.16 45.9349 102.243 45.5391 102.41 45.1953C102.577 44.8516 102.824 44.5625 103.152 44.3281C103.48 44.0885 103.887 43.9089 104.371 43.7891C104.861 43.6641 105.421 43.6016 106.051 43.6016H107.441ZM113.277 36.75V48.75H111.207V36.75H113.277ZM119.043 48.9062C118.402 48.9062 117.827 48.8021 117.316 48.5938C116.806 48.3854 116.371 48.0964 116.012 47.7266C115.658 47.3516 115.384 46.9167 115.191 46.4219C115.004 45.9219 114.91 45.3854 114.91 44.8125V44.5C114.91 43.849 115.004 43.2578 115.191 42.7266C115.379 42.1901 115.645 41.7292 115.988 41.3438C116.332 40.9583 116.743 40.6615 117.223 40.4531C117.702 40.2448 118.23 40.1406 118.809 40.1406C119.408 40.1406 119.936 40.2422 120.395 40.4453C120.853 40.6432 121.236 40.9245 121.543 41.2891C121.85 41.6536 122.082 42.0911 122.238 42.6016C122.395 43.1068 122.473 43.6667 122.473 44.2812V45.1484H115.848V43.7266H120.441V43.5703C120.431 43.2422 120.368 42.9427 120.254 42.6719C120.139 42.3958 119.962 42.1771 119.723 42.0156C119.483 41.849 119.173 41.7656 118.793 41.7656C118.486 41.7656 118.217 41.8333 117.988 41.9688C117.764 42.099 117.577 42.2865 117.426 42.5312C117.28 42.7708 117.171 43.0573 117.098 43.3906C117.025 43.724 116.988 44.0938 116.988 44.5V44.8125C116.988 45.1667 117.035 45.4948 117.129 45.7969C117.228 46.099 117.371 46.362 117.559 46.5859C117.751 46.8047 117.98 46.9766 118.246 47.1016C118.517 47.2214 118.824 47.2812 119.168 47.2812C119.6 47.2812 119.991 47.1979 120.34 47.0312C120.694 46.8594 121.001 46.6068 121.262 46.2734L122.301 47.3516C122.124 47.612 121.884 47.862 121.582 48.1016C121.285 48.3411 120.926 48.5365 120.504 48.6875C120.082 48.8333 119.595 48.9062 119.043 48.9062ZM128.504 46.4375C128.504 46.2604 128.457 46.1016 128.363 45.9609C128.27 45.8203 128.092 45.6927 127.832 45.5781C127.577 45.4583 127.202 45.3464 126.707 45.2422C126.27 45.1484 125.866 45.0312 125.496 44.8906C125.126 44.75 124.809 44.5807 124.543 44.3828C124.277 44.1797 124.069 43.9427 123.918 43.6719C123.772 43.3958 123.699 43.0781 123.699 42.7188C123.699 42.3698 123.775 42.0417 123.926 41.7344C124.077 41.4219 124.296 41.1484 124.582 40.9141C124.868 40.6745 125.217 40.487 125.629 40.3516C126.04 40.2109 126.504 40.1406 127.02 40.1406C127.738 40.1406 128.355 40.2578 128.871 40.4922C129.392 40.7266 129.79 41.0495 130.066 41.4609C130.342 41.8672 130.48 42.3255 130.48 42.8359H128.418C128.418 42.612 128.366 42.4089 128.262 42.2266C128.163 42.0443 128.009 41.8984 127.801 41.7891C127.592 41.6745 127.329 41.6172 127.012 41.6172C126.725 41.6172 126.483 41.6641 126.285 41.7578C126.092 41.8516 125.947 41.974 125.848 42.125C125.749 42.276 125.699 42.4427 125.699 42.625C125.699 42.7604 125.725 42.8828 125.777 42.9922C125.835 43.0964 125.926 43.1927 126.051 43.2812C126.176 43.3698 126.345 43.4505 126.559 43.5234C126.777 43.5964 127.046 43.6667 127.363 43.7344C127.993 43.8594 128.543 44.026 129.012 44.2344C129.486 44.4375 129.855 44.7083 130.121 45.0469C130.387 45.3854 130.52 45.8177 130.52 46.3438C130.52 46.7188 130.439 47.0625 130.277 47.375C130.116 47.6823 129.882 47.9505 129.574 48.1797C129.267 48.4089 128.9 48.5885 128.473 48.7188C128.046 48.8438 127.564 48.9062 127.027 48.9062C126.251 48.9062 125.595 48.7682 125.059 48.4922C124.522 48.2109 124.116 47.8568 123.84 47.4297C123.564 46.9974 123.426 46.5495 123.426 46.0859H125.402C125.418 46.4141 125.507 46.6771 125.668 46.875C125.829 47.0729 126.033 47.2161 126.277 47.3047C126.527 47.388 126.79 47.4297 127.066 47.4297C127.379 47.4297 127.642 47.388 127.855 47.3047C128.069 47.2161 128.23 47.099 128.34 46.9531C128.449 46.8021 128.504 46.6302 128.504 46.4375Z" fill="#828282"/>
<path d="M60.625 78.6791L56.875 77.7611L58.418 63.4642H73.75V67.4486H62.3242L61.543 74.4213C61.9857 74.1608 62.5977 73.9069 63.3789 73.6595C64.1602 73.3991 65.0521 73.2689 66.0547 73.2689C67.3958 73.2689 68.5938 73.4903 69.6484 73.933C70.7161 74.3627 71.6211 74.9942 72.3633 75.8275C73.1055 76.6478 73.6719 77.6504 74.0625 78.8353C74.4531 80.0072 74.6484 81.3288 74.6484 82.8002C74.6484 84.1153 74.4531 85.3457 74.0625 86.4916C73.6849 87.6374 73.112 88.6465 72.3438 89.5189C71.5755 90.3913 70.6055 91.0749 69.4336 91.5697C68.2747 92.0515 66.901 92.2924 65.3125 92.2924C64.1276 92.2924 62.9883 92.1231 61.8945 91.7845C60.8138 91.433 59.8438 90.9187 58.9844 90.2416C58.125 89.5515 57.4349 88.7051 56.9141 87.7025C56.3932 86.6869 56.0938 85.5215 56.0156 84.2064H60.625C60.7422 85.1309 60.9961 85.9187 61.3867 86.5697C61.7904 87.2077 62.3242 87.696 62.9883 88.0345C63.6523 88.3731 64.4206 88.5424 65.293 88.5424C66.0872 88.5424 66.7708 88.4056 67.3438 88.1322C67.9167 87.8457 68.3919 87.4421 68.7695 86.9213C69.1602 86.3874 69.4466 85.7624 69.6289 85.0463C69.8242 84.3301 69.9219 83.5358 69.9219 82.6635C69.9219 81.8301 69.8112 81.0684 69.5898 80.3783C69.3815 79.6882 69.0625 79.0892 68.6328 78.5814C68.2161 78.0736 67.6888 77.683 67.0508 77.4095C66.4128 77.1231 65.6771 76.9799 64.8438 76.9799C63.724 76.9799 62.8646 77.1426 62.2656 77.4681C61.6797 77.7937 61.1328 78.1973 60.625 78.6791ZM77.3867 89.558C77.3867 88.8288 77.6341 88.2168 78.1289 87.722C78.6237 87.2142 79.2943 86.9603 80.1406 86.9603C81 86.9603 81.6706 87.2142 82.1523 87.722C82.6471 88.2168 82.8945 88.8288 82.8945 89.558C82.8945 90.2872 82.6471 90.8991 82.1523 91.3939C81.6706 91.8887 81 92.1361 80.1406 92.1361C79.2943 92.1361 78.6237 91.8887 78.1289 91.3939C77.6341 90.8991 77.3867 90.2872 77.3867 89.558ZM90.3398 88.1908H90.7305C92.5273 88.1908 94.0247 87.9564 95.2227 87.4877C96.4336 87.0059 97.3971 86.3418 98.1133 85.4955C98.8294 84.6491 99.3438 83.653 99.6562 82.5072C99.9688 81.3614 100.125 80.1179 100.125 78.7767V73.8744C100.125 72.7155 100.001 71.6999 99.7539 70.8275C99.5195 69.9421 99.181 69.2064 98.7383 68.6205C98.3086 68.0215 97.8073 67.5723 97.2344 67.2728C96.6745 66.9733 96.069 66.8236 95.418 66.8236C94.7018 66.8236 94.0573 66.9864 93.4844 67.3119C92.9245 67.6244 92.4492 68.0606 92.0586 68.6205C91.681 69.1674 91.388 69.8119 91.1797 70.5541C90.9844 71.2832 90.8867 72.0645 90.8867 72.8978C90.8867 73.6791 90.9779 74.4343 91.1602 75.1635C91.3555 75.8796 91.6419 76.5176 92.0195 77.0775C92.3971 77.6374 92.8724 78.0801 93.4453 78.4056C94.0182 78.7312 94.6888 78.8939 95.457 78.8939C96.1862 78.8939 96.8568 78.7572 97.4688 78.4838C98.0807 78.1973 98.6146 77.8132 99.0703 77.3314C99.526 76.8497 99.8841 76.3093 100.145 75.7103C100.405 75.1114 100.548 74.4994 100.574 73.8744L102.371 74.4213C102.371 75.4108 102.163 76.3874 101.746 77.351C101.342 78.3015 100.776 79.1739 100.047 79.9681C99.3307 80.7494 98.4909 81.3744 97.5273 81.8431C96.5768 82.3119 95.5417 82.5463 94.4219 82.5463C93.0677 82.5463 91.8698 82.2924 90.8281 81.7845C89.7995 81.2637 88.9401 80.5606 88.25 79.6752C87.5729 78.7898 87.0651 77.7741 86.7266 76.6283C86.388 75.4825 86.2188 74.278 86.2188 73.015C86.2188 71.6478 86.4271 70.3653 86.8438 69.1674C87.2604 67.9694 87.8659 66.9148 88.6602 66.0033C89.4544 65.0788 90.418 64.3627 91.5508 63.8549C92.6966 63.334 93.9922 63.0736 95.4375 63.0736C96.974 63.0736 98.3216 63.3731 99.4805 63.972C100.639 64.571 101.616 65.3978 102.41 66.4525C103.204 67.5072 103.803 68.7312 104.207 70.1244C104.611 71.5176 104.812 73.015 104.812 74.6166V76.2767C104.812 77.9564 104.663 79.5775 104.363 81.14C104.064 82.6895 103.576 84.1283 102.898 85.4564C102.234 86.7715 101.355 87.9304 100.262 88.933C99.181 89.9226 97.8529 90.6973 96.2773 91.2572C94.7148 91.8041 92.8789 92.0775 90.7695 92.0775H90.3398V88.1908ZM126.379 84.1478C126.379 85.9187 125.969 87.4095 125.148 88.6205C124.328 89.8314 123.208 90.7494 121.789 91.3744C120.383 91.9864 118.794 92.2924 117.023 92.2924C115.253 92.2924 113.658 91.9864 112.238 91.3744C110.819 90.7494 109.699 89.8314 108.879 88.6205C108.059 87.4095 107.648 85.9187 107.648 84.1478C107.648 82.976 107.876 81.9148 108.332 80.9642C108.788 80.0007 109.432 79.1739 110.266 78.4838C111.112 77.7806 112.102 77.2403 113.234 76.8627C114.38 76.4851 115.63 76.2963 116.984 76.2963C118.781 76.2963 120.389 76.6283 121.809 77.2924C123.228 77.9564 124.341 78.8744 125.148 80.0463C125.969 81.2181 126.379 82.5853 126.379 84.1478ZM121.652 83.9135C121.652 82.9629 121.457 82.1296 121.066 81.4135C120.676 80.6973 120.129 80.1439 119.426 79.7533C118.723 79.3627 117.909 79.1674 116.984 79.1674C116.047 79.1674 115.233 79.3627 114.543 79.7533C113.853 80.1439 113.312 80.6973 112.922 81.4135C112.544 82.1296 112.355 82.9629 112.355 83.9135C112.355 84.877 112.544 85.7103 112.922 86.4135C113.299 87.1036 113.84 87.6309 114.543 87.9955C115.246 88.3601 116.073 88.5424 117.023 88.5424C117.974 88.5424 118.794 88.3601 119.484 87.9955C120.174 87.6309 120.708 87.1036 121.086 86.4135C121.464 85.7103 121.652 84.877 121.652 83.9135ZM125.734 70.9447C125.734 72.364 125.357 73.627 124.602 74.7338C123.859 75.8405 122.831 76.7129 121.516 77.351C120.201 77.976 118.703 78.2885 117.023 78.2885C115.331 78.2885 113.82 77.976 112.492 77.351C111.177 76.7129 110.142 75.8405 109.387 74.7338C108.645 73.627 108.273 72.364 108.273 70.9447C108.273 69.252 108.645 67.8262 109.387 66.6674C110.142 65.4955 111.177 64.6036 112.492 63.9916C113.807 63.3796 115.311 63.0736 117.004 63.0736C118.697 63.0736 120.201 63.3796 121.516 63.9916C122.831 64.6036 123.859 65.4955 124.602 66.6674C125.357 67.8262 125.734 69.252 125.734 70.9447ZM121.027 71.101C121.027 70.2546 120.858 69.5124 120.52 68.8744C120.194 68.2233 119.732 67.7155 119.133 67.351C118.534 66.9864 117.824 66.8041 117.004 66.8041C116.184 66.8041 115.474 66.9799 114.875 67.3314C114.276 67.683 113.814 68.1778 113.488 68.8158C113.163 69.4538 113 70.2155 113 71.101C113 71.9733 113.163 72.7351 113.488 73.3861C113.814 74.0241 114.276 74.5254 114.875 74.89C115.487 75.2546 116.203 75.4369 117.023 75.4369C117.844 75.4369 118.553 75.2546 119.152 74.89C119.751 74.5254 120.214 74.0241 120.539 73.3861C120.865 72.7351 121.027 71.9733 121.027 71.101ZM147.906 63.4642V66.0424L136.539 91.9017H131.578L142.926 67.2142H128.199V63.4642H147.906ZM154.941 87.3705L154.922 90.7299C154.922 92.058 154.59 93.4252 153.926 94.8314C153.262 96.2377 152.383 97.3965 151.289 98.308L148.77 96.8431C149.134 96.2572 149.466 95.6648 149.766 95.0658C150.065 94.4668 150.306 93.8288 150.488 93.1517C150.671 92.4747 150.762 91.726 150.762 90.9056V87.3705H154.941ZM163.227 75.5541H166.039C167.133 75.5541 168.038 75.3653 168.754 74.9877C169.483 74.6101 170.023 74.0892 170.375 73.4252C170.727 72.7611 170.902 71.9994 170.902 71.14C170.902 70.2416 170.74 69.4733 170.414 68.8353C170.102 68.1843 169.62 67.683 168.969 67.3314C168.331 66.9799 167.517 66.8041 166.527 66.8041C165.694 66.8041 164.939 66.9733 164.262 67.3119C163.598 67.6374 163.07 68.1062 162.68 68.7181C162.289 69.3171 162.094 70.0332 162.094 70.8666H157.367C157.367 69.3562 157.764 68.015 158.559 66.8431C159.353 65.6713 160.434 64.7533 161.801 64.0892C163.181 63.4122 164.73 63.0736 166.449 63.0736C168.285 63.0736 169.887 63.3796 171.254 63.9916C172.634 64.5905 173.708 65.489 174.477 66.6869C175.245 67.8848 175.629 69.3692 175.629 71.14C175.629 71.9473 175.44 72.7676 175.062 73.601C174.685 74.4343 174.125 75.196 173.383 75.8861C172.641 76.5632 171.716 77.1166 170.609 77.5463C169.503 77.9629 168.22 78.1713 166.762 78.1713H163.227V75.5541ZM163.227 79.226V76.6478H166.762C168.428 76.6478 169.848 76.8431 171.02 77.2338C172.204 77.6244 173.168 78.1648 173.91 78.8549C174.652 79.5319 175.193 80.3067 175.531 81.1791C175.883 82.0515 176.059 82.976 176.059 83.9525C176.059 85.2806 175.818 86.4655 175.336 87.5072C174.867 88.5358 174.197 89.4082 173.324 90.1244C172.452 90.8405 171.43 91.3809 170.258 91.7455C169.099 92.1101 167.836 92.2924 166.469 92.2924C165.245 92.2924 164.073 92.1231 162.953 91.7845C161.833 91.446 160.831 90.9447 159.945 90.2806C159.06 89.6036 158.357 88.7637 157.836 87.7611C157.328 86.7455 157.074 85.5736 157.074 84.2455H161.781C161.781 85.0918 161.977 85.8405 162.367 86.4916C162.771 87.1296 163.331 87.6309 164.047 87.9955C164.776 88.3601 165.609 88.5424 166.547 88.5424C167.536 88.5424 168.389 88.3666 169.105 88.015C169.822 87.6635 170.368 87.1426 170.746 86.4525C171.137 85.7624 171.332 84.9291 171.332 83.9525C171.332 82.8457 171.117 81.9473 170.688 81.2572C170.258 80.5671 169.646 80.0593 168.852 79.7338C168.057 79.3952 167.12 79.226 166.039 79.226H163.227ZM197.82 63.4642V66.0424L186.453 91.9017H181.492L192.84 67.2142H178.113V63.4642H197.82Z" fill="white"/>
<path d="M55.1074 104.85H56.3857L59.6465 112.965L62.9004 104.85H64.1855L60.1387 114.804H59.1406L55.1074 104.85ZM54.6904 104.85H55.8184L56.0029 110.921V114.804H54.6904V104.85ZM63.4678 104.85H64.5957V114.804H63.2832V110.921L63.4678 104.85ZM66.3867 111.187V111.03C66.3867 110.497 66.4642 110.002 66.6191 109.547C66.7741 109.086 66.9974 108.688 67.2891 108.35C67.5807 108.009 67.9339 107.744 68.3486 107.557C68.7633 107.366 69.2282 107.27 69.7432 107.27C70.2627 107.27 70.7298 107.366 71.1445 107.557C71.5638 107.744 71.9193 108.009 72.2109 108.35C72.5072 108.688 72.7327 109.086 72.8877 109.547C73.0426 110.002 73.1201 110.497 73.1201 111.03V111.187C73.1201 111.721 73.0426 112.215 72.8877 112.671C72.7327 113.127 72.5072 113.525 72.2109 113.867C71.9193 114.204 71.5661 114.469 71.1514 114.66C70.7412 114.847 70.2764 114.94 69.7568 114.94C69.2373 114.94 68.7702 114.847 68.3555 114.66C67.9408 114.469 67.5853 114.204 67.2891 113.867C66.9974 113.525 66.7741 113.127 66.6191 112.671C66.4642 112.215 66.3867 111.721 66.3867 111.187ZM67.6514 111.03V111.187C67.6514 111.557 67.6947 111.905 67.7812 112.233C67.8678 112.557 67.9977 112.844 68.1709 113.095C68.3486 113.345 68.5697 113.543 68.834 113.689C69.0983 113.831 69.4059 113.901 69.7568 113.901C70.1032 113.901 70.4062 113.831 70.666 113.689C70.9303 113.543 71.1491 113.345 71.3223 113.095C71.4954 112.844 71.6253 112.557 71.7119 112.233C71.8031 111.905 71.8486 111.557 71.8486 111.187V111.03C71.8486 110.666 71.8031 110.321 71.7119 109.998C71.6253 109.67 71.4932 109.38 71.3154 109.13C71.1423 108.875 70.9235 108.674 70.6592 108.528C70.3994 108.382 70.0941 108.309 69.7432 108.309C69.3968 108.309 69.0915 108.382 68.8271 108.528C68.5674 108.674 68.3486 108.875 68.1709 109.13C67.9977 109.38 67.8678 109.67 67.7812 109.998C67.6947 110.321 67.6514 110.666 67.6514 111.03ZM79.0127 112.842C79.0127 112.659 78.9717 112.491 78.8896 112.336C78.8122 112.176 78.6504 112.033 78.4043 111.905C78.1628 111.773 77.7982 111.659 77.3105 111.563C76.9004 111.477 76.529 111.374 76.1963 111.256C75.8682 111.137 75.5879 110.994 75.3555 110.825C75.1276 110.656 74.9521 110.458 74.8291 110.23C74.7061 110.002 74.6445 109.736 74.6445 109.431C74.6445 109.139 74.7083 108.863 74.8359 108.603C74.9681 108.344 75.1527 108.113 75.3896 107.913C75.6312 107.712 75.9206 107.555 76.2578 107.441C76.5951 107.327 76.971 107.27 77.3857 107.27C77.9782 107.27 78.484 107.375 78.9033 107.585C79.3226 107.794 79.6439 108.075 79.8672 108.426C80.0905 108.772 80.2021 109.157 80.2021 109.581H78.9375C78.9375 109.376 78.876 109.178 78.7529 108.986C78.6344 108.79 78.459 108.628 78.2266 108.501C77.9987 108.373 77.7184 108.309 77.3857 108.309C77.0348 108.309 76.75 108.364 76.5312 108.474C76.3171 108.578 76.1598 108.713 76.0596 108.877C75.9639 109.041 75.916 109.214 75.916 109.396C75.916 109.533 75.9388 109.656 75.9844 109.766C76.0345 109.87 76.1211 109.968 76.2441 110.059C76.3672 110.146 76.5404 110.228 76.7637 110.306C76.987 110.383 77.2718 110.46 77.6182 110.538C78.2243 110.675 78.7233 110.839 79.1152 111.03C79.5072 111.222 79.7988 111.456 79.9902 111.734C80.1816 112.012 80.2773 112.349 80.2773 112.746C80.2773 113.07 80.209 113.366 80.0723 113.635C79.9401 113.904 79.7464 114.136 79.4912 114.332C79.2406 114.523 78.9398 114.674 78.5889 114.783C78.2425 114.888 77.8529 114.94 77.4199 114.94C76.7682 114.94 76.2168 114.824 75.7656 114.592C75.3145 114.359 74.9727 114.058 74.7402 113.689C74.5078 113.32 74.3916 112.931 74.3916 112.52H75.6631C75.6813 112.867 75.7816 113.142 75.9639 113.348C76.1462 113.548 76.3695 113.692 76.6338 113.778C76.8981 113.86 77.1602 113.901 77.4199 113.901C77.7663 113.901 78.0557 113.856 78.2881 113.765C78.5251 113.673 78.7051 113.548 78.8281 113.389C78.9512 113.229 79.0127 113.047 79.0127 112.842ZM85.0352 107.407V108.378H81.0361V107.407H85.0352ZM82.3896 105.609H83.6543V112.972C83.6543 113.222 83.693 113.411 83.7705 113.539C83.848 113.667 83.9482 113.751 84.0713 113.792C84.1943 113.833 84.3265 113.853 84.4678 113.853C84.5726 113.853 84.682 113.844 84.7959 113.826C84.9144 113.803 85.0033 113.785 85.0625 113.771L85.0693 114.804C84.9691 114.835 84.8369 114.865 84.6729 114.892C84.5133 114.924 84.3197 114.94 84.0918 114.94C83.7819 114.94 83.4971 114.879 83.2373 114.756C82.9775 114.633 82.7702 114.428 82.6152 114.141C82.4648 113.849 82.3896 113.457 82.3896 112.965V105.609ZM89.9844 104.304H91.2559V113.368L91.1465 114.804H89.9844V104.304ZM96.2529 111.044V111.187C96.2529 111.725 96.1891 112.224 96.0615 112.684C95.9339 113.14 95.7471 113.537 95.501 113.874C95.2549 114.211 94.9541 114.473 94.5986 114.66C94.2432 114.847 93.8353 114.94 93.375 114.94C92.9056 114.94 92.4932 114.861 92.1377 114.701C91.7868 114.537 91.4906 114.302 91.249 113.997C91.0075 113.692 90.8138 113.322 90.668 112.89C90.5267 112.457 90.4287 111.969 90.374 111.427V110.798C90.4287 110.251 90.5267 109.761 90.668 109.328C90.8138 108.895 91.0075 108.526 91.249 108.221C91.4906 107.911 91.7868 107.676 92.1377 107.516C92.4886 107.352 92.8965 107.27 93.3613 107.27C93.8262 107.27 94.2386 107.362 94.5986 107.544C94.9587 107.722 95.2594 107.977 95.501 108.309C95.7471 108.642 95.9339 109.041 96.0615 109.506C96.1891 109.966 96.2529 110.479 96.2529 111.044ZM94.9814 111.187V111.044C94.9814 110.675 94.9473 110.328 94.8789 110.005C94.8105 109.677 94.7012 109.39 94.5508 109.143C94.4004 108.893 94.2021 108.697 93.9561 108.556C93.71 108.41 93.4069 108.337 93.0469 108.337C92.7279 108.337 92.4499 108.391 92.2129 108.501C91.9805 108.61 91.7822 108.758 91.6182 108.945C91.4541 109.127 91.3197 109.337 91.2148 109.574C91.1146 109.807 91.0394 110.048 90.9893 110.299V111.946C91.0622 112.265 91.1807 112.573 91.3447 112.869C91.5133 113.161 91.7367 113.4 92.0146 113.587C92.2972 113.774 92.6458 113.867 93.0605 113.867C93.4023 113.867 93.694 113.799 93.9355 113.662C94.1816 113.521 94.3799 113.327 94.5303 113.081C94.6852 112.835 94.7992 112.55 94.8721 112.226C94.945 111.903 94.9814 111.557 94.9814 111.187ZM97.5176 111.187V111.03C97.5176 110.497 97.5951 110.002 97.75 109.547C97.9049 109.086 98.1283 108.688 98.4199 108.35C98.7116 108.009 99.0648 107.744 99.4795 107.557C99.8942 107.366 100.359 107.27 100.874 107.27C101.394 107.27 101.861 107.366 102.275 107.557C102.695 107.744 103.05 108.009 103.342 108.35C103.638 108.688 103.864 109.086 104.019 109.547C104.174 110.002 104.251 110.497 104.251 111.03V111.187C104.251 111.721 104.174 112.215 104.019 112.671C103.864 113.127 103.638 113.525 103.342 113.867C103.05 114.204 102.697 114.469 102.282 114.66C101.872 114.847 101.407 114.94 100.888 114.94C100.368 114.94 99.901 114.847 99.4863 114.66C99.0716 114.469 98.7161 114.204 98.4199 113.867C98.1283 113.525 97.9049 113.127 97.75 112.671C97.5951 112.215 97.5176 111.721 97.5176 111.187ZM98.7822 111.03V111.187C98.7822 111.557 98.8255 111.905 98.9121 112.233C98.9987 112.557 99.1286 112.844 99.3018 113.095C99.4795 113.345 99.7005 113.543 99.9648 113.689C100.229 113.831 100.537 113.901 100.888 113.901C101.234 113.901 101.537 113.831 101.797 113.689C102.061 113.543 102.28 113.345 102.453 113.095C102.626 112.844 102.756 112.557 102.843 112.233C102.934 111.905 102.979 111.557 102.979 111.187V111.03C102.979 110.666 102.934 110.321 102.843 109.998C102.756 109.67 102.624 109.38 102.446 109.13C102.273 108.875 102.054 108.674 101.79 108.528C101.53 108.382 101.225 108.309 100.874 108.309C100.528 108.309 100.222 108.382 99.958 108.528C99.6982 108.674 99.4795 108.875 99.3018 109.13C99.1286 109.38 98.9987 109.67 98.9121 109.998C98.8255 110.321 98.7822 110.666 98.7822 111.03ZM110.362 113.095V107.407H111.634V114.804H110.424L110.362 113.095ZM110.602 111.536L111.128 111.522C111.128 112.015 111.076 112.47 110.971 112.89C110.87 113.304 110.706 113.664 110.479 113.97C110.251 114.275 109.952 114.514 109.583 114.687C109.214 114.856 108.765 114.94 108.236 114.94C107.876 114.94 107.546 114.888 107.245 114.783C106.949 114.678 106.694 114.516 106.479 114.298C106.265 114.079 106.099 113.794 105.98 113.443C105.867 113.092 105.81 112.671 105.81 112.179V107.407H107.074V112.192C107.074 112.525 107.111 112.801 107.184 113.019C107.261 113.234 107.364 113.405 107.491 113.532C107.623 113.655 107.769 113.742 107.929 113.792C108.093 113.842 108.261 113.867 108.435 113.867C108.972 113.867 109.398 113.765 109.713 113.559C110.027 113.35 110.253 113.07 110.39 112.719C110.531 112.363 110.602 111.969 110.602 111.536ZM118.354 107.407H119.502V114.646C119.502 115.298 119.37 115.854 119.105 116.314C118.841 116.775 118.472 117.123 117.998 117.36C117.529 117.602 116.986 117.723 116.371 117.723C116.116 117.723 115.815 117.682 115.469 117.599C115.127 117.522 114.79 117.388 114.457 117.196C114.129 117.009 113.853 116.756 113.63 116.437L114.293 115.685C114.603 116.059 114.926 116.319 115.264 116.465C115.605 116.611 115.943 116.683 116.275 116.683C116.676 116.683 117.023 116.608 117.314 116.458C117.606 116.307 117.832 116.084 117.991 115.788C118.155 115.496 118.237 115.136 118.237 114.708V109.034L118.354 107.407ZM113.261 111.187V111.044C113.261 110.479 113.327 109.966 113.459 109.506C113.596 109.041 113.789 108.642 114.04 108.309C114.295 107.977 114.603 107.722 114.963 107.544C115.323 107.362 115.729 107.27 116.18 107.27C116.645 107.27 117.05 107.352 117.396 107.516C117.747 107.676 118.044 107.911 118.285 108.221C118.531 108.526 118.725 108.895 118.866 109.328C119.007 109.761 119.105 110.251 119.16 110.798V111.427C119.11 111.969 119.012 112.457 118.866 112.89C118.725 113.322 118.531 113.692 118.285 113.997C118.044 114.302 117.747 114.537 117.396 114.701C117.046 114.861 116.635 114.94 116.166 114.94C115.724 114.94 115.323 114.847 114.963 114.66C114.607 114.473 114.302 114.211 114.047 113.874C113.792 113.537 113.596 113.14 113.459 112.684C113.327 112.224 113.261 111.725 113.261 111.187ZM114.525 111.044V111.187C114.525 111.557 114.562 111.903 114.635 112.226C114.712 112.55 114.828 112.835 114.983 113.081C115.143 113.327 115.346 113.521 115.592 113.662C115.838 113.799 116.132 113.867 116.474 113.867C116.893 113.867 117.239 113.778 117.513 113.6C117.786 113.423 118.003 113.188 118.162 112.896C118.326 112.605 118.454 112.288 118.545 111.946V110.299C118.495 110.048 118.417 109.807 118.312 109.574C118.212 109.337 118.08 109.127 117.916 108.945C117.757 108.758 117.558 108.61 117.321 108.501C117.084 108.391 116.806 108.337 116.487 108.337C116.141 108.337 115.842 108.41 115.592 108.556C115.346 108.697 115.143 108.893 114.983 109.143C114.828 109.39 114.712 109.677 114.635 110.005C114.562 110.328 114.525 110.675 114.525 111.044ZM122.688 104.304V114.804H121.423V104.304H122.688ZM122.387 110.825L121.86 110.805C121.865 110.299 121.94 109.832 122.086 109.403C122.232 108.97 122.437 108.594 122.701 108.275C122.965 107.956 123.28 107.71 123.645 107.537C124.014 107.359 124.422 107.27 124.868 107.27C125.233 107.27 125.561 107.321 125.853 107.421C126.144 107.516 126.393 107.671 126.598 107.886C126.807 108.1 126.967 108.378 127.076 108.72C127.186 109.057 127.24 109.469 127.24 109.957V114.804H125.969V109.943C125.969 109.556 125.912 109.246 125.798 109.014C125.684 108.777 125.518 108.606 125.299 108.501C125.08 108.391 124.811 108.337 124.492 108.337C124.178 108.337 123.891 108.403 123.631 108.535C123.376 108.667 123.155 108.849 122.968 109.082C122.785 109.314 122.642 109.581 122.537 109.882C122.437 110.178 122.387 110.492 122.387 110.825ZM132.23 107.407V108.378H128.231V107.407H132.23ZM129.585 105.609H130.85V112.972C130.85 113.222 130.888 113.411 130.966 113.539C131.043 113.667 131.144 113.751 131.267 113.792C131.39 113.833 131.522 113.853 131.663 113.853C131.768 113.853 131.877 113.844 131.991 113.826C132.11 113.803 132.199 113.785 132.258 113.771L132.265 114.804C132.164 114.835 132.032 114.865 131.868 114.892C131.709 114.924 131.515 114.94 131.287 114.94C130.977 114.94 130.692 114.879 130.433 114.756C130.173 114.633 129.965 114.428 129.811 114.141C129.66 113.849 129.585 113.457 129.585 112.965V105.609ZM138.451 108.829V117.647H137.18V107.407H138.342L138.451 108.829ZM143.435 111.044V111.187C143.435 111.725 143.371 112.224 143.243 112.684C143.116 113.14 142.929 113.537 142.683 113.874C142.441 114.211 142.143 114.473 141.787 114.66C141.432 114.847 141.024 114.94 140.563 114.94C140.094 114.94 139.679 114.863 139.319 114.708C138.959 114.553 138.654 114.327 138.403 114.031C138.153 113.735 137.952 113.379 137.802 112.965C137.656 112.55 137.556 112.083 137.501 111.563V110.798C137.556 110.251 137.658 109.761 137.809 109.328C137.959 108.895 138.157 108.526 138.403 108.221C138.654 107.911 138.957 107.676 139.312 107.516C139.668 107.352 140.078 107.27 140.543 107.27C141.008 107.27 141.42 107.362 141.78 107.544C142.14 107.722 142.443 107.977 142.689 108.309C142.936 108.642 143.12 109.041 143.243 109.506C143.371 109.966 143.435 110.479 143.435 111.044ZM142.163 111.187V111.044C142.163 110.675 142.124 110.328 142.047 110.005C141.969 109.677 141.849 109.39 141.685 109.143C141.525 108.893 141.32 108.697 141.069 108.556C140.819 108.41 140.52 108.337 140.174 108.337C139.855 108.337 139.577 108.391 139.34 108.501C139.107 108.61 138.909 108.758 138.745 108.945C138.581 109.127 138.447 109.337 138.342 109.574C138.242 109.807 138.166 110.048 138.116 110.299V112.069C138.207 112.388 138.335 112.689 138.499 112.972C138.663 113.25 138.882 113.475 139.155 113.648C139.429 113.817 139.773 113.901 140.188 113.901C140.529 113.901 140.823 113.831 141.069 113.689C141.32 113.543 141.525 113.345 141.685 113.095C141.849 112.844 141.969 112.557 142.047 112.233C142.124 111.905 142.163 111.557 142.163 111.187ZM146.312 108.569V114.804H145.048V107.407H146.278L146.312 108.569ZM148.623 107.366L148.616 108.542C148.511 108.519 148.411 108.505 148.315 108.501C148.224 108.492 148.119 108.487 148.001 108.487C147.709 108.487 147.452 108.533 147.229 108.624C147.005 108.715 146.816 108.843 146.661 109.007C146.506 109.171 146.383 109.367 146.292 109.595C146.205 109.818 146.148 110.064 146.121 110.333L145.766 110.538C145.766 110.091 145.809 109.672 145.896 109.28C145.987 108.888 146.126 108.542 146.312 108.241C146.499 107.936 146.736 107.699 147.023 107.53C147.315 107.357 147.661 107.27 148.062 107.27C148.154 107.27 148.258 107.282 148.377 107.305C148.495 107.323 148.577 107.343 148.623 107.366ZM149.32 111.187V111.03C149.32 110.497 149.398 110.002 149.553 109.547C149.708 109.086 149.931 108.688 150.223 108.35C150.514 108.009 150.868 107.744 151.282 107.557C151.697 107.366 152.162 107.27 152.677 107.27C153.196 107.27 153.663 107.366 154.078 107.557C154.497 107.744 154.853 108.009 155.145 108.35C155.441 108.688 155.666 109.086 155.821 109.547C155.976 110.002 156.054 110.497 156.054 111.03V111.187C156.054 111.721 155.976 112.215 155.821 112.671C155.666 113.127 155.441 113.525 155.145 113.867C154.853 114.204 154.5 114.469 154.085 114.66C153.675 114.847 153.21 114.94 152.69 114.94C152.171 114.94 151.704 114.847 151.289 114.66C150.874 114.469 150.519 114.204 150.223 113.867C149.931 113.525 149.708 113.127 149.553 112.671C149.398 112.215 149.32 111.721 149.32 111.187ZM150.585 111.03V111.187C150.585 111.557 150.628 111.905 150.715 112.233C150.801 112.557 150.931 112.844 151.104 113.095C151.282 113.345 151.503 113.543 151.768 113.689C152.032 113.831 152.34 113.901 152.69 113.901C153.037 113.901 153.34 113.831 153.6 113.689C153.864 113.543 154.083 113.345 154.256 113.095C154.429 112.844 154.559 112.557 154.646 112.233C154.737 111.905 154.782 111.557 154.782 111.187V111.03C154.782 110.666 154.737 110.321 154.646 109.998C154.559 109.67 154.427 109.38 154.249 109.13C154.076 108.875 153.857 108.674 153.593 108.528C153.333 108.382 153.028 108.309 152.677 108.309C152.33 108.309 152.025 108.382 151.761 108.528C151.501 108.674 151.282 108.875 151.104 109.13C150.931 109.38 150.801 109.67 150.715 109.998C150.628 110.321 150.585 110.666 150.585 111.03ZM162.302 113.368V104.304H163.573V114.804H162.411L162.302 113.368ZM157.325 111.187V111.044C157.325 110.479 157.394 109.966 157.53 109.506C157.672 109.041 157.87 108.642 158.125 108.309C158.385 107.977 158.692 107.722 159.048 107.544C159.408 107.362 159.809 107.27 160.251 107.27C160.716 107.27 161.121 107.352 161.468 107.516C161.819 107.676 162.115 107.911 162.356 108.221C162.603 108.526 162.796 108.895 162.938 109.328C163.079 109.761 163.177 110.251 163.231 110.798V111.427C163.181 111.969 163.083 112.457 162.938 112.89C162.796 113.322 162.603 113.692 162.356 113.997C162.115 114.302 161.819 114.537 161.468 114.701C161.117 114.861 160.707 114.94 160.237 114.94C159.804 114.94 159.408 114.847 159.048 114.66C158.692 114.473 158.385 114.211 158.125 113.874C157.87 113.537 157.672 113.14 157.53 112.684C157.394 112.224 157.325 111.725 157.325 111.187ZM158.597 111.044V111.187C158.597 111.557 158.633 111.903 158.706 112.226C158.784 112.55 158.902 112.835 159.062 113.081C159.221 113.327 159.424 113.521 159.67 113.662C159.916 113.799 160.21 113.867 160.552 113.867C160.971 113.867 161.315 113.778 161.584 113.6C161.857 113.423 162.076 113.188 162.24 112.896C162.404 112.605 162.532 112.288 162.623 111.946V110.299C162.568 110.048 162.489 109.807 162.384 109.574C162.284 109.337 162.151 109.127 161.987 108.945C161.828 108.758 161.63 108.61 161.393 108.501C161.16 108.391 160.884 108.337 160.565 108.337C160.219 108.337 159.921 108.41 159.67 108.556C159.424 108.697 159.221 108.893 159.062 109.143C158.902 109.39 158.784 109.677 158.706 110.005C158.633 110.328 158.597 110.675 158.597 111.044ZM170.067 113.095V107.407H171.339V114.804H170.129L170.067 113.095ZM170.307 111.536L170.833 111.522C170.833 112.015 170.781 112.47 170.676 112.89C170.576 113.304 170.411 113.664 170.184 113.97C169.956 114.275 169.657 114.514 169.288 114.687C168.919 114.856 168.47 114.94 167.941 114.94C167.581 114.94 167.251 114.888 166.95 114.783C166.654 114.678 166.399 114.516 166.185 114.298C165.97 114.079 165.804 113.794 165.686 113.443C165.572 113.092 165.515 112.671 165.515 112.179V107.407H166.779V112.192C166.779 112.525 166.816 112.801 166.889 113.019C166.966 113.234 167.069 113.405 167.196 113.532C167.328 113.655 167.474 113.742 167.634 113.792C167.798 113.842 167.966 113.867 168.14 113.867C168.677 113.867 169.104 113.765 169.418 113.559C169.732 113.35 169.958 113.07 170.095 112.719C170.236 112.363 170.307 111.969 170.307 111.536ZM176.227 113.901C176.527 113.901 176.805 113.84 177.061 113.717C177.316 113.594 177.525 113.425 177.689 113.211C177.854 112.992 177.947 112.744 177.97 112.466H179.173C179.15 112.903 179.002 113.311 178.729 113.689C178.46 114.063 178.106 114.366 177.669 114.599C177.231 114.826 176.751 114.94 176.227 114.94C175.671 114.94 175.185 114.842 174.771 114.646C174.36 114.45 174.019 114.182 173.745 113.84C173.476 113.498 173.273 113.106 173.137 112.664C173.005 112.217 172.938 111.746 172.938 111.249V110.962C172.938 110.465 173.005 109.996 173.137 109.554C173.273 109.107 173.476 108.713 173.745 108.371C174.019 108.029 174.36 107.76 174.771 107.564C175.185 107.368 175.671 107.27 176.227 107.27C176.805 107.27 177.311 107.389 177.744 107.626C178.177 107.858 178.517 108.177 178.763 108.583C179.013 108.984 179.15 109.44 179.173 109.95H177.97C177.947 109.645 177.86 109.369 177.71 109.123C177.564 108.877 177.364 108.681 177.108 108.535C176.858 108.385 176.564 108.309 176.227 108.309C175.839 108.309 175.513 108.387 175.249 108.542C174.989 108.692 174.782 108.897 174.627 109.157C174.477 109.412 174.367 109.697 174.299 110.012C174.235 110.321 174.203 110.638 174.203 110.962V111.249C174.203 111.572 174.235 111.891 174.299 112.206C174.363 112.52 174.47 112.805 174.62 113.06C174.775 113.316 174.982 113.521 175.242 113.676C175.507 113.826 175.835 113.901 176.227 113.901ZM183.691 107.407V108.378H179.692V107.407H183.691ZM181.046 105.609H182.311V112.972C182.311 113.222 182.349 113.411 182.427 113.539C182.504 113.667 182.604 113.751 182.728 113.792C182.851 113.833 182.983 113.853 183.124 113.853C183.229 113.853 183.338 113.844 183.452 113.826C183.571 113.803 183.66 113.785 183.719 113.771L183.726 114.804C183.625 114.835 183.493 114.865 183.329 114.892C183.17 114.924 182.976 114.94 182.748 114.94C182.438 114.94 182.153 114.879 181.894 114.756C181.634 114.633 181.426 114.428 181.271 114.141C181.121 113.849 181.046 113.457 181.046 112.965V105.609ZM189.481 112.842C189.481 112.659 189.44 112.491 189.358 112.336C189.281 112.176 189.119 112.033 188.873 111.905C188.632 111.773 188.267 111.659 187.779 111.563C187.369 111.477 186.998 111.374 186.665 111.256C186.337 111.137 186.057 110.994 185.824 110.825C185.596 110.656 185.421 110.458 185.298 110.23C185.175 110.002 185.113 109.736 185.113 109.431C185.113 109.139 185.177 108.863 185.305 108.603C185.437 108.344 185.621 108.113 185.858 107.913C186.1 107.712 186.389 107.555 186.727 107.441C187.064 107.327 187.44 107.27 187.854 107.27C188.447 107.27 188.953 107.375 189.372 107.585C189.791 107.794 190.113 108.075 190.336 108.426C190.559 108.772 190.671 109.157 190.671 109.581H189.406C189.406 109.376 189.345 109.178 189.222 108.986C189.103 108.79 188.928 108.628 188.695 108.501C188.467 108.373 188.187 108.309 187.854 108.309C187.504 108.309 187.219 108.364 187 108.474C186.786 108.578 186.629 108.713 186.528 108.877C186.433 109.041 186.385 109.214 186.385 109.396C186.385 109.533 186.408 109.656 186.453 109.766C186.503 109.87 186.59 109.968 186.713 110.059C186.836 110.146 187.009 110.228 187.232 110.306C187.456 110.383 187.741 110.46 188.087 110.538C188.693 110.675 189.192 110.839 189.584 111.03C189.976 111.222 190.268 111.456 190.459 111.734C190.65 112.012 190.746 112.349 190.746 112.746C190.746 113.07 190.678 113.366 190.541 113.635C190.409 113.904 190.215 114.136 189.96 114.332C189.709 114.523 189.409 114.674 189.058 114.783C188.711 114.888 188.322 114.94 187.889 114.94C187.237 114.94 186.686 114.824 186.234 114.592C185.783 114.359 185.441 114.058 185.209 113.689C184.977 113.32 184.86 112.931 184.86 112.52H186.132C186.15 112.867 186.25 113.142 186.433 113.348C186.615 113.548 186.838 113.692 187.103 113.778C187.367 113.86 187.629 113.901 187.889 113.901C188.235 113.901 188.524 113.856 188.757 113.765C188.994 113.673 189.174 113.548 189.297 113.389C189.42 113.229 189.481 113.047 189.481 112.842ZM198.977 107.407V108.378H194.978V107.407H198.977ZM196.331 105.609H197.596V112.972C197.596 113.222 197.634 113.411 197.712 113.539C197.789 113.667 197.89 113.751 198.013 113.792C198.136 113.833 198.268 113.853 198.409 113.853C198.514 113.853 198.623 113.844 198.737 113.826C198.856 113.803 198.945 113.785 199.004 113.771L199.011 114.804C198.91 114.835 198.778 114.865 198.614 114.892C198.455 114.924 198.261 114.94 198.033 114.94C197.723 114.94 197.438 114.879 197.179 114.756C196.919 114.633 196.712 114.428 196.557 114.141C196.406 113.849 196.331 113.457 196.331 112.965V105.609ZM201.725 104.304V114.804H200.46V104.304H201.725ZM201.424 110.825L200.897 110.805C200.902 110.299 200.977 109.832 201.123 109.403C201.269 108.97 201.474 108.594 201.738 108.275C202.003 107.956 202.317 107.71 202.682 107.537C203.051 107.359 203.459 107.27 203.905 107.27C204.27 107.27 204.598 107.321 204.89 107.421C205.181 107.516 205.43 107.671 205.635 107.886C205.844 108.1 206.004 108.378 206.113 108.72C206.223 109.057 206.277 109.469 206.277 109.957V114.804H205.006V109.943C205.006 109.556 204.949 109.246 204.835 109.014C204.721 108.777 204.555 108.606 204.336 108.501C204.117 108.391 203.848 108.337 203.529 108.337C203.215 108.337 202.928 108.403 202.668 108.535C202.413 108.667 202.192 108.849 202.005 109.082C201.823 109.314 201.679 109.581 201.574 109.882C201.474 110.178 201.424 110.492 201.424 110.825ZM209.545 107.407V114.804H208.273V107.407H209.545ZM208.178 105.445C208.178 105.24 208.239 105.067 208.362 104.926C208.49 104.784 208.677 104.714 208.923 104.714C209.164 104.714 209.349 104.784 209.477 104.926C209.609 105.067 209.675 105.24 209.675 105.445C209.675 105.641 209.609 105.81 209.477 105.951C209.349 106.088 209.164 106.156 208.923 106.156C208.677 106.156 208.49 106.088 208.362 105.951C208.239 105.81 208.178 105.641 208.178 105.445ZM215.882 112.842C215.882 112.659 215.841 112.491 215.759 112.336C215.681 112.176 215.52 112.033 215.273 111.905C215.032 111.773 214.667 111.659 214.18 111.563C213.77 111.477 213.398 111.374 213.065 111.256C212.737 111.137 212.457 110.994 212.225 110.825C211.997 110.656 211.821 110.458 211.698 110.23C211.575 110.002 211.514 109.736 211.514 109.431C211.514 109.139 211.577 108.863 211.705 108.603C211.837 108.344 212.022 108.113 212.259 107.913C212.5 107.712 212.79 107.555 213.127 107.441C213.464 107.327 213.84 107.27 214.255 107.27C214.847 107.27 215.353 107.375 215.772 107.585C216.192 107.794 216.513 108.075 216.736 108.426C216.96 108.772 217.071 109.157 217.071 109.581H215.807C215.807 109.376 215.745 109.178 215.622 108.986C215.504 108.79 215.328 108.628 215.096 108.501C214.868 108.373 214.588 108.309 214.255 108.309C213.904 108.309 213.619 108.364 213.4 108.474C213.186 108.578 213.029 108.713 212.929 108.877C212.833 109.041 212.785 109.214 212.785 109.396C212.785 109.533 212.808 109.656 212.854 109.766C212.904 109.87 212.99 109.968 213.113 110.059C213.236 110.146 213.41 110.228 213.633 110.306C213.856 110.383 214.141 110.46 214.487 110.538C215.093 110.675 215.592 110.839 215.984 111.03C216.376 111.222 216.668 111.456 216.859 111.734C217.051 112.012 217.146 112.349 217.146 112.746C217.146 113.07 217.078 113.366 216.941 113.635C216.809 113.904 216.616 114.136 216.36 114.332C216.11 114.523 215.809 114.674 215.458 114.783C215.112 114.888 214.722 114.94 214.289 114.94C213.637 114.94 213.086 114.824 212.635 114.592C212.184 114.359 211.842 114.058 211.609 113.689C211.377 113.32 211.261 112.931 211.261 112.52H212.532C212.55 112.867 212.651 113.142 212.833 113.348C213.015 113.548 213.239 113.692 213.503 113.778C213.767 113.86 214.029 113.901 214.289 113.901C214.635 113.901 214.925 113.856 215.157 113.765C215.394 113.673 215.574 113.548 215.697 113.389C215.82 113.229 215.882 113.047 215.882 112.842ZM224.358 114.038L226.416 107.407H227.77L224.803 115.945C224.734 116.127 224.643 116.323 224.529 116.533C224.42 116.747 224.279 116.95 224.105 117.141C223.932 117.333 223.723 117.488 223.477 117.606C223.235 117.729 222.946 117.791 222.608 117.791C222.508 117.791 222.381 117.777 222.226 117.75C222.071 117.723 221.961 117.7 221.897 117.682L221.891 116.656C221.927 116.661 221.984 116.665 222.062 116.67C222.144 116.679 222.201 116.683 222.232 116.683C222.52 116.683 222.763 116.645 222.964 116.567C223.164 116.494 223.333 116.369 223.47 116.191C223.611 116.018 223.732 115.779 223.832 115.474L224.358 114.038ZM222.848 107.407L224.769 113.149L225.097 114.482L224.188 114.947L221.467 107.407H222.848ZM231.885 114.94C231.37 114.94 230.903 114.854 230.483 114.681C230.069 114.503 229.711 114.254 229.41 113.935C229.114 113.616 228.886 113.238 228.727 112.801C228.567 112.363 228.487 111.885 228.487 111.365V111.078C228.487 110.476 228.576 109.941 228.754 109.472C228.932 108.998 229.173 108.597 229.479 108.268C229.784 107.94 230.13 107.692 230.518 107.523C230.905 107.355 231.306 107.27 231.721 107.27C232.249 107.27 232.705 107.362 233.088 107.544C233.475 107.726 233.792 107.981 234.038 108.309C234.284 108.633 234.466 109.016 234.585 109.458C234.703 109.895 234.763 110.374 234.763 110.893V111.461H229.239V110.429H233.498V110.333C233.48 110.005 233.411 109.686 233.293 109.376C233.179 109.066 232.997 108.811 232.746 108.61C232.495 108.41 232.154 108.309 231.721 108.309C231.434 108.309 231.169 108.371 230.928 108.494C230.686 108.613 230.479 108.79 230.306 109.027C230.132 109.264 229.998 109.554 229.902 109.895C229.807 110.237 229.759 110.631 229.759 111.078V111.365C229.759 111.716 229.807 112.046 229.902 112.356C230.003 112.662 230.146 112.931 230.333 113.163C230.524 113.395 230.755 113.578 231.023 113.71C231.297 113.842 231.607 113.908 231.953 113.908C232.4 113.908 232.778 113.817 233.088 113.635C233.398 113.452 233.669 113.209 233.901 112.903L234.667 113.512C234.507 113.753 234.305 113.983 234.059 114.202C233.812 114.421 233.509 114.599 233.149 114.735C232.794 114.872 232.372 114.94 231.885 114.94ZM240.601 113.539V109.731C240.601 109.44 240.541 109.187 240.423 108.973C240.309 108.754 240.136 108.585 239.903 108.467C239.671 108.348 239.384 108.289 239.042 108.289C238.723 108.289 238.443 108.344 238.201 108.453C237.964 108.562 237.777 108.706 237.641 108.884C237.508 109.061 237.442 109.253 237.442 109.458H236.178C236.178 109.194 236.246 108.932 236.383 108.672C236.52 108.412 236.715 108.177 236.971 107.968C237.23 107.753 237.54 107.585 237.9 107.462C238.265 107.334 238.671 107.27 239.117 107.27C239.655 107.27 240.129 107.362 240.539 107.544C240.954 107.726 241.277 108.002 241.51 108.371C241.747 108.736 241.865 109.194 241.865 109.745V113.19C241.865 113.436 241.886 113.698 241.927 113.976C241.972 114.254 242.038 114.494 242.125 114.694V114.804H240.806C240.742 114.658 240.692 114.464 240.655 114.223C240.619 113.976 240.601 113.749 240.601 113.539ZM240.819 110.319L240.833 111.208H239.555C239.195 111.208 238.873 111.238 238.591 111.297C238.308 111.351 238.071 111.436 237.88 111.55C237.688 111.664 237.543 111.807 237.442 111.98C237.342 112.149 237.292 112.347 237.292 112.575C237.292 112.807 237.344 113.019 237.449 113.211C237.554 113.402 237.711 113.555 237.921 113.669C238.135 113.778 238.397 113.833 238.707 113.833C239.094 113.833 239.436 113.751 239.732 113.587C240.029 113.423 240.263 113.222 240.437 112.985C240.614 112.748 240.71 112.518 240.724 112.295L241.264 112.903C241.232 113.095 241.145 113.307 241.004 113.539C240.863 113.771 240.674 113.995 240.437 114.209C240.204 114.418 239.926 114.594 239.603 114.735C239.284 114.872 238.924 114.94 238.522 114.94C238.021 114.94 237.581 114.842 237.203 114.646C236.829 114.45 236.538 114.188 236.328 113.86C236.123 113.528 236.021 113.156 236.021 112.746C236.021 112.349 236.098 112.001 236.253 111.7C236.408 111.395 236.631 111.142 236.923 110.941C237.215 110.736 237.565 110.581 237.976 110.476C238.386 110.372 238.844 110.319 239.35 110.319H240.819ZM245.119 108.569V114.804H243.854V107.407H245.085L245.119 108.569ZM247.43 107.366L247.423 108.542C247.318 108.519 247.218 108.505 247.122 108.501C247.031 108.492 246.926 108.487 246.808 108.487C246.516 108.487 246.258 108.533 246.035 108.624C245.812 108.715 245.623 108.843 245.468 109.007C245.313 109.171 245.19 109.367 245.099 109.595C245.012 109.818 244.955 110.064 244.928 110.333L244.572 110.538C244.572 110.091 244.616 109.672 244.702 109.28C244.793 108.888 244.932 108.542 245.119 108.241C245.306 107.936 245.543 107.699 245.83 107.53C246.122 107.357 246.468 107.27 246.869 107.27C246.96 107.27 247.065 107.282 247.184 107.305C247.302 107.323 247.384 107.343 247.43 107.366Z" fill="white"/>
<ellipse cx="378.596" cy="44.7857" rx="11.6093" ry="11.0357" fill="#BDBDBD"/>
<rect x="376.661" y="42.3334" width="3.86975" height="9.80951" rx="1.93488" fill="#111111"/>
<rect x="376.661" y="37.4286" width="3.86975" height="3.67856" rx="1.83928" fill="#111111"/>
<path d="M43.7168 317.73V318.668H39.8987V317.73H43.7168ZM48.5375 313.835V322.562H47.4807V314.943H47.4295L45.2989 316.358V315.284L47.4807 313.835H48.5375ZM53.894 322.682C53.252 322.682 52.7051 322.507 52.2534 322.158C51.8017 321.805 51.4565 321.295 51.2179 320.628C50.9793 319.957 50.8599 319.148 50.8599 318.199C50.8599 317.256 50.9793 316.45 51.2179 315.783C51.4594 315.112 51.806 314.601 52.2577 314.249C52.7122 313.893 53.2577 313.716 53.894 313.716C54.5304 313.716 55.0744 313.893 55.5261 314.249C55.9807 314.601 56.3273 315.112 56.5659 315.783C56.8074 316.45 56.9281 317.256 56.9281 318.199C56.9281 319.148 56.8088 319.957 56.5702 320.628C56.3315 321.295 55.9864 321.805 55.5347 322.158C55.083 322.507 54.5361 322.682 53.894 322.682ZM53.894 321.744C54.5304 321.744 55.0247 321.437 55.377 320.824C55.7293 320.21 55.9054 319.335 55.9054 318.199C55.9054 317.443 55.8244 316.8 55.6625 316.268C55.5034 315.737 55.2733 315.332 54.9722 315.054C54.6739 314.776 54.3145 314.636 53.894 314.636C53.2634 314.636 52.7705 314.947 52.4153 315.57C52.0602 316.189 51.8827 317.065 51.8827 318.199C51.8827 318.955 51.9622 319.597 52.1213 320.125C52.2804 320.653 52.5091 321.055 52.8074 321.331C53.1085 321.607 53.4707 321.744 53.894 321.744ZM61.394 322.682C60.752 322.682 60.2051 322.507 59.7534 322.158C59.3017 321.805 58.9565 321.295 58.7179 320.628C58.4793 319.957 58.3599 319.148 58.3599 318.199C58.3599 317.256 58.4793 316.45 58.7179 315.783C58.9594 315.112 59.306 314.601 59.7577 314.249C60.2122 313.893 60.7577 313.716 61.394 313.716C62.0304 313.716 62.5744 313.893 63.0261 314.249C63.4807 314.601 63.8273 315.112 64.0659 315.783C64.3074 316.45 64.4281 317.256 64.4281 318.199C64.4281 319.148 64.3088 319.957 64.0702 320.628C63.8315 321.295 63.4864 321.805 63.0347 322.158C62.583 322.507 62.0361 322.682 61.394 322.682ZM61.394 321.744C62.0304 321.744 62.5247 321.437 62.877 320.824C63.2293 320.21 63.4054 319.335 63.4054 318.199C63.4054 317.443 63.3244 316.8 63.1625 316.268C63.0034 315.737 62.7733 315.332 62.4722 315.054C62.1739 314.776 61.8145 314.636 61.394 314.636C60.7634 314.636 60.2705 314.947 59.9153 315.57C59.5602 316.189 59.3827 317.065 59.3827 318.199C59.3827 318.955 59.4622 319.597 59.6213 320.125C59.7804 320.653 60.0091 321.055 60.3074 321.331C60.6085 321.607 60.9707 321.744 61.394 321.744Z" fill="white"/>
<path d="M49.3067 289.221V290.159H45.4885V289.221H49.3067ZM53.9569 294.173C53.5989 294.167 53.241 294.099 52.883 293.968C52.5251 293.838 52.1984 293.618 51.9029 293.308C51.6075 292.995 51.3702 292.573 51.1913 292.042C51.0123 291.508 50.9228 290.838 50.9228 290.031C50.9228 289.258 50.9952 288.573 51.1401 287.977C51.285 287.377 51.4952 286.873 51.7708 286.464C52.0464 286.052 52.3788 285.74 52.768 285.527C53.16 285.314 53.6018 285.207 54.0933 285.207C54.5819 285.207 55.0166 285.305 55.3972 285.501C55.7808 285.694 56.0933 285.964 56.3347 286.311C56.5762 286.657 56.7325 287.056 56.8035 287.508H55.7637C55.6671 287.116 55.4796 286.791 55.2012 286.532C54.9228 286.274 54.5535 286.144 54.0933 286.144C53.4171 286.144 52.8844 286.439 52.4952 287.027C52.1089 287.615 51.9143 288.44 51.9114 289.502H51.9796C52.1387 289.261 52.3276 289.055 52.5464 288.885C52.768 288.711 53.0123 288.578 53.2793 288.484C53.5464 288.39 53.8291 288.343 54.1273 288.343C54.6273 288.343 55.0847 288.468 55.4995 288.718C55.9143 288.966 56.2467 289.308 56.4967 289.745C56.7467 290.18 56.8717 290.679 56.8717 291.241C56.8717 291.781 56.7509 292.275 56.5094 292.724C56.268 293.17 55.9285 293.525 55.491 293.789C55.0563 294.051 54.545 294.179 53.9569 294.173ZM53.9569 293.235C54.3148 293.235 54.6359 293.146 54.92 292.967C55.2069 292.788 55.4327 292.548 55.5975 292.247C55.7651 291.946 55.8489 291.61 55.8489 291.241C55.8489 290.88 55.768 290.552 55.606 290.257C55.4469 289.958 55.2268 289.721 54.9455 289.545C54.6671 289.369 54.3489 289.281 53.991 289.281C53.7211 289.281 53.4697 289.335 53.2367 289.443C53.0038 289.548 52.7992 289.693 52.6231 289.877C52.4498 290.062 52.3134 290.274 52.214 290.512C52.1146 290.748 52.0648 290.997 52.0648 291.258C52.0648 291.605 52.1458 291.929 52.3077 292.23C52.4725 292.531 52.6969 292.774 52.981 292.958C53.268 293.143 53.5933 293.235 53.9569 293.235ZM61.394 294.173C60.752 294.173 60.2051 293.998 59.7534 293.649C59.3017 293.296 58.9565 292.787 58.7179 292.119C58.4793 291.448 58.3599 290.639 58.3599 289.69C58.3599 288.747 58.4793 287.941 58.7179 287.274C58.9594 286.603 59.306 286.092 59.7577 285.74C60.2122 285.385 60.7577 285.207 61.394 285.207C62.0304 285.207 62.5744 285.385 63.0261 285.74C63.4807 286.092 63.8273 286.603 64.0659 287.274C64.3074 287.941 64.4281 288.747 64.4281 289.69C64.4281 290.639 64.3088 291.448 64.0702 292.119C63.8315 292.787 63.4864 293.296 63.0347 293.649C62.583 293.998 62.0361 294.173 61.394 294.173ZM61.394 293.235C62.0304 293.235 62.5247 292.929 62.877 292.315C63.2293 291.701 63.4054 290.826 63.4054 289.69C63.4054 288.934 63.3244 288.291 63.1625 287.76C63.0034 287.228 62.7733 286.823 62.4722 286.545C62.1739 286.267 61.8145 286.127 61.394 286.127C60.7634 286.127 60.2705 286.439 59.9153 287.061C59.5602 287.68 59.3827 288.556 59.3827 289.69C59.3827 290.446 59.4622 291.088 59.6213 291.616C59.7804 292.144 60.0091 292.546 60.3074 292.822C60.6085 293.098 60.9707 293.235 61.394 293.235Z" fill="white"/>
<path d="M49.9395 264.391V265.328H46.1213V264.391H49.9395ZM51.2818 269.223V268.456L54.1625 265.303C54.5006 264.933 54.779 264.612 54.9977 264.34C55.2165 264.064 55.3784 263.806 55.4835 263.564C55.5915 263.32 55.6455 263.064 55.6455 262.797C55.6455 262.49 55.5716 262.225 55.4239 262C55.279 261.776 55.0801 261.603 54.8273 261.48C54.5744 261.358 54.2903 261.297 53.975 261.297C53.6398 261.297 53.3472 261.367 53.0972 261.506C52.85 261.642 52.6582 261.834 52.5219 262.081C52.3884 262.328 52.3216 262.618 52.3216 262.951H51.3159C51.3159 262.439 51.4338 261.99 51.6696 261.604C51.9054 261.218 52.2264 260.916 52.6327 260.701C53.0418 260.485 53.5006 260.377 54.0091 260.377C54.5205 260.377 54.9736 260.485 55.3685 260.701C55.7634 260.916 56.073 261.208 56.2974 261.574C56.5219 261.941 56.6341 262.348 56.6341 262.797C56.6341 263.118 56.5759 263.432 56.4594 263.739C56.3457 264.043 56.1469 264.382 55.8628 264.757C55.5815 265.13 55.1909 265.584 54.6909 266.121L52.7307 268.218V268.286H56.7875V269.223H51.2818ZM61.394 269.343C60.752 269.343 60.2051 269.168 59.7534 268.818C59.3017 268.466 58.9565 267.956 58.7179 267.289C58.4793 266.618 58.3599 265.808 58.3599 264.86C58.3599 263.916 58.4793 263.111 58.7179 262.443C58.9594 261.773 59.306 261.262 59.7577 260.909C60.2122 260.554 60.7577 260.377 61.394 260.377C62.0304 260.377 62.5744 260.554 63.0261 260.909C63.4807 261.262 63.8273 261.773 64.0659 262.443C64.3074 263.111 64.4281 263.916 64.4281 264.86C64.4281 265.808 64.3088 266.618 64.0702 267.289C63.8315 267.956 63.4864 268.466 63.0347 268.818C62.583 269.168 62.0361 269.343 61.394 269.343ZM61.394 268.405C62.0304 268.405 62.5247 268.098 62.877 267.485C63.2293 266.871 63.4054 265.996 63.4054 264.86C63.4054 264.104 63.3244 263.46 63.1625 262.929C63.0034 262.398 62.7733 261.993 62.4722 261.715C62.1739 261.436 61.8145 261.297 61.394 261.297C60.7634 261.297 60.2705 261.608 59.9153 262.23C59.5602 262.85 59.3827 263.726 59.3827 264.86C59.3827 265.615 59.4622 266.257 59.6213 266.786C59.7804 267.314 60.0091 267.716 60.3074 267.992C60.6085 268.267 60.9707 268.405 61.394 268.405Z" fill="white"/>
<path d="M61.394 245.432C60.752 245.432 60.2051 245.257 59.7534 244.908C59.3017 244.555 58.9565 244.045 58.7179 243.378C58.4793 242.707 58.3599 241.898 58.3599 240.949C58.3599 240.006 58.4793 239.2 58.7179 238.533C58.9594 237.862 59.306 237.351 59.7577 236.999C60.2122 236.643 60.7577 236.466 61.394 236.466C62.0304 236.466 62.5744 236.643 63.0261 236.999C63.4807 237.351 63.8273 237.862 64.0659 238.533C64.3074 239.2 64.4281 240.006 64.4281 240.949C64.4281 241.898 64.3088 242.707 64.0702 243.378C63.8315 244.045 63.4864 244.555 63.0347 244.908C62.583 245.257 62.0361 245.432 61.394 245.432ZM61.394 244.494C62.0304 244.494 62.5247 244.187 62.877 243.574C63.2293 242.96 63.4054 242.085 63.4054 240.949C63.4054 240.193 63.3244 239.55 63.1625 239.018C63.0034 238.487 62.7733 238.082 62.4722 237.804C62.1739 237.526 61.8145 237.386 61.394 237.386C60.7634 237.386 60.2705 237.697 59.9153 238.32C59.5602 238.939 59.3827 239.815 59.3827 240.949C59.3827 241.705 59.4622 242.347 59.6213 242.875C59.7804 243.403 60.0091 243.805 60.3074 244.081C60.6085 244.357 60.9707 244.494 61.394 244.494Z" fill="white"/>
<path d="M51.2818 219.562V218.795L54.1625 215.642C54.5006 215.273 54.779 214.952 54.9977 214.679C55.2165 214.403 55.3784 214.145 55.4835 213.903C55.5915 213.659 55.6455 213.403 55.6455 213.136C55.6455 212.83 55.5716 212.564 55.4239 212.339C55.279 212.115 55.0801 211.942 54.8273 211.82C54.5744 211.697 54.2903 211.636 53.975 211.636C53.6398 211.636 53.3472 211.706 53.0972 211.845C52.85 211.982 52.6582 212.173 52.5219 212.42C52.3884 212.668 52.3216 212.957 52.3216 213.29H51.3159C51.3159 212.778 51.4338 212.33 51.6696 211.943C51.9054 211.557 52.2264 211.256 52.6327 211.04C53.0418 210.824 53.5006 210.716 54.0091 210.716C54.5205 210.716 54.9736 210.824 55.3685 211.04C55.7634 211.256 56.073 211.547 56.2974 211.913C56.5219 212.28 56.6341 212.688 56.6341 213.136C56.6341 213.457 56.5759 213.771 56.4594 214.078C56.3457 214.382 56.1469 214.722 55.8628 215.097C55.5815 215.469 55.1909 215.923 54.6909 216.46L52.7307 218.557V218.625H56.7875V219.562H51.2818ZM61.394 219.682C60.752 219.682 60.2051 219.507 59.7534 219.158C59.3017 218.805 58.9565 218.295 58.7179 217.628C58.4793 216.957 58.3599 216.148 58.3599 215.199C58.3599 214.256 58.4793 213.45 58.7179 212.783C58.9594 212.112 59.306 211.601 59.7577 211.249C60.2122 210.893 60.7577 210.716 61.394 210.716C62.0304 210.716 62.5744 210.893 63.0261 211.249C63.4807 211.601 63.8273 212.112 64.0659 212.783C64.3074 213.45 64.4281 214.256 64.4281 215.199C64.4281 216.148 64.3088 216.957 64.0702 217.628C63.8315 218.295 63.4864 218.805 63.0347 219.158C62.583 219.507 62.0361 219.682 61.394 219.682ZM61.394 218.744C62.0304 218.744 62.5247 218.437 62.877 217.824C63.2293 217.21 63.4054 216.335 63.4054 215.199C63.4054 214.443 63.3244 213.8 63.1625 213.268C63.0034 212.737 62.7733 212.332 62.4722 212.054C62.1739 211.776 61.8145 211.636 61.394 211.636C60.7634 211.636 60.2705 211.947 59.9153 212.57C59.5602 213.189 59.3827 214.065 59.3827 215.199C59.3827 215.955 59.4622 216.597 59.6213 217.125C59.7804 217.653 60.0091 218.055 60.3074 218.331C60.6085 218.607 60.9707 218.744 61.394 218.744Z" fill="white"/>
<path d="M53.9569 194.851C53.5989 194.846 53.241 194.778 52.883 194.647C52.5251 194.516 52.1984 194.296 51.9029 193.986C51.6075 193.674 51.3702 193.252 51.1913 192.721C51.0123 192.187 50.9228 191.516 50.9228 190.709C50.9228 189.937 50.9952 189.252 51.1401 188.655C51.285 188.056 51.4952 187.552 51.7708 187.143C52.0464 186.731 52.3788 186.418 52.768 186.205C53.16 185.992 53.6018 185.886 54.0933 185.886C54.5819 185.886 55.0166 185.984 55.3972 186.18C55.7808 186.373 56.0933 186.643 56.3347 186.989C56.5762 187.336 56.7325 187.735 56.8035 188.187H55.7637C55.6671 187.795 55.4796 187.469 55.2012 187.211C54.9228 186.952 54.5535 186.823 54.0933 186.823C53.4171 186.823 52.8844 187.117 52.4952 187.705C52.1089 188.293 51.9143 189.119 51.9114 190.181H51.9796C52.1387 189.94 52.3276 189.734 52.5464 189.563C52.768 189.39 53.0123 189.256 53.2793 189.163C53.5464 189.069 53.8291 189.022 54.1273 189.022C54.6273 189.022 55.0847 189.147 55.4995 189.397C55.9143 189.644 56.2467 189.986 56.4967 190.424C56.7467 190.859 56.8717 191.357 56.8717 191.92C56.8717 192.459 56.7509 192.954 56.5094 193.403C56.268 193.849 55.9285 194.204 55.491 194.468C55.0563 194.729 54.545 194.857 53.9569 194.851ZM53.9569 193.914C54.3148 193.914 54.6359 193.825 54.92 193.646C55.2069 193.467 55.4327 193.226 55.5975 192.925C55.7651 192.624 55.8489 192.289 55.8489 191.92C55.8489 191.559 55.768 191.231 55.606 190.935C55.4469 190.637 55.2268 190.4 54.9455 190.224C54.6671 190.048 54.3489 189.959 53.991 189.959C53.7211 189.959 53.4697 190.013 53.2367 190.121C53.0038 190.226 52.7992 190.371 52.6231 190.556C52.4498 190.741 52.3134 190.952 52.214 191.191C52.1146 191.427 52.0648 191.675 52.0648 191.937C52.0648 192.283 52.1458 192.607 52.3077 192.908C52.4725 193.209 52.6969 193.452 52.981 193.637C53.268 193.822 53.5933 193.914 53.9569 193.914ZM61.394 194.851C60.752 194.851 60.2051 194.677 59.7534 194.327C59.3017 193.975 58.9565 193.465 58.7179 192.798C58.4793 192.127 58.3599 191.317 58.3599 190.369C58.3599 189.425 58.4793 188.62 58.7179 187.952C58.9594 187.282 59.306 186.771 59.7577 186.418C60.2122 186.063 60.7577 185.886 61.394 185.886C62.0304 185.886 62.5744 186.063 63.0261 186.418C63.4807 186.771 63.8273 187.282 64.0659 187.952C64.3074 188.62 64.4281 189.425 64.4281 190.369C64.4281 191.317 64.3088 192.127 64.0702 192.798C63.8315 193.465 63.4864 193.975 63.0347 194.327C62.583 194.677 62.0361 194.851 61.394 194.851ZM61.394 193.914C62.0304 193.914 62.5247 193.607 62.877 192.994C63.2293 192.38 63.4054 191.505 63.4054 190.369C63.4054 189.613 63.3244 188.969 63.1625 188.438C63.0034 187.907 62.7733 187.502 62.4722 187.224C62.1739 186.945 61.8145 186.806 61.394 186.806C60.7634 186.806 60.2705 187.117 59.9153 187.739C59.5602 188.359 59.3827 189.235 59.3827 190.369C59.3827 191.124 59.4622 191.766 59.6213 192.295C59.7804 192.823 60.0091 193.225 60.3074 193.501C60.6085 193.776 60.9707 193.914 61.394 193.914Z" fill="white"/>
<path d="M48.5375 161.174V169.902H47.4807V162.282H47.4295L45.2989 163.697V162.623L47.4807 161.174H48.5375ZM53.894 170.021C53.252 170.021 52.7051 169.846 52.2534 169.497C51.8017 169.145 51.4565 168.635 51.2179 167.967C50.9793 167.297 50.8599 166.487 50.8599 165.538C50.8599 164.595 50.9793 163.79 51.2179 163.122C51.4594 162.451 51.806 161.94 52.2577 161.588C52.7122 161.233 53.2577 161.055 53.894 161.055C54.5304 161.055 55.0744 161.233 55.5261 161.588C55.9807 161.94 56.3273 162.451 56.5659 163.122C56.8074 163.79 56.9281 164.595 56.9281 165.538C56.9281 166.487 56.8088 167.297 56.5702 167.967C56.3315 168.635 55.9864 169.145 55.5347 169.497C55.083 169.846 54.5361 170.021 53.894 170.021ZM53.894 169.084C54.5304 169.084 55.0247 168.777 55.377 168.163C55.7293 167.549 55.9054 166.674 55.9054 165.538C55.9054 164.782 55.8244 164.139 55.6625 163.608C55.5034 163.076 55.2733 162.672 54.9722 162.393C54.6739 162.115 54.3145 161.976 53.894 161.976C53.2634 161.976 52.7705 162.287 52.4153 162.909C52.0602 163.528 51.8827 164.405 51.8827 165.538C51.8827 166.294 51.9622 166.936 52.1213 167.464C52.2804 167.993 52.5091 168.395 52.8074 168.67C53.1085 168.946 53.4707 169.084 53.894 169.084ZM61.394 170.021C60.752 170.021 60.2051 169.846 59.7534 169.497C59.3017 169.145 58.9565 168.635 58.7179 167.967C58.4793 167.297 58.3599 166.487 58.3599 165.538C58.3599 164.595 58.4793 163.79 58.7179 163.122C58.9594 162.451 59.306 161.94 59.7577 161.588C60.2122 161.233 60.7577 161.055 61.394 161.055C62.0304 161.055 62.5744 161.233 63.0261 161.588C63.4807 161.94 63.8273 162.451 64.0659 163.122C64.3074 163.79 64.4281 164.595 64.4281 165.538C64.4281 166.487 64.3088 167.297 64.0702 167.967C63.8315 168.635 63.4864 169.145 63.0347 169.497C62.583 169.846 62.0361 170.021 61.394 170.021ZM61.394 169.084C62.0304 169.084 62.5247 168.777 62.877 168.163C63.2293 167.549 63.4054 166.674 63.4054 165.538C63.4054 164.782 63.3244 164.139 63.1625 163.608C63.0034 163.076 62.7733 162.672 62.4722 162.393C62.1739 162.115 61.8145 161.976 61.394 161.976C60.7634 161.976 60.2705 162.287 59.9153 162.909C59.5602 163.528 59.3827 164.405 59.3827 165.538C59.3827 166.294 59.4622 166.936 59.6213 167.464C59.7804 167.993 60.0091 168.395 60.3074 168.67C60.6085 168.946 60.9707 169.084 61.394 169.084Z" fill="white"/>
<path d="M10 141.348H426" stroke="#4F4F4F" stroke-width="2"/>
<path d="M109.737 387.857V379.13H112.685C113.37 379.13 113.93 379.253 114.364 379.501C114.802 379.745 115.126 380.076 115.336 380.494C115.546 380.911 115.651 381.377 115.651 381.891C115.651 382.405 115.546 382.873 115.336 383.293C115.129 383.714 114.808 384.049 114.373 384.299C113.938 384.546 113.381 384.67 112.702 384.67H110.589V383.732H112.668C113.137 383.732 113.513 383.651 113.798 383.489C114.082 383.327 114.288 383.109 114.415 382.833C114.546 382.555 114.612 382.241 114.612 381.891C114.612 381.542 114.546 381.229 114.415 380.954C114.288 380.678 114.08 380.462 113.793 380.306C113.506 380.147 113.126 380.067 112.651 380.067H110.793V387.857H109.737ZM117.217 387.857V381.312H118.189V382.3H118.257C118.376 381.976 118.592 381.714 118.905 381.512C119.217 381.31 119.57 381.209 119.962 381.209C120.036 381.209 120.128 381.211 120.239 381.214C120.349 381.217 120.433 381.221 120.49 381.226V382.249C120.456 382.241 120.378 382.228 120.256 382.211C120.136 382.191 120.01 382.181 119.876 382.181C119.558 382.181 119.274 382.248 119.024 382.381C118.777 382.512 118.581 382.694 118.436 382.927C118.294 383.157 118.223 383.42 118.223 383.715V387.857H117.217ZM124.142 387.994C123.551 387.994 123.033 387.853 122.587 387.572C122.143 387.29 121.797 386.897 121.547 386.391C121.3 385.886 121.176 385.295 121.176 384.619C121.176 383.937 121.3 383.342 121.547 382.833C121.797 382.325 122.143 381.93 122.587 381.648C123.033 381.367 123.551 381.226 124.142 381.226C124.733 381.226 125.25 381.367 125.693 381.648C126.139 381.93 126.486 382.325 126.733 382.833C126.983 383.342 127.108 383.937 127.108 384.619C127.108 385.295 126.983 385.886 126.733 386.391C126.486 386.897 126.139 387.29 125.693 387.572C125.25 387.853 124.733 387.994 124.142 387.994ZM124.142 387.09C124.591 387.09 124.96 386.975 125.25 386.745C125.54 386.515 125.754 386.212 125.893 385.837C126.033 385.462 126.102 385.056 126.102 384.619C126.102 384.181 126.033 383.773 125.893 383.396C125.754 383.018 125.54 382.712 125.25 382.479C124.96 382.246 124.591 382.13 124.142 382.13C123.693 382.13 123.324 382.246 123.034 382.479C122.744 382.712 122.53 383.018 122.391 383.396C122.251 383.773 122.182 384.181 122.182 384.619C122.182 385.056 122.251 385.462 122.391 385.837C122.53 386.212 122.744 386.515 123.034 386.745C123.324 386.975 123.693 387.09 124.142 387.09ZM131.115 387.994C130.569 387.994 130.088 387.856 129.67 387.58C129.252 387.302 128.926 386.91 128.69 386.404C128.454 385.896 128.336 385.295 128.336 384.601C128.336 383.914 128.454 383.317 128.69 382.812C128.926 382.306 129.254 381.915 129.674 381.64C130.095 381.364 130.581 381.226 131.132 381.226C131.558 381.226 131.895 381.298 132.142 381.44C132.392 381.579 132.582 381.738 132.713 381.917C132.846 382.093 132.95 382.238 133.024 382.351H133.109V379.13H134.115V387.857H133.143V386.851H133.024C132.95 386.971 132.845 387.121 132.708 387.303C132.572 387.482 132.377 387.643 132.125 387.785C131.872 387.924 131.535 387.994 131.115 387.994ZM131.251 387.09C131.654 387.09 131.995 386.985 132.274 386.775C132.552 386.562 132.764 386.268 132.909 385.893C133.054 385.515 133.126 385.079 133.126 384.584C133.126 384.096 133.055 383.668 132.913 383.302C132.771 382.932 132.561 382.646 132.282 382.441C132.004 382.234 131.66 382.13 131.251 382.13C130.825 382.13 130.47 382.239 130.186 382.458C129.904 382.674 129.693 382.968 129.551 383.34C129.412 383.709 129.342 384.124 129.342 384.584C129.342 385.05 129.413 385.474 129.555 385.854C129.7 386.232 129.913 386.533 130.194 386.758C130.478 386.979 130.831 387.09 131.251 387.09ZM140.221 385.181V381.312H141.227V387.857H140.221V386.749H140.153C140 387.082 139.761 387.364 139.437 387.597C139.113 387.827 138.704 387.942 138.21 387.942C137.801 387.942 137.437 387.853 137.119 387.674C136.801 387.492 136.551 387.219 136.369 386.856C136.187 386.489 136.096 386.028 136.096 385.471V381.312H137.102V385.403C137.102 385.88 137.235 386.261 137.502 386.545C137.772 386.829 138.116 386.971 138.534 386.971C138.784 386.971 139.038 386.907 139.297 386.779C139.558 386.651 139.777 386.455 139.953 386.191C140.132 385.927 140.221 385.59 140.221 385.181ZM145.728 387.994C145.114 387.994 144.586 387.849 144.143 387.559C143.7 387.269 143.359 386.87 143.12 386.361C142.881 385.853 142.762 385.272 142.762 384.619C142.762 383.954 142.884 383.367 143.129 382.859C143.376 382.347 143.719 381.948 144.16 381.661C144.603 381.371 145.12 381.226 145.711 381.226C146.171 381.226 146.586 381.312 146.955 381.482C147.325 381.653 147.627 381.891 147.863 382.198C148.099 382.505 148.245 382.863 148.302 383.272H147.296C147.219 382.974 147.049 382.709 146.785 382.479C146.523 382.246 146.171 382.13 145.728 382.13C145.336 382.13 144.992 382.232 144.697 382.437C144.404 382.638 144.175 382.924 144.011 383.293C143.849 383.66 143.768 384.09 143.768 384.584C143.768 385.09 143.847 385.53 144.006 385.905C144.168 386.28 144.396 386.572 144.688 386.779C144.984 386.986 145.33 387.09 145.728 387.09C145.989 387.09 146.227 387.045 146.44 386.954C146.653 386.863 146.833 386.732 146.981 386.562C147.129 386.391 147.234 386.187 147.296 385.948H148.302C148.245 386.334 148.104 386.682 147.88 386.992C147.658 387.299 147.364 387.543 146.998 387.725C146.634 387.904 146.211 387.994 145.728 387.994ZM152.619 381.312V382.164H149.227V381.312H152.619ZM150.215 379.744H151.221V385.982C151.221 386.266 151.262 386.479 151.344 386.621C151.43 386.761 151.538 386.854 151.668 386.903C151.802 386.948 151.942 386.971 152.09 386.971C152.201 386.971 152.292 386.965 152.363 386.954C152.434 386.94 152.491 386.928 152.533 386.92L152.738 387.823C152.67 387.849 152.575 387.874 152.452 387.9C152.33 387.928 152.175 387.942 151.988 387.942C151.704 387.942 151.425 387.881 151.153 387.759C150.883 387.637 150.658 387.451 150.479 387.201C150.303 386.951 150.215 386.636 150.215 386.255V379.744ZM160.558 379.13V387.857H159.501V380.238H159.45L157.319 381.653V380.579L159.501 379.13H160.558Z" fill="white"/>
<rect x="79.6562" y="379.536" width="20.3163" height="7.35715" fill="#63ABFD"/>
<path d="M213.252 387.857V379.13H216.201C216.886 379.13 217.445 379.253 217.88 379.501C218.317 379.745 218.641 380.076 218.852 380.494C219.062 380.911 219.167 381.377 219.167 381.891C219.167 382.405 219.062 382.873 218.852 383.293C218.644 383.714 218.323 384.049 217.888 384.299C217.454 384.546 216.897 384.67 216.218 384.67H214.104V383.732H216.184C216.653 383.732 217.029 383.651 217.313 383.489C217.597 383.327 217.803 383.109 217.931 382.833C218.062 382.555 218.127 382.241 218.127 381.891C218.127 381.542 218.062 381.229 217.931 380.954C217.803 380.678 217.596 380.462 217.309 380.306C217.022 380.147 216.641 380.067 216.167 380.067H214.309V387.857H213.252ZM220.733 387.857V381.312H221.705V382.3H221.773C221.892 381.976 222.108 381.714 222.42 381.512C222.733 381.31 223.085 381.209 223.477 381.209C223.551 381.209 223.643 381.211 223.754 381.214C223.865 381.217 223.949 381.221 224.006 381.226V382.249C223.972 382.241 223.893 382.228 223.771 382.211C223.652 382.191 223.526 382.181 223.392 382.181C223.074 382.181 222.79 382.248 222.54 382.381C222.293 382.512 222.097 382.694 221.952 382.927C221.81 383.157 221.739 383.42 221.739 383.715V387.857H220.733ZM227.658 387.994C227.067 387.994 226.548 387.853 226.102 387.572C225.659 387.29 225.312 386.897 225.062 386.391C224.815 385.886 224.692 385.295 224.692 384.619C224.692 383.937 224.815 383.342 225.062 382.833C225.312 382.325 225.659 381.93 226.102 381.648C226.548 381.367 227.067 381.226 227.658 381.226C228.249 381.226 228.766 381.367 229.209 381.648C229.655 381.93 230.001 382.325 230.249 382.833C230.499 383.342 230.624 383.937 230.624 384.619C230.624 385.295 230.499 385.886 230.249 386.391C230.001 386.897 229.655 387.29 229.209 387.572C228.766 387.853 228.249 387.994 227.658 387.994ZM227.658 387.09C228.107 387.09 228.476 386.975 228.766 386.745C229.055 386.515 229.27 386.212 229.409 385.837C229.548 385.462 229.618 385.056 229.618 384.619C229.618 384.181 229.548 383.773 229.409 383.396C229.27 383.018 229.055 382.712 228.766 382.479C228.476 382.246 228.107 382.13 227.658 382.13C227.209 382.13 226.839 382.246 226.55 382.479C226.26 382.712 226.045 383.018 225.906 383.396C225.767 383.773 225.697 384.181 225.697 384.619C225.697 385.056 225.767 385.462 225.906 385.837C226.045 386.212 226.26 386.515 226.55 386.745C226.839 386.975 227.209 387.09 227.658 387.09ZM234.63 387.994C234.085 387.994 233.603 387.856 233.186 387.58C232.768 387.302 232.441 386.91 232.206 386.404C231.97 385.896 231.852 385.295 231.852 384.601C231.852 383.914 231.97 383.317 232.206 382.812C232.441 382.306 232.77 381.915 233.19 381.64C233.61 381.364 234.096 381.226 234.647 381.226C235.074 381.226 235.41 381.298 235.657 381.44C235.907 381.579 236.098 381.738 236.228 381.917C236.362 382.093 236.466 382.238 236.539 382.351H236.625V379.13H237.63V387.857H236.659V386.851H236.539C236.466 386.971 236.36 387.121 236.224 387.303C236.088 387.482 235.893 387.643 235.64 387.785C235.387 387.924 235.051 387.994 234.63 387.994ZM234.767 387.09C235.17 387.09 235.511 386.985 235.789 386.775C236.068 386.562 236.279 386.268 236.424 385.893C236.569 385.515 236.642 385.079 236.642 384.584C236.642 384.096 236.571 383.668 236.429 383.302C236.287 382.932 236.076 382.646 235.798 382.441C235.52 382.234 235.176 382.13 234.767 382.13C234.341 382.13 233.985 382.239 233.701 382.458C233.42 382.674 233.208 382.968 233.066 383.34C232.927 383.709 232.858 384.124 232.858 384.584C232.858 385.05 232.929 385.474 233.071 385.854C233.216 386.232 233.429 386.533 233.71 386.758C233.994 386.979 234.346 387.09 234.767 387.09ZM243.737 385.181V381.312H244.743V387.857H243.737V386.749H243.669C243.515 387.082 243.277 387.364 242.953 387.597C242.629 387.827 242.22 387.942 241.725 387.942C241.316 387.942 240.953 387.853 240.635 387.674C240.316 387.492 240.066 387.219 239.885 386.856C239.703 386.489 239.612 386.028 239.612 385.471V381.312H240.618V385.403C240.618 385.88 240.751 386.261 241.018 386.545C241.288 386.829 241.632 386.971 242.049 386.971C242.299 386.971 242.554 386.907 242.812 386.779C243.074 386.651 243.292 386.455 243.468 386.191C243.647 385.927 243.737 385.59 243.737 385.181ZM249.244 387.994C248.63 387.994 248.102 387.849 247.658 387.559C247.215 387.269 246.874 386.87 246.636 386.361C246.397 385.853 246.278 385.272 246.278 384.619C246.278 383.954 246.4 383.367 246.644 382.859C246.891 382.347 247.235 381.948 247.675 381.661C248.119 381.371 248.636 381.226 249.227 381.226C249.687 381.226 250.102 381.312 250.471 381.482C250.84 381.653 251.143 381.891 251.379 382.198C251.614 382.505 251.761 382.863 251.817 383.272H250.812C250.735 382.974 250.565 382.709 250.3 382.479C250.039 382.246 249.687 382.13 249.244 382.13C248.852 382.13 248.508 382.232 248.212 382.437C247.92 382.638 247.691 382.924 247.526 383.293C247.364 383.66 247.283 384.09 247.283 384.584C247.283 385.09 247.363 385.53 247.522 385.905C247.684 386.28 247.911 386.572 248.204 386.779C248.499 386.986 248.846 387.09 249.244 387.09C249.505 387.09 249.742 387.045 249.955 386.954C250.168 386.863 250.349 386.732 250.496 386.562C250.644 386.391 250.749 386.187 250.812 385.948H251.817C251.761 386.334 251.62 386.682 251.396 386.992C251.174 387.299 250.88 387.543 250.513 387.725C250.15 387.904 249.727 387.994 249.244 387.994ZM256.134 381.312V382.164H252.742V381.312H256.134ZM253.731 379.744H254.737V385.982C254.737 386.266 254.778 386.479 254.86 386.621C254.945 386.761 255.053 386.854 255.184 386.903C255.317 386.948 255.458 386.971 255.606 386.971C255.717 386.971 255.808 386.965 255.879 386.954C255.95 386.94 256.006 386.928 256.049 386.92L256.254 387.823C256.185 387.849 256.09 387.874 255.968 387.9C255.846 387.928 255.691 387.942 255.504 387.942C255.219 387.942 254.941 387.881 254.668 387.759C254.398 387.637 254.174 387.451 253.995 387.201C253.819 386.951 253.731 386.636 253.731 386.255V379.744ZM261.005 387.857V387.09L263.886 383.937C264.224 383.567 264.502 383.246 264.721 382.974C264.94 382.698 265.102 382.44 265.207 382.198C265.315 381.954 265.369 381.698 265.369 381.431C265.369 381.124 265.295 380.859 265.147 380.634C265.002 380.41 264.803 380.236 264.55 380.114C264.298 379.992 264.013 379.931 263.698 379.931C263.363 379.931 263.07 380.001 262.82 380.14C262.573 380.276 262.381 380.468 262.245 380.715C262.112 380.962 262.045 381.252 262.045 381.584H261.039C261.039 381.073 261.157 380.624 261.393 380.238C261.629 379.851 261.95 379.55 262.356 379.334C262.765 379.119 263.224 379.011 263.732 379.011C264.244 379.011 264.697 379.119 265.092 379.334C265.487 379.55 265.796 379.842 266.021 380.208C266.245 380.575 266.357 380.982 266.357 381.431C266.357 381.752 266.299 382.066 266.183 382.373C266.069 382.677 265.87 383.016 265.586 383.391C265.305 383.763 264.914 384.218 264.414 384.755L262.454 386.851V386.92H266.511V387.857H261.005Z" fill="white"/>
<rect x="183.173" y="379.536" width="20.3163" height="7.35715" fill="#00B24F"/>
<path d="M95.1797 328.004H96.0603V333.203C96.0603 333.667 95.9751 334.061 95.8047 334.386C95.6342 334.71 95.3939 334.956 95.0838 335.124C94.7736 335.292 94.4079 335.376 93.9865 335.376C93.5888 335.376 93.2348 335.304 92.9247 335.16C92.6146 335.013 92.3707 334.805 92.1932 334.535C92.0156 334.265 91.9268 333.944 91.9268 333.572H92.7933C92.7933 333.778 92.8442 333.958 92.946 334.112C93.0502 334.264 93.1922 334.382 93.3721 334.467C93.5521 334.552 93.7568 334.595 93.9865 334.595C94.2398 334.595 94.4552 334.542 94.6328 334.435C94.8103 334.329 94.9453 334.172 95.0376 333.966C95.1323 333.758 95.1797 333.504 95.1797 333.203V328.004ZM99.3167 335.405C98.9711 335.405 98.6574 335.34 98.3757 335.209C98.094 335.077 97.8702 334.886 97.7045 334.638C97.5388 334.387 97.4559 334.084 97.4559 333.729C97.4559 333.416 97.5175 333.163 97.6406 332.969C97.7637 332.772 97.9282 332.618 98.1342 332.507C98.3402 332.396 98.5674 332.313 98.816 332.258C99.067 332.202 99.3191 332.157 99.5724 332.123C99.9039 332.081 100.173 332.049 100.379 332.028C100.587 332.004 100.738 331.965 100.833 331.91C100.93 331.856 100.979 331.761 100.979 331.626V331.598C100.979 331.247 100.883 330.975 100.691 330.781C100.502 330.587 100.214 330.49 99.8281 330.49C99.428 330.49 99.1143 330.578 98.887 330.753C98.6598 330.928 98.5 331.115 98.4076 331.314L97.6122 331.03C97.7542 330.698 97.9436 330.44 98.1804 330.256C98.4195 330.069 98.6799 329.938 98.9616 329.865C99.2457 329.789 99.5251 329.751 99.7997 329.751C99.9749 329.751 100.176 329.773 100.403 329.815C100.633 329.855 100.854 329.939 101.067 330.067C101.283 330.195 101.462 330.388 101.604 330.646C101.746 330.904 101.817 331.25 101.817 331.683V335.277H100.979V334.538H100.936C100.879 334.657 100.785 334.783 100.652 334.918C100.519 335.053 100.343 335.168 100.123 335.263C99.9027 335.357 99.634 335.405 99.3167 335.405ZM99.4446 334.652C99.776 334.652 100.055 334.587 100.283 334.457C100.512 334.326 100.685 334.158 100.801 333.952C100.919 333.746 100.979 333.53 100.979 333.302V332.535C100.943 332.578 100.865 332.617 100.744 332.653C100.626 332.686 100.489 332.715 100.332 332.741C100.178 332.765 100.028 332.786 99.8814 332.805C99.737 332.822 99.6198 332.836 99.5298 332.848C99.312 332.876 99.1084 332.922 98.919 332.986C98.732 333.048 98.5805 333.141 98.4645 333.267C98.3508 333.39 98.294 333.558 98.294 333.771C98.294 334.062 98.4017 334.283 98.6172 334.432C98.835 334.578 99.1108 334.652 99.4446 334.652ZM104.184 331.996V335.277H103.346V329.822H104.156V330.675H104.227C104.355 330.398 104.549 330.175 104.809 330.007C105.07 329.837 105.406 329.751 105.818 329.751C106.187 329.751 106.51 329.827 106.787 329.979C107.064 330.128 107.28 330.355 107.434 330.66C107.588 330.963 107.665 331.347 107.665 331.811V335.277H106.827V331.868C106.827 331.439 106.715 331.105 106.493 330.866C106.27 330.625 105.965 330.504 105.577 330.504C105.309 330.504 105.07 330.562 104.859 330.678C104.651 330.794 104.486 330.963 104.366 331.186C104.245 331.408 104.184 331.678 104.184 331.996Z" fill="white"/>
<path d="M152.084 335.277V328.004H156.445V328.785H152.965V331.243H156.118V332.024H152.965V335.277H152.084ZM159.726 335.39C159.201 335.39 158.747 335.274 158.366 335.042C157.987 334.808 157.695 334.481 157.489 334.062C157.285 333.641 157.183 333.151 157.183 332.592C157.183 332.033 157.285 331.541 157.489 331.115C157.695 330.686 157.981 330.353 158.348 330.114C158.718 329.872 159.148 329.751 159.641 329.751C159.925 329.751 160.205 329.799 160.482 329.893C160.759 329.988 161.012 330.142 161.239 330.355C161.466 330.566 161.647 330.845 161.782 331.193C161.917 331.541 161.985 331.97 161.985 332.479V332.834H157.78V332.109H161.132C161.132 331.801 161.071 331.527 160.948 331.285C160.827 331.044 160.654 330.853 160.429 330.714C160.207 330.574 159.944 330.504 159.641 330.504C159.307 330.504 159.018 330.587 158.774 330.753C158.533 330.916 158.347 331.129 158.217 331.392C158.087 331.655 158.022 331.936 158.022 332.237V332.72C158.022 333.132 158.093 333.481 158.235 333.768C158.379 334.052 158.579 334.268 158.835 334.417C159.09 334.564 159.388 334.638 159.726 334.638C159.946 334.638 160.145 334.607 160.323 334.545C160.503 334.481 160.658 334.387 160.788 334.261C160.918 334.133 161.019 333.975 161.09 333.785L161.899 334.013C161.814 334.287 161.671 334.529 161.47 334.737C161.268 334.943 161.02 335.104 160.724 335.22C160.428 335.334 160.095 335.39 159.726 335.39ZM163.373 335.277V328.004H164.211V330.689H164.282C164.344 330.594 164.429 330.473 164.538 330.327C164.649 330.177 164.808 330.045 165.014 329.929C165.222 329.81 165.504 329.751 165.859 329.751C166.318 329.751 166.723 329.866 167.073 330.096C167.424 330.325 167.697 330.651 167.894 331.072C168.09 331.494 168.188 331.991 168.188 332.564C168.188 333.141 168.09 333.642 167.894 334.066C167.697 334.487 167.425 334.814 167.077 335.046C166.729 335.276 166.328 335.39 165.873 335.39C165.523 335.39 165.242 335.332 165.031 335.216C164.821 335.098 164.659 334.964 164.545 334.815C164.431 334.664 164.344 334.538 164.282 334.439H164.183V335.277H163.373ZM164.197 332.55C164.197 332.962 164.257 333.325 164.378 333.64C164.499 333.952 164.675 334.197 164.907 334.375C165.139 334.55 165.423 334.638 165.759 334.638C166.11 334.638 166.402 334.545 166.637 334.361C166.873 334.174 167.051 333.923 167.169 333.608C167.29 333.291 167.35 332.938 167.35 332.55C167.35 332.166 167.291 331.82 167.173 331.513C167.057 331.203 166.88 330.957 166.644 330.778C166.409 330.595 166.115 330.504 165.759 330.504C165.419 330.504 165.132 330.591 164.9 330.763C164.668 330.934 164.493 331.173 164.375 331.481C164.256 331.786 164.197 332.142 164.197 332.55Z" fill="white"/>
<path d="M202.982 328.004H204.034L206.505 334.041H206.59L209.062 328.004H210.113V335.277H209.289V329.751H209.218L206.946 335.277H206.15L203.877 329.751H203.806V335.277H202.982V328.004ZM213.37 335.405C213.025 335.405 212.711 335.34 212.429 335.209C212.148 335.077 211.924 334.886 211.758 334.638C211.593 334.387 211.51 334.084 211.51 333.729C211.51 333.416 211.571 333.163 211.694 332.969C211.817 332.772 211.982 332.618 212.188 332.507C212.394 332.396 212.621 332.313 212.87 332.258C213.121 332.202 213.373 332.157 213.626 332.123C213.958 332.081 214.226 332.049 214.432 332.028C214.641 332.004 214.792 331.965 214.887 331.91C214.984 331.856 215.032 331.761 215.032 331.626V331.598C215.032 331.247 214.937 330.975 214.745 330.781C214.555 330.587 214.268 330.49 213.882 330.49C213.482 330.49 213.168 330.578 212.941 330.753C212.713 330.928 212.554 331.115 212.461 331.314L211.666 331.03C211.808 330.698 211.997 330.44 212.234 330.256C212.473 330.069 212.734 329.938 213.015 329.865C213.299 329.789 213.579 329.751 213.853 329.751C214.029 329.751 214.23 329.773 214.457 329.815C214.687 329.855 214.908 329.939 215.121 330.067C215.337 330.195 215.515 330.388 215.657 330.646C215.799 330.904 215.87 331.25 215.87 331.683V335.277H215.032V334.538H214.99C214.933 334.657 214.838 334.783 214.706 334.918C214.573 335.053 214.397 335.168 214.177 335.263C213.956 335.357 213.688 335.405 213.37 335.405ZM213.498 334.652C213.83 334.652 214.109 334.587 214.336 334.457C214.566 334.326 214.739 334.158 214.855 333.952C214.973 333.746 215.032 333.53 215.032 333.302V332.535C214.997 332.578 214.919 332.617 214.798 332.653C214.68 332.686 214.542 332.715 214.386 332.741C214.232 332.765 214.082 332.786 213.935 332.805C213.791 332.822 213.673 332.836 213.584 332.848C213.366 332.876 213.162 332.922 212.973 332.986C212.786 333.048 212.634 333.141 212.518 333.267C212.405 333.39 212.348 333.558 212.348 333.771C212.348 334.062 212.455 334.283 212.671 334.432C212.889 334.578 213.164 334.652 213.498 334.652ZM217.4 335.277V329.822H218.21V330.646H218.267C218.366 330.376 218.546 330.157 218.806 329.989C219.067 329.821 219.36 329.737 219.687 329.737C219.749 329.737 219.826 329.738 219.918 329.741C220.01 329.743 220.08 329.747 220.127 329.751V330.604C220.099 330.596 220.034 330.586 219.932 330.572C219.833 330.555 219.727 330.547 219.616 330.547C219.351 330.547 219.114 330.602 218.906 330.714C218.7 330.823 218.536 330.974 218.416 331.168C218.297 331.36 218.238 331.579 218.238 331.825V335.277H217.4Z" fill="white"/>
<path d="M254.427 335.277H253.504L256.174 328.004H257.084L259.754 335.277H258.831L256.657 329.155H256.601L254.427 335.277ZM254.768 332.436H258.49V333.217H254.768V332.436ZM260.773 337.322V329.822H261.583V330.689H261.682C261.744 330.594 261.829 330.473 261.938 330.327C262.049 330.177 262.208 330.045 262.414 329.929C262.622 329.81 262.904 329.751 263.259 329.751C263.718 329.751 264.123 329.866 264.473 330.096C264.824 330.325 265.097 330.651 265.294 331.072C265.49 331.494 265.588 331.991 265.588 332.564C265.588 333.141 265.49 333.642 265.294 334.066C265.097 334.487 264.825 334.814 264.477 335.046C264.129 335.276 263.728 335.39 263.273 335.39C262.923 335.39 262.642 335.332 262.432 335.216C262.221 335.098 262.059 334.964 261.945 334.815C261.831 334.664 261.744 334.538 261.682 334.439H261.611V337.322H260.773ZM261.597 332.55C261.597 332.962 261.657 333.325 261.778 333.64C261.899 333.952 262.075 334.197 262.307 334.375C262.539 334.55 262.823 334.638 263.16 334.638C263.51 334.638 263.802 334.545 264.037 334.361C264.273 334.174 264.451 333.923 264.569 333.608C264.69 333.291 264.75 332.938 264.75 332.55C264.75 332.166 264.691 331.82 264.573 331.513C264.457 331.203 264.28 330.957 264.044 330.778C263.809 330.595 263.515 330.504 263.16 330.504C262.819 330.504 262.532 330.591 262.3 330.763C262.068 330.934 261.893 331.173 261.775 331.481C261.656 331.786 261.597 332.142 261.597 332.55ZM266.867 335.277V329.822H267.677V330.646H267.733C267.833 330.376 268.013 330.157 268.273 329.989C268.534 329.821 268.827 329.737 269.154 329.737C269.215 329.737 269.292 329.738 269.385 329.741C269.477 329.743 269.547 329.747 269.594 329.751V330.604C269.566 330.596 269.501 330.586 269.399 330.572C269.299 330.555 269.194 330.547 269.083 330.547C268.818 330.547 268.581 330.602 268.373 330.714C268.167 330.823 268.003 330.974 267.883 331.168C267.764 331.36 267.705 331.579 267.705 331.825V335.277H266.867Z" fill="white"/>
<path d="M304.271 328.004H305.322L307.793 334.041H307.879L310.35 328.004H311.401V335.277H310.577V329.751H310.506L308.234 335.277H307.438L305.165 329.751H305.094V335.277H304.271V328.004ZM314.659 335.405C314.313 335.405 313.999 335.34 313.717 335.209C313.436 335.077 313.212 334.886 313.046 334.638C312.881 334.387 312.798 334.084 312.798 333.729C312.798 333.416 312.859 333.163 312.982 332.969C313.106 332.772 313.27 332.618 313.476 332.507C313.682 332.396 313.909 332.313 314.158 332.258C314.409 332.202 314.661 332.157 314.914 332.123C315.246 332.081 315.514 332.049 315.72 332.028C315.929 332.004 316.08 331.965 316.175 331.91C316.272 331.856 316.32 331.761 316.32 331.626V331.598C316.32 331.247 316.225 330.975 316.033 330.781C315.843 330.587 315.556 330.49 315.17 330.49C314.77 330.49 314.456 330.578 314.229 330.753C314.002 330.928 313.842 331.115 313.749 331.314L312.954 331.03C313.096 330.698 313.285 330.44 313.522 330.256C313.761 330.069 314.022 329.938 314.303 329.865C314.588 329.789 314.867 329.751 315.141 329.751C315.317 329.751 315.518 329.773 315.745 329.815C315.975 329.855 316.196 329.939 316.409 330.067C316.625 330.195 316.803 330.388 316.945 330.646C317.088 330.904 317.159 331.25 317.159 331.683V335.277H316.32V334.538H316.278C316.221 334.657 316.126 334.783 315.994 334.918C315.861 335.053 315.685 335.168 315.465 335.263C315.244 335.357 314.976 335.405 314.659 335.405ZM314.786 334.652C315.118 334.652 315.397 334.587 315.624 334.457C315.854 334.326 316.027 334.158 316.143 333.952C316.261 333.746 316.32 333.53 316.32 333.302V332.535C316.285 332.578 316.207 332.617 316.086 332.653C315.968 332.686 315.83 332.715 315.674 332.741C315.52 332.765 315.37 332.786 315.223 332.805C315.079 332.822 314.962 332.836 314.872 332.848C314.654 332.876 314.45 332.922 314.261 332.986C314.074 333.048 313.922 333.141 313.806 333.267C313.693 333.39 313.636 333.558 313.636 333.771C313.636 334.062 313.744 334.283 313.959 334.432C314.177 334.578 314.453 334.652 314.786 334.652ZM318.688 335.277V329.822H319.526V335.277H318.688ZM319.114 328.913C318.951 328.913 318.81 328.858 318.692 328.746C318.576 328.635 318.518 328.501 318.518 328.345C318.518 328.189 318.576 328.055 318.692 327.944C318.81 327.832 318.951 327.777 319.114 327.777C319.278 327.777 319.417 327.832 319.533 327.944C319.652 328.055 319.711 328.189 319.711 328.345C319.711 328.501 319.652 328.635 319.533 328.746C319.417 328.858 319.278 328.913 319.114 328.913Z" fill="white"/>
<path d="M359.203 328.004H360.084V333.203C360.084 333.667 359.999 334.061 359.828 334.386C359.658 334.71 359.417 334.956 359.107 335.124C358.797 335.292 358.431 335.376 358.01 335.376C357.612 335.376 357.258 335.304 356.948 335.16C356.638 335.013 356.394 334.805 356.217 334.535C356.039 334.265 355.95 333.944 355.95 333.572H356.817C356.817 333.778 356.868 333.958 356.969 334.112C357.074 334.264 357.216 334.382 357.396 334.467C357.575 334.552 357.78 334.595 358.01 334.595C358.263 334.595 358.479 334.542 358.656 334.435C358.834 334.329 358.969 334.172 359.061 333.966C359.156 333.758 359.203 333.504 359.203 333.203V328.004ZM365.173 333.047V329.822H366.011V335.277H365.173V334.354H365.116C364.988 334.631 364.789 334.866 364.519 335.06C364.249 335.252 363.908 335.348 363.496 335.348C363.156 335.348 362.852 335.273 362.587 335.124C362.322 334.973 362.114 334.745 361.962 334.442C361.811 334.137 361.735 333.752 361.735 333.288V329.822H362.573V333.231C362.573 333.629 362.684 333.946 362.907 334.183C363.132 334.42 363.418 334.538 363.766 334.538C363.975 334.538 364.187 334.485 364.402 334.378C364.62 334.272 364.802 334.109 364.949 333.888C365.098 333.668 365.173 333.388 365.173 333.047ZM368.384 331.996V335.277H367.546V329.822H368.355V330.675H368.426C368.554 330.398 368.748 330.175 369.009 330.007C369.269 329.837 369.605 329.751 370.017 329.751C370.387 329.751 370.71 329.827 370.987 329.979C371.264 330.128 371.479 330.355 371.633 330.66C371.787 330.963 371.864 331.347 371.864 331.811V335.277H371.026V331.868C371.026 331.439 370.914 331.105 370.692 330.866C370.469 330.625 370.164 330.504 369.776 330.504C369.508 330.504 369.269 330.562 369.058 330.678C368.85 330.794 368.686 330.963 368.565 331.186C368.444 331.408 368.384 331.678 368.384 331.996Z" fill="white"/>
<mask id="mask0_361_14613" style="mask-type:alpha" maskUnits="userSpaceOnUse" x="79" y="168" width="312" height="154">
<rect x="79.6562" y="168.018" width="310.549" height="153.58" fill="black"/>
</mask>
<g mask="url(#mask0_361_14613)">
<path d="M80.624 283.893L97.2291 260.133C101.183 254.475 107.775 251.256 114.668 251.617L129.714 252.405L148.589 254.313C154.246 254.884 159.878 253.021 164.079 249.189L185.449 229.695C190.55 225.041 198.721 226.835 201.403 233.198L214.665 264.656C217.511 271.408 223.821 276.062 231.112 276.789L243.343 278.007C251.092 278.779 258.584 274.983 262.545 268.278L269.388 256.693C273.747 249.315 282.951 246.387 290.771 249.892V249.892C300.609 254.3 311.997 248.457 314.154 237.895L317.417 221.922C319.168 213.347 326.29 206.907 334.997 206.025L351.214 204.383C354.069 204.094 356.828 203.194 359.304 201.744L390.205 183.652" stroke="#63ABFD" stroke-linecap="round" stroke-dasharray="2 4"/>
</g>
<mask id="mask1_361_14613" style="mask-type:alpha" maskUnits="userSpaceOnUse" x="79" y="168" width="312" height="154">
<rect x="79.6562" y="168.018" width="310.549" height="153.58" fill="black"/>
</mask>
<g mask="url(#mask1_361_14613)">
<path opacity="0.03" d="M86.5872 255.263L80.624 258.268V321.598H389.238V211.184L373.285 213.778C368.943 214.484 364.954 216.602 361.938 219.804L355.791 226.327C349.58 232.919 339.048 232.75 333.052 225.962L330.876 223.497C324.611 216.406 314.12 214.922 306.135 219.999C301.012 223.257 294.189 221.011 292.001 215.347L285.879 199.494C283.406 193.09 274.632 192.373 271.152 198.29C266.58 206.065 257.706 210.237 248.802 208.799L244.904 208.17C238.829 207.188 232.835 210.34 230.201 215.903L219.557 238.38C215.894 246.117 207.664 250.614 199.174 249.518L190.158 248.355C182.174 247.324 174.225 250.503 169.154 256.756C162.092 265.464 152.117 271.323 141.072 273.25L137.363 273.897C134.486 274.399 131.743 275.485 129.302 277.088C123.624 280.818 115.953 278.372 113.481 272.044L110.506 264.425C106.793 254.917 95.7022 250.669 86.5872 255.263Z" fill="#00B24F"/>
<g filter="url(#filter1_d_361_14613)">
<path d="M80.624 257.945L86.6857 254.912C95.803 250.351 106.869 254.593 110.602 264.08L113.565 271.611C116.059 277.951 123.745 280.406 129.453 276.684V276.684C131.903 275.087 134.653 274.005 137.534 273.506L141.321 272.85C152.365 270.938 162.348 265.108 169.44 256.429V256.429C174.526 250.205 182.461 247.044 190.432 248.065L199.533 249.231C208.064 250.324 216.332 245.817 220.035 238.055L230.642 215.822C233.303 210.244 239.321 207.086 245.423 208.064L249.388 208.699C258.292 210.127 267.163 205.967 271.76 198.209V198.209C275.261 192.3 284.03 193.02 286.521 199.421L292.642 215.155C294.853 220.835 301.694 223.09 306.849 219.837V219.837C314.869 214.776 325.373 216.259 331.677 223.344L333.845 225.78C339.874 232.554 350.406 232.724 356.649 226.147L362.17 220.331C362.827 219.638 363.156 219.292 363.492 218.97C366.195 216.376 369.572 214.593 373.239 213.824C373.695 213.729 374.166 213.653 375.108 213.501L390.205 211.065" stroke="url(#paint0_linear_361_14613)" stroke-linecap="round" shape-rendering="crispEdges"/>
<path d="M80.624 257.945L86.6857 254.912C95.803 250.351 106.869 254.593 110.602 264.08L113.565 271.611C116.059 277.951 123.745 280.406 129.453 276.684V276.684C131.903 275.087 134.653 274.005 137.534 273.506L141.321 272.85C152.365 270.938 162.348 265.108 169.44 256.429V256.429C174.526 250.205 182.461 247.044 190.432 248.065L199.533 249.231C208.064 250.324 216.332 245.817 220.035 238.055L230.642 215.822C233.303 210.244 239.321 207.086 245.423 208.064L249.388 208.699C258.292 210.127 267.163 205.967 271.76 198.209V198.209C275.261 192.3 284.03 193.02 286.521 199.421L292.642 215.155C294.853 220.835 301.694 223.09 306.849 219.837V219.837C314.869 214.776 325.373 216.259 331.677 223.344L333.845 225.78C339.874 232.554 350.406 232.724 356.649 226.147L362.17 220.331C362.827 219.638 363.156 219.292 363.492 218.97C366.195 216.376 369.572 214.593 373.239 213.824C373.695 213.729 374.166 213.653 375.108 213.501L390.205 211.065" stroke="#1C1C1C" stroke-linecap="round" style="mix-blend-mode:screen" shape-rendering="crispEdges"/>
</g>
</g>
<defs>
<filter id="filter0_d_361_14613" x="0" y="0" width="436" height="432" filterUnits="userSpaceOnUse" color-interpolation-filters="sRGB">
<feFlood flood-opacity="0" result="BackgroundImageFix"/>
<feColorMatrix in="SourceAlpha" type="matrix" values="0 0 0 0 0 0 0 0 0 0 0 0 0 0 0 0 0 0 127 0" result="hardAlpha"/>
<feOffset dy="2"/>
<feGaussianBlur stdDeviation="5"/>
<feComposite in2="hardAlpha" operator="out"/>
<feColorMatrix type="matrix" values="0 0 0 0 0 0 0 0 0 0 0 0 0 0 0 0 0 0 0.1 0"/>
<feBlend mode="normal" in2="BackgroundImageFix" result="effect1_dropShadow_361_14613"/>
<feBlend mode="normal" in="SourceGraphic" in2="effect1_dropShadow_361_14613" result="shape"/>
</filter>
<filter id="filter1_d_361_14613" x="78.124" y="191.671" width="314.581" height="89.264" filterUnits="userSpaceOnUse" color-interpolation-filters="sRGB">
<feFlood flood-opacity="0" result="BackgroundImageFix"/>
<feColorMatrix in="SourceAlpha" type="matrix" values="0 0 0 0 0 0 0 0 0 0 0 0 0 0 0 0 0 0 127 0" result="hardAlpha"/>
<feOffset/>
<feGaussianBlur stdDeviation="1"/>
<feComposite in2="hardAlpha" operator="out"/>
<feColorMatrix type="matrix" values="0 0 0 0 0 0 0 0 0 0.698039 0 0 0 0 0.309804 0 0 0 1 0"/>
<feBlend mode="normal" in2="BackgroundImageFix" result="effect1_dropShadow_361_14613"/>
<feBlend mode="normal" in="SourceGraphic" in2="effect1_dropShadow_361_14613" result="shape"/>
</filter>
<linearGradient id="paint0_linear_361_14613" x1="82.0833" y1="295.209" x2="390.205" y2="295.209" gradientUnits="userSpaceOnUse">
<stop stop-opacity="0.4"/>
<stop offset="1" stop-color="#34A853"/>
</linearGradient>
</defs>
</svg>
